<?xml version="1.0" encoding="utf-8"?>
<!-- Generator: Adobe Illustrator 19.2.0, SVG Export Plug-In . SVG Version: 6.00 Build 0)  -->
<svg version="1.1" id="Layer_1" xmlns="http://www.w3.org/2000/svg" xmlns:xlink="http://www.w3.org/1999/xlink" x="0px" y="0px"
	 viewBox="0 0 255.4 70" style="enable-background:new 0 0 255.4 70;" xml:space="preserve">
<style type="text/css">
	.st0{fill:#8D53FB;}
	.st1{fill:#CF453A;}
	.st2{fill:#383A3C;}
	.st3{fill:#0078C1;}
	.st4{filter:url(#Adobe_OpacityMaskFilter);}
	.st5{fill:#FFFFFF;}
	.st6{mask:url(#mask-2_1_);fill:#ED3124;}
	.st7{fill:#FEFEFE;}
	.st8{fill:#213067;}
	.st9{fill:#DE6F2E;}
	.st10{fill:#105699;}
	.st11{fill:#0D4A82;}
	.st12{fill:#DD473A;}
	.st13{fill:#0E0B0B;}
	.st14{fill:#92B32E;}
	.st15{fill:#010101;}
	.st16{fill:#C64732;}
	.st17{fill:#FDE034;}
	.st18{fill:#171D23;}
	.st19{fill:#359ADA;}
	.st20{fill:#2C75BD;}
	.st21{fill:#2E76BE;}
	.st22{fill:#DC4739;}
	.st23{fill:#DB8238;}
	.st24{fill:#748B81;}
	.st25{fill:#6891C3;}
	.st26{fill:#4A71A2;}
	.st27{fill:#003475;}
	.st28{fill:#114F85;}
	.st29{fill:#323232;}
	.st30{fill:#3D8F8C;}
	.st31{fill:#1561A5;}
	.st32{fill:#FACE33;}
	.st33{fill:#1562A6;}
	.st34{fill:#285F3B;}
	.st35{fill:#285E3B;}
	.st36{fill:#6FAE49;}
	.st37{fill:#F8FBF7;}
	.st38{fill:#214068;}
	.st39{fill:#D54939;}
	.st40{fill:#D71E28;}
	.st41{fill:#163A83;}
	.st42{fill:#163A82;}
	.st43{fill:#CF6628;}
	.st44{fill:#87ABD8;}
	.st45{fill:#2B89F9;}
	.st46{fill:#9B3C55;}
	.st47{fill:#A0A0A4;}
	.st48{fill:#A2A2A4;}
	.st49{fill:#A0A0A3;}
</style>
<g>
	<path d="M131.9,43.1c2.6-4.2,6.3-5.2,10.7-4.7c3.9,0.5,6.6,3.7,6.9,8c0.3,3.4,0.1,6.8,0.1,10.1c0,3.6,0,7.2,0,10.8
		c0,0.6-0.2,0.8-0.8,0.8c-2.2,0-4.4-0.1-6.5,0c-0.8,0-0.9-0.3-0.9-1c0-5.6,0-11.1,0-16.7c0-0.5,0-1.1-0.1-1.6
		c-0.4-3.4-2.7-4.9-6.1-3.9c-2.1,0.7-3.3,2.4-3.3,4.8c0,5.6,0,11.2,0,16.8c0,1.5,0,1.5-1.5,1.5c-2,0-3.9,0-5.9,0
		c-0.7,0-0.8-0.2-0.8-0.8c0-9.2,0-18.5,0-27.7c0-0.5,0.1-0.8,0.7-0.8c2.3,0,4.5,0,6.8,0c0.6,0,0.8,0.2,0.8,0.8
		C131.8,40.7,131.9,41.8,131.9,43.1z"/>
	<path d="M192.9,63.9c-0.7,1-1.2,1.8-1.9,2.4c-3.2,2.7-6.8,3.1-10.6,1.7c-3.7-1.4-5.1-4.6-5.2-8.3c-0.2-6.7,0-13.4-0.1-20.1
		c0-0.7,0.3-0.7,0.8-0.7c2.2,0,4.4,0,6.5,0c0.8,0,0.9,0.2,0.9,1c0,5.8,0,11.7,0,17.5c0,0.8,0,1.7,0.3,2.5c0.6,2.2,2.8,3.2,5.3,2.5
		c2.4-0.6,3.7-2.5,3.7-5.2c0-5.7,0-11.5,0-17.2c0-0.9,0.3-1.1,1.1-1.1c2.1,0.1,4.2,0,6.3,0c0.6,0,0.8,0.1,0.8,0.8
		c0,9.2,0,18.5,0,27.7c0,0.6-0.1,0.8-0.8,0.8c-2.1,0-4.3-0.1-6.4,0c-0.7,0-0.9-0.3-0.8-0.9C193,66.3,192.9,65.2,192.9,63.9z"/>
	<path d="M53.2,49.2c-1.1,0-2.1,0-3.2,0c-0.5,0-0.7-0.1-0.8-0.6c-0.7-2.5-2.1-3.9-4.1-4c-2.5-0.2-4.6,1-5.5,3.4
		c-1.4,3.7-1.4,7.5-0.1,11.2c0.8,2.5,2.8,3.6,5.5,3.4c2.2-0.2,4-1.7,4.6-4.3c0.2-0.9,0.6-1,1.3-1c1.9,0.1,3.7,0,5.6,0
		c0.6,0,0.8,0.1,0.7,0.8c-0.8,6.7-5.6,10.8-12.8,10.8c-8.2,0-13.6-5.2-14-13.4c-0.2-3.4,0-6.7,1.5-9.8c2.3-4.7,6.2-7.1,11.4-7.5
		c3.4-0.2,6.6,0.4,9.4,2.4c2.7,2,3.9,4.8,4.3,8c0.1,0.6-0.2,0.5-0.6,0.5C55.3,49.1,54.3,49.2,53.2,49.2z"/>
	<path d="M83.6,49.2c-1.1,0-2.1,0-3.2,0c-0.5,0-0.7,0-0.9-0.6c-0.6-2.5-2-3.9-4.1-4c-2.4-0.2-4.5,0.9-5.4,3.2
		c-1.5,3.9-1.5,7.9,0,11.7c0.9,2.3,3,3.3,5.6,3c2.1-0.2,3.8-1.8,4.4-4.3c0.2-0.8,0.5-1,1.2-1c1.9,0.1,3.7,0.1,5.6,0
		c0.8,0,0.8,0.2,0.8,0.9c-1,7.9-7.2,11.1-14.3,10.6c-8-0.6-12.1-6.2-12.5-13.5c-0.1-3,0-6.1,1.3-8.9c2.2-5.1,6.2-7.7,11.7-8.1
		c2.5-0.2,5,0.2,7.3,1.2c3.9,1.8,5.7,5,6.3,9.1c0.1,0.6-0.1,0.7-0.7,0.7C85.8,49.1,84.7,49.2,83.6,49.2z"/>
	<path d="M164.6,30c0,2.5,0,4.8,0,7.1c0,1.7,0,1.7,1.8,1.7c1,0,2,0,3,0c0.6,0,0.9,0.1,0.9,0.8c-0.1,1.5,0,3,0,4.5
		c0,0.6-0.2,0.7-0.8,0.7c-1.3,0-2.7,0-4,0c-0.5,0-0.8,0.1-0.8,0.7c0,4.5,0,8.9,0,13.4c0,2.1,1,3,3.1,3c0.9,0,1.7-0.1,2.6-0.4
		c0,2,0,4,0,6c0,0.4-0.3,0.4-0.6,0.5c-2.8,0.6-5.5,0.7-8.2-0.1c-3.3-1-5.1-3.6-5.1-7.6c-0.1-4.8,0-9.6,0-14.5c0-0.9-0.3-1-1.1-1
		c-2.4,0-2.4,0-2.4-2.4c0-1,0-2,0-3c0-0.5,0.1-0.8,0.7-0.7c0.6,0,1.3,0,1.9,0c0.6,0.1,0.9-0.1,0.8-0.8c-0.1-1.3,0-2.7,0-4
		c0-0.3-0.1-0.6,0.4-0.8C159.4,32.2,161.9,31.1,164.6,30z"/>
	<path class="st0" d="M162.4,15c-4.5-1.7-8.9-3.4-13.4-5.1c-0.8-0.3-1.1-0.7-1-1.5c0.1-1.9,0-3.7,0-5.6c0-0.7,0.2-0.9,0.9-0.6
		c7.8,3.2,15.7,6.4,23.6,9.5c0.5,0.2,0.7,0.5,0.7,1c0,1.6,0,3.2,0,4.8c0,0.6-0.2,0.8-0.7,1c-7.9,3.2-15.7,6.3-23.6,9.5
		c-0.6,0.3-0.9,0.2-0.8-0.6c0-2,0-4,0-6c0-0.7,0.2-1,0.9-1.2c4.3-1.6,8.5-3.1,12.8-4.7C161.9,15.4,162.2,15.4,162.4,15z"/>
	<path d="M215.3,43.8c1.7-3.2,4.3-4.9,7.8-5.2c0.8-0.1,1.1,0,1.1,1c-0.1,2.1,0,4.2,0,6.3c0,0.6-0.2,0.8-0.8,0.8
		c-1.3,0-2.6,0.2-3.9,0.6c-2.7,0.8-4.2,2.6-4.2,5.5c-0.1,4.8-0.1,9.6,0,14.5c0,1-0.3,1.2-1.2,1.1c-2.1-0.1-4.2,0-6.2,0
		c-0.6,0-0.9-0.1-0.9-0.8c0-9.3,0-18.6,0-27.9c0-0.6,0.2-0.8,0.8-0.8c2.3,0,4.5,0,6.8,0c0.5,0,0.7,0.2,0.7,0.7
		C215.3,41,215.3,42.4,215.3,43.8z"/>
	<path d="M25.7,47.2c-0.1-3.7-2.1-6.5-5.6-7.8c-4.3-1.7-8.7-1.6-13,0.1c-3.4,1.4-5.3,4-5.9,7.6c-0.1,0.4-0.2,0.8,0.5,0.8
		c2.2,0,4.4,0,6.5,0c0.5,0,0.6-0.2,0.7-0.6c0.7-2.4,2.3-3.4,5.1-3.1c2.2,0.3,3.4,1.5,3.5,4c0.1,2,0.1,2-1.9,2c-3,0-6.1,0.1-9,1.1
		c-2.6,0.9-4.7,2.3-5.8,4.9c-0.3,0.7-0.5,1.5-0.7,2.3c0,1.1,0,2.1,0,3.2c0.2,0.2,0.2,0.4,0.2,0.7c0.4,2.1,1.5,3.7,3.3,4.8
		c3.4,2.2,10.1,2.8,13.8-1.9c0.1-0.1,0.2-0.3,0.4-0.2c0,0.8,0,1.7,0,2.5c0,0.4,0.1,0.6,0.6,0.6c2.2,0,4.4,0,6.7,0
		c0.5,0,0.7-0.1,0.7-0.6C25.8,60.8,25.9,54,25.7,47.2z M17.6,58.3c0,1.8-0.7,3.2-2.4,4c-1.8,0.9-3.7,1.2-5.6,0.1
		c-1.3-0.7-1.5-2-1.4-3.3c0.1-1.3,0.7-2.3,2-2.9c1.5-0.6,3.1-0.6,4.8-0.6c0.7,0.1,1.8-0.4,2.3,0.2C17.9,56.4,17.6,57.5,17.6,58.3z"
		/>
	<path d="M253.2,59.1c-2,0-4,0-6,0c-0.4,0-0.7,0.1-0.9,0.5c-1.1,2.3-3,3.4-5.6,3.2c-2.5-0.2-4.2-1.4-5-3.8c-0.3-0.9-0.4-1.8-0.6-2.7
		c-0.1-0.7,0.1-0.8,0.7-0.8c2.9,0,5.7,0,8.6,0c2.9,0,5.8,0,8.7,0c0.7,0,0.8-0.2,0.8-0.8c-0.1-1.6,0-3.2,0-4.8c0-4.8-3-9.1-7.4-10.8
		c-2.2-0.9-4.5-1.1-6.8-1c-5.6,0.4-9.7,3.1-11.8,8.5c-1.3,3.3-1.4,6.8-1,10.3c0.6,4.8,2.8,8.5,7.3,10.6c2.9,1.3,6.1,1.6,9.2,1.1
		c4.7-0.7,8.2-3,10.1-7.4c0.2-0.5,0.3-0.9,0.4-1.4C253.9,59.2,253.7,59.1,253.2,59.1z M235,49.6c0.7-4.3,3.7-6.6,7.4-5.5
		c2.1,0.6,3.8,3.5,3.5,5.6c-0.1,0.5-0.4,0.4-0.7,0.4c-1.6,0-3.2,0-4.7,0c-1.6,0-3.2,0-4.9,0C235.3,50.1,234.9,50.2,235,49.6z"/>
	<path d="M117.8,59.1c-1.8,0.1-3.6,0.1-5.4,0c-1,0-1.6,0.1-2,1.2c-0.2,0.7-0.8,1.2-1.4,1.6c-3.2,2.3-7.6,0.9-8.9-2.8
		c-0.3-0.9-0.4-1.8-0.6-2.7c-0.1-0.7,0.1-0.9,0.8-0.9c2.9,0,5.8,0,8.7,0c2.9,0,5.8,0,8.8,0c0.4,0,0.8,0.1,0.8-0.6
		c-0.1-2.1,0.1-4.2-0.3-6.3c-0.8-4.7-3.3-8.1-7.9-9.7c-2.1-0.7-4.2-0.9-6.4-0.8c-5.2,0.4-9.2,2.8-11.3,7.7
		c-2.1,4.7-2.1,9.6-0.5,14.4c1.3,4,4.1,6.6,8.1,7.8c3.4,1,6.9,1,10.3-0.1c4-1.3,6.7-3.9,7.8-8C118.6,59.3,118.6,59.1,117.8,59.1z
		 M103.8,44.1c3.2-0.9,5.9,0.8,6.6,4c0.4,2,0.4,2-1.6,2c-1.2,0-2.3,0-3.5,0c-1.6,0-3.2,0-4.9,0c-0.3,0-0.6,0.1-0.6-0.4
		C99.6,47.5,101.7,44.7,103.8,44.1z"/>
</g>
</svg>
