<?xml version="1.0" encoding="utf-8"?>
<!-- Generator: Adobe Illustrator 19.2.0, SVG Export Plug-In . SVG Version: 6.00 Build 0)  -->
<svg version="1.1" id="Layer_1" xmlns="http://www.w3.org/2000/svg" xmlns:xlink="http://www.w3.org/1999/xlink" x="0px" y="0px"
	 viewBox="0 0 123.6 70" style="enable-background:new 0 0 123.6 70;" xml:space="preserve">
<style type="text/css">
	.st0{fill:#8D53FB;}
	.st1{fill:#CF453A;}
	.st2{fill:#383A3C;}
	.st3{fill:#0078C1;}
	.st4{filter:url(#Adobe_OpacityMaskFilter);}
	.st5{fill:#FFFFFF;}
	.st6{mask:url(#mask-2_1_);fill:#ED3124;}
	.st7{fill:#FEFEFE;}
	.st8{fill:#213067;}
	.st9{fill:#DE6F2E;}
	.st10{fill:#105699;}
	.st11{fill:#0D4A82;}
	.st12{fill:#DD473A;}
	.st13{fill:#0E0B0B;}
	.st14{fill:#92B32E;}
	.st15{fill:#010101;}
	.st16{fill:#C64732;}
	.st17{fill:#FDE034;}
	.st18{fill:#171D23;}
	.st19{fill:#359ADA;}
	.st20{fill:#2C75BD;}
	.st21{fill:#2E76BE;}
	.st22{fill:#DC4739;}
	.st23{fill:#DB8238;}
	.st24{fill:#748B81;}
	.st25{fill:#6891C3;}
	.st26{fill:#4A71A2;}
	.st27{fill:#003475;}
	.st28{fill:#114F85;}
	.st29{fill:#323232;}
	.st30{fill:#3D8F8C;}
	.st31{fill:#1561A5;}
	.st32{fill:#FACE33;}
	.st33{fill:#1562A6;}
	.st34{fill:#285F3B;}
	.st35{fill:#285E3B;}
	.st36{fill:#6FAE49;}
	.st37{fill:#F8FBF7;}
	.st38{fill:#214068;}
	.st39{fill:#D54939;}
	.st40{fill:#D71E28;}
	.st41{fill:#163A83;}
	.st42{fill:#163A82;}
	.st43{fill:#CF6628;}
	.st44{fill:#87ABD8;}
	.st45{fill:#2B89F9;}
	.st46{fill:#9B3C55;}
	.st47{fill:#A0A0A4;}
	.st48{fill:#A2A2A4;}
	.st49{fill:#A0A0A3;}
</style>
<g>
	<path class="st1" d="M30.7,14.2c-2.5,4.7-5,9.5-7.5,14.3c0.2,0,0.4,0,0.5,0c2.4,0,4.7,0,7.1,0c0.4,0,0.5,0.1,0.6,0.5
		c0.4,2.6,0.8,5.1,1.1,7.7c0,0.1,0,0.1,0,0.2c-0.2,0-0.4,0-0.6,0c-4.2,0-8.5,0-12.7,0c-0.3,0-0.5,0.1-0.7,0.4
		c-1.4,2.7-2.9,5.4-4.3,8.1c-0.1,0.3-0.3,0.4-0.6,0.4c-3.4,0-6.9,0-10.3,0c-0.4,0-0.4-0.1-0.3-0.4c1.3-2.7,2.7-5.4,4-8.1
		C7,37.3,7.1,37.1,7.2,37c-2.1,0-4.1,0-6.2,0c0.5-1,1-2,1.5-2.9c0.9-1.7,1.8-3.4,2.6-5.1c0.2-0.3,0.4-0.4,0.7-0.4c1.8,0,3.5,0,5.3,0
		c0.4,0,0.6-0.1,0.8-0.5c4.7-8.9,9.4-17.8,14.1-26.6c0.4-0.7,0.8-1,1.6-0.9c3.6,0.1,7.2,0,10.8,0c0.5,0,0.6,0.1,0.7,0.6
		c0.4,3,0.8,6,1.3,9.1c0.5,3.3,0.9,6.6,1.4,9.9c0.5,3.6,1,7.1,1.5,10.7c0.5,3.6,1,7.1,1.5,10.7c0.2,1.5,0.4,3,0.6,4.5
		c-0.2,0-0.3,0-0.5,0c-3,0-6.1,0-9.1,0c-0.4,0-0.5-0.1-0.5-0.5c-0.4-3-0.9-6.1-1.3-9.1c-0.5-3.3-0.9-6.6-1.4-9.9
		c-0.5-3.5-1-7-1.5-10.6c-0.1-0.5-0.2-1.1-0.2-1.6C30.7,14.3,30.7,14.3,30.7,14.2z"/>
	<path class="st2" d="M11.6,60.4c1.5-1.2,2.9-1.1,3.8,0.3c0.8-1,1.7-1.3,2.9-1c0.8,0.2,1.3,0.8,1.4,1.6c0.2,1.5,0,3.1,0.1,4.6
		c0,0.2-0.1,0.2-0.3,0.3C18,66.4,18,66.4,18,64.9c0-1,0.1-2.1-0.1-3.1c-0.1-0.6-0.5-0.9-1-1c-0.5,0-1,0.3-1.2,0.8
		c-0.1,0.3-0.1,0.6-0.1,0.8c0,1.1,0,2.2,0,3.3c0,0.3-0.1,0.5-0.4,0.5c-0.4-0.1-1.1,0.2-1.3-0.1c-0.2-0.3-0.1-0.8-0.1-1.3
		c0-0.9,0-1.8,0-2.8c0-0.8-0.4-1.3-1-1.3c-0.7,0-1.2,0.5-1.3,1.3c0,1.1,0,2.3,0,3.4c0,0.7,0,0.7-0.7,0.7c-1.1,0-1.1,0-1.1-1.1
		c0-1.6,0-3.3,0-4.9c0-0.4,0.1-0.6,0.5-0.5c0.2,0,0.3,0,0.5,0C11.5,59.7,11.5,59.7,11.6,60.4z"/>
	<path class="st2" d="M44.2,64.1c0.5-1.4,0.9-2.7,1.3-4c0.1-0.3,0.2-0.5,0.5-0.4c0.3,0.1,0.7,0.1,1.1,0.2c-0.4,1.1-0.8,2.2-1.3,3.2
		c-0.4,0.9-0.7,1.9-1.1,2.8c-0.1,0.3-0.2,0.4-0.5,0.4c-0.9,0-0.9,0-1.2-0.8c-0.4-1.1-0.8-2.2-1.3-3.4c-0.4,1-0.7,1.9-1.1,2.8
		c-0.1,0.2-0.2,0.5-0.3,0.7c-0.3,0.7-0.6,0.9-1.4,0.8c-0.2,0-0.2-0.2-0.2-0.3c-0.7-1.9-1.4-3.8-2.1-5.7c-0.1-0.2-0.1-0.4,0.2-0.4
		c0.2,0,0.3-0.1,0.5-0.1c0.9-0.2,0.9-0.2,1.2,0.7c0.3,1,0.6,2.1,1,3.1c0,0.1,0.1,0.2,0.2,0.3c0.5-1.3,1-2.6,1.4-3.8
		c0.2-0.5,0.5-0.4,0.9-0.4c0.3,0,0.5,0,0.6,0.4C43.2,61.4,43.7,62.7,44.2,64.1z"/>
	<path class="st2" d="M2.8,61.7c0-1.3,0-2.7,0-4c0-0.4,0.1-0.5,0.5-0.5c1.4,0,2.7,0,4.1,0c0.3,0,0.5,0.1,0.5,0.4
		c0,0.9,0,0.9-0.9,0.9c-0.6,0-1.3,0-1.9,0c-0.3,0-0.4,0-0.4,0.4c0,0.6,0,1.1,0,1.7c0,0.3,0.1,0.3,0.4,0.3c0.8,0,1.5,0,2.3,0
		c0.4,0,0.5,0.1,0.5,0.5c0,0.9,0,0.9-0.8,0.9c-0.6,0-1.3,0-1.9,0c-0.3,0-0.4,0.1-0.4,0.4c0,0.7,0,1.4,0,2.1C4.6,64.9,4.7,65,5,65
		c1,0,1.9,0,2.9,0c0.4,0,0.5,0.1,0.5,0.5c0,0.1,0,0.3,0,0.4c0,0.3-0.1,0.4-0.4,0.4c-1.6,0-3.2,0-4.8,0c-0.3,0-0.4-0.1-0.4-0.4
		C2.8,64.5,2.8,63.1,2.8,61.7z"/>
	<path class="st2" d="M88.1,65.4c-1,1-2.1,1.2-3.1,0.8c-0.9-0.4-1.2-1.3-1.2-2.2c0-1.3,0-2.6,0-3.9c0-0.3,0.1-0.4,0.4-0.4
		c0.4,0,0.7,0,1.1,0c0.3,0,0.4,0.1,0.4,0.4c0,1.2,0,2.5,0,3.7c0,0.9,0.4,1.3,1.1,1.3c0.8,0,1.3-0.4,1.4-1.2c0.2-1.2,0.1-2.5,0.1-3.7
		c0-0.4,0.1-0.5,0.5-0.5c1.3,0,1.3,0,1.3,1.3c0,1.6,0,3.2,0,4.8c0,0.4-0.1,0.5-0.5,0.5c-0.2,0-0.4,0-0.6,0
		C88.1,66.2,88.1,66.2,88.1,65.4z"/>
	<path class="st2" d="M95.5,62.6c0-0.5,0-1,0-1.4c0-0.4-0.1-0.5-0.4-0.4c-0.4,0.1-0.5-0.1-0.5-0.4c0-0.3,0-0.6,0.4-0.5
		c0.4,0.1,0.5-0.1,0.5-0.4c0-1.1,0-1.1,1.2-1.3c0.1,0,0.2,0,0.2-0.1c0.3-0.1,0.5-0.1,0.4,0.3c0,0,0,0.1,0,0.2c0,0.4-0.1,1,0.1,1.3
		c0.2,0.3,0.8,0.1,1.3,0.1c0.4,0,0.3,0.3,0.4,0.5c0,0.3,0,0.5-0.4,0.5c-0.4,0-1-0.2-1.2,0.1c-0.3,0.3-0.1,0.8-0.1,1.3
		c0,0.8-0.1,1.7,0.1,2.5c0.2,0.7,0.5,0.9,1.2,0.7c0.4-0.2,0.4,0.1,0.5,0.3c0.1,0.3,0.2,0.5-0.2,0.6c-0.7,0.2-1.4,0.4-2.1,0.2
		c-0.7-0.2-1.2-0.7-1.3-1.4C95.5,64.2,95.5,63.4,95.5,62.6z"/>
	<path class="st2" d="M91.7,61.4c0-1.4,0-2.8,0-4.2c0-0.3,0.1-0.5,0.4-0.5c0.4,0,1-0.1,1.3,0.1c0.3,0.3,0.1,0.9,0.1,1.3
		c0,2.6,0,5.1,0,7.7c0,0.3-0.1,0.5-0.4,0.5c-0.4,0-1,0.1-1.3-0.1c-0.3-0.3-0.1-0.9-0.1-1.3C91.7,63.7,91.7,62.6,91.7,61.4z"/>
	<path class="st2" d="M102.6,59.6c0.6,0,1.1,0.1,1.6,0.4c0.3,0.1,0.3,0.3,0.1,0.5c-0.2,0.2-0.1,0.7-0.5,0.4c-0.3-0.2-0.6-0.3-1-0.2
		c-0.7,0.2-0.8,0.7-0.4,1.2c0.3,0.3,0.7,0.6,1,0.8c0.4,0.3,0.8,0.7,1.1,1.2c0.4,0.8,0,1.8-0.8,2.3c-1.2,0.6-2.3,0.4-3.4-0.2
		c-0.2-0.1-0.2-0.2-0.1-0.4c0.1-0.1,0.2-0.3,0.2-0.4c0.1-0.2,0.2-0.3,0.4-0.1c0.4,0.3,0.8,0.5,1.3,0.5c0.3,0,0.6-0.1,0.7-0.4
		c0.1-0.3,0.1-0.6-0.2-0.9c-0.3-0.3-0.7-0.6-1.1-0.9c-0.4-0.3-0.8-0.6-1-1.1c-0.5-1.2,0.3-2.3,1.7-2.4
		C102.3,59.6,102.4,59.6,102.6,59.6z"/>
	<path class="st2" d="M80.4,59.6c0.6,0,1.1,0.1,1.6,0.3c0.3,0.1,0.3,0.2,0.2,0.5c-0.2,0.4-0.3,0.7-0.8,0.3c-0.1-0.1-0.3-0.1-0.4-0.1
		c-0.4,0-0.7,0.1-0.9,0.4c-0.2,0.3-0.1,0.6,0.2,0.8c0.5,0.4,0.9,0.8,1.4,1.2c0.6,0.5,0.9,1.1,0.7,1.8c-0.2,0.8-0.7,1.2-1.4,1.4
		c-0.9,0.3-1.8,0.1-2.7-0.3c-0.4-0.2-0.4-0.4-0.2-0.8c0.2-0.4,0.4-0.6,0.8-0.2c0.3,0.2,0.6,0.4,1,0.3c0.3,0,0.6-0.1,0.7-0.4
		c0.1-0.3,0.1-0.6-0.1-0.9c-0.3-0.3-0.7-0.6-1-0.8c-0.3-0.2-0.6-0.4-0.8-0.7c-0.8-1-0.5-2.2,0.7-2.7C79.7,59.6,80.1,59.6,80.4,59.6z
		"/>
	<path class="st2" d="M57,60.6c0.1,0,0.1-0.1,0.2-0.2c0.6-0.9,1.4-1.1,2.2-0.5c0.2,0.1,0.3,0.3,0.1,0.5c-0.1,0.1-0.1,0.2-0.1,0.3
		c-0.2,0.4-0.3,0.8-1,0.6c-0.7-0.2-1.2,0.2-1.4,1c-0.2,1-0.1,1.9-0.1,2.9c0,1,0,1-1.1,1c-0.1,0-0.2,0-0.4,0c-0.3,0-0.4-0.1-0.4-0.4
		c0-1.9,0-3.8,0-5.7c0-0.3,0.1-0.5,0.4-0.4c0.1,0,0.2,0,0.4,0C56.9,59.7,56.9,59.7,57,60.6z"/>
	<path class="st1" d="M110.2,11c-3.2,0-6.3,0-9.5,0c-0.3,0-0.4,0.1-0.5,0.4c-0.7,4.6-1.5,9.2-2.4,13.7c-0.2,1.1-0.4,2.2-0.6,3.4
		c-0.1-0.3-0.2-0.5-0.3-0.7c-2.4-5.5-4.8-10.9-7.2-16.4c-0.1-0.3-0.2-0.5-0.6-0.5c-3,0-6,0-9,0c-0.3,0-0.4,0.1-0.5,0.4
		c-0.6,3.5-1.2,6.9-1.9,10.4c-0.2,0.9-0.3,1.8-0.5,2.7c-0.7-2.8-1.8-5.5-3.7-7.7c-4.8-5.6-10.9-7.8-18.1-5.9
		c-5.6,1.5-9.6,5.1-12,10.4c-0.1,0.2-0.2,0.4-0.1,0.6c0.2,1.2,0.3,2.4,0.5,3.5c0.6,4.3,1.3,8.5,1.8,12.8c0.2,1.4,0.7,2.4,1.6,3.3
		c0.9,0.8,1.8,1.6,2.8,2.2c4,2.6,8.2,3.7,13,2.7c4.9-1,8.7-3.8,11.4-8c0.1-0.1,0.1-0.3,0.3-0.3c0,0.2,0,0.5-0.1,0.7
		c-0.3,2.2-0.6,4.4-1,6.6c-0.1,0.4,0,0.4,0.4,0.4c3.1,0,6.2,0,9.3,0c0.3,0,0.4-0.1,0.5-0.4c0.7-4.3,1.5-8.7,2.2-13
		c0.2-1.3,0.5-2.6,0.8-4c0.1,0.3,0.2,0.4,0.3,0.5c2.4,5.5,4.8,11,7.1,16.4c0.1,0.3,0.3,0.4,0.7,0.4c3,0,6,0,9.1,0
		c0.4,0,0.6-0.1,0.7-0.5c0.7-4.3,1.5-8.7,2.3-13c1.2-7,2.4-13.9,3.7-20.9C110.6,11.1,110.6,11,110.2,11z M67.2,29.2
		c-0.2,1.8-0.8,3.5-1.9,4.9c-1.5,1.9-3.9,3.2-6,3.2c-3.6-0.2-5.9-2-7-5.5c-1.2-3.9-0.3-7.4,2.6-10.3c2.7-2.7,7.5-2.5,10.2,0.3
		C67.1,23.9,67.5,26.4,67.2,29.2z"/>
	<path class="st2" d="M68.3,62.8c-0.3-0.4-0.2-0.6,0.2-0.9c0.9-0.6,1.3-1.8,1-2.9c-0.3-1.1-1.1-1.6-2.3-1.8c-1.1-0.1-2.2,0-3.3-0.1
		c-0.4,0-0.5,0.1-0.5,0.5c0,2.4,0,4.8,0,7.2c0,0.5-0.2,1.1,0.1,1.4c0.3,0.2,0.9,0.1,1.4,0.1c0.3,0,0.4-0.1,0.4-0.4c0-1,0-1.9,0-2.9
		c0-0.1-0.1-0.3,0.1-0.4c0.2-0.2,1.1,0,1.3,0.3c0.5,1.1,1,2.1,1.5,3.2c0.1,0.2,0.2,0.4,0.5,0.3c0.5-0.1,1-0.2,1.6-0.3
		C69.6,64.9,69,63.8,68.3,62.8z M67.6,60.7c-0.3,0.6-0.9,0.7-1.5,0.7c-0.8,0-0.8,0-0.8-0.8c0-0.3,0-0.5,0-0.8c0-0.2,0-0.4,0-0.7
		c0-0.9,0-0.9,0.9-0.9C67.6,58.4,68.2,59.5,67.6,60.7z"/>
	<path class="st2" d="M28.3,62c-0.3-1.5-1.5-2.5-3.1-2.4c-0.7,0-1.3,0.4-1.9,1c-0.1-0.8-0.1-0.8-1-0.8c-0.1,0-0.2,0-0.4,0
		c-0.4-0.1-0.5,0.1-0.5,0.5c0,2.6,0,5.3,0,7.9c0,1.4,0,1.3,1.3,1.3c0.4,0,0.4-0.2,0.4-0.5c0-1.2,0-2.3,0-3.5
		c1.6,1.3,3.3,1.2,4.4-0.4C28.4,64.1,28.6,63.1,28.3,62z M26.5,62.9c0,0.7-0.1,1.3-0.5,1.9c-0.6,0.8-1.8,0.8-2.3-0.2
		c-0.6-1.1-0.6-2.2,0-3.2c0.6-1,1.9-1,2.4,0C26.5,61.9,26.5,62.4,26.5,62.9z"/>
	<path class="st2" d="M32.8,59.6c-2,0-3.5,1.4-3.5,3.4c0,2,1.5,3.4,3.5,3.4c2,0,3.4-1.5,3.4-3.5C36.3,61,34.9,59.6,32.8,59.6z
		 M34,64.6c-0.6,1-1.8,1.1-2.4,0c-0.6-1.1-0.6-2.3,0-3.4c0.5-1,1.8-1,2.4,0c0.3,0.5,0.4,1.1,0.3,1.7C34.4,63.6,34.3,64.1,34,64.6z"
		/>
	<path class="st2" d="M76.6,63.2c0.3,0,0.4-0.1,0.4-0.4c0-0.2,0-0.3,0-0.5c-0.1-1.2-0.8-2.3-1.9-2.6c-1.4-0.4-3,0.1-3.8,1.3
		c-0.8,1.3-0.6,3.3,0.4,4.3c1.1,1.2,2.8,1.4,4.5,0.7c0.7-0.3,0.7-0.3,0.3-1c-0.2-0.3-0.3-0.3-0.5-0.1c-0.6,0.4-1.2,0.5-1.9,0.3
		c-0.9-0.2-1.3-0.8-1.4-2C74,63.2,75.3,63.2,76.6,63.2z M74,62.2c-0.3,0-0.5,0-0.8,0c-0.5,0.1-0.5-0.2-0.4-0.5
		c0.1-0.8,0.7-1.3,1.4-1.2c0.7,0,1.1,0.6,1.2,1.4c0,0.3-0.1,0.3-0.3,0.3C74.7,62.2,74.3,62.2,74,62.2z"/>
	<path class="st2" d="M51.5,59.6c-1.6-0.3-3.2,0.5-3.7,2c-0.5,1.5-0.1,3.2,1.2,4.1c1.3,1,3.3,0.8,4.5,0c0.4-0.3-0.1-0.5-0.2-0.8
		c-0.1-0.3-0.2-0.3-0.5-0.1c-0.3,0.2-0.7,0.3-1.1,0.4c-1.4,0.2-2.2-0.6-2.3-2.1c0.2,0,0.3,0,0.5,0c1.1,0,2.3,0,3.4,0
		c0.2,0,0.3,0,0.4-0.3C53.8,61.3,53.1,59.9,51.5,59.6z M51.8,62.2c-0.3,0-0.7,0-1,0c-0.3,0-0.5,0-0.8,0c-0.6,0-0.6,0-0.5-0.6
		c0.2-0.8,0.8-1.3,1.5-1.2c0.6,0.1,1.1,0.7,1.1,1.4C52.1,62.2,52.1,62.3,51.8,62.2z"/>
	<g>
		<path class="st2" d="M108.2,57.1c-1.4,0-2.5,1.1-2.5,2.5c0,1.4,1.1,2.5,2.5,2.5c1.4,0,2.5-1.1,2.5-2.5
			C110.7,58.3,109.6,57.1,108.2,57.1z M108.2,61.6c-1,0-1.8-0.9-1.8-2c0-1.1,0.8-1.9,1.8-1.9c1.1,0,1.9,0.8,1.9,1.9
			C110,60.7,109.2,61.6,108.2,61.6z"/>
		<path class="st2" d="M109.1,59.4c0.3-0.4,0.1-0.9-0.4-1.1c-0.4-0.1-0.8-0.1-1.2-0.1c-0.3,0-0.3,0.2-0.3,0.3c0,0.7,0,1.3,0,2
			c0,0.2,0.1,0.3,0.3,0.3c0.3,0,0.4-0.1,0.3-0.3c0-0.2,0-0.3,0-0.5c0-0.1,0-0.1,0.1-0.2c0.1,0,0.2,0,0.2,0.1
			c0.1,0.1,0.1,0.3,0.2,0.4c0.1,0.5,0.4,0.7,0.9,0.4c-0.1-0.2-0.1-0.3-0.2-0.4C108.9,60.1,108.7,59.8,109.1,59.4z M108.2,59.4
			c-0.3,0-0.3-0.1-0.3-0.2c0-0.3,0-0.4,0.2-0.4c0.2,0,0.4,0.1,0.4,0.3C108.5,59.3,108.4,59.4,108.2,59.4z"/>
	</g>
</g>
</svg>
