<?xml version="1.0" encoding="utf-8"?>
<!-- Generator: Adobe Illustrator 19.2.0, SVG Export Plug-In . SVG Version: 6.00 Build 0)  -->
<svg version="1.1" id="Layer_1" xmlns="http://www.w3.org/2000/svg" xmlns:xlink="http://www.w3.org/1999/xlink" x="0px" y="0px"
	 viewBox="0 0 435.9 70" style="enable-background:new 0 0 435.9 70;" xml:space="preserve">
<style type="text/css">
	.st0{fill:#8D53FB;}
	.st1{fill:#CF453A;}
	.st2{fill:#383A3C;}
	.st3{fill:#0078C1;}
	.st4{filter:url(#Adobe_OpacityMaskFilter);}
	.st5{fill:#FFFFFF;}
	.st6{mask:url(#mask-2_1_);fill:#ED3124;}
	.st7{fill:#FEFEFE;}
	.st8{fill:#213067;}
	.st9{fill:#DE6F2E;}
	.st10{fill:#105699;}
	.st11{fill:#0D4A82;}
	.st12{fill:#DD473A;}
	.st13{fill:#0E0B0B;}
	.st14{fill:#92B32E;}
	.st15{fill:#010101;}
	.st16{fill:#C64732;}
	.st17{fill:#FDE034;}
	.st18{fill:#171D23;}
	.st19{fill:#359ADA;}
	.st20{fill:#2C75BD;}
	.st21{fill:#2E76BE;}
	.st22{fill:#DC4739;}
	.st23{fill:#DB8238;}
	.st24{fill:#748B81;}
	.st25{fill:#6891C3;}
	.st26{fill:#4A71A2;}
	.st27{fill:#003475;}
	.st28{fill:#114F85;}
	.st29{fill:#323232;}
	.st30{fill:#3D8F8C;}
	.st31{fill:#1561A5;}
	.st32{fill:#FACE33;}
	.st33{fill:#1562A6;}
	.st34{fill:#285F3B;}
	.st35{fill:#285E3B;}
	.st36{fill:#6FAE49;}
	.st37{fill:#F8FBF7;}
	.st38{fill:#214068;}
	.st39{fill:#D54939;}
	.st40{fill:#D71E28;}
	.st41{fill:#163A83;}
	.st42{fill:#163A82;}
	.st43{fill:#CF6628;}
	.st44{fill:#87ABD8;}
	.st45{fill:#2B89F9;}
	.st46{fill:#9B3C55;}
	.st47{fill:#A0A0A4;}
	.st48{fill:#A2A2A4;}
	.st49{fill:#A0A0A3;}
</style>
<g>
	<path class="st8" d="M160.7,67.8c0.2-0.7,0.9-0.9,1.5-1.3c9.2-6.2,18.3-12.3,27.4-18.6c1.2-0.8,1.2-1.4,0.6-2.5
		c-5.2-8.9-10.7-17.4-16.6-25.8c0.3-0.6,0.8-0.3,1.1-0.4c9.8-0.1,19.5-0.2,29.3-0.3c1.2,0,1.7,0.3,1.9,1.5c1,4.3,4,7.6,6.2,11.2
		c0.3,0.6,0.7,0.3,1,0c5.6-4,12.1-6.7,16.8-12c0.3-0.4,0.8-0.6,1.3-0.6c5.9-0.2,11.9-0.3,17.8-0.5c0.1,0,0.2,0.1,0.4,0.2
		c-0.3,0.7-0.9,0.9-1.4,1.2c-9.5,6.5-18.9,12.9-28.5,19.3c-1.5,1-1.5,1.6-0.6,3c4.7,7.4,9.2,14.9,13.8,22.5c0.5,0.9,1.3,1.6,2.2,2.6
		c-2.1,0-3.9,0-5.8,0c-8.1,0.1-16.1,0.2-24.2,0.3c-1.1,0-1.7-0.2-2.1-1.3c-1.4-3.7-3.6-7-5.8-10.2c-0.7-1-1.1-0.7-1.9-0.2
		c-5.5,3.7-11,7.4-16.4,11.1c-0.8,0.6-1.7,0.8-2.7,0.8C170.8,67.8,165.8,67.8,160.7,67.8z"/>
	<path class="st8" d="M292.4,57.1c-0.8,3.1-1.6,5.8-2.3,8.6c-0.2,0.9-0.6,1.4-1.7,1.4c-11,0-22.1,0.1-33.1,0.3
		c-4.8,0.1-12.5-6-11.9-12.2c0.5-5.2,2.2-10,3.5-15c2.6-9.8,5.4-19.5,8.1-29.2c0.4-1.3,0.9-1.8,2.3-2c7.7-1,15.4-0.7,23-1.5
		c1.1-0.1,0.8,0.6,0.8,1.2c-0.2,2.3-1,4.4-1.6,6.5c-0.9,3.2-1,3.2,2.3,3.1c5.6,0,11.2,0,16.7-0.1c1.4,0,1.6,0.3,1.2,1.6
		c-0.6,1.8-1.1,3.7-1.5,5.6c-0.2,1.2-0.7,1.5-1.9,1.5c-6.1,0-12.3,0.2-18.4,0.2c-1.2,0-1.7,0.4-2,1.5c-2.5,8-4.7,16-6.9,24.1
		c-0.7,2.4,1.4,5.4,3.9,5.5C279.5,58.4,285.9,59.3,292.4,57.1z"/>
	<path class="st8" d="M403.8,23.7c3.1-5.2,7.8-6,12.9-6c4.6,0.1,9.2,0.8,13.8,0.4c0.8-0.1,0.9,0.2,0.7,0.9c-1.1,4.3-2.3,8.6-3.4,13
		c-4.4-2.3-9-2-13.7-1.8c-2.1,0.1-4.1,0.3-6.2,0.4c-2.4,0.1-4.2,1.3-4.8,3.7c-2.5,9.4-4.9,18.8-7.4,28.3c-0.3,1.3,0.3,2.5,0.4,3.7
		c-1.3,0.3-27.3,0.4-29.7,0.1c4.9-8.9,5.9-19,8.9-28.5c1.7-5.4,3-11,4.5-16.4c0.2-0.8,0.4-1.6,0.1-2.3c-0.4-1.3,0.2-1.4,1.2-1.4
		c6.9,0,13.7,0.1,20.6,0c1.2,0,1.5,0.4,1.4,1.5C403.2,20.7,403.1,22.1,403.8,23.7z"/>
	<path class="st8" d="M91.6,8.8c-1.5-4.3-6.6-7.7-11.2-7.7c-6.1,0-12.1,0-18.2,0c-13.3,0-26.6,0.1-39.9,0.1c-1.5,0-1.9,0.4-1.7,1.8
		c0.2,1.6,0.1,3.1-0.4,4.7c-3.3,11.3-6.3,22.7-9.7,34C7.8,50.9,6.3,60.4,1,68.5c0,0,0,0.1,0.1,0.4c0.4,0,0.7,0,1,0
		c21.4,0,42.7,0,64.1,0c1.4,0,2.9-0.1,4.3-0.4c3.9-0.8,7.5-2.4,9-6.3c1.6-4.2,3.1-8.4,4.1-12.8c1.5-6.1,0.5-11.2-4.9-14.9
		c-0.1-0.1-0.1-0.3-0.2-0.5c3.5-1,6.7-2.4,8.7-5.8c2.2-3.7,3.6-7.7,4.2-11.9C91.8,13.9,92.5,11.3,91.6,8.8z M57.5,45.1
		c-1,2.2-1.1,4.4-1.3,6.7c-0.1,1-0.2,2.1-0.7,3c-0.7,1.6-1.8,2.6-3.8,2.5c-2.5-0.1-5.1,0-7.6,0c0,0,0,0,0,0c-2.8,0-5.6,0-8.4,0
		c-0.9,0-1.1-0.2-0.9-1.1c0.9-5.4,2.9-10.5,4.2-15.8c0.2-0.8,0.7-0.9,1.3-0.9c5,0,10.1,0,15.1-0.1c1.5,0,2.1,1,2.4,2.2
		C58.1,42.8,57.9,44,57.5,45.1z M65.8,16.6c-0.8,2.8-1.5,5.6-2.5,8.3c-1,2.8-2.1,3.4-5,3.4c-5.2,0-10.4,0-15.9,0
		c1.9-5.2,3.8-10.2,5.6-15.2c0.3-0.7,0.7-0.9,1.4-0.9c4.7,0.1,9.5,0.1,14.2,0.1c1.2,0,1.7,0.7,2.1,1.7
		C66.1,14.9,66.1,15.8,65.8,16.6z"/>
	<path class="st8" d="M151.8,19.6c-6.2,0-12.4,0-18.6,0c-10.5,0-21,0-31.5,0.1c-0.6,0-1.4-0.3-1.8,0.5c-1.2,2.7-2.3,5.5-3.5,8.5
		c8.6-1.2,16.9-1,25.2-1c4.3,0,8.6,0,12.9,0c2.1,0,3.3,1,3.3,2.7c0,2.7-1.3,4.5-3.4,4.5c-10.9,0.2-21.8,0.4-32.7,0.8
		c-3.1,0.1-6.1,1.6-8.3,3.9c-3.5,3.8-4.6,8.7-5.2,13.7c-0.3,2.5-0.5,4.9,0.6,7.3c2.4,5.1,6.6,7,12,7.4c7.2,0.6,14.4,0,21.6-0.1
		c2.1,0,3.7-0.9,5-2.6c0.4-0.6,0.8-1.2,1.4-1.9c1.2,1.4,0.9,3.7,2.3,4.3c1.4,0.6,3.2,0.2,4.9,0.2c6.1,0,12.3,0,18.4,0
		c0.5,0,1.7,0.4,1.2-0.8c-1.1-2.8,0.2-5.4,0.9-7.9c2.2-8.5,4.8-17,6.8-25.6C165,26.8,159,19.6,151.8,19.6z M133.5,45.5
		c-1.1,3.9-2.2,7.8-3.4,11.7c-0.4,1.2-1.3,1.9-2.6,1.9c-3.7,0.1-7.4,0.2-11.1,0.2c-1.6,0-3-1.6-3.2-3.4c-0.2-1.6,0.4-3,0.9-4.4
		c0.5-1.4,1.2-2.8,1.5-4.3c0.4-1.9,1.7-2.5,3.4-2.6c2.3-0.1,4.6,0,6.9,0c0,0,0,0,0,0c2.2,0,4.5,0,6.7,0
		C133.4,44.5,133.7,44.6,133.5,45.5z"/>
	<path class="st8" d="M371.5,27.9c-1-4.8-5.7-9.4-10.1-9.4c-15.5-0.1-31.1-0.2-46.6-0.2c-3.6,0-9,3.5-9.9,6.5
		c-3.1,9.5-6,19.1-7.7,28.9c-1.1,6.1,4.9,13.3,11.1,13.3c16.8,0,33.6-0.1,50.4-0.2c1,0,1.6-0.2,2-1.3c1-2.8,2.3-5.6,3.6-8.9
		c-1.6,0.8-2.9,1.2-4.3,1.2c-11.2,0-22.3,0.2-33.5,0.2c-3.1,0-4.8-2.2-4-5.2c0.5-1.7,1.2-3.4,1.7-5.2c0.2-0.7,0.7-0.7,1.3-0.7
		c2,0,4-0.1,6-0.1c11.6-0.2,23.3-0.3,34.9-0.5c0.7,0,1.5,0.3,1.8-0.9c0.8-3,1.8-6,2.7-9C371.7,33.6,372.1,30.8,371.5,27.9z
		 M345.9,31.6c-0.8,5.2-0.8,5.2-5.9,5.2c-4.1,0-8.2,0-12.5,0c0.6-2.2,1.1-4.4,1.8-6.5c0.8-2.3,1.9-2.9,4.3-3c2.8,0,5.7-0.1,8.5-0.1
		C345,27.2,346.3,28.7,345.9,31.6z"/>
</g>
</svg>
