<?xml version="1.0" encoding="utf-8"?>
<!-- Generator: Adobe Illustrator 19.2.0, SVG Export Plug-In . SVG Version: 6.00 Build 0)  -->
<svg version="1.1" id="Layer_1" xmlns="http://www.w3.org/2000/svg" xmlns:xlink="http://www.w3.org/1999/xlink" x="0px" y="0px"
	 viewBox="0 0 187.4 70" style="enable-background:new 0 0 187.4 70;" xml:space="preserve">
<style type="text/css">
	.st0{fill:#8D53FB;}
	.st1{fill:#CF453A;}
	.st2{fill:#383A3C;}
	.st3{fill:#0078C1;}
	.st4{filter:url(#Adobe_OpacityMaskFilter);}
	.st5{fill:#FFFFFF;}
	.st6{mask:url(#mask-2_1_);fill:#ED3124;}
	.st7{fill:#FEFEFE;}
	.st8{fill:#213067;}
	.st9{fill:#DE6F2E;}
	.st10{fill:#105699;}
	.st11{fill:#0D4A82;}
	.st12{fill:#DD473A;}
	.st13{fill:#0E0B0B;}
	.st14{fill:#92B32E;}
	.st15{fill:#010101;}
	.st16{fill:#C64732;}
	.st17{fill:#FDE034;}
	.st18{fill:#171D23;}
	.st19{fill:#359ADA;}
	.st20{fill:#2C75BD;}
	.st21{fill:#2E76BE;}
	.st22{fill:#DC4739;}
	.st23{fill:#DB8238;}
	.st24{fill:#748B81;}
	.st25{fill:#6891C3;}
	.st26{fill:#4A71A2;}
	.st27{fill:#003475;}
	.st28{fill:#114F85;}
	.st29{fill:#323232;}
	.st30{fill:#3D8F8C;}
	.st31{fill:#1561A5;}
	.st32{fill:#FACE33;}
	.st33{fill:#1562A6;}
	.st34{fill:#285F3B;}
	.st35{fill:#285E3B;}
	.st36{fill:#6FAE49;}
	.st37{fill:#F8FBF7;}
	.st38{fill:#214068;}
	.st39{fill:#D54939;}
	.st40{fill:#D71E28;}
	.st41{fill:#163A83;}
	.st42{fill:#163A82;}
	.st43{fill:#CF6628;}
	.st44{fill:#87ABD8;}
	.st45{fill:#2B89F9;}
	.st46{fill:#9B3C55;}
	.st47{fill:#A0A0A4;}
	.st48{fill:#A2A2A4;}
	.st49{fill:#A0A0A3;}
</style>
<g>
	<path class="st9" d="M30.2,56.4c-5.9-4.2-4.9-11.2-1.5-14.5c3.8-3.7,10-3.3,13.4,0.7c3.1,3.7,3.1,10.1-2.2,13.7
		c0.2,0.2,0.4,0.1,0.5,0.1c7.3-2,12.4-6.5,15.3-13.5c0.3-0.7,0.6-1,1.4-1.1c3.9-0.5,7.7-1,11.6-1.6c0.7-0.1,0.6,0.1,0.5,0.6
		c-1.1,6.4-3.8,12.1-8.1,17c-6.4,7.1-14.4,11.1-23.9,11.7C19.8,70.5,4.3,58.4,1,41.2c-0.2-0.8-0.1-1.1,0.9-1
		c3.8,0.6,7.6,1.1,11.4,1.6c0.6,0.1,0.9,0.3,1.1,0.9c2.8,7.1,7.9,11.6,15.2,13.7c0.2,0,0.3,0.1,0.5,0.1
		C30.1,56.4,30.1,56.4,30.2,56.4z"/>
	<path class="st9" d="M36.8,0.4c6,0.3,11.3,2,16.3,5c0.6,0.3,0.6,0.5,0.2,1c-4.5,4.7-8.9,9.4-13.3,14.1c-0.2,0.2-0.4,0.6-0.7,0.4
		c-0.3-0.1-0.2-0.5-0.3-0.7c-1.2-6.3-2.4-12.7-3.6-19c-0.1-0.6,0-0.9,0.7-0.8C36.3,0.4,36.7,0.4,36.8,0.4z"/>
	<path class="st9" d="M33.2,0.4C35,0.3,35,0.3,34.7,2.1C33.6,8,32.4,14,31.3,20c-0.1,0.3,0,0.8-0.4,0.9c-0.4,0.1-0.6-0.3-0.8-0.6
		c-4.3-4.6-8.6-9.1-13-13.7c-0.6-0.6-0.7-0.9,0.2-1.5C22.2,2.3,27.5,0.7,33.2,0.4z"/>
	<path class="st9" d="M23.6,25.4c-2.8-0.7-5.5-1.4-8.1-2c-3.6-0.9-7.2-1.8-10.8-2.6c-0.8-0.2-1-0.3-0.6-1.2
		c2.7-5.3,6.5-9.7,11.4-13.2C16.1,6,16.3,6,16.7,6.8c2.4,5.9,4.8,11.8,7.2,17.7C24,24.9,24.4,25.5,23.6,25.4z"/>
	<path class="st9" d="M66.4,20.3c-0.1,0.4-0.5,0.4-0.8,0.4c-4.7,1.2-9.4,2.3-14.1,3.5c-1.5,0.4-3,0.8-4.6,1.1
		c-0.3,0.1-0.6,0.2-0.8,0c-0.2-0.2,0-0.5,0.1-0.7c2.5-6,4.9-12.1,7.3-18.1c0.2-0.4,0.3-0.7,0.8-0.3c5.2,3.5,9.1,8.1,11.9,13.7
		C66.3,20,66.4,20.2,66.4,20.3z"/>
	<path class="st9" d="M69.7,35.5c-0.1,0.8-0.2,2.2-0.3,3.6c0,0.5-0.2,0.7-0.8,0.5c-6.2-2.1-12.3-4.2-18.5-6.3
		c-0.2-0.1-0.5-0.1-0.6-0.4c0-0.3,0.3-0.4,0.5-0.6c3.1-2.2,6.2-4.4,9.4-6.6c2.1-1.5,4.3-3,6.4-4.5c0.6-0.4,0.8-0.4,1.1,0.3
		C68.8,25.8,69.6,30.2,69.7,35.5z"/>
	<path class="st9" d="M3.5,20.7c2.9,2,5.6,3.9,8.3,5.8c2.7,1.9,5.3,3.7,7.9,5.6c0.3,0.2,0.8,0.3,0.7,0.8c-0.1,0.4-0.5,0.4-0.9,0.5
		c-6,2.1-12,4.1-18,6.2c-0.7,0.2-0.9,0.1-1-0.6C0.1,32.6,0.9,26.6,3.5,20.7z"/>
	<path class="st10" d="M128.5,38.5c-1.6-2.7-4-4.3-7.1-5.4c1.1-0.5,1.8-1,2.6-1.7c4.4-4,5.3-13.9-1.3-18.9
		c-3.1-2.3-6.7-3.2-10.5-3.3c-5.9-0.1-11.8,0-17.7,0c-3.1,0-4.6,1.5-4.6,4.7c0,7.4,0,14.8,0,22.2c0,6.7,0,13.5,0,20.2
		c0,2.8,1.7,4.4,4.4,4.4c6.4,0,12.8,0,19.2,0c2.8,0,5.5-0.5,8.1-1.6C130.9,55.1,132.2,44.9,128.5,38.5z M98,17.8
		c0-0.7,0.2-0.9,0.9-0.9c2.3,0,4.6,0,7.3,0c2.2,0.1,5-0.3,7.7,0.3c3.1,0.6,4.9,2.8,5.1,5.7c0.1,3.2-1.5,5.5-4.5,6.4
		c-1,0.3-2,0.5-3,0.5c-4.2,0-8.3,0-12.5,0c-0.8,0-1-0.2-1-1C98.1,25.1,98.1,21.5,98,17.8z M114.6,52.9c-2.6,0.1-5.3,0-7.9,0
		c0,0,0,0,0,0c-2.6,0-5.2,0-7.8,0c-0.6,0-0.9-0.1-0.9-0.8c0-4.6,0-9.3,0-13.9c0-0.6,0.1-0.9,0.8-0.9c5,0,10.1,0,15.1,0.1
		c4.5,0.1,7.8,3,8.1,7.2C122.4,49,119.2,52.7,114.6,52.9z"/>
	<path class="st10" d="M180.6,31.3c-1.4-12.2-10.2-20.7-23.1-21.8c-5.1-0.4-10.2-0.1-15.4-0.2c-3.3,0-4.8,1.6-4.8,4.9
		c0,6.9,0,13.9,0,20.8c0,0.4,0,0.8,0,1.2c0,6.7,0,13.3,0,20c0,2.9,1.7,4.5,4.5,4.5c2.9,0,5.7,0,8.6,0c3.1,0,6.1,0.1,9.2-0.4
		c7.1-1.2,13-4.4,17-10.5C180.3,44.2,181.3,37.9,180.6,31.3z M170.5,44c-2.5,5.1-6.9,7.7-12.3,8.7c-4,0.7-8,0.3-12.1,0.4
		c-0.4,0-0.6-0.1-0.5-0.5c0-0.2,0-0.4,0-0.6c0-5.7,0-11.3,0-17c0-5.7,0-11.3,0-17c0-0.8,0.1-1.1,1-1c3.6,0.1,7.3-0.2,11,0.3
		c8.2,1,13.8,6.7,14.7,14.9C172.8,36.2,172.4,40.2,170.5,44z"/>
</g>
</svg>
