<?xml version="1.0" encoding="utf-8"?>
<!-- Generator: Adobe Illustrator 19.2.0, SVG Export Plug-In . SVG Version: 6.00 Build 0)  -->
<svg version="1.1" id="Layer_1" xmlns="http://www.w3.org/2000/svg" xmlns:xlink="http://www.w3.org/1999/xlink" x="0px" y="0px"
	 viewBox="0 0 504.1 70" style="enable-background:new 0 0 504.1 70;" xml:space="preserve">
<style type="text/css">
	.st0{fill:#8D53FB;}
	.st1{fill:#CF453A;}
	.st2{fill:#383A3C;}
	.st3{fill:#0078C1;}
	.st4{filter:url(#Adobe_OpacityMaskFilter);}
	.st5{fill:#FFFFFF;}
	.st6{mask:url(#mask-2_1_);fill:#ED3124;}
	.st7{fill:#FEFEFE;}
	.st8{fill:#213067;}
	.st9{fill:#DE6F2E;}
	.st10{fill:#105699;}
	.st11{fill:#0D4A82;}
	.st12{fill:#DD473A;}
	.st13{fill:#0E0B0B;}
	.st14{fill:#92B32E;}
	.st15{fill:#010101;}
	.st16{fill:#C64732;}
	.st17{fill:#FDE034;}
	.st18{fill:#171D23;}
	.st19{fill:#359ADA;}
	.st20{fill:#2C75BD;}
	.st21{fill:#2E76BE;}
	.st22{fill:#DC4739;}
	.st23{fill:#DB8238;}
	.st24{fill:#748B81;}
	.st25{fill:#6891C3;}
	.st26{fill:#4A71A2;}
	.st27{fill:#003475;}
	.st28{fill:#114F85;}
	.st29{fill:#323232;}
	.st30{fill:#3D8F8C;}
	.st31{fill:#1561A5;}
	.st32{fill:#FACE33;}
	.st33{fill:#1562A6;}
	.st34{fill:#285F3B;}
	.st35{fill:#285E3B;}
	.st36{fill:#6FAE49;}
	.st37{fill:#F8FBF7;}
	.st38{fill:#214068;}
	.st39{fill:#D54939;}
	.st40{fill:#D71E28;}
	.st41{fill:#163A83;}
	.st42{fill:#163A82;}
	.st43{fill:#CF6628;}
	.st44{fill:#87ABD8;}
	.st45{fill:#2B89F9;}
	.st46{fill:#9B3C55;}
	.st47{fill:#A0A0A4;}
	.st48{fill:#A2A2A4;}
	.st49{fill:#A0A0A3;}
</style>
<g id="Page-1_1_">
	<g id="Logo_sizing_mega-nav" transform="translate(-86.000000, -611.000000)">
		<g id="Page-1" transform="translate(86.000000, 611.000000)">
			<g id="Group-5" transform="translate(135.511192, 9.036594)">
				<path id="Fill-1" class="st3" d="M40.8,10.1c-1.9,0-3.4-1.6-3.4-3.5c0-1.9,1.5-3.5,3.4-3.5c1.9,0,3.4,1.6,3.4,3.5
					C44.2,8.5,42.7,10.1,40.8,10.1 M40.8,2.5c-2.2,0-4,1.8-4,4.1c0,2.2,1.8,4,4,4c2.2,0,4-1.8,4-4C44.8,4.3,43,2.5,40.8,2.5"/>
				<path id="Fill-3" class="st3" d="M39.9,6.4V4.7h1c0.8,0,1.2,0.2,1.2,0.8c0,0.6-0.4,0.8-1.2,0.8H39.9 M42.7,5.6
					c0-0.9-0.5-1.3-1.5-1.3h-1.8v4.6h0.6V6.8h1l1.3,2.1h0.7l-1.4-2.1C42.2,6.7,42.7,6.2,42.7,5.6"/>
			</g>
			<g id="Group-17" transform="translate(0.000000, 0.746279)">
				<path id="Fill-6" class="st3" d="M19.4,42.2c0,3.8-1.3,5.7-5.8,5.7h-2.8V37.2h3C17.9,37.2,19.4,38.6,19.4,42.2 M25.4,42.6
					c0-4.5-3.6-6.1-8.1-6.2v-0.2c3.8-0.3,6.8-1.9,6.8-5.7c0-4.2-3.5-5-7.4-5c-4.7,0-10.2,0.1-14.9,0v1.2c1-0.1,3.4,0.1,3.4,1.3v18.6
					c0,1.2-2.5,1.4-3.4,1.4v1.1c4.5-0.1,9.9,0,14.4,0C21.1,49.2,25.4,47.5,25.4,42.6 M18.5,31.3c0,3-1.3,4.6-4.7,4.6h-2.9v-9.1
					c0.4,0,1.6-0.1,2-0.1h1C17.3,26.8,18.5,28.3,18.5,31.3"/>
				<path id="Fill-8" class="st3" d="M55.7,49.2c-2.1,0-4.2,0-6.3,0V48c1,0,3.6-0.1,3.6-1.4V29.4h-0.1l-9.7,20.1h-1l-9.4-20.1h-0.1
					v17.3c0,1.3,2.8,1.4,3.8,1.4l0,1.2c-2.6-0.1-6.2-0.2-8.8,0V48c1,0,3.4-0.1,3.4-1.4V28.1c0-1.2-2.5-1.3-3.4-1.3l0-1.2
					c3,0.1,6.2,0.1,9.2,0l8,16.9l8.2-16.8c2.9,0.1,6,0.1,8.8,0v1.2c-1,0-3.5,0.1-3.5,1.3v18.5C58.6,48,61,48,62,48v1.2
					C59.9,49.1,57.8,49.2,55.7,49.2"/>
				<path id="Fill-10" class="st3" d="M90.4,37.4c0-7.8-4.8-12.2-13.3-12.2c-8.6,0-13.4,4.3-13.4,12.2c0,7.8,4.8,12.2,13.4,12.2
					C85.7,49.6,90.4,45.2,90.4,37.4 M84.2,37.4c0,4.6-0.4,11-7.1,11c-6.7,0-7.1-6.4-7.1-11c0-4.6,0.5-11,7.1-11
					C83.7,26.4,84.2,32.8,84.2,37.4"/>
				<g id="Group-14" transform="translate(81.306715, 0.000000)">
					<defs>
						<filter id="Adobe_OpacityMaskFilter" filterUnits="userSpaceOnUse" x="23.5" y="0.3" width="68.1" height="68.1">
							<feColorMatrix  type="matrix" values="1 0 0 0 0  0 1 0 0 0  0 0 1 0 0  0 0 0 1 0"/>
						</filter>
					</defs>
					<mask maskUnits="userSpaceOnUse" x="23.5" y="0.3" width="68.1" height="68.1" id="mask-2_1_">
						<g class="st4">
							<polygon id="path-1_1_" class="st5" points="23.5,0.3 91.6,0.3 91.6,68.4 23.5,68.4 							"/>
						</g>
					</mask>
					<path id="Fill-12" class="st6" d="M57.5,0.3c-18.8,0-34,15.3-34,34.1c0,18.8,15.2,34.1,34,34.1c18.8,0,34-15.3,34-34.1
						C91.6,15.5,76.3,0.3,57.5,0.3"/>
				</g>
				<path id="Fill-15" class="st7" d="M137.8,23.9l-5.9-7.7c-0.2-0.3-0.6-0.5-1-0.5c-0.4,0-0.8,0.2-1,0.5l-7,8.9V39l7-9
					c0.2-0.3,0.6-0.5,1.1-0.5c0.4,0,0.8,0.2,1.1,0.5l5.9,7.8c0.2,0.3,0.6,0.5,1,0.5c0.4,0,0.8-0.2,1-0.5l5.9-7.8
					c0.2-0.3,0.6-0.5,1.1-0.5c0.4,0,0.8,0.2,1.1,0.5l7,9V25.1l-7-8.9c-0.2-0.3-0.6-0.5-1-0.5c-0.4,0-0.8,0.2-1,0.5l-5.9,7.7
					c-0.2,0.3-0.6,0.5-1,0.5C138.4,24.4,138.1,24.2,137.8,23.9L137.8,23.9z M122.8,49.2h32.1V39h-32.1V49.2z"/>
			</g>
			<g id="Group-46" transform="translate(147.556631, 19.587904)">
				<path id="Fill-18" class="st3" d="M51.4,18.1h-3.2v11.1h2.4c4.3,0,6.5-1.7,6.5-5.7C57,19.7,55.6,18.1,51.4,18.1 M51.1,7.4
					c-1,0-2,0-3,0.1v9.3h3.1c3.4,0,4.6-1.7,4.6-4.7C55.9,9,54.8,7.4,51.1,7.4 M52.8,30.4c-4.3,0-8.6-0.1-12.9,0v-1.1
					c0.9,0,3.5-0.1,3.5-1.3V8.6c0-1.2-2.6-1.3-3.5-1.3l0-1.1c4.5,0.1,9,0,13.5,0c4.3,0,7.6,1,7.6,5.4c0,3.6-2.6,5.2-6.2,5.6v0.1
					c4.5,0.3,7.6,1.9,7.6,6.3C62.2,28.7,57.6,30.4,52.8,30.4"/>
				<path id="Fill-20" class="st3" d="M77.2,21.3c-3.6,0.3-6.5,0.5-6.5,4.6c0,1.6,0.6,3.3,2.7,3.3c3,0,3.8-2.5,3.8-4.7V21.3z
					 M79.9,30.4c-1.4,0-2.7-0.2-2.7-1.7c-1.7,1.4-3.3,2-5.6,2c-3.6,0-5.5-1.7-5.5-5c0-5.6,6.9-5.3,11.1-5.5v-2.6
					c0-1.8-0.9-2.9-3-2.9c-2.4,0-3.1,1.1-3.1,3.1c0,0.9-0.8,1.1-1.5,1.1c-1.2,0-2.1,0-2.1-1.4c0-3.2,3.7-3.9,6.5-3.9
					c4.4,0,7.6,0.6,7.6,5.2v7.8c0,2.3,0.2,2.6,2.8,2.7v1.1C82.8,30.4,81.4,30.4,79.9,30.4L79.9,30.4z"/>
				<path id="Fill-22" class="st3" d="M97.8,30.4v-1.1c0.9,0,2.7-0.1,2.7-1.3v-8.8c0-2.1-0.4-3.9-3.2-3.9c-3.2,0-4.3,2.5-4.3,5V28
					c0,1.1,1.9,1.3,2.7,1.3l0,1.1c-3.3-0.1-6.8-0.1-10.1,0v-1.1c1,0,3-0.1,3-1.3V16.3c0-1.2-2-1.3-3-1.3v-1.1c2.4,0,4.8,0,7.2-0.1
					v2.4H93c1.7-1.9,3.5-2.7,6.2-2.7c4.1,0,5.6,1.8,5.6,5.4v9c0,1.2,2,1.3,2.9,1.3v1.1C104.5,30.3,101,30.2,97.8,30.4"/>
				<path id="Fill-24" class="st3" d="M121.4,30.3v-1.1c0.3,0,1.4,0,1.2-0.4c-0.1-0.5-0.9-1.2-1.3-1.7c-1.1-1.3-2.1-2.6-3.2-3.9
					c0,0-0.5-0.7-0.5-0.7l-1.5,1.3v4.2c0,1.4,1.9,1.2,2.9,1.2v1.1c-3.3-0.1-6.9-0.1-10.2,0v-1.1c0.9,0,2.9-0.1,2.9-1.3V7.7
					c0-1.2-1.9-1.3-2.9-1.3l0-1.1c2.4,0,4.9,0.1,7.3-0.1l0,17c0,0,6-6.4,6-7c0-0.3-1.4-0.3-1.7-0.3v-1h7.4v1h-0.5
					c-0.8,0-2.5,0-3.1,0.5c-1.5,1.3-4,4.2-4,4.2l6.9,8.2c0.8,0.9,2,1.4,3.1,1.4v1.1C127.4,30.2,124.3,30.3,121.4,30.3"/>
				<path id="Fill-26" class="st3" d="M148.3,14.7c-4.4,0-4.3,4.5-4.3,7.4c0,2.9-0.2,7.6,4.3,7.6c4.4,0,4.2-4.7,4.2-7.6
					C152.5,19.1,152.7,14.7,148.3,14.7 M148.3,30.7c-5.9,0-9-3.2-9-8.5s3-8.7,9-8.7c6,0,9,3.4,9,8.7
					C157.3,27.5,154.2,30.7,148.3,30.7"/>
				<path id="Fill-28" class="st3" d="M172.9,10.1c-3.2,0-0.3-3.9-3.5-3.9c-2,0-2.1,1.8-2.1,3.1v4.6h3.9v1.2h-3.9V28
					c0,1.3,2.3,1.3,3.2,1.3l0,1.1c-3.5-0.1-7.1-0.1-10.5,0v-1.1c1,0,3,0,3-1.3V15.1h-2.9v-1.2h2.9v-2.6c0-4,2.3-6.2,6.7-6.2
					c2.4,0,5.3,0.8,5.3,3.4C175,10,174.3,10.1,172.9,10.1"/>
				<path id="Fill-30" class="st3" d="M206.5,30.4v-1.1c0.9,0,3.8,0,3.8-1.3V9.5l-10.1,21.1h-0.9l-9.9-21V28c0,1.3,2.9,1.3,3.8,1.3
					v1.1c-2.9-0.1-6-0.1-8.9,0v-1.1c0.9,0,3.5,0,3.5-1.3V8.6c0-1.2-2.6-1.3-3.5-1.3l0-1.1c2.7,0.1,5.7,0.1,8.5,0l8.7,18.1l8.8-18.1
					c2.7,0.1,5.6,0.1,8.3,0v1.1c-0.9,0-3.6,0-3.6,1.3V28c0,1.3,2.6,1.3,3.6,1.3v1.1C214.9,30.2,210.1,30.2,206.5,30.4"/>
				<path id="Fill-32" class="st3" d="M229.6,14.7c-4.4,0-4.2,4.5-4.2,7.4c0,2.9-0.2,7.6,4.2,7.6s4.3-4.7,4.3-7.6
					C233.9,19.1,234.1,14.7,229.6,14.7 M229.6,30.7c-5.9,0-9-3.2-9-8.5s3-8.7,9-8.7c6,0,9,3.4,9,8.7
					C238.6,27.5,235.5,30.7,229.6,30.7"/>
				<path id="Fill-34" class="st3" d="M253.3,30.4v-1.1c0.9,0,2.7-0.1,2.7-1.3v-8.8c0-2.1-0.4-3.9-3.2-3.9c-3.2,0-4.3,2.5-4.3,5V28
					c0,1.1,1.9,1.3,2.7,1.3l0,1.1c-3.3-0.1-6.8-0.1-10.1,0v-1.1c1,0,3-0.1,3-1.3V16.3c0-1.2-2-1.3-3-1.3v-1.1c2.4,0,4.8,0,7.2-0.1
					v2.4h0.1c1.7-1.9,3.5-2.7,6.2-2.7c4.1,0,5.6,1.8,5.6,5.4v9c0,1.2,2,1.3,2.9,1.3v1.1C260.1,30.3,256.6,30.2,253.3,30.4"/>
				<path id="Fill-36" class="st3" d="M271.9,30.7c-3.5,0-4.5-1.6-4.5-4.6v-11h-2.7v-1.2h2.7v-3.5l4.3-0.4v3.9h4v1.2h-4v11.5
					c0,1.3,0.3,2.3,2,2.3c0.7,0,1.7-0.6,2.3-1l0.8,1.1C275.3,29.9,273.7,30.7,271.9,30.7"/>
				<path id="Fill-38" class="st3" d="M292.4,18.9c-3.3,0-0.7-3.6-2.9-3.6c-2.4,0-3,4.2-3,5.8v7c0,1.3,2.2,1.3,3.2,1.3v1.1
					c-3.5-0.1-7-0.1-10.5,0v-1.1c0.9,0,3-0.1,3-1.3V16.3c0-1.2-2-1.3-3-1.3l0-1c2.4,0,4.9,0,7.3-0.1v2.6l0.1,0
					c0.9-1.6,2.4-2.9,4.5-2.9c2.2,0,3.5,1.2,3.5,3.2C294.4,18.1,294,18.9,292.4,18.9"/>
				<path id="Fill-40" class="st3" d="M308.9,19.5c0-2.3-0.5-4.8-3.5-4.8c-3.5,0-3.7,3.6-3.7,5.9h7.3V19.5z M301.6,21.8v0.8
					c0,3,0.3,6.9,4.7,6.9c3.3,0,4.8-1.6,5.4-4.5h1.5c-0.8,4.2-2.9,5.7-7.6,5.7c-6.2,0-8.7-3.5-8.7-8.8c0-5.1,3.1-8.3,8.8-8.3
					c5.6,0,8,3.1,8,7.9v0.3H301.6z"/>
				<path id="Fill-42" class="st3" d="M328.1,21.3c-3.6,0.3-6.5,0.5-6.5,4.6c0,1.6,0.6,3.3,2.7,3.3c3,0,3.8-2.5,3.8-4.7V21.3z
					 M330.9,30.4c-1.4,0-2.7-0.2-2.7-1.7c-1.7,1.4-3.3,2-5.6,2c-3.6,0-5.5-1.7-5.5-5c0-5.6,6.9-5.3,11.1-5.5v-2.6
					c0-1.8-0.9-2.9-3-2.9c-2.4,0-3.1,1.1-3.1,3.1c0,0.9-0.8,1.1-1.5,1.1c-1.2,0-2.1,0-2.1-1.4c0-3.2,3.7-3.9,6.5-3.9
					c4.4,0,7.6,0.6,7.6,5.2v7.8c0,2.3,0.2,2.6,2.8,2.7v1.1C333.8,30.4,332.3,30.4,330.9,30.4L330.9,30.4z"/>
				<path id="Fill-44" class="st3" d="M336.8,30.4v-1.1c0.9,0,3-0.1,3-1.3V7.7c0-1.2-2-1.3-3-1.3l0-1.1c2.4,0,4.9,0.1,7.3-0.1V28
					c0,1.2,2.1,1.3,3,1.3v1.1C343.7,30.2,340.2,30.2,336.8,30.4"/>
			</g>
		</g>
	</g>
</g>
</svg>
