<?xml version="1.0" encoding="utf-8"?>
<!-- Generator: Adobe Illustrator 19.2.0, SVG Export Plug-In . SVG Version: 6.00 Build 0)  -->
<svg version="1.1" id="Layer_1" xmlns="http://www.w3.org/2000/svg" xmlns:xlink="http://www.w3.org/1999/xlink" x="0px" y="0px"
	 viewBox="0 0 110.3 70" style="enable-background:new 0 0 110.3 70;" xml:space="preserve">
<style type="text/css">
	.st0{fill:#8D53FB;}
	.st1{fill:#CF453A;}
	.st2{fill:#383A3C;}
	.st3{fill:#0078C1;}
	.st4{filter:url(#Adobe_OpacityMaskFilter);}
	.st5{fill:#FFFFFF;}
	.st6{mask:url(#mask-2_1_);fill:#ED3124;}
	.st7{fill:#FEFEFE;}
	.st8{fill:#213067;}
	.st9{fill:#DE6F2E;}
	.st10{fill:#105699;}
	.st11{fill:#0D4A82;}
	.st12{fill:#DD473A;}
	.st13{fill:#0E0B0B;}
	.st14{fill:#92B32E;}
	.st15{fill:#010101;}
	.st16{fill:#C64732;}
	.st17{fill:#FDE034;}
	.st18{fill:#171D23;}
	.st19{fill:#359ADA;}
	.st20{fill:#2C75BD;}
	.st21{fill:#2E76BE;}
	.st22{fill:#DC4739;}
	.st23{fill:#DB8238;}
	.st24{fill:#748B81;}
	.st25{fill:#6891C3;}
	.st26{fill:#4A71A2;}
	.st27{fill:#003475;}
	.st28{fill:#114F85;}
	.st29{fill:#323232;}
	.st30{fill:#3D8F8C;}
	.st31{fill:#1561A5;}
	.st32{fill:#FACE33;}
	.st33{fill:#1562A6;}
	.st34{fill:#285F3B;}
	.st35{fill:#285E3B;}
	.st36{fill:#6FAE49;}
	.st37{fill:#F8FBF7;}
	.st38{fill:#214068;}
	.st39{fill:#D54939;}
	.st40{fill:#D71E28;}
	.st41{fill:#163A83;}
	.st42{fill:#163A82;}
	.st43{fill:#CF6628;}
	.st44{fill:#87ABD8;}
	.st45{fill:#2B89F9;}
	.st46{fill:#9B3C55;}
	.st47{fill:#A0A0A4;}
	.st48{fill:#A2A2A4;}
	.st49{fill:#A0A0A3;}
</style>
<g>
	<path class="st11" d="M23.9,69.4c-5,0-9-1-12.7-3.1C6,63.2,2.8,58.7,1.6,52.8c-1-4.9-0.8-9.7,1.1-14.4c2.3-5.9,6.7-9.7,12.6-11.7
		c4.4-1.5,8.9-1.8,13.5-0.6c3.7,1,6.7,3.2,9.2,6c0.6,0.6,0.5,0.6,0,1.3c-1.4,1.7-2.8,3.3-4.1,5c-0.2,0.3-0.4,0.3-0.6,0
		c-1.9-1.9-4-3.4-6.5-4.1c-6.2-1.9-14.2,1-16.3,9.1c-1.1,4-0.7,8,1.5,11.6c2.2,3.6,5.6,5.6,9.8,6c4.4,0.4,8-1.3,11.2-4.2
		c0.7-0.7,0.7-0.7,1.3,0.1c1.4,1.6,2.7,3.3,4.1,4.9c0.1,0.2,0.2,0.3,0.1,0.5c-2.4,2.8-5.3,5-8.8,6.2C27.4,69.1,25.3,69.4,23.9,69.4z
		"/>
	<path class="st11" d="M86.8,59c-0.3,1.4-0.7,2.7-1,4c-0.3,1.3-0.7,2.5-1,3.8c-0.1,0.3-0.2,0.4-0.4,0.6c-2.9,1.6-6,2.2-9.2,1.6
		c-4-0.7-6.4-3.4-7.5-7.2c-0.3-1.1-0.5-2.2-0.5-3.4c0-7.9,0-15.9,0-23.8c0-0.4-0.1-0.6-0.5-0.5c-2.1,0-4.3,0-6.4,0
		c-0.3,0-0.4-0.1-0.4-0.4c0-2.4,0-4.8,0-7.2c0-0.3,0.1-0.4,0.4-0.4c2.2,0,4.4,0,6.5,0c0.4,0,0.5-0.1,0.5-0.5c0-2.6,0-5.2,0-7.8
		c0-0.3,0.1-0.5,0.4-0.6c2.6-1.4,5.2-2.8,7.7-4.1c0.4-0.2,0.4-0.2,0.4,0.3c0,4.1,0,8.2,0,12.2c0,0.4,0.1,0.5,0.5,0.5
		c2.7,0,5.3,0,8,0c0.3,0,0.4,0.1,0.4,0.4c0,2.4,0,4.8,0,7.2c0,0.4-0.1,0.4-0.4,0.4c-2.7,0-5.3,0-8,0c-0.4,0-0.5,0.1-0.5,0.5
		c0,7.3,0,14.6,0,21.8c0,0.9,0,1.7,0.3,2.5c0.5,1.5,1.5,2.3,3.1,2.5c2,0.2,3.9-0.4,5.7-1.3C85.5,59.8,86.1,59.4,86.8,59z"/>
	<path class="st12" d="M107.6,19.2c-0.2,0-0.4,0-0.5,0c-3,0-6,0-9,0c-0.4,0-0.6-0.1-0.9-0.4c-4-4.1-8.7-7.1-14.2-8.9
		C78.9,8.6,74.6,8,70.2,8.4c-8.6,0.7-16,4.2-22.1,10.3c-0.3,0.3-0.7,0.5-1.1,0.5c-2.9,0-5.9,0-8.8,0c-0.2,0-0.3,0-0.5,0
		c0,0,0-0.1-0.1-0.1C45.7,8.2,56.3,1.8,69.8,0.8C86.2-0.5,100.5,8.4,107.6,19.2z"/>
	<path class="st11" d="M43.5,47.3c0-6.9,0-13.8,0-20.7c0-0.4,0.1-0.5,0.5-0.5c2.6,0,5.2,0,7.7,0c0.4,0,0.5,0.1,0.5,0.5
		c0,13.9,0,27.7,0,41.6c0,0.4-0.1,0.5-0.5,0.5c-2.6,0-5.2,0-7.8,0c-0.4,0-0.4-0.1-0.4-0.4C43.5,61.2,43.5,54.2,43.5,47.3z"/>
	<path class="st11" d="M102.2,47.4c0,6.9,0,13.8,0,20.7c0,0.4-0.1,0.5-0.5,0.5c-2.6,0-5.2,0-7.8,0c-0.3,0-0.5-0.1-0.5-0.4
		c0-13.9,0-27.7,0-41.6c0-0.4,0.1-0.5,0.5-0.5c2.6,0,5.2,0,7.8,0c0.4,0,0.5,0.1,0.5,0.5C102.2,33.5,102.2,40.4,102.2,47.4z"/>
</g>
</svg>
