<?xml version="1.0" encoding="utf-8"?>
<!-- Generator: Adobe Illustrator 19.2.0, SVG Export Plug-In . SVG Version: 6.00 Build 0)  -->
<svg version="1.1" id="Layer_1" xmlns="http://www.w3.org/2000/svg" xmlns:xlink="http://www.w3.org/1999/xlink" x="0px" y="0px"
	 viewBox="0 0 211 70" style="enable-background:new 0 0 211 70;" xml:space="preserve">
<style type="text/css">
	.st0{fill:#8D53FB;}
	.st1{fill:#CF453A;}
	.st2{fill:#383A3C;}
	.st3{fill:#0078C1;}
	.st4{filter:url(#Adobe_OpacityMaskFilter);}
	.st5{fill:#FFFFFF;}
	.st6{mask:url(#mask-2_1_);fill:#ED3124;}
	.st7{fill:#FEFEFE;}
	.st8{fill:#213067;}
	.st9{fill:#DE6F2E;}
	.st10{fill:#105699;}
	.st11{fill:#0D4A82;}
	.st12{fill:#DD473A;}
	.st13{fill:#0E0B0B;}
	.st14{fill:#92B32E;}
	.st15{fill:#010101;}
	.st16{fill:#C64732;}
	.st17{fill:#FDE034;}
	.st18{fill:#171D23;}
	.st19{fill:#359ADA;}
	.st20{fill:#2C75BD;}
	.st21{fill:#2E76BE;}
	.st22{fill:#DC4739;}
	.st23{fill:#DB8238;}
	.st24{fill:#748B81;}
	.st25{fill:#6891C3;}
	.st26{fill:#4A71A2;}
	.st27{fill:#003475;}
	.st28{fill:#114F85;}
	.st29{fill:#323232;}
	.st30{fill:#3D8F8C;}
	.st31{fill:#1561A5;}
	.st32{fill:#FACE33;}
	.st33{fill:#1562A6;}
	.st34{fill:#285F3B;}
	.st35{fill:#285E3B;}
	.st36{fill:#6FAE49;}
	.st37{fill:#F8FBF7;}
	.st38{fill:#214068;}
	.st39{fill:#D54939;}
	.st40{fill:#D71E28;}
	.st41{fill:#163A83;}
	.st42{fill:#163A82;}
	.st43{fill:#CF6628;}
	.st44{fill:#87ABD8;}
	.st45{fill:#2B89F9;}
	.st46{fill:#9B3C55;}
	.st47{fill:#A0A0A4;}
	.st48{fill:#A2A2A4;}
	.st49{fill:#A0A0A3;}
</style>
<g>
	<path d="M48.5,69.5c-9.7,0.1-8.5,0.5-13.6-6.6c-4.8-6.7-9.6-13.3-14.4-20C20,42.3,19.5,41.7,19,41c-2.4,3.2-4.8,6.2-7,9.4
		c-1.8,2.7-4.1,4-7.4,3.7c-1.1-0.1-2.3,0-3.4,0c-0.4-0.6,0.1-0.8,0.4-1.1c4-5.4,7.9-10.8,11.9-16.1c1-1.3,0.8-2-0.1-3.2
		C9.5,28.6,5.8,23.5,1.8,18c2.8,0.1,5.3-0.3,7.8,0.4c1.3,0.4,2.3,1.3,3.1,2.4c1.7,2.4,3.5,4.8,5.2,7.3c0.8,1.2,1.3,1.5,2.3,0.1
		c1.6-2.3,3.4-4.5,5-6.8c1.7-2.5,3.9-3.6,6.8-3.4c1.4,0.1,2.8,0,4.1,0c0.2,0.7-0.3,1-0.6,1.4c-3.6,4.9-7.2,9.8-10.9,14.7
		c-0.8,1-0.7,1.6,0,2.5c7.7,10.4,15.3,20.9,23,31.4C47.8,68.4,48,68.9,48.5,69.5z"/>
	<path d="M91.7,21.5c3.8-3.3,7.9-4.5,12.5-4.2c7.7,0.6,13,6.5,13.2,14.8c0.2,6.9,0,13.7,0.1,20.6c0,1-0.2,1.4-1.3,1.3
		c-0.8-0.1-1.5,0-2.3,0c-2.6,0-3.7-1.2-3.7-3.7c0-5,0-9.9,0-14.9c0-0.6,0-1.1,0-1.7c-0.3-3.7-1.3-7.1-5.1-8.7
		c-3.9-1.6-7.6-0.8-10.9,1.7c-1.7,1.3-2.6,2.8-2.5,5.2c0.2,6.8,0,13.6,0.1,20.4c0,1.2-0.2,1.9-1.6,1.7c-1.8-0.2-4.2,0.7-5.3-0.3
		c-1.2-1.1-0.3-3.5-0.3-5.3c0-9.5,0-19.1-0.1-28.6c0-1.6,0.5-2,1.9-1.8c1.1,0.1,2.2,0.2,3.2,0c1.9-0.3,2.5,0.5,2.2,2.3
		C91.6,20.6,91.7,20.9,91.7,21.5z"/>
	<path d="M168.9,69.5c1.6-3,3.1-5.7,4.6-8.5c2.2-4.1,4.4-8.2,6.7-12.2c0.6-1,0.5-1.8,0.1-2.8c-4.4-9.2-8.7-18.5-13.1-27.9
		c2.2-0.2,4.3-0.2,6.3,0.3c1.4,0.3,2.4,1.3,3,2.7c2.6,5.7,5.3,11.4,7.9,17.1c0.2,0.4,0.4,0.9,0.8,1.6c2.2-4.2,4.4-8.1,6.5-12
		c1.1-2.1,2.3-4.1,3.3-6.2c1.1-2.3,2.8-3.4,5.2-3.4c1.4-0.1,2.8,0,4.2,0c0.2,0.6-0.2,1-0.5,1.4c-8.2,15.1-16.4,30.2-24.4,45.5
		c-1.8,3.4-4.2,4.9-7.9,4.6C170.8,69.4,170,69.5,168.9,69.5z"/>
	<path d="M37.8,24.7c1.5-2.1,2.8-3.9,4-5.8c0.6-0.9,1.4-1,2.3-0.9c1.6,0.2,2.2-0.2,2.1-2c-0.2-2.9,0.4-5.8,1.7-8.5
		c3.4-6.6,10.3-7.9,15.8-6.7c0.7,0.2,1.1,0.5,0.8,1.3c-0.2,0.6-0.3,1.4-0.5,2c-0.2,1.1-0.2,2.4-0.9,3.1c-0.6,0.7-1.9-0.1-2.9,0
		c-3.7,0.2-6.2,2.7-6.7,6.6C53.2,18,53.2,18,57.4,18c1.2,0,2.4,0.1,3.6,0c1.6-0.2,2,0.5,1.8,1.9c-0.2,1.5,0.6,3.5-0.3,4.4
		c-0.9,1-2.9,0.3-4.4,0.3c-4.6,0-4.6,0-4.6,4.6c0,7.7,0,15.4,0,23.1c0,1.5-0.4,1.9-1.8,1.8c-1.8-0.2-4.2,0.8-5.3-0.4
		c-0.9-1.1-0.3-3.4-0.3-5.2c0-7.3-0.1-14.6,0-22c0-1.7-0.5-2-2-1.9C42.2,24.8,40.2,24.7,37.8,24.7z"/>
	<path d="M164.1,24.7c-3.1,0-5.8,0.1-8.6,0c-1.3,0-1.6,0.4-1.6,1.6c0.1,4.9,0,9.8,0,14.7c0,5,3,7.7,8,6.9c1.5-0.2,2.2,0,2.4,1.6
		c0,0.7,0.4,1.5,0.5,2.2c0.6,2.6,0.6,2.6-2,2.9c-2.1,0.2-4.2,0.3-6.3-0.1c-6.2-1.3-9.9-6.1-9.9-12.7c0-5-0.1-10.1,0-15.1
		c0.1-1.8-0.5-2.2-2.1-2c-1.4,0.1-2.8-0.1-4.2,0.1c-1.2,0.1-1.5-0.4-1.4-1.5c0.1-1.6-0.5-3.8,0.3-4.8c0.9-1.1,3.1-0.2,4.7-0.3
		c0.5,0,1-0.1,1.5,0c1,0.1,1.2-0.3,1.1-1.2c0-2.9,0-5.7,0-8.6c0-1,0.3-1.6,1.3-2c1.9-0.8,3.8-1.6,6.1-2.6c0,2.1,0,3.9,0,5.8
		c0,2.4,0.1,4.8,0,7.3c0,1.1,0.4,1.4,1.4,1.4c1.5-0.1,3.1,0,4.6,0c0.9,0,1.4,0.3,1.7,1.1C162.3,20.9,163.2,22.6,164.1,24.7z"/>
	<path d="M125.9,36.1c0-5.5,0-11.1,0-16.6c0-1.2,0.3-1.6,1.5-1.5c1.5,0.1,3.1,0.1,4.6,0c1,0,1.3,0.2,1.3,1.3c0,11.2,0,22.4,0,33.6
		c0,1-0.3,1.3-1.3,1.3c-1.5-0.1-2.9-0.1-4.4,0c-1.3,0.1-1.7-0.3-1.7-1.7C126,47,125.9,41.6,125.9,36.1z"/>
	<path d="M75.8,36.2c0,5.4-0.1,10.8,0,16.2c0,1.5-0.4,1.9-1.8,1.7c-1.4-0.1-2.8-0.1-4.2,0c-1,0-1.3-0.2-1.3-1.3
		c0-11.2,0-22.4,0-33.6c0-1,0.4-1.3,1.3-1.3c1.9,0.1,4.4-0.6,5.6,0.3c1.3,1,0.4,3.6,0.4,5.4C75.9,27.9,75.8,32,75.8,36.2z"/>
</g>
</svg>
