<?xml version="1.0" encoding="utf-8"?>
<!-- Generator: Adobe Illustrator 19.2.0, SVG Export Plug-In . SVG Version: 6.00 Build 0)  -->
<svg version="1.1" id="Layer_1" xmlns="http://www.w3.org/2000/svg" xmlns:xlink="http://www.w3.org/1999/xlink" x="0px" y="0px"
	 viewBox="0 0 373.3 70" style="enable-background:new 0 0 373.3 70;" xml:space="preserve">
<style type="text/css">
	.st0{fill:#8D53FB;}
	.st1{fill:#CF453A;}
	.st2{fill:#383A3C;}
	.st3{fill:#0078C1;}
	.st4{filter:url(#Adobe_OpacityMaskFilter);}
	.st5{fill:#FFFFFF;}
	.st6{mask:url(#mask-2_1_);fill:#ED3124;}
	.st7{fill:#FEFEFE;}
	.st8{fill:#213067;}
	.st9{fill:#DE6F2E;}
	.st10{fill:#105699;}
	.st11{fill:#0D4A82;}
	.st12{fill:#DD473A;}
	.st13{fill:#0E0B0B;}
	.st14{fill:#92B32E;}
	.st15{fill:#010101;}
	.st16{fill:#C64732;}
	.st17{fill:#FDE034;}
	.st18{fill:#171D23;}
	.st19{fill:#359ADA;}
	.st20{fill:#2C75BD;}
	.st21{fill:#2E76BE;}
	.st22{fill:#DC4739;}
	.st23{fill:#DB8238;}
	.st24{fill:#748B81;}
	.st25{fill:#6891C3;}
	.st26{fill:#4A71A2;}
	.st27{fill:#003475;}
	.st28{fill:#114F85;}
	.st29{fill:#323232;}
	.st30{fill:#3D8F8C;}
	.st31{fill:#1561A5;}
	.st32{fill:#FACE33;}
	.st33{fill:#1562A6;}
	.st34{fill:#285F3B;}
	.st35{fill:#285E3B;}
	.st36{fill:#6FAE49;}
	.st37{fill:#F8FBF7;}
	.st38{fill:#214068;}
	.st39{fill:#D54939;}
	.st40{fill:#D71E28;}
	.st41{fill:#163A83;}
	.st42{fill:#163A82;}
	.st43{fill:#CF6628;}
	.st44{fill:#87ABD8;}
	.st45{fill:#2B89F9;}
	.st46{fill:#9B3C55;}
	.st47{fill:#A0A0A4;}
	.st48{fill:#A2A2A4;}
	.st49{fill:#A0A0A3;}
</style>
<g>
	<path class="st13" d="M242.2,41.7c0,3,0,6,0,8.9c0.1,3.5,1.7,5.1,5.3,4.8c2.2-0.1,4.3-0.6,6.4-1.4c1-0.4,1.1-0.1,1.1,0.9
		c-0.1,3.5,0,7,0,10.4c0,0.7-0.1,1-0.8,1.3c-6,2.5-12.2,3.1-18.5,1.8c-5.8-1.2-9.1-5.1-10.1-11.3c-0.3-2.2-0.4-4.4-0.4-6.5
		c0-6.1,0-12.2,0-18.3c0-1-0.2-1.4-1.3-1.3c-1.2,0.1-2.4,0-3.6,0c-0.7,0-1.1-0.1-1.1-1c0-3.7,0-7.5,0-11.2c0-0.7,0.2-1,0.9-0.9
		c1.1,0,2.2-0.1,3.3,0c1.3,0.1,1.8-0.2,1.7-1.7c-0.1-3.3,0-6.6-0.1-9.8c0-0.9,0.1-1.4,1.2-1.5c4.9-0.8,9.8-1.7,14.7-2.6
		c1.1-0.2,1.3,0.2,1.3,1.2c-0.1,4.4,0,8.8,0,13.1c0,1.1,0.3,1.3,1.3,1.3c2.8-0.1,5.7,0,8.5,0c0.8,0,1,0.2,1,1c0,3.7,0,7.4,0,11
		c0,0.9-0.3,1.1-1.1,1.1c-2.9,0-5.8,0-8.7,0c-0.8,0-1.1,0.2-1.1,1.1C242.2,35.3,242.2,38.5,242.2,41.7z"/>
	<path class="st13" d="M294.1,53.8c0,4,0,8,0,11.9c0,0.6-0.3,0.8-0.8,1.1c-6,2.5-12.2,3.1-18.5,1.9c-5.7-1.1-8.7-4.9-9.9-10.4
		c-0.4-2-0.6-4-0.6-6.1c0-6.6,0-13.1,0-19.7c0-1.1-0.2-1.5-1.4-1.4c-1.2,0.1-2.4,0-3.6,0c-0.7,0-1.1-0.1-1.1-1c0-3.7,0-7.5,0-11.2
		c0-0.7,0.2-1,0.9-0.9c1.3,0.1,2.6-0.1,3.9,0c1,0.1,1.2-0.3,1.2-1.3c0-3.5,0-7.1,0-10.6c0-0.9,0.2-1.2,1.2-1.4
		c5.2-0.8,10.5-1.7,15.9-2.6c0,3.2,0,6.3,0,9.4c0,1.7,0.1,3.4,0,5.1c-0.1,1.1,0.3,1.3,1.3,1.3c2.8-0.1,5.6,0,8.3,0
		c0.9,0,1.2,0.2,1.2,1.2c-0.1,3.6-0.1,7.2,0,10.7c0,1.1-0.4,1.2-1.3,1.2c-2.8,0-5.6,0-8.3,0c-1,0-1.2,0.3-1.2,1.3c0,6,0,12,0,18
		c0,3.9,1.8,5.4,5.6,5.1C289.4,55.2,291.7,54.5,294.1,53.8z"/>
	<path class="st13" d="M116.2,34.5c0-10.8,0-21.6,0-32.4c0-1.2,0.4-1.4,1.5-1.4c4.8,0.1,9.5,0.1,14.3,0c0.9,0,1.2,0.2,1.2,1.1
		c0,21.8,0,43.6,0,65.3c0,0.9-0.3,1.2-1.2,1.2c-4.8,0-9.6-0.1-14.5,0c-1.1,0-1.3-0.3-1.3-1.3C116.2,56.1,116.2,45.3,116.2,34.5z"/>
	<path class="st13" d="M212.4,43.3c0,7.9,0,15.8,0,23.7c0,1-0.2,1.4-1.3,1.3c-4.8-0.1-9.6,0-14.5,0c-1,0-1.3-0.2-1.3-1.2
		c0-15.9,0-31.8,0-47.7c0-1,0.3-1.3,1.3-1.3c4.8,0.1,9.6,0.1,14.5,0c1,0,1.2,0.3,1.2,1.2C212.4,27.3,212.4,35.3,212.4,43.3z"/>
	<path class="st14" d="M359.3,49.9c5.4,0,9.7,4.3,9.7,9.7c0,5.4-4.3,9.7-9.7,9.7c-5.3,0-9.7-4.3-9.7-9.6
		C349.6,54.3,353.9,49.9,359.3,49.9z"/>
	<path class="st13" d="M204,12c-2.4,0-4.9,0-7.3,0c-0.9,0-1.3-0.1-1.3-1.2c0.1-3,0.1-6.1,0-9.1c0-0.8,0.2-1.1,1.1-1.1
		c5,0,9.9,0,14.9,0c0.7,0,1,0.1,1,0.9c-0.1,3.1-0.1,6.3,0,9.4c0,0.9-0.3,1-1.1,1C208.8,12,206.4,12,204,12z"/>
	<path class="st13" d="M55.9,22.4C53.6,13,47.8,6.5,38.7,3.2C34.5,1.7,30.1,1,25.7,1C18,1,10.4,1,2.7,1c-1.1,0-1.4,0.3-1.4,1.4
		c0,10.7,0,21.5,0,32.2c0,10.8,0,21.6,0,32.4c0,1.1,0.3,1.4,1.4,1.4c6.4-0.1,12.7,0,19.1,0c3.2,0,6.5-0.2,9.6-0.8
		C43,65.3,51.3,59,55,47.7C57.8,39.4,58,30.9,55.9,22.4z M37.2,44.2c-1.8,5.7-6,8.6-11.8,9.1c-1.7,0.1-3.4,0-5.1,0.2
		c-1.1,0.1-1.3-0.4-1.3-1.4c0-5.9,0-11.7,0-17.6c0-5.8,0-11.6,0-17.4c0-1.1,0.3-1.4,1.4-1.4c2.2,0.1,4.4,0,6.5,0.2
		c5.3,0.7,8.9,3.6,10.4,8.7C39.4,31,39.3,37.7,37.2,44.2z"/>
	<path class="st13" d="M187.5,34.1c-2.1-7.4-6.7-12.8-14-15.4c-4.3-1.6-8.8-1.8-13.4-1.2c-9.3,1.2-15.8,6-18.9,15
		c-1.1,3.4-1.5,6.9-1.5,11c0,1.4,0.1,3.5,0.4,5.5c1.4,8.3,5.5,14.6,13.3,18.2c4.5,2,9.2,2.2,14,1.9c9.6-0.7,17.1-6.6,19.9-15.8
		C189.2,46.9,189.3,40.5,187.5,34.1z M170.3,51.8c-1.1,3.1-2.9,4.5-5.9,4.5c-3.1,0-5.2-1.3-6.2-4.3c-1.9-5.8-1.9-11.7-0.1-17.6
		c0.9-3,3.1-4.3,6.1-4.3c3.1,0,5,1.4,6.1,4.5c1,2.8,1.1,5.6,1.2,8.5C171.5,46,171.3,48.9,170.3,51.8z"/>
	<path class="st13" d="M345.2,35.5c-1-8.8-6.5-15.3-15-17.4c-4-1-8.1-1.2-12.1-0.7c-9,1.1-15.3,5.7-18.3,14.4
		c-2.1,6.4-2.4,12.9-0.9,19.4c2,9,7.5,14.6,16.4,16.9c4.9,1.3,9.9,1.1,14.8,0.7c3.8-0.3,7.4-1.2,10.9-2.8c1-0.5,1.1-0.9,0.9-1.9
		c-0.7-2.8-1.4-5.7-2-8.6c-0.2-1.2-0.5-1.4-1.7-1c-4.4,1.8-9,2.3-13.7,2.1c-4.9-0.2-8.6-3.3-9.2-7.5c-0.1-1-0.1-1.5,1.2-1.4
		c4.6,0.1,9.2,0,13.9,0c4.7,0,9.3,0,14,0c0.6,0,1.1,0.1,1.1-0.9C345.3,43.2,345.6,39.3,345.2,35.5z M328.9,37c-2.1-0.1-4.2,0-6.3,0
		c-2,0-4.1,0-6.1,0c-0.6,0-1,0-1-0.8c0.2-4,3.1-7,7-7.1c4.1-0.1,7.1,2.6,7.4,6.8C330,36.7,329.9,37,328.9,37z"/>
	<path class="st13" d="M109.7,46.7c-0.1-3.5,0-7-0.2-10.4c-0.7-9.2-6.3-16-15-18.2c-4-1-8.1-1.2-12.1-0.7C73.4,18.5,67.1,23,64,31.7
		c-2,5.6-2.1,11.4-1.4,17.2c1.1,9.8,7.4,16.9,16.9,19.3c4.9,1.2,9.9,1.1,14.8,0.7c3.8-0.3,7.5-1.2,11-2.8c0.9-0.4,1-0.8,0.8-1.7
		c-0.7-3-1.4-6-2.1-9c-0.2-1-0.6-1.1-1.5-0.7c-4.5,1.8-9.1,2.4-13.9,2.1c-5.1-0.2-8.5-3.2-9.3-7.8c-0.2-1,0.1-1.1,1-1.1
		c4.7,0,9.3,0,14,0c4.7,0,9.3,0,14,0C109.4,47.9,109.7,47.7,109.7,46.7z M93,37c-2-0.1-4,0-6,0c-2.1,0-4.2,0-6.3,0
		c-0.9,0-1.1-0.2-1-1.1c0.5-4.1,3.2-6.8,7.1-6.9c4-0.1,6.7,2.4,7.3,6.6C94.3,36.6,94.2,37,93,37z"/>
</g>
</svg>
