<?xml version="1.0" encoding="utf-8"?>
<!-- Generator: Adobe Illustrator 19.2.0, SVG Export Plug-In . SVG Version: 6.00 Build 0)  -->
<svg version="1.1" id="Layer_1" xmlns="http://www.w3.org/2000/svg" xmlns:xlink="http://www.w3.org/1999/xlink" x="0px" y="0px"
	 viewBox="0 0 654.1 70" style="enable-background:new 0 0 654.1 70;" xml:space="preserve">
<style type="text/css">
	.st0{fill:#8D53FB;}
	.st1{fill:#CF453A;}
	.st2{fill:#383A3C;}
	.st3{fill:#0078C1;}
	.st4{filter:url(#Adobe_OpacityMaskFilter);}
	.st5{fill:#FFFFFF;}
	.st6{mask:url(#mask-2_1_);fill:#ED3124;}
	.st7{fill:#FEFEFE;}
	.st8{fill:#213067;}
	.st9{fill:#DE6F2E;}
	.st10{fill:#105699;}
	.st11{fill:#0D4A82;}
	.st12{fill:#DD473A;}
	.st13{fill:#0E0B0B;}
	.st14{fill:#92B32E;}
	.st15{fill:#010101;}
	.st16{fill:#C64732;}
	.st17{fill:#FDE034;}
	.st18{fill:#171D23;}
	.st19{fill:#359ADA;}
	.st20{fill:#2C75BD;}
	.st21{fill:#2E76BE;}
	.st22{fill:#DC4739;}
	.st23{fill:#DB8238;}
	.st24{fill:#748B81;}
	.st25{fill:#6891C3;}
	.st26{fill:#4A71A2;}
	.st27{fill:#003475;}
	.st28{fill:#114F85;}
	.st29{fill:#323232;}
	.st30{fill:#3D8F8C;}
	.st31{fill:#1561A5;}
	.st32{fill:#FACE33;}
	.st33{fill:#1562A6;}
	.st34{fill:#285F3B;}
	.st35{fill:#285E3B;}
	.st36{fill:#6FAE49;}
	.st37{fill:#F8FBF7;}
	.st38{fill:#214068;}
	.st39{fill:#D54939;}
	.st40{fill:#D71E28;}
	.st41{fill:#163A83;}
	.st42{fill:#163A82;}
	.st43{fill:#CF6628;}
	.st44{fill:#87ABD8;}
	.st45{fill:#2B89F9;}
	.st46{fill:#9B3C55;}
	.st47{fill:#A0A0A4;}
	.st48{fill:#A2A2A4;}
	.st49{fill:#A0A0A3;}
</style>
<g>
	<path d="M248.9,22.2c-0.4,0-0.7,0-1.1,0c-2.7,0.4-4.4-0.3-5.8-3.2c-3.7-7.5-15.2-7.6-20.1-0.5c-3.8,5.4-3.8,14.1-0.1,19.5
		c2.9,4.1,7,5.6,11.9,5.1c4.6-0.5,7.7-3,9.3-7.4c0.3-1,0.8-1.3,1.8-1.2c2.8,0.1,5.6,0.1,8.4,0c2-0.1,1.6,0.9,1.3,2.1
		c-2,9-8.4,15.2-17.7,16.5c-8.5,1.3-16.4-0.3-22.6-6.8C202.4,33.9,205.8,8.7,225.4,4c8.7-2.1,17-0.9,23.8,5.7
		c3,2.9,4.6,6.7,5.5,10.7c0.3,1.2,0.2,1.9-1.4,1.7C251.9,22.1,250.4,22.2,248.9,22.2z"/>
	<path d="M207.3,52.5c-3.9,0-7.7-0.1-11.5,0c-1.2,0-1.7-0.4-2.3-1.4c-2.9-4.9-5.8-9.7-8.9-14.8c-2.6,4.3-5.4,8.4-7.7,12.7
		c-1.5,2.8-3.3,3.9-6.4,3.5c-2.7-0.3-5.6-0.1-8.3-0.1c-0.1-1,0.5-1.5,0.8-2c4.5-7,8.9-13.9,13.5-20.8c0.8-1.2,0.8-2,0-3.1
		c-4.5-6.8-8.9-13.6-13.3-20.4c-0.4-0.6-0.7-1.1-1.3-2c4.4,0,8.4,0,12.4,0c1,0,1.3,0.7,1.7,1.4c2.6,4.2,5.1,8.4,7.7,12.5
		c0.4,0.6,0.7,1.1,1.2,1.9c2.7-4.4,5.4-8.6,7.7-12.9c1.2-2.3,2.7-3.1,5.3-2.9c3.1,0.2,6.1,0.1,9.2,0.1c0.2,0.9-0.4,1.3-0.7,1.8
		c-4.3,6.7-8.5,13.4-12.9,19.9c-1.2,1.8-1.1,3,0.1,4.7c4.4,6.6,8.6,13.3,12.9,19.9C206.7,51,207.3,51.5,207.3,52.5z"/>
	<path d="M394.1,22.4c4-5.1,9.3-6.7,15.2-5c4.9,1.4,8.2,5.8,8.4,11.9c0.3,7.3,0.1,14.6,0.2,21.9c0,1.2-0.5,1.4-1.5,1.3
		c-2.6,0-5.2-0.1-7.8,0c-1.5,0.1-1.7-0.5-1.7-1.8c0.1-5.5,0-10.9,0-16.4c0-0.8,0-1.7-0.1-2.5c-0.3-3.1-1.7-4.8-4.4-5.3
		c-3.3-0.6-6,0.5-7.3,3.1c-0.7,1.5-1,3-1,4.7c0,5.5-0.1,10.9,0,16.4c0,1.5-0.4,1.9-1.9,1.9c-2.4-0.1-4.8-0.1-7.2,0
		c-1.5,0.1-2-0.3-2-1.9c0.1-10.2,0-20.5,0-30.7c0-5.4,0-10.8,0-16.2c0-1.3,0.3-1.7,1.6-1.6c2.6,0.1,5.2,0.1,7.8,0
		c1.3-0.1,1.6,0.3,1.6,1.6C394.1,9.7,394.1,15.8,394.1,22.4z"/>
	<path d="M609,17.7c3.6,0,7,0.1,10.4,0c1.3,0,1.8,0.5,2.3,1.6c2.6,6.5,5.2,13,8,19.8c0.8-2.1,1.5-3.9,2.2-5.7
		c1.8-4.7,3.5-9.4,5.3-14.1c0.4-1.1,0.9-1.5,2.1-1.5c2.7,0.1,5.5,0.1,8.2,0c1,0,1.6,0,1.1,1.3c-5.4,13.5-10.7,27-16.3,40.5
		c-3.6,8.6-9.5,9.2-17.6,8.7c-0.7,0-1-0.3-1-1c0-2.5,0-4.9,0-7.4c0-0.8,0.3-1,1-0.9c0.7,0.1,1.4,0.2,2.1,0.3
		c4.7,0.3,8.2-4.5,6.3-8.9c-4.4-10.3-8.8-20.6-13.2-30.8C609.5,19,609.3,18.5,609,17.7z"/>
	<path d="M435.7,21.8c2.7-3.2,6-4.7,9.9-5c8.1-0.5,13.5,4.2,13.9,12.4c0.4,7.3,0.2,14.6,0.2,21.9c0,0.9-0.2,1.4-1.3,1.4
		c-2.8-0.1-5.6-0.1-8.4,0c-1.5,0-1.3-0.9-1.3-1.8c0-5.5,0-10.9,0-16.4c0-0.8,0-1.5-0.1-2.3c-0.2-3.4-1.8-5.2-4.8-5.6
		c-3.5-0.5-6.1,0.9-7.3,3.9c-0.5,1.3-0.6,2.6-0.6,3.9c0,5.5,0,11.1,0,16.6c0,1.3-0.3,1.7-1.6,1.6c-2.6-0.1-5.2-0.1-7.8,0
		c-1.1,0-1.6-0.2-1.6-1.5c0-10.7,0-21.3,0-32c0-1.2,0.4-1.4,1.4-1.4c2.5,0.1,5.1,0.1,7.6,0c1.5-0.1,2,0.5,1.8,1.9
		C435.6,20.3,435.7,21.1,435.7,21.8z"/>
	<path d="M80.3,28.4c0,5.4,0,10.8,0,16.2c0,1.4-0.4,1.8-1.7,1.7c-3.2-0.2-6.4,0.2-9.6-0.4c-9.1-1.8-15.2-10-14.3-19.6
		c0.8-8.7,8.4-15.7,17.3-15.9c2.2,0,4.5,0.1,6.7-0.1c1.5-0.1,1.7,0.5,1.7,1.8C80.3,17.6,80.3,23,80.3,28.4z"/>
	<path d="M372.6,31.1c-0.6,0-1.3,0-1.9,0c-2.1,0.2-3.7,0-4.9-2.3c-1.2-2.5-4.4-3.2-7.2-2.5c-3.7,1-6.2,4.7-6.1,9
		c0.1,4.5,2.7,7.8,6.6,8.6c3.2,0.6,6-0.7,7.5-3.7c0.5-1,1-1.3,2.1-1.2c2.6,0.1,5.2,0.1,7.8,0c1.4,0,1.8,0.2,1.4,1.7
		C376,48,371,52.3,362.8,53.2c-7.2,0.8-13.6-1.2-17.9-7.4c-4.3-6.2-4.5-12.8-1.2-19.5c3.5-7.1,11.8-10.8,20.3-9.3
		c7.3,1.3,12,5.3,13.9,12.5c0.3,1.2,0.2,1.7-1.1,1.6C375.4,31,374,31.1,372.6,31.1z"/>
	<path d="M1,28.3c0-5.4,0-10.8,0-16.2c0-1.3,0.2-1.7,1.6-1.6c3.3,0.2,6.6-0.3,9.9,0.4c8.8,1.8,15,10,14.2,18.7
		c-0.9,9.6-8.2,16.7-17.5,16.8c-2.2,0-4.4-0.1-6.5,0C1.3,46.4,1,46,1,44.7C1.1,39.2,1,33.8,1,28.3z"/>
	<path d="M279.1,35.3c0-2.5-0.1-4.9,0-7.4c0-1.2-0.3-1.6-1.5-1.6c-4-0.1-4-0.1-4-4.1c0-0.1,0-0.1,0-0.2c0-4.1,0-4.2,4.1-4.3
		c1.2,0,1.4-0.5,1.4-1.5c-0.1-2.5,0-4.9,0-7.4c0-1.1,0.2-1.5,1.4-1.4c2.7,0.1,5.5,0.1,8.2,0c1.1,0,1.5,0.3,1.4,1.4
		c-0.1,2.5,0,4.9-0.1,7.4c0,1.2,0.4,1.6,1.5,1.5c0.3,0,0.6,0,0.8,0c1.8,0.1,4.6-0.8,5.2,0.3c1.1,2.2,0.3,5.1,0.3,7.6
		c0,0.8-0.8,0.7-1.3,0.7c-1.7,0-3.4,0.1-5,0c-1.2-0.1-1.6,0.3-1.5,1.5c0.1,3.9,0,7.9,0.1,11.8c0.1,3.5,1.4,4.6,4.9,4.4
		c3.8-0.2,3.8-0.2,3.8,3.7c0,5.1,0,5.1-5.1,5.3c-2.3,0.1-4.5,0-6.7-0.5c-4.7-1.1-7.4-4.3-7.7-9.5C279.1,40.5,279.2,37.9,279.1,35.3
		C279.2,35.3,279.1,35.3,279.1,35.3z"/>
	<path class="st15" d="M519.5,27.1c0,7.9,0,15.7,0,23.6c0,1.3-0.2,1.9-1.7,1.8c-2.6-0.1-5.2-0.1-7.8,0c-1.2,0-1.5-0.4-1.5-1.6
		c0-15.8,0-31.6,0-47.4c0-1.2,0.3-1.6,1.5-1.5c2.6,0.1,5.2,0.1,7.8,0c1.4-0.1,1.8,0.3,1.8,1.7C519.5,11.5,519.5,19.3,519.5,27.1z"/>
	<path d="M40.7,22.6c-4.3-7.4-8.4-14.5-12.6-21.8c8.4,0,16.6,0,25.1,0C49,8.2,44.9,15.3,40.7,22.6z"/>
	<path d="M53.2,56c-8.5,0-16.7,0-25.2,0c4.2-7.2,8.3-14.4,12.6-21.8C44.9,41.5,49,48.7,53.2,56z"/>
	<path d="M265.7,53c-3.8,0-6.9-3.1-6.9-7c0-4,3.1-7,7.1-7c3.9,0,6.9,3.1,6.9,6.9C272.8,49.9,269.6,53.1,265.7,53z"/>
	<path d="M605.4,19.8c0-1.5-0.2-2.3-2-2.1c-1.5,0.2-3.1,0-4.6,0c-4.1,0-4.1,0-4.2,4.1c0,0.1-0.2,0.2-0.4,0.4c-1.3-1.9-3-3.2-5.1-4.2
		c-7-3-15.7-0.1-19.7,6.8c-2.3,4-3,8.3-2.5,12.8c0.8,6.6,4,11.7,10.4,14.1c6.1,2.2,12,1.7,17-3.7c0,2.5,0.1,4.6,0,6.7
		c-0.2,3.6-2.3,5.8-5.8,6.4c-4.4,0.7-8-0.7-9.2-4c-0.4-1-0.9-1.2-1.8-1.2c-2.5,0-5.1,0.1-7.6,0c-1.8-0.1-1.9,0.6-1.6,2.1
		c1.1,4.7,4,7.9,8.4,9.5c6.6,2.5,13.4,2.4,20-0.1c4.9-1.8,7.6-5.6,8.5-10.7c0.3-1.5,0.2-3.1,0.3-4.6
		C605.4,41.2,605.4,30.5,605.4,19.8z M586.1,43.8c-4.7,0-8.2-3.7-8.2-8.7c0-5,3.5-8.9,8.1-8.9c4.8,0,8.4,3.8,8.4,8.9
		C594.3,40.1,590.9,43.8,586.1,43.8z"/>
	<path d="M161.9,23.8c-2.3-11.7-11.4-19.4-23.4-19.7c-5.7-0.1-11.4,0-17-0.1c-1.6,0-2.1,0.3-2.1,2c0.1,7.4,0,14.7,0,22.1
		c0,7.5,0,15,0,22.5c0,0.9-0.3,1.8,1.2,1.8c6.7-0.2,13.3,0.3,20-0.3C154.7,51,164.7,37.7,161.9,23.8z M150.6,29.3
		c-0.6,7.7-6.1,13.1-13.4,13.3c-1.7,0-3.4-0.1-5,0c-1.2,0.1-1.4-0.4-1.4-1.4c0.1-4.3,0-8.7,0-13c0-4.3,0-8.6,0-12.8
		c0-1,0.2-1.5,1.4-1.4c2.4,0.2,4.9-0.2,7.3,0.3C146.5,15.6,151.2,22,150.6,29.3z"/>
	<path d="M544.1,16.8c-11.3,0-19.3,7.6-19.3,18.3c0,10.6,8,18.3,19.1,18.3c11.3,0,19.3-7.5,19.3-18.3
		C563.3,24.4,555.4,16.8,544.1,16.8z M544.1,43.8c-4.8,0-8.3-3.6-8.3-8.7c0-5,3.5-8.8,8.2-8.9c4.7,0,8.2,3.7,8.2,8.8
		C552.2,40.1,548.9,43.8,544.1,43.8z"/>
	<path d="M483.8,16.8c-11.1,0.1-19,7.7-19,18.4c0,10.7,8.1,18.3,19.4,18.2c11.1,0,19.1-7.7,19.1-18.3
		C503.3,24.3,495.2,16.7,483.8,16.8z M484,43.8c-4.8,0-8.2-3.6-8.2-8.8c0-5.1,3.5-8.9,8.2-8.8c4.7,0,8.2,3.8,8.2,8.8
		C492.3,40.1,488.7,43.8,484,43.8z"/>
	<path d="M329.9,19.1c-11.8-6.7-25.8,0-27.8,13.4c-1.4,9,3.5,17.4,11.7,20c3.8,1.2,7.6,1.3,11.4,0.5c5.4-1.2,9.4-4.2,11.5-9.5
		c0.5-1.1,0.3-1.6-1.1-1.6c-2.3,0.1-4.6,0.1-6.9,0c-1.2,0-2,0.2-2.9,1.2c-2.2,2.6-5.2,2.8-8.3,2c-2.9-0.8-4.3-2.9-4.9-5.8
		c-0.3-1.2,0.2-1.4,1.2-1.4c3.7,0,7.4,0,11.2,0c3.7,0,7.4,0,11.2,0c0.9,0,1.5,0,1.7-1.2C339.2,29.9,335.9,22.5,329.9,19.1z
		 M326,31.2c-2-0.1-4.1,0-6.1,0c-2,0-3.9-0.1-5.9,0c-1.1,0-1.3-0.4-1.1-1.4c0.6-3.1,3.6-5.3,7.2-5.3c3.6,0,6.4,2.2,7.1,5.4
		C327.4,31.1,326.9,31.3,326,31.2z"/>
</g>
</svg>
