<?xml version="1.0" encoding="utf-8"?>
<!-- Generator: Adobe Illustrator 19.2.0, SVG Export Plug-In . SVG Version: 6.00 Build 0)  -->
<svg version="1.1" id="Layer_1" xmlns="http://www.w3.org/2000/svg" xmlns:xlink="http://www.w3.org/1999/xlink" x="0px" y="0px"
	 viewBox="0 0 175.2 70" style="enable-background:new 0 0 175.2 70;" xml:space="preserve">
<style type="text/css">
	.st0{fill:#8D53FB;}
	.st1{fill:#CF453A;}
	.st2{fill:#383A3C;}
	.st3{fill:#0078C1;}
	.st4{filter:url(#Adobe_OpacityMaskFilter);}
	.st5{fill:#FFFFFF;}
	.st6{mask:url(#mask-2_1_);fill:#ED3124;}
	.st7{fill:#FEFEFE;}
	.st8{fill:#213067;}
	.st9{fill:#DE6F2E;}
	.st10{fill:#105699;}
	.st11{fill:#0D4A82;}
	.st12{fill:#DD473A;}
	.st13{fill:#0E0B0B;}
	.st14{fill:#92B32E;}
	.st15{fill:#010101;}
	.st16{fill:#C64732;}
	.st17{fill:#FDE034;}
	.st18{fill:#171D23;}
	.st19{fill:#359ADA;}
	.st20{fill:#2C75BD;}
	.st21{fill:#2E76BE;}
	.st22{fill:#DC4739;}
	.st23{fill:#DB8238;}
	.st24{fill:#748B81;}
	.st25{fill:#6891C3;}
	.st26{fill:#4A71A2;}
	.st27{fill:#003475;}
	.st28{fill:#114F85;}
	.st29{fill:#323232;}
	.st30{fill:#3D8F8C;}
	.st31{fill:#1561A5;}
	.st32{fill:#FACE33;}
	.st33{fill:#1562A6;}
	.st34{fill:#285F3B;}
	.st35{fill:#285E3B;}
	.st36{fill:#6FAE49;}
	.st37{fill:#F8FBF7;}
	.st38{fill:#214068;}
	.st39{fill:#D54939;}
	.st40{fill:#D71E28;}
	.st41{fill:#163A83;}
	.st42{fill:#163A82;}
	.st43{fill:#CF6628;}
	.st44{fill:#87ABD8;}
	.st45{fill:#2B89F9;}
	.st46{fill:#9B3C55;}
	.st47{fill:#A0A0A4;}
	.st48{fill:#A2A2A4;}
	.st49{fill:#A0A0A3;}
</style>
<g>
	<path class="st19" d="M9.7,47.3c0-5.6,0-11.1,0-16.7c0-0.7-0.2-0.8-0.8-0.8c-1.2,0-2.3,0.1-3.5,0c-2.6-0.3-4.3-2.4-4.1-5.2
		c0.1-2.3,2.2-4.2,4.7-4.3c1,0,2.1,0,3.1,0c0.5,0,0.6-0.1,0.6-0.6c0-2-0.1-3.9,0.1-5.9c0.4-3.3,1.2-6.3,3.4-8.9
		c2.1-2.4,4.9-3.7,8.1-4.1c2.9-0.4,5.8-0.3,8.6,0.2c2.3,0.5,3.8,2.7,3.5,5.2c-0.2,2.2-2.2,4.1-4.5,4.1c-1.2,0-2.4-0.2-3.6,0.1
		c-2.5,0.5-4,2.1-4.5,4.8c-0.3,1.6-0.2,3.3-0.2,4.9c0,0.5,0.4,0.4,0.6,0.4c2.5,0,5,0,7.6,0c2.3,0,4.2,1.7,4.5,3.8
		c0.4,2.5-1,4.6-3.2,5.3c-0.5,0.2-1.1,0.2-1.6,0.2c-2.3,0-4.6,0-6.9,0c-0.7,0-0.8,0.2-0.8,0.8c0,11,0,21.9,0,32.9
		c0,2.4-1,4.4-3.2,5.4c-3.6,1.7-7.8-1-7.9-5C9.7,58.4,9.7,52.9,9.7,47.3z"/>
	<path class="st19" d="M39.7,35.4c0-9.4,0-18.9,0-28.3c0-2.4,1-4.3,3.2-5.4c3.3-1.6,7.4,0.6,7.8,4.3c0.1,0.5,0.1,0.9,0.1,1.4
		c0,18.6,0,37.3,0,55.9c0,2.3-0.8,4.2-2.9,5.5c-3.5,2.1-8.1-0.5-8.2-4.5c-0.1-2.1,0-4.3,0-6.4C39.7,50.4,39.7,42.9,39.7,35.4z"/>
	<path class="st19" d="M157.9,24.5c0,1.7-0.6,3-1.8,4.2c-2.5,2.6-5.1,5.2-7.6,7.8c-9.8,10-19.7,20.1-29.5,30.1
		c-0.4,0.4-0.8,0.8-1.2,1.2c-2.2,2.1-5.5,2.3-7.6,0.4c-2.3-2.1-2.7-5.5-0.8-8c0.2-0.3,0.4-0.5,0.7-0.7c8-8.2,16.1-16.4,24.1-24.6
		c4.7-4.8,9.4-9.6,14.1-14.4c1.6-1.7,3.6-2.1,5.8-1.4C156.4,19.7,157.9,21.9,157.9,24.5z"/>
	<path class="st19" d="M127.5,33.6c0,1.8-0.8,3.6-2.2,5c-1.6,1.6-3.2,3.3-4.8,4.9c-0.2,0.2-0.4,0.6-0.8,0.3
		c-0.4-0.2-0.3-0.6-0.2-0.9c0.4-2.7-0.4-4.9-2.2-6.8c-2.5-2.6-5.1-5.2-7.6-7.8c-3-3.2-1.4-8.5,2.9-9.5c1.9-0.5,3.7,0,5.1,1.3
		c2.7,2.7,5.4,5.4,8,8.2C126.9,29.7,127.5,31.5,127.5,33.6z"/>
	<path class="st19" d="M152.5,69.5c-1.7,0-3-0.5-4.1-1.5c-2.7-2.7-5.4-5.4-8-8.2c-2.6-2.8-2.5-7.3,0.2-10.2c1.6-1.7,3.3-3.4,5-5.1
		c0.2-0.2,0.4-0.4,0.7-0.3c0.4,0.2,0.3,0.5,0.3,0.8c-0.5,3,0.6,5.4,2.7,7.5c2.4,2.4,4.7,4.8,7,7.2c2.7,2.9,1.8,7.5-1.7,9.2
		C153.8,69.4,153,69.6,152.5,69.5z"/>
	<path class="st19" d="M103.9,32.3c-4-10.1-13-15.7-23.7-14c-10,1.5-16.4,7.6-19.7,17c-1.7,4.9-1.7,10-0.5,15.1
		c1.2,5.6,4,10.2,8.4,13.8c5.5,4.4,11.8,5.8,18.7,5.2c4.8-0.5,9.1-2.1,12.8-5.1c2.1-1.7,2.5-4.5,1-6.6c-1.5-2-4.2-2.4-6.4-0.8
		c-2.4,1.8-5.1,3-8.2,3.3c-3.2,0.3-6.4,0-9.2-1.7c-3.7-2.2-5.7-5.5-6.6-9.6c-0.2-1-0.1-1.1,0.9-1.1c5.2,0,10.5,0,15.7,0
		c5.2,0,10.5,0,15.7,0c1.9,0,3.2-1.3,3.2-3.2C106.1,40.3,105.4,36.2,103.9,32.3z M94.1,40.2c-3.8,0-7.6,0-11.5,0
		c-3.8,0-7.6,0-11.3,0c-1,0-1.1-0.1-0.9-1.1c0.6-3,1.7-5.8,3.8-8.1c4.9-5.6,14.9-5.2,18.9,2.5c1,1.9,1.6,3.8,1.9,5.9
		C95.1,40.1,94.9,40.2,94.1,40.2z"/>
	<g>
		<path class="st19" d="M167,60.8c-2.2,0-3.9,1.7-3.9,3.9c0,2.2,1.7,4,3.9,4c2.2,0,3.9-1.7,3.9-3.9C170.8,62.6,169.1,60.8,167,60.8z
			 M166.9,68.2c-1.8,0-3.3-1.6-3.3-3.4c0-1.9,1.5-3.4,3.3-3.4c1.9,0,3.4,1.5,3.4,3.4C170.3,66.6,168.8,68.2,166.9,68.2z"/>
		<path class="st19" d="M168,64.8c0.7-0.4,0.9-0.9,0.6-1.5c-0.2-0.6-0.8-0.8-1.4-0.8c-0.5,0-1,0-1.6,0c-0.2,0-0.4,0-0.4,0.3
			c0,1.3,0,2.6,0,3.9c0,0.2,0,0.3,0.3,0.3c0.2,0,0.3-0.1,0.3-0.3c0-0.4,0-0.8,0-1.2c0-0.2,0-0.4,0.3-0.4c1.2-0.3,1.9,0.2,2,1.4
			c0,0.1,0,0.3,0.1,0.4c0,0.1,0.2,0.1,0.3,0.1c0.1,0,0.2-0.1,0.2-0.2C168.8,66.5,168.4,65.2,168,64.8z M166.8,64.6
			c-0.9,0-1.3-0.6-0.9-1.4c0.2-0.4,0.6-0.1,0.9-0.2c1.1,0,1.4,0.2,1.4,0.8C168.1,64.4,167.7,64.6,166.8,64.6z"/>
	</g>
</g>
</svg>
