<?xml version="1.0" encoding="utf-8"?>
<!-- Generator: Adobe Illustrator 19.2.0, SVG Export Plug-In . SVG Version: 6.00 Build 0)  -->
<svg version="1.1" id="Layer_1" xmlns="http://www.w3.org/2000/svg" xmlns:xlink="http://www.w3.org/1999/xlink" x="0px" y="0px"
	 viewBox="0 0 258.7 70" style="enable-background:new 0 0 258.7 70;" xml:space="preserve">
<style type="text/css">
	.st0{fill:#8D53FB;}
	.st1{fill:#CF453A;}
	.st2{fill:#383A3C;}
	.st3{fill:#0078C1;}
	.st4{filter:url(#Adobe_OpacityMaskFilter);}
	.st5{fill:#FFFFFF;}
	.st6{mask:url(#mask-2_1_);fill:#ED3124;}
	.st7{fill:#FEFEFE;}
	.st8{fill:#213067;}
	.st9{fill:#DE6F2E;}
	.st10{fill:#105699;}
	.st11{fill:#0D4A82;}
	.st12{fill:#DD473A;}
	.st13{fill:#0E0B0B;}
	.st14{fill:#92B32E;}
	.st15{fill:#010101;}
	.st16{fill:#C64732;}
	.st17{fill:#FDE034;}
	.st18{fill:#171D23;}
	.st19{fill:#359ADA;}
	.st20{fill:#2C75BD;}
	.st21{fill:#2E76BE;}
	.st22{fill:#DC4739;}
	.st23{fill:#DB8238;}
	.st24{fill:#748B81;}
	.st25{fill:#6891C3;}
	.st26{fill:#4A71A2;}
	.st27{fill:#003475;}
	.st28{fill:#114F85;}
	.st29{fill:#323232;}
	.st30{fill:#3D8F8C;}
	.st31{fill:#1561A5;}
	.st32{fill:#FACE33;}
	.st33{fill:#1562A6;}
	.st34{fill:#285F3B;}
	.st35{fill:#285E3B;}
	.st36{fill:#6FAE49;}
	.st37{fill:#F8FBF7;}
	.st38{fill:#214068;}
	.st39{fill:#D54939;}
	.st40{fill:#D71E28;}
	.st41{fill:#163A83;}
	.st42{fill:#163A82;}
	.st43{fill:#CF6628;}
	.st44{fill:#87ABD8;}
	.st45{fill:#2B89F9;}
	.st46{fill:#9B3C55;}
	.st47{fill:#A0A0A4;}
	.st48{fill:#A2A2A4;}
	.st49{fill:#A0A0A3;}
</style>
<g>
	<path class="st46" d="M147.1,68.2c-3.8,0-7.3,0-10.8,0c-1.1,0-0.6-0.8-0.5-1.3c0.9-4.2,1.7-8.3,2.6-12.5c1-4.8,2-9.6,2.8-14.5
		c-4.6,8.3-9.2,16.5-13.7,24.8c-0.1,0-0.2-0.1-0.3-0.1c1.9-10.6,3.9-21.2,5.8-31.8c-0.1,0-0.2-0.1-0.3-0.1
		c-4.8,10.7-9.7,21.4-14.5,32.1c-0.1,0-0.2-0.1-0.3-0.1c2.9-14.8,5.9-29.6,8.8-44.3c-0.1,0-0.1,0-0.2-0.1c-0.7,1.7-1.5,3.5-2.2,5.2
		c-5.7,13.7-11.4,27.5-17,41.2c-0.4,1-0.9,1.3-1.9,1.3c-2.4-0.1-4.8,0-7.5,0c0.9-1.8,1.7-3.4,2.6-4.9c0.7-1.1,0.6-1.7-0.5-2.5
		c-6.5-4.6-12.9-9.3-19.3-14c-0.2-0.2-0.4-0.3-1-0.7c2.2-0.6,4.1-1.1,6-1.5c1.4-0.3,1.6-0.7,1.2-2.1c-1.1-3.2-2-6.6-3-10
		c0.9-0.1,1.7,0.3,2.4,0.5c2.8,0.8,5.6,1.5,8.3,2.4c1.4,0.4,1.6,0,1.6-1.2c0.1-2.4,0.2-4.9,0.4-7.2c4.7,4.6,9.5,9.3,14.2,14
		c0.1-0.1,0.3-0.1,0.4-0.2c-1.7-9.6-3.4-19.2-5.1-29.1c2.5,1.5,4.7,2.8,7,4c1.3,0.7,2.6,2.3,3.8,1.8c0.9-0.4,1.1-2.4,1.6-3.8
		c1.4-4.1,2.8-8.2,4.4-12.7c0.4,1.4,0.8,2.3,1.1,3.3c1.2,4,2.5,7.9,3.6,11.9c0.4,1.3,0.7,1.6,2,1c3.6-1.8,7.2-3.5,11.2-5.3
		c-2.3,9.8-4.5,19.3-6.8,28.9c4.8-4.8,9.6-9.5,14.4-14.3c0.2,0.1,0.3,0.1,0.5,0.2c0,1.9,0,3.7,0,5.6c0,3.8,0,3.8,3.7,2.7
		c2.7-0.8,5.4-1.6,8.2-2.4c0.5,0.7-0.1,1.2-0.2,1.7c-0.9,2.9-1.9,5.8-2.9,8.7c-0.3,0.9-0.1,1.2,0.8,1.4c2.2,0.5,4.3,1.1,6.4,1.7
		c-0.1,0.8-0.7,0.9-1.1,1.2c-6.2,4.6-12.3,9.2-18.5,13.7c-0.9,0.7-1.2,1.2-0.6,2.2C145.5,64.6,146.2,66.4,147.1,68.2z"/>
	<path class="st47" d="M223.3,50.3c0.1-5.4,1.2-10.3,5-14.4c3.8-4.2,8.7-5.5,14.2-5.1c1.6,0.1,3.6-0.1,4.7,1
		c1.1,1.1,0.7,3.1,0.8,4.7c0.1,0.8,0.2,1.6,0.3,2.4c0.1,0.5,0,0.9-0.7,1.1c-0.7,0.1-0.8-0.3-0.9-0.8c-0.3-1.3-0.9-2.5-1.6-3.7
		c-2.7-4.2-9.6-3.6-12.7,0.4c-2,2.5-3,5.4-3.4,8.5c-0.9,6-0.6,11.9,2.3,17.5c1.8,3.3,4.3,5.5,8.4,5.3c2.9-0.2,4.5-1.9,6-4
		c0.7-1,1.2-2.1,1.8-3.1c0.3-0.6,0.7-0.7,1.3-0.5c0.8,0.3,0.3,0.8,0.2,1.2c-0.6,2.1-1.2,4.2-1.9,6.2c-0.2,0.5-0.3,1-1,1.2
		c-5,1.2-9.9,1.7-14.6-0.9c-4.5-2.5-6.6-6.8-7.7-11.6C223.3,53.8,223.2,52,223.3,50.3z"/>
	<path class="st47" d="M52.6,49.7c0.1,4.7,0.7,9.3,3.4,13.4c3.7,5.5,9.9,5.6,13.7,0.1c0.7-1,1.2-2.1,1.8-3.1
		c0.3-0.6,0.7-0.8,1.3-0.6c0.7,0.2,0.4,0.7,0.3,1.2c-0.6,2.1-1.2,4.2-1.9,6.2c-0.2,0.5-0.4,1-1,1.2c-5.1,1.3-10.1,1.7-14.9-1.1
		c-4.5-2.7-6.6-7-7.5-11.9c-1.2-6.7-0.3-13.1,4.1-18.5c2.8-3.5,6.6-5.5,11.2-5.6c2.5-0.1,5-0.1,7.5,0.6c0.8,0.2,1.2,0.6,1.3,1.4
		c0.2,2.1,0.4,4.2,0.6,6.3c0,0.4,0,0.8-0.5,0.8c-0.4,0.1-0.9,0.1-1-0.5c-0.2-0.7-0.4-1.4-0.7-2c-2.1-5.4-8.5-6.8-12.8-2.7
		c-2.7,2.6-3.8,6-4.4,9.6C52.7,46.2,52.5,47.9,52.6,49.7z"/>
	<path class="st48" d="M7.5,68.3c-1.9,0-3.7,0-5.6,0c-0.4,0-0.9,0.1-1-0.6c0-0.6,0.4-0.7,0.9-0.7c3.3-0.6,3.6-1,3.6-4.4
		c0-8.4,0-16.8,0-25.2c0-3.5-0.3-3.8-3.7-4.6C1.4,32.8,1,32.6,1,32.1c0-0.5,0.5-0.5,0.8-0.5c3.9,0,7.7,0,11.6,0c0.4,0,0.8,0,0.8,0.5
		c0,0.6-0.4,0.7-0.8,0.8c-3.1,0.8-3.1,0.8-3.5,3.8c-0.1,0.7-0.2,1.4-0.2,2.1c0,7.4,0,14.7,0,22.1c0,0.7,0,1.4,0.1,2.1
		c0.4,3.3,0.4,3.3,3.7,4c0.4,0.1,0.7,0.2,0.7,0.7c0,0.6-0.5,0.6-0.9,0.6C11.4,68.3,9.5,68.3,7.5,68.3C7.5,68.3,7.5,68.3,7.5,68.3z"
		/>
	<path class="st47" d="M188.4,48.1c-0.3-0.1-0.7,0-0.9-0.4c0.9-0.5,1.8-1,2.6-1.5c2.7-1.6,4.1-4.9,3.5-8c-0.6-3.6-2.4-5.5-5.9-6.3
		c-5.4-1.1-10.9-0.3-16.3-0.5c-0.5,0-0.9,0.1-0.9,0.7c0,0.6,0.5,0.7,0.9,0.7c2.7,0.1,3.3,1.9,3.3,4.2c0,8.7,0,17.4,0,26.1
		c0,2.7-0.8,3.5-3.4,3.9c-0.5,0.1-1.2-0.1-1.1,0.8c0.1,0.8,0.8,0.6,1.3,0.6c3.2,0,6.3,0,9.5,0c2.5,0,5-0.3,7.4-1.1
		c4.6-1.5,7.4-5.3,7.4-10C195.9,52.8,193.2,49.5,188.4,48.1z M180.3,33.1c2.8-0.8,6.8,0.7,8.1,3.2c1.7,3.3,0.9,7.8-1.7,9.7
		c-2.1,1.5-4.5,1.4-6.9,1.3c-0.7,0-0.6-0.6-0.6-1.1c0-2,0-3.9,0-5.9c0,0,0,0,0,0c0-1.8,0-3.7,0-5.5
		C179.1,33.9,179.4,33.4,180.3,33.1z M190.1,62.1c-1.4,3.2-4,4.4-7.3,4.5c-2.6,0.1-3.5-0.9-3.6-3.7c0-1.1,0-2.2,0-3.3
		c0-1,0-2.1,0-3.1c0,0,0,0,0,0c0-2.1,0-4.2,0-6.4c0-0.5-0.1-1.2,0.7-1.2c3.2,0,6.4,0.2,8.9,2.8C191,54.1,191.6,58.7,190.1,62.1z"/>
	<path class="st49" d="M42,52.3c-1.6-2.5-4.2-3.5-7.1-4.5c0.8-0.4,1.2-0.6,1.7-0.8c3.4-1.7,5.2-4.9,4.8-8.4
		c-0.5-3.9-2.5-6.2-6.8-6.8c-5.2-0.7-10.4-0.2-15.7-0.3c-0.3,0-0.7,0.1-0.7,0.5c0,0.7,0.5,0.7,1,0.9c2.7,0.7,3.2,1.2,3.3,4
		c0,8.7,0,17.4,0,26.1c0,2.8-0.7,3.6-3.5,4c-0.5,0.1-1.1-0.1-1.1,0.7c0,0.9,0.7,0.7,1.2,0.7c3.9,0,7.8,0,11.8,0
		c2.2,0,4.3-0.5,6.3-1.4C43.1,64.4,45.3,57.5,42,52.3z M26.7,40.8c0-2,0-3.9,0-5.9c0-0.7,0.2-1.3,0.9-1.6c3.3-1.3,8,0.9,8.7,4.2
		c1.5,6.9-1.7,10.3-8.8,10c-0.8,0-0.8-0.5-0.8-1.1C26.7,44.6,26.7,42.7,26.7,40.8z M37,63.5c-1.4,2.5-5.7,3.9-8.4,3
		c-1.5-0.5-1.8-1.9-1.9-3.3c-0.1-2.1,0-4.2,0-6.4c0,0,0,0,0,0c0-2.1,0-4.2,0-6.4c0-0.5-0.1-1.1,0.7-1.2c3.5-0.8,8.3,1,9.9,4
		C39.1,56.6,38.9,60.2,37,63.5z"/>
	<path class="st47" d="M224.4,66.9c-1.3-0.3-2.3-1-2.8-2.2c-0.4-0.9-0.9-1.9-1.2-2.9c-3.1-9.8-6.1-19.6-9.1-29.5
		c-0.2-0.5-0.1-1.3-0.9-1.4c-0.9-0.1-1.2,0.7-1.4,1.4c-1.5,4.4-2.9,8.8-4.3,13.2c-2,6-4,12.1-6.1,18.1c-0.5,1.6-1.5,2.9-3.3,3.3
		c-0.5,0.1-1.1,0-1,0.8c0.1,0.9,0.8,0.6,1.3,0.6c2.8,0,5.6,0,8.3,0c0.4,0,1.1,0.2,1.2-0.5c0.1-0.8-0.5-0.8-1.1-0.9
		c-2.4-0.5-2.9-1.2-2.3-3.7c0.6-2.4,1.3-4.8,1.9-7.3c0.2-0.9,0.7-1.2,1.6-1.2c2.5,0.1,4.9,0.1,7.4,0c0.9,0,1.4,0.3,1.6,1.2
		c0.7,2.4,1.4,4.8,2.2,7.2c0.8,2.8,0.8,3-2,3.7c-0.5,0.1-1,0.3-0.9,0.9c0.1,0.6,0.6,0.5,1.1,0.5c1.7,0,3.4,0,5.1,0
		c1.6,0,3.2,0,4.7,0c0.5,0,1.2,0.3,1.3-0.5C225.6,67,224.9,67,224.4,66.9z M211.9,52.6c-2.1,0-4.1,0-6.2,0c-0.8,0-1.1-0.2-0.8-1.1
		c1.3-4.1,2.5-8.3,3.8-12.5c0.1,0,0.2,0,0.3,0c1.2,4.2,2.5,8.4,3.7,12.6C212.9,52.4,212.5,52.6,211.9,52.6z"/>
</g>
</svg>
