<?xml version="1.0" encoding="utf-8"?>
<!-- Generator: Adobe Illustrator 19.2.0, SVG Export Plug-In . SVG Version: 6.00 Build 0)  -->
<svg version="1.1" id="Layer_1" xmlns="http://www.w3.org/2000/svg" xmlns:xlink="http://www.w3.org/1999/xlink" x="0px" y="0px"
	 viewBox="0 0 176.8 70" style="enable-background:new 0 0 176.8 70;" xml:space="preserve">
<style type="text/css">
	.st0{fill:#8D53FB;}
	.st1{fill:#CF453A;}
	.st2{fill:#383A3C;}
	.st3{fill:#0078C1;}
	.st4{filter:url(#Adobe_OpacityMaskFilter);}
	.st5{fill:#FFFFFF;}
	.st6{mask:url(#mask-2_1_);fill:#ED3124;}
	.st7{fill:#FEFEFE;}
	.st8{fill:#213067;}
	.st9{fill:#DE6F2E;}
	.st10{fill:#105699;}
	.st11{fill:#0D4A82;}
	.st12{fill:#DD473A;}
	.st13{fill:#0E0B0B;}
	.st14{fill:#92B32E;}
	.st15{fill:#010101;}
	.st16{fill:#C64732;}
	.st17{fill:#FDE034;}
	.st18{fill:#171D23;}
	.st19{fill:#359ADA;}
	.st20{fill:#2C75BD;}
	.st21{fill:#2E76BE;}
	.st22{fill:#DC4739;}
	.st23{fill:#DB8238;}
	.st24{fill:#748B81;}
	.st25{fill:#6891C3;}
	.st26{fill:#4A71A2;}
	.st27{fill:#003475;}
	.st28{fill:#114F85;}
	.st29{fill:#323232;}
	.st30{fill:#3D8F8C;}
	.st31{fill:#1561A5;}
	.st32{fill:#FACE33;}
	.st33{fill:#1562A6;}
	.st34{fill:#285F3B;}
	.st35{fill:#285E3B;}
	.st36{fill:#6FAE49;}
	.st37{fill:#F8FBF7;}
	.st38{fill:#214068;}
	.st39{fill:#D54939;}
	.st40{fill:#D71E28;}
	.st41{fill:#163A83;}
	.st42{fill:#163A82;}
	.st43{fill:#CF6628;}
	.st44{fill:#87ABD8;}
	.st45{fill:#2B89F9;}
	.st46{fill:#9B3C55;}
	.st47{fill:#A0A0A4;}
	.st48{fill:#A2A2A4;}
	.st49{fill:#A0A0A3;}
</style>
<g>
	<path class="st20" d="M76.5,0.5c2.5,0.5,4.8,1.2,7,2.6c0.9,0.6,1.9,1.2,2.7,2c-0.4,0.2-0.7,0.1-1,0.1c-15.2,0-30.4,0-45.6,0
		c-0.8,0-1.1-0.2-1-1c0.1-1.2,0-2.5,0-3.7C51.2,0.5,63.9,0.5,76.5,0.5z"/>
	<path class="st20" d="M33.9,0.5c0,1.3,0,2.6,0,4c0,0.6-0.2,0.8-0.8,0.8c-3.1,0-6.1,0-9.2,0c-7.6,0-15.2,0-22.7,0
		c-0.7,0-1-0.2-0.9-0.9c0.1-1.3,0-2.5,0-3.8C11.5,0.5,22.7,0.5,33.9,0.5z"/>
	<path class="st20" d="M123.3,0.5c0.2,1.3,0.9,2.5,1.2,3.8c0.1,0.3,0.2,0.5,0.3,0.9c-0.4,0-0.6,0-0.9,0c-9,0-18.1,0-27.1,0
		c-0.7,0-1-0.2-0.9-0.9c0.1-1.3,0-2.5,0-3.8C105,0.5,114.1,0.5,123.3,0.5z"/>
	<path class="st20" d="M172.6,0.5c0,1.3-0.1,2.7,0,4c0,0.5-0.2,0.7-0.7,0.7c-9.1,0-18.2,0-27.4,0c-0.1,0-0.3,0-0.5,0
		c0.4-1.6,1.2-3.1,1.5-4.7C154.5,0.5,163.6,0.5,172.6,0.5z"/>
	<path class="st20" d="M172.8,69.4c-7.7,0-15.4,0-23.1,0c-0.8,0-1.2-0.2-1.1-1.1c0.1-1,0.1-2,0-2.9c0-0.7,0.2-0.8,0.8-0.8
		c7.4,0,14.9,0,22.3,0c0.3,0,0.7,0,1,0C172.8,66.2,172.8,67.8,172.8,69.4z"/>
	<path class="st20" d="M172.8,60.3c-0.3,0-0.7,0-1,0c-7.4,0-14.8,0-22.2,0c-0.7,0-1-0.2-0.9-0.9c0.1-1,0.1-2.1,0-3.1
		c0-0.7,0.2-0.8,0.8-0.8c7.5,0,14.9,0,22.4,0c0.3,0,0.6,0,0.9,0C172.8,57.1,172.8,58.7,172.8,60.3z"/>
	<path class="st20" d="M148.6,30.5c-0.1,0.1-0.2,0.1-0.2,0.2c-0.3,0.7-0.3,1.6-0.8,1.9c-0.6,0.3-1.5,0.1-2.3,0.1
		c-7.7,0-15.4,0-23.1,0c-0.9,0-1.5-0.1-1.6-1.1c0-0.3-0.2-0.6-0.5-0.9c0,0.5,0,0.9,0,1.4c0,0.4-0.1,0.6-0.6,0.6c-4.5,0-9,0-13.4,0
		c-0.5,0-0.6-0.1-0.6-0.6c0-1.1,0-2.2,0-3.3c0-0.7,0.1-0.9,0.8-0.9c3.4,0,6.9,0,10.3,0c5.1,0,10.2,0,15.3,0c0.9,0,1.3,0.3,1.5,1.1
		c0.3,0.9,0.6,1.8,1,2.9c0.5-1.3,0.9-2.3,1.2-3.3c0.2-0.5,0.4-0.7,0.9-0.7c8.6,0,17.2,0,25.9,0c0.6,0,0.7,0.2,0.7,0.7
		c0,1.1,0,2.3,0,3.4c0,0.4-0.1,0.6-0.5,0.5c-4.5,0-9,0-13.4,0c-0.4,0-0.6-0.1-0.5-0.5C148.6,31.7,148.6,31.1,148.6,30.5z"/>
	<path class="st20" d="M65.3,14.4c-8.6,0-17.2,0-25.8,0c-0.8,0-1-0.2-0.9-1c0.1-1.1,0-2.2,0-3.3c0-0.4,0.1-0.6,0.5-0.6
		c0.2,0,0.3,0,0.5,0c16.5,0,33.1,0,49.6,0c0.8,0,1.3,0.3,1.6,1c0.4,0.9,0.6,1.7,0.8,2.6c0.3,1.2,0.3,1.2-0.9,1.2
		c-5.3,0-10.6,0-15.9,0C71.7,14.4,68.5,14.4,65.3,14.4z"/>
	<path class="st20" d="M65.3,55.5c8.5,0,17,0,25.5,0c1.2,0,1.2,0,0.9,1.2c-0.2,1-0.5,1.9-1,2.8c-0.2,0.5-0.6,0.8-1.2,0.8
		c-16.7,0-33.4,0-50.2,0c-0.7,0-0.8-0.2-0.8-0.8c0.1-1,0.1-2.1,0-3.1c0-0.7,0.2-0.9,0.8-0.9c5.3,0,10.6,0,15.9,0
		C58.6,55.5,62,55.5,65.3,55.5z"/>
	<path class="st20" d="M86.5,64.7c-2.6,2.2-5.2,3.7-8.3,4.4c-1,0.2-2.1,0.3-3.2,0.3c-11.8,0-23.6,0-35.4,0c-0.8,0-1-0.2-1-1
		c0.1-1,0.1-2,0-3c0-0.7,0.2-0.8,0.8-0.8c4,0,8,0,12,0c11.3,0,22.6,0,33.9,0C85.6,64.7,85.9,64.7,86.5,64.7z"/>
	<path class="st20" d="M68.8,41.9c-6.6,0-13.1,0-19.7,0c-0.7,0-0.9-0.2-0.9-0.9c0.1-1.1,0-2.2,0-3.3c0-0.4,0.1-0.6,0.5-0.5
		c0.1,0,0.3,0,0.4,0c11.8,0,23.5,0,35.3,0c0.6,0,1.1,0.2,1.5,0.6c1.1,1,2.2,2.1,3,3.4c0.4,0.6,0.3,0.7-0.4,0.7
		C82,41.9,75.4,41.9,68.8,41.9z"/>
	<path class="st20" d="M89.4,28c-1,2-2.5,3.3-4,4.6c-0.2,0.2-0.5,0.1-0.8,0.1c-11.9,0-23.8,0-35.7,0c-0.6,0-0.8-0.1-0.8-0.8
		c0.1-1,0.1-2.1,0-3.1c0-0.7,0.2-0.9,0.9-0.8c1.5,0,3,0,4.5,0c11.6,0,23.1,0,34.7,0C88.6,28,88.9,28,89.4,28z"/>
	<path class="st20" d="M17.3,69.4c-5.3,0-10.6,0-15.8,0c-0.7,0-0.9-0.2-0.9-0.9c0.1-1,0-2.1,0-3.1c0-0.5,0.1-0.8,0.7-0.8
		c10.8,0,21.5,0,32.3,0c0.5,0,0.7,0.2,0.7,0.7c0,1.1,0,2.2,0,3.3c0,0.7-0.2,0.8-0.8,0.8C28,69.4,22.7,69.4,17.3,69.4z"/>
	<path class="st20" d="M17.3,60.2c-5.3,0-10.6,0-15.8,0c-0.7,0-0.9-0.2-0.9-0.9c0.1-1.1,0-2.1,0-3.2c0-0.5,0.2-0.7,0.7-0.7
		c2.5,0,4.9,0,7.4,0c8.2,0,16.4,0,24.6,0c0.8,0,1,0.2,0.9,1c-0.1,1-0.1,2,0,3c0,0.7-0.2,0.8-0.8,0.8C28,60.2,22.7,60.2,17.3,60.2z"
		/>
	<path class="st20" d="M17.1,14.4c-5.3,0-10.6,0-15.9,0c-0.7,0-0.9-0.2-0.9-0.9c0.1-1,0-2.1,0-3.1c0-0.6,0.1-0.8,0.8-0.8
		c2.6,0,5.2,0,7.8,0c8.1,0,16.1,0,24.2,0c0.8,0,1,0.2,0.9,1c-0.1,1-0.1,2,0,2.9c0,0.7-0.1,0.9-0.9,0.9
		C27.8,14.4,22.4,14.4,17.1,14.4z"/>
	<path class="st20" d="M111.9,14.4c-5.1,0-10.1,0-15.2,0c-0.7,0-0.9-0.2-0.9-0.9c0.1-1,0.1-2,0-3c0-0.7,0.1-0.9,0.8-0.9
		c3.3,0,6.7,0,10,0c6.3,0,12.6,0,18.9,0c0.6,0,0.9,0.2,1.1,0.8c0.3,1.1,0.7,2.2,1.2,3.3c0.2,0.6,0.1,0.7-0.5,0.7
		C122.2,14.4,117.1,14.4,111.9,14.4z"/>
	<path class="st20" d="M156.6,14.4c-5,0-10,0-15.1,0c-0.6,0-0.9-0.1-0.6-0.8c0.4-1.1,0.8-2.1,1.1-3.2c0.2-0.6,0.5-0.8,1.1-0.8
		c7.1,0,14.1,0,21.2,0c2.5,0,4.9,0,7.4,0c0.6,0,0.8,0.1,0.7,0.7c0,1-0.1,2.1,0,3.1c0,0.7-0.2,1-0.9,1c-4.7,0-9.5,0-14.2,0
		C157.1,14.4,156.9,14.4,156.6,14.4z"/>
	<path class="st20" d="M131.4,23.5c-0.4,0-0.7,0-1,0c-8,0-16,0-24,0c-0.8,0-1-0.2-0.9-1c0.1-1.1,0-2.1,0-3.2c0-0.5,0.1-0.7,0.6-0.7
		c7.7,0,15.3,0,23,0c0.3,0,0.6-0.1,0.7,0.3C130.3,20.6,130.9,22,131.4,23.5z"/>
	<path class="st20" d="M150.2,23.5c-4,0-7.9,0-11.9,0c-0.7,0-0.9-0.1-0.6-0.8c0.4-1.1,0.8-2.2,1.2-3.3c0.1-0.5,0.4-0.6,0.8-0.6
		c7.5,0,15.1,0,22.6,0c0.6,0,0.8,0.1,0.7,0.7c0,1.1,0,2.2,0,3.4c0,0.6-0.2,0.7-0.7,0.7C158.3,23.5,154.3,23.5,150.2,23.5z"/>
	<path class="st20" d="M108.1,69.4c-3.7,0-7.5,0-11.2,0c-0.7,0-0.8-0.2-0.8-0.8c0-1.1,0-2.1,0-3.2c0-0.6,0.2-0.8,0.8-0.8
		c3.4,0,6.8,0,10.2,0c4.1,0,8.2,0,12.2,0c0.7,0,0.9,0.2,0.9,0.9c-0.1,1,0,2.1,0,3.1c0,0.6-0.2,0.8-0.8,0.8
		C115.6,69.4,111.8,69.4,108.1,69.4z"/>
	<path class="st20" d="M108.1,55.5c3.7,0,7.5,0,11.2,0c0.6,0,0.9,0.2,0.8,0.8c-0.1,1,0,2.1,0,3.1c0,0.7-0.2,0.9-0.9,0.9
		c-2.8,0-5.7,0-8.5,0c-4.6,0-9.2,0-13.8,0c-0.7,0-0.9-0.2-0.9-0.9c0.1-1,0-2.1,0-3.1c0-0.6,0.1-0.8,0.8-0.8
		C100.6,55.5,104.4,55.5,108.1,55.5z"/>
	<path class="st20" d="M134.4,37.2c3.6,0,7.3,0,10.9,0c0.6,0,0.8,0.1,0.5,0.8c-0.4,1.1-0.8,2.3-1.2,3.4c-0.1,0.4-0.3,0.6-0.8,0.6
		c-6.3,0-12.6,0-18.9,0c-0.4,0-0.6-0.1-0.8-0.5c-0.4-1.2-0.8-2.4-1.3-3.6c-0.2-0.6,0-0.7,0.5-0.7C127,37.2,130.7,37.2,134.4,37.2z"
		/>
	<path class="st20" d="M84.5,18.8c2.3,0,4.6,0,6.9,0c0.7,0,0.9,0.1,0.8,0.9c-0.1,1.2-0.4,2.3-0.7,3.4c-0.1,0.4-0.3,0.5-0.7,0.5
		c-4.5,0-9,0-13.4,0c-0.5,0-0.6-0.2-0.6-0.6c0-1.2,0-2.4,0-3.5c0-0.6,0.2-0.7,0.7-0.6C79.9,18.8,82.2,18.8,84.5,18.8z"/>
	<path class="st20" d="M126,46.3c0.8,0,1.5,0,2.3,0c4.6,0,9.2,0,13.8,0c0.7,0,0.9,0.1,0.6,0.8c-0.5,1.1-0.8,2.3-1.2,3.4
		c-0.1,0.4-0.3,0.5-0.7,0.5c-4.1,0-8.3,0-12.4,0c-0.3,0-0.6,0-0.7-0.3C127,49.3,126.5,47.8,126,46.3z"/>
	<path class="st20" d="M17.3,23.5c-2.2,0-4.4,0-6.6,0c-0.7,0-0.8-0.2-0.8-0.8c0.1-1.1,0-2.2,0-3.4c0-0.4,0.1-0.6,0.6-0.6
		c4.5,0,9,0,13.4,0c0.4,0,0.6,0.2,0.6,0.6c0,1.1,0,2.3,0,3.4c0,0.6-0.2,0.7-0.7,0.7C21.7,23.5,19.5,23.5,17.3,23.5z"/>
	<path class="st20" d="M84.6,51c-2.3,0-4.6,0-7,0c-0.5,0-0.8-0.1-0.7-0.7c0-1.1,0-2.3,0-3.4c0-0.5,0.1-0.6,0.6-0.6c4.5,0,9,0,13.4,0
		c0.4,0,0.6,0.1,0.7,0.5c0.3,1.1,0.6,2.3,0.7,3.4c0.1,0.6-0.1,0.8-0.7,0.8C89.2,51,86.9,51,84.6,51z"/>
	<path class="st20" d="M55.6,18.8c2.1,0,4.2,0,6.3,0c0.7,0,0.9,0.2,0.9,0.9c-0.1,1.1,0,2.2,0,3.3c0,0.4-0.1,0.6-0.6,0.6
		c-4.5,0-8.9,0-13.4,0c-0.5,0-0.6-0.2-0.6-0.6c0-1.1,0-2.3,0-3.4c0-0.7,0.3-0.7,0.8-0.7C51.2,18.8,53.4,18.8,55.6,18.8z"/>
	<path class="st20" d="M112.8,51c-2.2,0-4.4,0-6.6,0c-0.6,0-0.7-0.2-0.7-0.7c0-1.1,0-2.3,0-3.4c0-0.4,0.1-0.6,0.5-0.6
		c4.5,0,9,0,13.5,0c0.4,0,0.6,0.1,0.6,0.5c0,1.2,0,2.4,0,3.6c0,0.6-0.3,0.6-0.7,0.6C117.2,51,115,51,112.8,51z"/>
	<path class="st20" d="M112.7,41.9c-2.2,0-4.4,0-6.5,0c-0.5,0-0.7-0.1-0.7-0.7c0-1.1,0-2.3,0-3.4c0-0.4,0.1-0.6,0.6-0.6
		c4.5,0,9,0,13.4,0c0.4,0,0.6,0.1,0.6,0.6c0,1.2,0,2.4,0,3.5c0,0.5-0.2,0.6-0.7,0.6C117.2,41.9,114.9,41.9,112.7,41.9z"/>
	<path class="st20" d="M17.2,41.9c-2.2,0-4.4,0-6.5,0c-0.6,0-0.7-0.1-0.7-0.7c0-1.1,0-2.2,0-3.4c0-0.5,0.1-0.7,0.6-0.6
		c4.5,0,8.9,0,13.4,0c0.4,0,0.6,0.1,0.6,0.6c0,1.2,0,2.4,0,3.5c0,0.5-0.2,0.6-0.7,0.6C21.7,41.9,19.4,41.9,17.2,41.9z"/>
	<path class="st20" d="M17.3,32.7c-2.2,0-4.4,0-6.6,0c-0.5,0-0.7-0.1-0.7-0.7c0-1.1,0-2.2,0-3.4c0-0.5,0.1-0.7,0.6-0.7
		c4.4,0,8.9,0,13.3,0c0.5,0,0.7,0.1,0.6,0.6c0,1.1,0,2.3,0,3.4c0,0.6-0.2,0.7-0.7,0.6C21.7,32.7,19.5,32.7,17.3,32.7z"/>
	<path class="st20" d="M17.2,51c-2.2,0-4.3,0-6.5,0c-0.6,0-0.8-0.1-0.8-0.7c0.1-1.1,0-2.3,0-3.4c0-0.4,0.1-0.5,0.5-0.5
		c4.5,0,9,0,13.5,0c0.5,0,0.6,0.2,0.6,0.6c0,1.1,0,2.2,0,3.4c0,0.6-0.2,0.8-0.8,0.8C21.6,51,19.4,51,17.2,51z"/>
	<path class="st20" d="M155.9,46.3c2.2,0,4.3,0,6.5,0c0.6,0,0.7,0.1,0.7,0.7c0,1.1,0,2.2,0,3.4c0,0.5-0.1,0.7-0.6,0.7
		c-4.4,0-8.8,0-13.3,0c-0.5,0-0.6-0.2-0.6-0.6c0-1.1,0-2.3,0-3.4c0-0.6,0.2-0.6,0.7-0.6C151.5,46.3,153.7,46.3,155.9,46.3z"/>
	<path class="st20" d="M55.5,46.3c2.2,0,4.4,0,6.5,0c0.6,0,0.7,0.2,0.7,0.7c0,1.1,0,2.3,0,3.4c0,0.4-0.1,0.6-0.5,0.6
		c-4.5,0-9,0-13.4,0c-0.4,0-0.5-0.2-0.5-0.6c0-1.1,0-2.3,0-3.4c0-0.6,0.1-0.7,0.7-0.7C51.1,46.4,53.3,46.3,55.5,46.3z"/>
	<path class="st20" d="M155.9,37.2c2.2,0,4.4,0,6.5,0c0.5,0,0.8,0.1,0.7,0.7c0,1.1,0,2.2,0,3.4c0,0.5-0.1,0.7-0.6,0.7
		c-4.4,0-8.8,0-13.3,0c-0.5,0-0.7-0.1-0.6-0.6c0-1.1,0-2.3,0-3.4c0-0.6,0.2-0.7,0.7-0.7C151.5,37.2,153.7,37.2,155.9,37.2z"/>
	<path class="st20" d="M129.3,55.5c3.3,0,6.5,0,9.8,0c0.4,0,0.5,0.1,0.4,0.5c-0.5,1.3-0.9,2.5-1.4,3.8c-0.1,0.4-0.4,0.4-0.7,0.4
		c-1.9,0-3.9,0-5.8,0c-0.3,0-0.6,0-0.7-0.3C130.4,58.5,129.8,57,129.3,55.5z"/>
	<path class="st21" d="M134.5,64.7c1.8,0,1.8,0,1.2,1.7c-0.3,0.9-0.6,1.7-0.9,2.6c-0.1,0.2-0.1,0.4-0.3,0.4c-0.2,0-0.3-0.2-0.3-0.3
		c-0.5-1.3-0.9-2.5-1.4-3.8c-0.2-0.5,0-0.6,0.5-0.6C133.7,64.7,134.1,64.7,134.5,64.7z"/>
</g>
</svg>
