<?xml version="1.0" encoding="utf-8"?>
<!-- Generator: Adobe Illustrator 19.2.0, SVG Export Plug-In . SVG Version: 6.00 Build 0)  -->
<svg version="1.1" id="Layer_1" xmlns="http://www.w3.org/2000/svg" xmlns:xlink="http://www.w3.org/1999/xlink" x="0px" y="0px"
	 viewBox="0 0 383.2 70" style="enable-background:new 0 0 383.2 70;" xml:space="preserve">
<style type="text/css">
	.st0{fill:#8D53FB;}
	.st1{fill:#CF453A;}
	.st2{fill:#383A3C;}
	.st3{fill:#0078C1;}
	.st4{filter:url(#Adobe_OpacityMaskFilter);}
	.st5{fill:#FFFFFF;}
	.st6{mask:url(#mask-2_1_);fill:#ED3124;}
	.st7{fill:#FEFEFE;}
	.st8{fill:#213067;}
	.st9{fill:#DE6F2E;}
	.st10{fill:#105699;}
	.st11{fill:#0D4A82;}
	.st12{fill:#DD473A;}
	.st13{fill:#0E0B0B;}
	.st14{fill:#92B32E;}
	.st15{fill:#010101;}
	.st16{fill:#C64732;}
	.st17{fill:#FDE034;}
	.st18{fill:#171D23;}
	.st19{fill:#359ADA;}
	.st20{fill:#2C75BD;}
	.st21{fill:#2E76BE;}
	.st22{fill:#DC4739;}
	.st23{fill:#DB8238;}
	.st24{fill:#748B81;}
	.st25{fill:#6891C3;}
	.st26{fill:#4A71A2;}
	.st27{fill:#003475;}
	.st28{fill:#114F85;}
	.st29{fill:#323232;}
	.st30{fill:#3D8F8C;}
	.st31{fill:#1561A5;}
	.st32{fill:#FACE33;}
	.st33{fill:#1562A6;}
	.st34{fill:#285F3B;}
	.st35{fill:#285E3B;}
	.st36{fill:#6FAE49;}
	.st37{fill:#F8FBF7;}
	.st38{fill:#214068;}
	.st39{fill:#D54939;}
	.st40{fill:#D71E28;}
	.st41{fill:#163A83;}
	.st42{fill:#163A82;}
	.st43{fill:#CF6628;}
	.st44{fill:#87ABD8;}
	.st45{fill:#2B89F9;}
	.st46{fill:#9B3C55;}
	.st47{fill:#A0A0A4;}
	.st48{fill:#A2A2A4;}
	.st49{fill:#A0A0A3;}
</style>
<g>
	<path class="st22" d="M379.6,34.9c-0.5-0.4-1-0.2-1.5,0.1c-0.2,0.2-0.4,0.4-0.6,0.6c-0.8,0.9-1.5,1.7-2.3,2.6
		c-0.2,0.3-0.5,0.6-0.9,0.4c-0.4-0.1-0.4-0.6-0.4-0.9c0-0.3,0-0.7,0-1c0-3.2,0-6.3,0-9.5c0-1.3,0-2.6-0.5-3.9
		c-0.9-2.5-3.3-3.3-5.4-1.7c-1.4,1.1-2.5,2.5-3.4,4c-1.4,2.3-2.6,4.8-3.8,7.2c-0.2,0.4-0.4,0.9-0.9,0.8c-0.5-0.1-0.4-0.7-0.4-1.1
		c0-1.7,0-3.5,0-5.2c0-1.3-0.2-2.5-0.8-3.6c-0.6-1.4-1.7-2.1-3.3-2.1c-1.3,0-2.4,0.4-3.3,1.2c-1.5,1.1-2.9,2.3-4.6,3.2
		c-0.6,0.3-1,0.3-1.4-0.4c-1.5-2.3-3.5-3.5-6.3-3.4c-1.2,0.1-2.1,0.6-2.6,1.7c-0.8,1.8,0.3,4.4,2.1,5.2c1.6,0.6,3.2,1,4.9,0.7
		c0.5-0.1,0.7,0,0.8,0.5c0.1,1.5,0.1,3.1-0.4,4.6c-0.8,2.3-2.4,3.7-4.8,3.9c-2.2,0.3-3.9-0.6-5.1-2.4c-0.9-1.3-1.4-2.8-1.5-4.4
		c-0.1-3,1-5.7,3-8c0.3-0.3,0.5-0.6,0.7-0.9c0.3-0.4,0.6-0.9,0.3-1.4c-0.3-0.5-0.8-0.5-1.3-0.5c-0.7,0-1.5,0.1-2.2,0.2
		c-4,0.7-7.5,2.6-10.7,5.1c-1,0.8-2,1.7-3.1,2.6c-1.1-2.7-3-5-3.6-7.8c-0.1-0.4-0.3-0.8-0.9-0.8c-0.6,0-0.7,0.5-0.9,0.9
		c-2.6,5.7-6,11.1-9.2,16.5c-0.2,0.3-0.4,0.7-0.7,0.6c-0.4-0.1-0.3-0.5-0.3-0.8c-0.1-3.1-0.1-6.2,0-9.2c0-1.8,0-3.7-0.5-5.4
		c-0.9-2.7-3.7-3.4-5.6-1.3c-0.7,0.7-1.3,1.5-1.9,2.4c-1.8,3-3.4,6.2-5.1,9.3c-0.2,0.4-0.4,1-0.9,1.2c-0.3-0.3-0.3-0.7-0.3-1.1
		c0-2,0-4.1-0.1-6.1c0-1.3-0.1-2.7-0.6-4c-0.7-2.1-2.1-2.8-4.2-2.2c-1,0.3-1.6,1-2.1,1.8c-2.8,4.6-5.7,9.1-8.8,13.6
		c-0.3,0.4-0.5,1-1.1,0.9c-0.6-0.2-0.3-0.8-0.3-1.3c0-3.7,0.1-7.5,0.1-11.2c0-1.9-0.9-3.2-2.4-3.7c-1.3-0.4-2.3,0.1-3.2,0.9
		c-2,1.7-3.3,3.9-4.5,6.1c-0.9,1.7-1.8,3.5-2.7,5.2c-0.1,0.2-0.2,0.6-0.6,0.5c-0.3-0.1-0.2-0.5-0.2-0.7c-0.1-3-0.1-6-0.2-9
		c0-0.9,0.2-1.6,0.8-2.3c2.7-3.1,4.9-6.6,5.9-10.6c0.6-2.4,0.9-4.9,0.1-7.4c-0.8-2.4-2.9-3.4-5.3-2.6c-1.5,0.5-2.5,1.5-3.3,2.8
		c-2.1,3.4-3.1,7.1-3.2,11.1c0,2.7,0,5.5,0,8.2c0,0.4,0,0.8-0.4,1.1c-1.6,1.1-3.2,2.1-5.2,2.5c-0.9,0.2-1.3,0-1.6-0.8
		c-1-2.1-2.5-3.7-4.7-4.5c-2-0.7-3.7,0.3-4.2,2.3c-0.4,1.7,0.2,3.4,1.7,4.5c1.4,1.1,3.1,1.4,4.8,1.4c0.6,0,0.8,0.2,0.9,0.8
		c0.2,2.4-0.7,4.3-2.2,6c-2.5,3-6.5,2.8-8.5-0.6c-2-3.4-2.1-7-0.3-10.6c0.5-1,1.4-1.8,2.1-2.7c0.2-0.3,0.5-0.6,0.3-1
		c-0.2-0.4-0.7-0.3-1.1-0.3c-1.4,0.2-2.7,0.6-4,1.2c-3.9,1.8-7.1,4.5-10.2,7.4c-0.2,0.2-0.3,0.5-0.7,0.4c-0.4-4.1-0.9-8.1-1.1-12.2
		c-0.3-5.5,0-11,1.3-16.4c0.5-1.9-0.1-2.4-2-1.9c-1.7,0.4-3.2,1.1-4.7,2c-11.4,6.9-14.5,18.9-10.1,30.4c0.3,0.7,0.7,1.4,1.1,2.3
		c-2,0-3.9,0.2-5.8,0.5c-1.3,0.2-1.3,0.2-1.4-1.2c0-0.7-0.1-1.4-0.2-2.1c-0.2-1.8-0.4-3.6-1.1-5.4c-0.4-1-0.9-1.2-1.9-0.8
		c-0.6,0.2-1.3,0.5-1.9,0.8c-1.1,0.4-1.2,0.7-0.5,1.7c0.7,1.1,1.4,2.2,1.7,3.5c0.1,0.3,0.2,0.7-0.1,0.9c-0.3,0.2-0.5-0.2-0.7-0.4
		c-3-2.7-6.5-3-10.2-1.9c-2.8,0.8-3.5,3.7-1.5,5.9c0.9,1,2.2,1.6,3.5,2c2.8,0.8,5.6,1.1,8.4,0.6c0.7-0.1,1.1-0.1,1.1,0.8
		c0,0.5,0.1,1,0.3,1.4c0.2,0.6,0.3,1.3,1,1.4c0.7,0,0.9-0.6,1.2-1.2c0.4-0.9,0.6-1.9,0.8-2.8c0.1-0.3,0.1-0.5,0.4-0.6
		c2.4-0.6,4.9-1.2,7.4-0.9c0.6,0.1,1.3,0.1,1.8,0.7c1.1,1.3,2.3,2.6,3.6,3.7c0.5,0.5,0.6,0.9,0.2,1.5c-2.9,4.9-5.1,10-6.1,15.6
		c-0.4,2.6-0.4,5.2,0.5,7.6c0.9,2.5,3.3,3.4,5.7,2.2c0.7-0.4,1.3-0.8,1.9-1.3c1.5-1.3,2.7-2.9,3.7-4.6c3.4-5.9,4.6-12.4,4.5-19.1
		c-0.1-2.7-0.2-5.4-0.5-8c0-0.4-0.1-0.8,0.2-1.1c1.9-2,3.9-3.9,6.3-5.4c0.2-0.1,0.4-0.4,0.7-0.1c0.2,0.2,0,0.4-0.1,0.6
		c-0.8,2.9-0.7,5.8,0.5,8.6c1.6,3.6,4.3,5.8,8.3,5.9c4,0.2,7-1.5,9-5c1.5-2.5,2.1-5.3,1.9-8.2c0-0.4-0.2-0.8,0.4-0.9
		c1.9-0.5,3.8-1.2,5.6-2.4c0,0.6,0,1,0,1.4c0,4.1-0.1,8.2,0.1,12.3c0.1,1.2,1.1,2.4,2.3,2.5c1.1,0.1,1.2-0.9,1.7-1.5
		c0.2-0.3,0.4-0.7,0.6-1.1c1.3-2.5,2.5-5,3.8-7.5c1-1.9,2-3.8,3.4-5.5c0.2-0.2,0.4-0.6,0.8-0.5c0.4,0.1,0.2,0.6,0.2,0.9
		c0.1,3.2,0.2,6.4,0.3,9.6c0,1.1,0.1,2.2,0.4,3.3c0.8,2.6,3.3,3.3,5.3,1.4c1-0.9,1.8-2.1,2.5-3.2c1.9-3.1,3.8-6.3,5.7-9.4
		c0.5-0.9,1.1-1.8,1.9-2.5c0.5-0.4,0.8-0.4,0.9,0.3c0.1,0.6,0.1,1.3,0.2,2c0,3.4,0,6.9,0.1,10.3c0,0.9,0.1,1.7,0.4,2.5
		c0.4,1,1.3,1.4,2.3,0.9c0.7-0.3,1.3-0.8,1.8-1.4c0.8-1,1.3-2.1,1.9-3.2c1.9-3.4,3.6-7,5.7-10.3c0.4-0.7,0.8-1.4,1.7-1.9
		c0,0.5,0,0.8,0,1.2c0,3.8,0,7.7,0,11.5c0,1.9,0.7,3.3,2.5,4.1c1.7,0.8,3.1,0,4.3-1c0.9-0.7,1.6-1.8,2.3-2.7c2.1-2.9,4.1-6,5.8-9.2
		c0.3-0.6,0.5-0.5,0.9-0.1c0.6,0.7,1.1,1.5,1.6,2.3c0.3,0.5,0.3,0.8-0.1,1.3c-1,1.3-1.9,2.7-2.3,4.3c-0.6,1.8,0.1,3.8,1.4,4.7
		c1.4,0.9,3.4,0.7,4.9-0.6c0.7-0.6,1.2-1.3,1.6-2.1c1.2-2.7,1.2-5.4,0.2-8.2c-0.1-0.4-0.4-0.7,0-1.1c2.1-2,4.2-3.8,6.9-4.9
		c0.4-0.2,0.9-0.4,1.4-0.2c0,0.4-0.3,0.6-0.5,0.8c-0.6,0.6-1,1.3-1.3,2.1c-1.5,3.9-0.8,7.5,1.5,10.9c4,5.7,12.4,5.7,16.4,0
		c2.1-3.1,2.8-6.5,2.2-10.2c-0.1-0.8,0-1.2,0.7-1.6c0.9-0.5,1.7-1.1,2.5-1.7c0.6-0.4,1.3-1.1,2.1-0.8c0.9,0.4,0.7,1.3,0.7,2.1
		c0,4,0,8,0.1,12c0,1.1,0,2.2,0.5,3.3c0.6,1.2,1.9,1.6,3,0.7c0.7-0.5,1.1-1.1,1.5-1.8c1.7-2.7,3-5.6,4.5-8.4
		c0.9-1.8,1.8-3.5,2.8-5.3c0.2-0.4,0.4-1,1-0.8c0.4,0.1,0.2,0.7,0.2,1c0.1,3.3,0.2,6.6,0.3,9.9c0,1.5,0.2,2.9,1,4.2
		c1.2,2,3.6,2.5,5.5,1.2c0.6-0.4,1.1-0.9,1.5-1.4c1.6-2,2.7-4.2,4-6.3C379.9,35.8,380.1,35.3,379.6,34.9z M340.8,26.9
		c-0.4-0.2-0.7-0.5-0.5-1c0.2-0.5,0.7-0.6,1.1-0.6c1.1,0.2,1.8,1,2.4,2C342.7,27.6,341.7,27.4,340.8,26.9z M260.1,7.4
		c0.3-1,0.6-2,1.3-2.8c0.6-0.7,1.4-0.6,1.6,0.4c0.9,5.4-0.2,10.3-3.7,14.7C259.3,15.5,259.1,11.4,260.1,7.4z M241.8,27.1
		c-0.4-0.2-0.7-0.5-0.4-0.9c0.3-0.4,0.7-0.4,1-0.1c0.6,0.4,1,0.9,1.6,1.6C243,27.6,242.4,27.4,241.8,27.1z M187.4,35.9
		c-0.3-0.2-0.6-0.4-0.8-0.7c-0.8-1-0.6-1.8,0.7-2.1c0.8-0.2,1.5-0.2,2.2,0.1c1.7,0.7,3,1.9,4.2,3.5
		C191.3,37.1,189.2,37.4,187.4,35.9z M217.3,52.7c-0.2,3.2-0.8,6.4-2.3,9.4c-0.4,0.7-0.8,1.4-1.4,2c-1.8,1.7-4,1.2-4.6-1.3
		c-0.5-2-0.3-4,0-5.9c1-5.7,3.4-10.7,6.8-15.4c0.1-0.2,0.2-0.3,0.5-0.6C216.9,44.9,217.5,48.7,217.3,52.7z M218.4,4.5
		c-1.6,3.6-2.8,7.2-3.7,11c-1,4.8-1,9.5-0.3,14.3c0.3,2.2,0.7,4.5,1.1,6.7c0.2,1-0.4,1.5-0.9,2.2c-1.1,1.5-1.1,1.5-2.2,0
		c-3.5-4.6-4.6-10-4.7-15.7c0-0.1,0-0.3,0-0.4c0.1-6.1,1.7-11.7,5.7-16.5c1-1.2,2.3-2.3,3.8-2.8c0.4-0.2,0.9-0.4,1.3-0.1
		C218.9,3.6,218.6,4.1,218.4,4.5z M317.5,40.1c-0.2,0.5-0.3,1.2-1,1.1c-0.7-0.1-0.9-0.7-0.9-1.3c-0.1-1.4,0.7-2.4,1.5-3.7
		C317.5,37.6,317.9,38.8,317.5,40.1z"/>
	<path class="st22" d="M178.2,34.9c-0.4-0.3-1-0.2-1.4,0.1c-0.3,0.2-0.5,0.4-0.7,0.7c-0.8,0.9-1.5,1.8-2.3,2.7
		c-0.2,0.2-0.5,0.5-0.9,0.4c-0.4-0.1-0.4-0.5-0.4-0.8c0-0.3,0-0.7,0-1c0-3.2,0-6.4,0-9.6c0-1.1,0-2.2-0.3-3.2
		c-0.8-3.2-3.5-4.1-6.1-1.9c-1.7,1.4-2.8,3.2-3.8,5.1c-1.1,1.8-1.9,3.8-2.9,5.7c-0.2,0.4-0.4,0.9-1,0.8c-0.6-0.1-0.4-0.7-0.5-1.2
		c0-1.7,0-3.3,0-5c0-1.4-0.2-2.7-0.9-3.9c-0.6-1.2-1.6-1.9-3.1-1.9c-1.6,0-2.8,0.7-4,1.6c-1.3,1-2.6,2-4.1,2.7
		c-0.6,0.3-1,0.3-1.4-0.3c-1.4-2.3-3.5-3.5-6.3-3.4c-1.2,0.1-2.1,0.5-2.6,1.7c-0.8,1.8,0.3,4.5,2.1,5.2c1.6,0.6,3.2,1,4.9,0.7
		c0.5-0.1,0.7,0.1,0.7,0.5c0.2,1.8,0.1,3.6-0.7,5.3c-1,2.1-2.6,3.1-4.9,3.3c-2.2,0.1-3.8-0.8-4.9-2.6c-1-1.6-1.5-3.4-1.3-5.2
		c0.3-2.7,1.3-5.1,3.2-7.1c0.5-0.6,1.2-1.2,0.8-2c-0.4-0.8-1.3-0.6-2-0.5c-4.6,0.4-8.6,2.4-12.1,5.3c-1,0.8-2,1.7-3.1,2.6
		c-1.1-2.7-3-4.9-3.7-7.7c-0.1-0.4-0.3-0.8-0.8-0.9c-0.5,0-0.7,0.4-0.9,0.8c-0.3,0.7-0.6,1.4-1,2.1c-2.5,4.8-5.3,9.5-8.1,14.2
		c-0.2,0.4-0.4,1-0.9,0.8c-0.4-0.1-0.2-0.8-0.3-1.2c0-3.6,0-7.1,0-10.7c0-1.3-0.1-2.6-0.5-3.8c-0.8-2.5-3.6-3.2-5.5-1.3
		c-0.8,0.8-1.4,1.6-2,2.5c-1.9,3-3.4,6.2-5.1,9.4c-0.2,0.4-0.4,0.9-0.8,1.2c-0.4-0.4-0.3-0.8-0.3-1.2c0-2,0-4.1-0.1-6.1
		c0-1.4-0.2-2.8-0.7-4.1c-0.8-2.1-2.5-2.8-4.5-1.8c-0.7,0.4-1.2,1-1.6,1.6c-2.7,4.5-5.6,9-8.6,13.4c-0.2,0.3-0.4,0.6-0.6,0.9
		c-0.2,0.2-0.4,0.5-0.7,0.4c-0.3-0.1-0.3-0.4-0.3-0.7c0-0.6,0-1.2,0-1.8c0-3.4,0.1-6.7,0.1-10.1c0-1.5-0.5-2.8-2-3.4
		c-1.5-0.7-2.7-0.1-3.8,0.9c-1.5,1.3-2.6,3-3.6,4.6c-1.2,2-2.3,4.2-3.4,6.3c-0.2,0.3-0.3,0.8-0.7,0.7c-0.4-0.1-0.2-0.6-0.2-0.9
		c-0.1-2.9-0.1-5.8-0.2-8.6c0-1.1,0.3-1.9,1-2.7c2.6-3,4.7-6.4,5.8-10.4C65,9.5,65.3,7,64.5,4.5c-0.8-2.5-2.9-3.5-5.4-2.6
		c-1.4,0.5-2.4,1.4-3.2,2.6c-2.2,3.4-3.2,7.1-3.2,11c-0.1,2.8,0,5.6,0,8.4c0,0.4,0,0.7-0.4,1c-1.6,1.2-3.3,2.2-5.3,2.6
		c-0.7,0.1-1.1,0-1.4-0.7c-1-2.1-2.5-3.9-4.8-4.6c-1.9-0.6-3.6,0.3-4.2,2.3c-0.5,1.7,0.2,3.5,1.8,4.6c1.4,1,3,1.3,4.6,1.4
		c0.8,0,0.9,0.3,1,1c0.2,2.5-0.9,4.5-2.6,6.3c-2.4,2.5-5.9,2.2-7.9-0.7c-2.5-3.5-2.2-9.2,0.6-12.5c0.4-0.5,0.8-0.9,1.1-1.5
		c0.4-0.6,0.2-1-0.6-1c-0.8,0-1.6,0.2-2.3,0.4c-3.5,1.2-6.5,3.2-9.3,5.5c-1.2,1-2.4,2.1-3.7,3.2c-0.3-3.1-0.6-6.2-0.9-9.2
		C18,17.1,18,11.9,18.7,6.8c0.2-1.5,0.6-2.9,0.9-4.4c0.3-1.5-0.3-2.1-1.8-1.7c-0.8,0.2-1.6,0.4-2.3,0.8C6.1,5.3,0.2,14.8,0.9,25
		c0.3,4.2,1.3,8.2,3.9,11.6c1.4,1.9,3.1,3.6,4.8,5.2c0.6,0.6,0.8,1,0.3,1.9C7.2,48.1,5.2,52.9,4.1,58c-0.6,2.8-0.7,5.5,0.1,8.3
		c0.9,3.1,3.5,4.1,6.3,2.5c1.4-0.8,2.5-2,3.5-3.2c4-5.2,5.6-11.1,6.1-17.5c0.3-3.8,0-7.6-0.3-11.4c0-0.6-0.3-1.3,0.1-1.8
		c1.9-2.1,4-4,6.5-5.5c0.2-0.1,0.4-0.2,0.5-0.1c0.3,0.2,0.1,0.4,0,0.6c-0.8,2.7-0.7,5.4,0.2,8.1c3,8.3,12.3,7.9,16.1,3.5
		c2.4-2.8,3.5-6,3.3-9.7c0-0.9,0.1-1.4,1.1-1.6c1.5-0.3,3-1,4.3-1.8c0.2-0.1,0.3-0.3,0.6-0.2c0,1.4,0,2.7,0,4.1
		c0,3.1-0.1,6.3,0.1,9.4c0.1,1.1,1.2,2.3,2.4,2.4c1,0.1,1.2-0.9,1.6-1.5c0.3-0.4,0.4-0.8,0.6-1.2c1.2-2.4,2.4-4.7,3.6-7.1
		c1-2,2.1-4,3.5-5.8c0.2-0.3,0.5-0.8,0.9-0.6c0.3,0.1,0.2,0.6,0.2,1c0.1,3.2,0.2,6.3,0.3,9.5c0,1.1,0.1,2.2,0.4,3.3
		c0.8,2.5,3.2,3.2,5.2,1.5c0.5-0.4,0.9-0.9,1.3-1.4c1.2-1.5,2.1-3.2,3.1-4.8c1.7-2.8,3.3-5.8,5.3-8.5c0.3-0.4,0.6-0.9,1-0.8
		c0.6,0.1,0.4,0.8,0.4,1.2c0.1,0.5,0.1,1,0.1,1.5c0,3.3,0,6.7,0.1,10c0,0.8,0.1,1.6,0.3,2.4c0.5,1.3,1.4,1.7,2.6,1.1
		c1-0.5,1.7-1.3,2.3-2.3c0.6-1,1.2-2.1,1.8-3.2c1.9-3.4,3.6-6.9,5.7-10.1c0.3-0.4,0.5-0.9,1-1.1c0.2,0.4,0.1,0.8,0.1,1.1
		c0,3.9,0,7.7,0,11.6c0,1.9,0.8,3.4,2.7,4.1c1.7,0.7,3.1-0.2,4.3-1.2c0.8-0.7,1.4-1.6,2-2.4c2.2-3,4.2-6.1,6-9.3
		c0.3-0.5,0.5-0.6,0.9-0.1c0.5,0.6,0.9,1.3,1.4,2c0.4,0.6,0.4,1.1,0,1.7c-1.1,1.4-2.1,3-2.4,4.8c-0.3,1.6,0.2,3.1,1.6,4
		c1.4,0.9,2.8,0.7,4.2-0.1c1-0.6,1.7-1.4,2.1-2.4c1.4-2.8,1.4-5.6,0.3-8.5c-0.2-0.6-0.1-0.9,0.3-1.4c1-1,2.1-1.9,3.2-2.7
		c1.2-0.8,2.4-1.7,3.9-2.1c0.3-0.1,0.7-0.3,0.9,0c0.2,0.3-0.2,0.5-0.4,0.7c-0.6,0.7-1.1,1.4-1.4,2.2c-1.6,4.1-0.7,7.8,1.8,11.2
		c3.3,4.5,9.9,5.3,14.2,1.7c3.7-3.1,4.7-7.3,4.1-12c-0.1-0.9-0.1-1.5,0.9-2c0.8-0.4,1.5-1,2.3-1.5c0.7-0.5,1.3-1.2,2.2-0.8
		c0.9,0.4,0.7,1.4,0.7,2.2c0,4,0,8,0.1,12c0,1.1,0.1,2.1,0.5,3.1c0.6,1.4,2.1,1.7,3.2,0.7c0.6-0.5,1.1-1.2,1.5-1.9
		c1.3-2.1,2.4-4.4,3.5-6.6c1.2-2.3,2.4-4.7,3.6-7c0.2-0.4,0.4-0.9,0.9-0.7c0.4,0.1,0.2,0.6,0.2,1c0.1,3.3,0.2,6.7,0.3,10
		c0,1.4,0.2,2.8,0.9,4.1c1.2,2.2,3.8,2.7,5.8,1.2c0.4-0.3,0.9-0.7,1.2-1.1c1.6-2,2.8-4.3,4.1-6.4C178.5,35.8,178.7,35.3,178.2,34.9z
		 M139.4,27c-0.4-0.2-0.8-0.6-0.6-1.1c0.2-0.5,0.7-0.6,1.2-0.5c1,0.2,1.7,1,2.2,1.9C141.2,27.6,140.3,27.4,139.4,27z M58.7,7.3
		c0.2-0.9,0.5-1.8,1.1-2.6c0.3-0.4,0.6-0.6,1.1-0.6c0.5,0.1,0.6,0.6,0.7,1c0.8,5.4-0.3,10.2-3.9,14.8C57.7,15.5,57.7,11.4,58.7,7.3z
		 M40.4,27.2c-0.4-0.2-0.8-0.5-0.5-1c0.3-0.5,0.8-0.4,1.2-0.1c0.5,0.4,1,0.9,1.3,1.5C41.6,27.6,41,27.4,40.4,27.2z M14.3,60.2
		c-0.5,1.3-1.1,2.5-2,3.5c-0.8,0.8-1.8,1.4-3,1.1c-1.2-0.3-1.7-1.3-1.9-2.4c-0.5-2.3-0.2-4.6,0.3-6.8c1.1-5.3,3.5-10,6.7-14.4
		c0.1-0.1,0.1-0.2,0.2-0.3C15.9,47.5,16.6,53.9,14.3,60.2z M17.1,4.1c-0.6,1.5-1.2,2.9-1.8,4.4c-2.7,7.1-3.6,14.3-2.3,21.8
		c0.4,2.1,0.6,4.2,1,6.3c0.2,0.9-0.4,1.4-0.8,2c-1.2,1.7-1.2,1.7-2.4,0c-3.7-5-4.7-10.7-4.6-16.7C6.3,16,8.1,10.7,11.9,6.2
		c1.1-1.3,2.3-2.3,3.9-2.9c0.2-0.1,0.5-0.1,0.6-0.2C17.3,3.1,17.3,3.5,17.1,4.1z M116,40.2c-0.2,0.5-0.4,1.1-1.1,1
		c-0.6-0.1-0.8-0.7-0.9-1.3c-0.1-1.4,0.7-2.4,1.5-3.7C116,37.6,116.4,38.9,116,40.2z"/>
</g>
</svg>
