<?xml version="1.0" encoding="utf-8"?>
<!-- Generator: Adobe Illustrator 19.2.0, SVG Export Plug-In . SVG Version: 6.00 Build 0)  -->
<svg version="1.1" id="Layer_1" xmlns="http://www.w3.org/2000/svg" xmlns:xlink="http://www.w3.org/1999/xlink" x="0px" y="0px"
	 viewBox="0 0 145.6 70" style="enable-background:new 0 0 145.6 70;" xml:space="preserve">
<style type="text/css">
	.st0{fill:#8D53FB;}
	.st1{fill:#CF453A;}
	.st2{fill:#383A3C;}
	.st3{fill:#0078C1;}
	.st4{filter:url(#Adobe_OpacityMaskFilter);}
	.st5{fill:#FFFFFF;}
	.st6{mask:url(#mask-2_1_);fill:#ED3124;}
	.st7{fill:#FEFEFE;}
	.st8{fill:#213067;}
	.st9{fill:#DE6F2E;}
	.st10{fill:#105699;}
	.st11{fill:#0D4A82;}
	.st12{fill:#DD473A;}
	.st13{fill:#0E0B0B;}
	.st14{fill:#92B32E;}
	.st15{fill:#010101;}
	.st16{fill:#C64732;}
	.st17{fill:#FDE034;}
	.st18{fill:#171D23;}
	.st19{fill:#359ADA;}
	.st20{fill:#2C75BD;}
	.st21{fill:#2E76BE;}
	.st22{fill:#DC4739;}
	.st23{fill:#DB8238;}
	.st24{fill:#748B81;}
	.st25{fill:#6891C3;}
	.st26{fill:#4A71A2;}
	.st27{fill:#003475;}
	.st28{fill:#114F85;}
	.st29{fill:#323232;}
	.st30{fill:#3D8F8C;}
	.st31{fill:#1561A5;}
	.st32{fill:#FACE33;}
	.st33{fill:#1562A6;}
	.st34{fill:#285F3B;}
	.st35{fill:#285E3B;}
	.st36{fill:#6FAE49;}
	.st37{fill:#F8FBF7;}
	.st38{fill:#214068;}
	.st39{fill:#D54939;}
	.st40{fill:#D71E28;}
	.st41{fill:#163A83;}
	.st42{fill:#163A82;}
	.st43{fill:#CF6628;}
	.st44{fill:#87ABD8;}
	.st45{fill:#2B89F9;}
	.st46{fill:#9B3C55;}
	.st47{fill:#A0A0A4;}
	.st48{fill:#A2A2A4;}
	.st49{fill:#A0A0A3;}
</style>
<g>
	<path class="st16" d="M127.5,40c-1.1-0.9-2.2-1.7-3.3-2.6c-0.1-0.1-0.2-0.1-0.3,0c-0.6,0.6-1.2,1.2-1.8,1.7
		c-1.9,1.7-3.8,3.4-5.9,4.8c-1.3,0.9-2.7,1.8-4.3,2.4c-0.8,0.3-1.6,0.5-2.5,0.5c-0.7,0-1-0.4-0.9-1.1c0.1-0.6,0.4-1.1,0.7-1.5
		c0.6-1.1,1.4-2.1,2.2-3.1c0.1-0.1,0.2-0.2,0.2-0.3c-0.1-0.1-0.2-0.1-0.2-0.2c-1.1-0.8-2.2-1.7-3.3-2.5c-0.3-0.2-0.2-0.2-0.5,0
		c-1.1,1.1-2.3,2.1-3.5,3c-1.9,1.5-4,2.9-6.1,4c-1.3,0.7-2.7,1.3-4.1,1.6c-1,0.2-2,0.4-3,0.2c-0.9-0.2-1.7-0.6-2.2-1.5
		c-0.1-0.2-0.1-0.2,0.1-0.4c0.8-0.5,1.6-1.1,2.4-1.6c3.1-2.1,6-4.4,8.7-7.1c1.7-1.7,3.2-3.4,4.5-5.4c0.8-1.2,1.5-2.6,2-4
		c0.3-1,0.5-1.9,0.4-2.9c-0.1-1.1-0.6-1.9-1.6-2.5c-0.6-0.3-1.2-0.4-1.8-0.4c-1.3,0-2.5,0.2-3.7,0.6c-1.9,0.7-3.5,1.7-5.1,2.9
		c-2.1,1.6-3.9,3.5-5.6,5.6c-1.8,2.3-3.2,4.8-4.2,7.5c-0.7,1.8-1.2,3.7-1.4,5.6c0,0.1-0.1,0.2-0.2,0.3c-0.4,0.2-0.8,0.4-1.3,0.6
		c-2.3,1.1-4.7,2-7.2,2.5c-1.5,0.3-3,0.4-4.5,0.1c-0.7-0.1-1.4-0.4-1.9-0.8c-0.4-0.3-0.7-0.7-0.9-1.2c0.1-0.1,0.3-0.2,0.4-0.3
		c1.2-0.8,2.4-1.7,3.6-2.5c4.2-3.1,8.2-6.6,11.7-10.6c1.6-1.8,3-3.6,4.3-5.6c0.7-1.2,1.4-2.4,1.9-3.8c0.3-0.9,0.5-1.8,0.5-2.8
		c-0.1-1.4-0.8-2.4-2.1-2.8c-0.9-0.3-1.8-0.3-2.7-0.2C84,16.4,83,16.7,82,17.1c-1.7,0.7-3.3,1.7-4.8,2.8c-2.4,1.8-4.5,3.9-6.5,6.1
		c-2,2.4-3.8,4.9-5.3,7.6c-1.5,2.8-2.7,5.8-3,9c0,0.2-0.1,0.2-0.2,0.3c-0.7,0.4-1.3,0.8-2,1.2c-1.5,0.9-3.1,1.6-4.8,2.2
		c-1,0.3-1.9,0.6-3,0.6c-0.4,0-0.7,0-1.1-0.1c-0.5-0.1-0.8-0.5-0.8-1c0-0.3,0-0.5,0.1-0.8c0.1-0.5,0.4-0.9,0.6-1.4
		c0.6-1.1,1.4-2.1,2.2-3.1c0.3-0.4,0.7-0.8,1-1.2c0.2-0.2,0.2-0.2-0.1-0.4c-0.2-0.2-0.4-0.3-0.6-0.5c-0.9-0.7-1.7-1.3-2.6-2
		c-0.2-0.2-0.2-0.2-0.4,0c-0.1,0.1-0.1,0.2-0.2,0.2c-0.7,0.7-1.5,1.5-2.2,2.2c-1.7,1.6-3.4,3.1-5.3,4.5c-1.5,1.1-3.1,2-4.9,2.7
		c-2.2,0.8-4.5,1-6.8,0.5c-1.4-0.3-2.6-0.8-3.9-1.5c-0.1,0-0.2-0.1-0.2-0.1c0-0.1,0.1-0.1,0.2-0.2c2-1.7,3.8-3.5,5.5-5.5
		c2-2.3,3.9-4.8,5.7-7.3c0.2-0.2,0.3-0.4,0.6-0.4c1.6-0.3,3.1-0.7,4.7-1.2c3.3-1.1,6.5-2.6,9.5-4.5c3.6-2.3,6.9-4.9,9.8-8
		c1.8-1.8,3.4-3.8,4.7-6c1-1.6,1.7-3.3,2.1-5.1c0.2-1,0.3-2,0.2-3c-0.2-1.4-1-2.5-2.3-3.1c-0.9-0.4-1.8-0.5-2.7-0.4
		c-1.3,0.1-2.5,0.3-3.6,0.8C59.8,2,58.1,3,56.6,4.1c-2.2,1.6-4.2,3.4-6.1,5.3c-2.7,2.8-5.2,5.8-7.7,8.9c-2.5,3.1-4.8,6.3-7.1,9.6
		c-0.2,0.3-0.4,0.4-0.8,0.5c-1.1,0.1-2.2,0.2-3.4,0.3c-1.1,0-2.3,0-3.4-0.1c-1.4-0.1-2.9-0.4-4.2-0.8c-1.5-0.5-2.8-1.1-4-2.2
		c-0.8-0.7-1.5-1.6-1.9-2.7c-0.5-1.3-0.3-2.6,0.1-3.9c0.5-1.4,1.3-2.5,2.3-3.6c1.3-1.4,2.9-2.5,4.6-3.5c3.2-1.8,6.7-2.8,10.4-3.3
		c0.2,0,0.3,0,0.1-0.3C35.1,7,34.5,5.8,34,4.6c-0.1-0.1-0.1-0.2-0.3-0.2c-0.3,0.1-0.7,0.1-1,0.1c-1.6,0.2-3.1,0.6-4.7,1.1
		c-2.9,0.9-5.5,2.2-8,3.9c-1.5,1.1-2.9,2.3-4.1,3.7c-1.2,1.4-2.2,3-2.7,4.8c-0.5,1.6-0.7,3.3-0.4,5c0.3,1.9,1.2,3.6,2.6,5
		c1.4,1.4,3,2.4,4.9,3.1c2.2,0.9,4.6,1.4,7,1.6c1.3,0.1,2.6,0.1,3.9,0.1c0.3,0,0.5,0,0.8,0c0,0.1-0.1,0.2-0.1,0.2
		c-1.4,1.7-2.8,3.5-4.3,5.1c-1.3,1.4-2.7,2.7-4.2,3.9c-0.3,0.3-0.2,0.3-0.6,0c-0.4-0.2-0.7-0.5-1.1-0.7c-3-1.8-6.3-2.9-9.8-3.1
		c-1.9-0.1-3.8,0.1-5.6,0.7c-1.4,0.5-2.7,1.2-3.7,2.3c-1.6,1.7-1.8,4.1-1,6c0.5,1.2,1.4,2,2.5,2.7c1.6,0.9,3.4,1.3,5.3,1.4
		c1.9,0.1,3.8-0.1,5.6-0.4c2.7-0.5,5.3-1.4,7.7-2.7c0.2-0.1,0.3-0.1,0.5,0c1.1,0.7,2.3,1.4,3.5,1.9c1.4,0.6,2.9,0.9,4.4,1.1
		c1.3,0.1,2.6,0.2,3.9,0c1.5-0.2,3-0.6,4.4-1.1c2-0.7,3.9-1.7,5.7-2.9c0.1-0.1,0.2-0.2,0.4-0.2c0,0.2,0,0.4,0.1,0.6
		c0.2,1,0.6,1.9,1.5,2.5c1,0.7,2.1,1.1,3.3,1.1c1.8,0.1,3.6-0.2,5.4-0.7c2.4-0.7,4.6-1.7,6.7-2.9c0.2-0.1,0.4-0.2,0.6-0.3
		c0.1-0.1,0.2,0,0.2,0.1c0,0.1,0.1,0.1,0.1,0.2c0.4,0.7,1,1.3,1.6,1.8c1.3,1,2.9,1.5,4.5,1.7c1.1,0.1,2.3,0.1,3.4,0
		c1.7-0.2,3.4-0.5,5.1-1c2-0.6,3.9-1.4,5.8-2.3c0.2-0.1,0.2-0.1,0.4,0.1c0.2,0.4,0.5,0.7,0.7,1c1.2,1.3,2.7,2,4.4,2.2
		c1.4,0.2,2.7,0.1,4.1-0.2c1.6-0.3,3-0.7,4.5-1.3c1.6-0.7,3.2-1.5,4.7-2.4c0.1-0.1,0.3-0.2,0.5-0.2c-0.1,0.4-0.1,0.8,0,1.2
		c0.1,0.8,0.5,1.6,1.2,2.1c0.7,0.5,1.5,0.8,2.3,0.8c0.9,0.1,1.9,0,2.8-0.2c0.4-0.1,0.7-0.2,1.1-0.3c-0.1,0.1-0.2,0.2-0.2,0.2
		c-1.8,1.8-3.4,3.8-5,5.8c-1.9,2.5-3.7,5.2-5.2,8c-0.6,1.1-1.1,2.1-1.5,3.3c-0.1,0.2-0.1,0.2,0.1,0.3c1.5,0.4,3.1,0.8,4.6,1.2
		c0.2,0,0.2,0,0.3-0.2c0.1-0.4,0.3-0.7,0.4-1.1c1-2.3,2.2-4.4,3.6-6.4c1.7-2.5,3.6-4.8,5.5-7.1c2.7-3.1,5.6-6.1,8.6-9
		c1.9-1.8,3.8-3.6,5.7-5.5C127.5,40.2,127.6,40.2,127.5,40C127.6,40,127.6,40,127.5,40z M45.2,23.3c2.3-3,4.6-5.9,7.2-8.7
		c2-2.2,4.2-4.3,6.5-6.2c0.9-0.8,1.9-1.5,2.9-2c0.5-0.3,1-0.5,1.6-0.6c0.2,0,0.3-0.1,0.5,0c0.5,0,0.8,0.3,0.8,0.8
		c0,0.3-0.1,0.6-0.1,0.9c-0.2,0.7-0.5,1.4-0.9,2.1c-0.9,1.7-2.1,3.2-3.3,4.6c-3.3,3.8-7.1,7-11.4,9.5c-1.8,1.1-3.7,1.9-5.7,2.6
		c-0.1,0-0.2,0.1-0.3,0.1c0,0,0,0-0.1,0C43.7,25.2,44.5,24.2,45.2,23.3z M16.6,46c-1.4,0.5-2.9,0.9-4.4,1.1
		c-1.4,0.1-2.8,0.2-4.1-0.2c-0.5-0.1-1-0.3-1.4-0.6c-0.6-0.4-0.9-0.9-0.8-1.7c0.1-0.5,0.4-0.9,0.8-1.2c0.5-0.4,1.2-0.7,1.8-0.8
		c0.9-0.2,1.9-0.3,2.9-0.2c2.6,0.2,4.9,1.1,7.1,2.5c0,0,0.1,0.1,0.1,0.1c0,0,0,0,0.1,0.1C17.9,45.5,17.3,45.7,16.6,46z M67.7,39
		c0.7-1.9,1.7-3.6,2.8-5.2c1.5-2.3,3.3-4.5,5.2-6.5c1.5-1.6,3.1-3.1,4.9-4.5c0.7-0.6,1.4-1.1,2.2-1.5c0.3-0.2,0.7-0.4,1-0.4
		c0.6-0.2,0.9,0.1,0.7,0.7c-0.2,0.8-0.6,1.4-1,2.1c-0.9,1.4-1.9,2.7-3,4c-2.1,2.5-4.4,4.8-6.9,7c-1.9,1.7-3.9,3.4-5.9,5
		c-0.1,0.1-0.2,0.2-0.4,0.3C67.5,39.5,67.6,39.2,67.7,39z M88.3,40.8c0.3-0.9,0.6-1.8,1-2.6c1-2.1,2.3-3.9,3.8-5.7
		c1.5-1.8,3-3.5,4.8-4.9c0.6-0.5,1.2-0.9,1.9-1.3c0.3-0.2,0.7-0.3,1-0.4c0.1,0,0.3-0.1,0.4-0.1c0.3,0,0.4,0.1,0.5,0.4
		c0,0.3-0.1,0.5-0.1,0.8c-0.3,0.7-0.6,1.4-1.1,2c-1,1.5-2.1,2.8-3.3,4.1c-2.6,2.8-5.5,5.3-8.6,7.5C88.5,40.7,88.4,40.8,88.3,40.8z"
		/>
	<path class="st16" d="M54.3,32.6c0,1.7,1.4,3.1,3.1,3.1c1.7,0,3.1-1.4,3.1-3.1c0-1.7-1.4-3.1-3.1-3.1
		C55.6,29.5,54.3,30.9,54.3,32.6z"/>
</g>
</svg>
