<?xml version="1.0" encoding="utf-8"?>
<!-- Generator: Adobe Illustrator 19.2.0, SVG Export Plug-In . SVG Version: 6.00 Build 0)  -->
<svg version="1.1" id="Layer_1" xmlns="http://www.w3.org/2000/svg" xmlns:xlink="http://www.w3.org/1999/xlink" x="0px" y="0px"
	 viewBox="0 0 383.2 70" style="enable-background:new 0 0 383.2 70;" xml:space="preserve">
<style type="text/css">
	.st0{fill:#8D53FB;}
	.st1{fill:#CF453A;}
	.st2{fill:#383A3C;}
	.st3{fill:#0078C1;}
	.st4{filter:url(#Adobe_OpacityMaskFilter);}
	.st5{fill:#FFFFFF;}
	.st6{mask:url(#mask-2_1_);fill:#ED3124;}
	.st7{fill:#FEFEFE;}
	.st8{fill:#213067;}
	.st9{fill:#DE6F2E;}
	.st10{fill:#105699;}
	.st11{fill:#0D4A82;}
	.st12{fill:#DD473A;}
	.st13{fill:#0E0B0B;}
	.st14{fill:#92B32E;}
	.st15{fill:#010101;}
	.st16{fill:#C64732;}
	.st17{fill:#FDE034;}
	.st18{fill:#171D23;}
	.st19{fill:#359ADA;}
	.st20{fill:#2C75BD;}
	.st21{fill:#2E76BE;}
	.st22{fill:#DC4739;}
	.st23{fill:#DB8238;}
	.st24{fill:#748B81;}
	.st25{fill:#6891C3;}
	.st26{fill:#4A71A2;}
	.st27{fill:#003475;}
	.st28{fill:#114F85;}
	.st29{fill:#323232;}
	.st30{fill:#3D8F8C;}
	.st31{fill:#1561A5;}
	.st32{fill:#FACE33;}
	.st33{fill:#1562A6;}
	.st34{fill:#285F3B;}
	.st35{fill:#285E3B;}
	.st36{fill:#6FAE49;}
	.st37{fill:#F8FBF7;}
	.st38{fill:#214068;}
	.st39{fill:#D54939;}
	.st40{fill:#D71E28;}
	.st41{fill:#163A83;}
	.st42{fill:#163A82;}
	.st43{fill:#CF6628;}
	.st44{fill:#87ABD8;}
	.st45{fill:#2B89F9;}
	.st46{fill:#9B3C55;}
	.st47{fill:#A0A0A4;}
	.st48{fill:#A2A2A4;}
	.st49{fill:#A0A0A3;}
</style>
<g>
	<path class="st23" d="M49.9,69.2c-1.4-0.5-2.9-0.9-4.1-1.9c-3.1-2.5-4.3-6.4-2.9-10.3c2.1-5.9,4.3-11.9,6.5-17.8
		C53.2,28.7,57,18.1,60.9,7.5c1.7-4.8,6.8-7.2,11.6-5.5c4.7,1.7,7.1,6.9,5.3,11.6c-2.8,7.8-5.7,15.5-8.5,23.3
		c-3.2,8.7-6.3,17.4-9.5,26c-1.2,3.2-3.4,5.3-6.8,6.1c-0.1,0-0.2,0.1-0.3,0.2C51.8,69.2,50.8,69.2,49.9,69.2z"/>
	<path class="st24" d="M32.3,59.2c-4.8,0-8-4.6-6.4-9.1c2-5.5,4-11,6-16.5c2.6-7.1,5.2-14.3,7.8-21.4c1.2-3.3,4-5.1,7.3-4.8
		c3,0.3,5.4,2.6,6,5.7c0.2,1.3,0,2.6-0.5,3.8c-2.6,7.1-5.2,14.3-7.8,21.4c-2,5.4-3.9,10.9-5.9,16.3C37.7,57.5,35.2,59.2,32.3,59.2z"
		/>
	<path class="st25" d="M12.1,46.2c0-1.9,0.9-3.6,1.5-5.3c3-8.3,6-16.6,9-24.9c0.7-1.8,1.7-3.2,3.6-3.8c2-0.6,3.8-0.1,5.2,1.4
		c1.4,1.5,1.7,3.3,1.1,5.2c-2.1,5.8-4.2,11.7-6.3,17.5c-1.4,3.8-2.7,7.6-4.2,11.4c-0.9,2.3-2.6,3.6-4.9,3.6
		C14.3,51.2,12.1,49.1,12.1,46.2z"/>
	<path class="st26" d="M115.9,29.1c-1.1,3-2.2,5.9-3.3,8.9c-1.6,4.2-3.1,8.4-4.7,12.5c-0.3,0.7-0.6,1-1.4,1c-2.2,0-2.2,0-2.9-2
		c-2.5-6.6-4.9-13.1-7.4-19.7c-0.1-0.2-0.2-0.5-0.5-0.7c0,1,0,2,0,3c0,6,0,12.1,0,18.1c0,0.9-0.2,1.2-1.1,1.2c-2.5,0-2.5,0-2.5-2.5
		c0-8,0-16.1,0-24.1c0-0.9,0.2-1.2,1.1-1.1c0.8,0.1,1.6,0.1,2.4,0c1.3-0.2,1.8,0.4,2.2,1.5c2.5,6.8,5.1,13.6,7.6,20.4
		c0.1,0.3,0.3,0.6,0.5,1.1c1.3-3.6,2.6-6.9,3.9-10.3c1.5-3.9,3-7.9,4.4-11.8c0.2-0.7,0.6-0.9,1.3-0.9c1.1,0.1,2.2,0,3.4,0
		c0.6,0,0.8,0.1,0.8,0.7c0,8.7,0,17.4,0,26.1c0,0.6-0.1,0.8-0.7,0.8c-2.8,0.1-2.8,0.1-2.8-2.7c0-6.6,0-13.1,0-19.7
		C116.1,29.2,116,29.1,115.9,29.1z"/>
	<path class="st26" d="M16.6,19.5c0,0.6-0.2,1.1-0.4,1.6c-2.6,7-5.1,14-7.7,21c-0.8,2.2-2.9,3.2-5,2.5c-2-0.7-3.1-2.9-2.3-5
		C3.8,32.5,6.4,25.4,9,18.3c0.7-1.8,2-2.7,4-2.6c1.7,0.1,3,1.1,3.5,2.7C16.5,18.8,16.5,19.1,16.6,19.5z"/>
	<g>
		<path class="st26" d="M378,25c-0.9-1.5-2.7-1.9-4.2-1.1c-1.4,0.8-1.9,2.6-1.1,4c0.8,1.4,2.6,1.9,4.1,1.2c0.8-0.4,1.1-1.1,1.5-1.8
			c0-0.6,0-1.1,0-1.7C378.2,25.4,378.1,25.2,378,25z M375.4,28.9c-1.4,0-2.4-1-2.4-2.5c0-1.4,1-2.5,2.4-2.5c1.3,0,2.3,1,2.4,2.4
			C377.8,27.8,376.8,28.9,375.4,28.9z"/>
		<path class="st26" d="M295.3,36.9c-3,0-6.1,0-9.1,0c-2.2,0-2.2,0-2.2,2.2c0,0.8,0.2,1,1,1c2.3-0.1,4.7,0,7,0
			c0.6,0,0.9,0.1,0.8,0.8c-0.2,2-0.8,3.9-2.1,5.4c-3.4,3.9-11.9,4.3-15-2.8c-1.4-3.3-1.4-6.7-0.4-10.1c1.4-4.9,5-7.3,10.1-6.9
			c2.7,0.3,5.2,1.3,6.1,4c0.7,1.9,1.7,2.2,3.3,2c0.1,0,0.1,0,0.2,0c0.7,0.1,0.9-0.2,0.8-0.9c-0.9-3.6-2.9-6.1-6.4-7.4
			c-2-0.8-4.1-0.9-6.2-0.8c-4.4,0.2-7.8,2.2-10,5.9c-2.2,3.6-2.7,7.7-2.1,11.8c0.9,6.6,6.5,11.3,13,11.2c3.4-0.1,6.4-1.1,8.8-4
			c0.3,1,0.5,1.9,0.8,2.7c0.4,1.1,1.3,0.5,2.1,0.6c0.7,0.1,0.5-0.5,0.5-0.9c0-4.3,0-8.5,0-12.8C296.2,37.1,296,36.9,295.3,36.9z"/>
		<path class="st26" d="M233.7,31.5c-1.1-0.1-1.5,0.3-1.7,1.3c-1.3,4.9-2.7,9.8-4,14.8c-0.4-0.4-0.4-0.9-0.5-1.3
			c-1.2-4.6-2.4-9.2-3.5-13.8c-0.2-0.7-0.4-1-1.2-1c-2.7,0-2.7,0-3.4,2.7c0,0.2-0.1,0.3-0.1,0.5c-1.1,4.3-2.1,8.6-3.2,13.1
			c-0.2-0.5-0.2-0.7-0.3-0.9c-1.2-4.3-2.4-8.6-3.6-12.9c-0.7-2.5-0.7-2.5-3.3-2.5c-0.9,0-1.1,0.2-0.8,1.1c1.8,5.5,3.5,11,5.3,16.5
			c0.8,2.6,0.8,2.6,3.6,2.5c0.6,0,0.9-0.2,1-0.9c0.8-3.3,1.6-6.6,2.5-9.8c0.4-1.6,0.8-3.3,1.3-4.9c1.3,4.4,2.4,8.8,3.5,13.2
			c0.6,2.4,0.6,2.4,3.1,2.4c0.8,0,1.1-0.2,1.4-1c1.4-4.6,2.9-9.2,4.4-13.8c0.5-1.7,1.1-3.4,1.6-5.2C235,31.5,234.4,31.6,233.7,31.5z
			"/>
		<path class="st26" d="M169.4,34c-0.2-2.4-0.2-2.4-2.2-2.5c-1.1,0-1.2,0.4-1.2,1.3c0,8.1,0,16.2,0,24.3c0,2.1,0,2,2.1,2.1
			c1,0,1.2-0.3,1.2-1.2c-0.1-2.9,0-5.9,0-9c0.6,0.6,1,1.1,1.5,1.5c3.7,2.6,10.6,2.2,13.1-3.5c1.6-3.7,1.6-7.4-0.1-11
			C181.1,30.3,173.7,29.2,169.4,34z M181.1,44.6c-0.7,2.7-2.6,4.3-5.3,4.4c-2.8,0.1-5-1.4-5.9-4c-0.8-2.3-0.8-4.6-0.1-6.9
			c0.9-2.8,3.2-4.3,6.1-4.1c2.7,0.2,4.8,2.1,5.4,5c0.2,0.8,0.3,1.6,0.2,2.3C181.6,42.5,181.4,43.6,181.1,44.6z"/>
		<path class="st26" d="M367.6,31.5c-3.4-0.9-6.6-0.6-9.2,2.5c0-0.8,0.2-1.7-0.1-2.2c-0.4-0.7-1.3-0.2-2-0.3c-1-0.2-1.3,0.2-1.3,1.2
			c0.1,8.1,0,16.1,0,24.2c0,2.2,0,2.2,2.2,2.3c1,0,1.2-0.3,1.2-1.2c-0.1-2.9,0-5.8,0-8.9c0.2,0.1,0.3,0.2,0.3,0.2
			c2.5,3.4,10,3.7,13.2-0.6c2.2-3.1,2.5-6.7,1.7-10.3C373,35,371.1,32.4,367.6,31.5z M369.6,46c-0.9,2-2.6,3-4.7,3.1
			c-2.2,0.1-4.1-0.6-5.3-2.6c-1.8-3.1-1.8-6.4-0.2-9.6c1-2,2.8-2.8,4.2-2.9c3.8,0,6,1.9,6.7,5.3C370.8,41.6,370.6,43.8,369.6,46z"/>
		<path class="st26" d="M142.1,48.9c-0.1,0-0.2,0-0.3,0c-1.6-0.1-1.6-0.1-1.6-1.8c0-3.5,0-7.1,0-10.6c0-2.8-1.3-4.4-3.9-5.1
			c-2.5-0.6-5.1-0.6-7.5,0.1c-2.6,0.8-4.4,2.9-4.5,5.4c0,0.3-0.2,0.7,0.2,0.8c0.9,0.1,1.9,0,2.8,0c0.3,0,0.3-0.4,0.3-0.7
			c0.1-0.8,0.4-1.5,1.1-2c1.5-1.2,5.2-1.4,6.9-0.4c1.1,0.7,1.4,1.7,1.3,2.9c-0.1,1.1-0.9,1.5-1.8,1.8c-0.5,0.2-0.9,0.2-1.4,0.3
			c-2.3,0.4-4.7,0.6-6.8,1.5c-2.5,1-3.5,3-3.3,6c0.2,2.2,1.6,3.9,4,4.5c3.6,0.8,6.8,0.2,9.6-2.5c0.1,1,0.3,1.9,1.2,2.4
			c1.2,0.7,2.4,0.5,3.6,0.1C142.3,51.5,142.5,49.2,142.1,48.9z M132.4,48.9c-0.9,0.2-1.9,0.2-2.8,0c-1.4-0.2-2.4-1.1-2.6-2.2
			c-0.3-1.5,0.3-2.7,1.6-3.4c1-0.5,2.2-0.7,3.3-0.9c1.6-0.2,3.3-0.3,4.9-1c0,0.9,0,1.6,0,2.4C137.1,46.9,134.6,48.5,132.4,48.9z"/>
		<path class="st26" d="M254.7,38.8c-1.5-7.2-7.6-9.2-12.8-6.9c-3.3,1.5-4.9,4.4-5.3,7.9c-0.4,3.5,0.2,6.9,2.8,9.6
			c2.3,2.3,5.2,2.8,8.3,2.4c3.2-0.4,5.5-2.1,6.6-5.2c0.5-1.5,0.5-1.5-1.1-1.5c-0.3,0-0.6,0-0.8,0c-0.7-0.1-1.1,0.1-1.3,0.8
			c-0.3,1-1,1.8-1.9,2.4c-3.9,2.2-8.8-0.5-9.1-4.9c0-0.7,0.1-0.9,0.8-0.9c2.2,0,4.4,0,6.6,0c2.2,0,4.4,0,6.6,0
			c0.7,0,0.9-0.1,0.9-0.9C254.9,40.7,254.9,39.8,254.7,38.8z M250.4,39.6c-1.6-0.1-3.1,0-4.7,0c-1.6,0-3.3,0-4.9,0
			c-0.6,0-0.8-0.2-0.7-0.8c0.5-2.8,2.6-4.7,5.3-4.9c2.9-0.1,5.2,1.6,5.9,4.5C251.4,39.3,251.4,39.7,250.4,39.6z"/>
		<path class="st26" d="M201.4,32c-3.5-1.5-7-1.4-10.2,0.9c-2.9,2.1-3.8,5.2-3.8,7.1c0,7.8,3.4,11.7,9.4,12c4.7,0.3,8.4-2.5,9.6-7
			c0.4-1.6,0.5-3.3,0.3-5C206.3,36.4,204.8,33.4,201.4,32z M201.3,47.2c-2.9,2.9-7.6,2.2-9.5-1.4c-0.6-1.2-0.9-2.6-0.9-4.2
			c0-1.4,0.2-2.7,0.8-4c1.1-2.3,2.9-3.7,5.5-3.6c2.6,0,4.3,1.4,5.4,3.7C203.9,40.9,203.3,45.2,201.3,47.2z"/>
		<path class="st26" d="M316.5,32.2c-3.6,2-4.7,5.4-4.8,8.1c0,7.5,3.2,11.2,9.4,11.6c4.2,0.3,7.8-1.8,9.3-5.9c0.8-2,0.9-4.1,0.7-6.3
			C330.3,32.6,322.8,28.7,316.5,32.2z M326.8,45.5c-1.1,2.3-2.9,3.5-5.3,3.6c-2.5,0-4.4-1.2-5.4-3.4c-1.2-2.7-1.2-5.5,0-8.2
			c1-2.2,2.8-3.4,5.2-3.4c2.5,0,4.2,1.2,5.4,3.3c0.7,1.3,0.9,2.8,0.9,4.3C327.6,43,327.4,44.3,326.8,45.5z"/>
		<path class="st26" d="M161.8,37.1c-0.1-3.9-2.5-6-6.4-6.1c-2.9-0.1-5.2,0.9-7,3.6c0-0.6,0-0.8,0-1c0-2.1,0-2.1-2.1-2.1
			c-0.8,0-1.1,0.2-1.1,1c0,5.6,0,11.1,0,16.7c0,2.4,0,2.3,2.4,2.4c0.7,0,0.9-0.2,0.9-0.9c0-3.6,0-7.1,0-10.7c0-1.2,0.3-2.3,0.9-3.3
			c1.2-2.1,3.9-3.1,6.3-2.5c2,0.5,2.8,1.8,2.8,4.7c0,3.4,0,6.8,0,10.3c0,2.6,0,2.6,2.6,2.4c0,0,0.1,0,0.1,0c0.5,0.1,0.7-0.2,0.6-0.7
			C161.8,46.3,161.9,41.7,161.8,37.1z"/>
		<path class="st26" d="M350.9,33.7c0-2.2,0-2.2-2.2-2.3c-0.9,0-1.1,0.2-1.1,1.1c0,3.6,0.1,7.1,0,10.7c-0.1,4.1-3.2,6.5-7,5.6
			c-1.3-0.3-2.2-1.1-2.6-2.3c-0.3-0.7-0.2-1.5-0.2-2.3c0-3.5,0-6.9,0-10.4c0-2.6,0-2.5-2.6-2.4c-0.5,0-0.7,0.2-0.7,0.7
			c0,4.6,0,9.2,0.1,13.8c0.1,3.4,2,5.4,5.4,5.8c3.2,0.4,5.9-0.4,8-3.5c0,0.6,0,0.8,0,1.1c0,2.1,0,2,2.1,2.1c0.9,0,1.1-0.3,1.1-1.1
			C350.8,44.8,350.9,39.3,350.9,33.7z"/>
		<path class="st26" d="M311,31.7c0.1-0.5-0.2-0.7-0.7-0.7c-1.8,0-3.4,0.5-4.7,1.8c-0.7,0.7-1.3,1.5-2,2.3c0-0.5,0-1,0-1.6
			c0-2.1,0-2-2.1-2.1c-0.9,0-1.1,0.2-1.1,1.1c0,5.6,0,11.2,0,16.8c0,2.2,0,2.1,2.2,2.2c0.9,0,1.1-0.2,1.1-1.1c0-3.2-0.2-6.5,0.1-9.7
			c0.3-3.2,2-5.3,4.8-5.9c0.8-0.2,1.8,0.3,2.2-0.5c0.3-0.7,0.1-1.6,0.1-2.5C311,31.8,311,31.7,311,31.7z"/>
		<path class="st26" d="M265.8,31.4c-2,0.6-3.2,2.2-4.4,3.9c0-0.6,0-1.2,0-1.8c0-2,0-2-2.1-2.1c-0.9,0-1.1,0.3-1.1,1.1
			c0,5.5,0,11,0,16.5c0,2.4,0,2.4,2.5,2.4c0.7,0,0.9-0.2,0.9-0.9c0-2.3,0-4.6,0-6.9c0-1.2,0-2.4,0.2-3.6c0.5-3.1,2.2-4.9,5.3-5.4
			c0.4-0.1,0.8-0.1,1.3-0.1c0.3,0,0.5-0.1,0.5-0.5c0-1,0.5-2.3-0.2-2.9C268,30.6,266.8,31.2,265.8,31.4z"/>
		<path class="st26" d="M376.6,26.2c0.5-0.4,0.3-1.1-0.3-1.4c-1.2-0.6-2.1,0-2.1,1.3c0,0.5,0,0.9,0,1.4c0,0.2-0.1,0.6,0.3,0.6
			c0.4,0,0.2-0.4,0.3-0.6c0.1-0.2-0.2-0.6,0.2-0.7c0.4-0.1,0.5,0.3,0.7,0.5c0.3,0.3,0.3,1.1,1.1,0.9c0-0.1-0.1-0.2-0.1-0.3
			C376.3,27.3,375.8,26.9,376.6,26.2z M375.4,26.2c-0.3,0-0.6,0-0.6-0.4c0-0.4,0.1-0.7,0.6-0.6c0.4,0,0.8,0,0.8,0.5
			C376.2,26.2,375.8,26.2,375.4,26.2z"/>
	</g>
</g>
</svg>
