<?xml version="1.0" encoding="utf-8"?>
<!-- Generator: Adobe Illustrator 19.2.0, SVG Export Plug-In . SVG Version: 6.00 Build 0)  -->
<svg version="1.1" id="Layer_1" xmlns="http://www.w3.org/2000/svg" xmlns:xlink="http://www.w3.org/1999/xlink" x="0px" y="0px"
	 viewBox="0 0 781.9 70" style="enable-background:new 0 0 781.9 70;" xml:space="preserve">
<style type="text/css">
	.st0{fill:#8D53FB;}
	.st1{fill:#CF453A;}
	.st2{fill:#383A3C;}
	.st3{fill:#0078C1;}
	.st4{filter:url(#Adobe_OpacityMaskFilter);}
	.st5{fill:#FFFFFF;}
	.st6{mask:url(#mask-2_1_);fill:#ED3124;}
	.st7{fill:#FEFEFE;}
	.st8{fill:#213067;}
	.st9{fill:#DE6F2E;}
	.st10{fill:#105699;}
	.st11{fill:#0D4A82;}
	.st12{fill:#DD473A;}
	.st13{fill:#0E0B0B;}
	.st14{fill:#92B32E;}
	.st15{fill:#010101;}
	.st16{fill:#C64732;}
	.st17{fill:#FDE034;}
	.st18{fill:#171D23;}
	.st19{fill:#359ADA;}
	.st20{fill:#2C75BD;}
	.st21{fill:#2E76BE;}
	.st22{fill:#DC4739;}
	.st23{fill:#DB8238;}
	.st24{fill:#748B81;}
	.st25{fill:#6891C3;}
	.st26{fill:#4A71A2;}
	.st27{fill:#003475;}
	.st28{fill:#114F85;}
	.st29{fill:#323232;}
	.st30{fill:#3D8F8C;}
	.st31{fill:#1561A5;}
	.st32{fill:#FACE33;}
	.st33{fill:#1562A6;}
	.st34{fill:#285F3B;}
	.st35{fill:#285E3B;}
	.st36{fill:#6FAE49;}
	.st37{fill:#F8FBF7;}
	.st38{fill:#214068;}
	.st39{fill:#D54939;}
	.st40{fill:#D71E28;}
	.st41{fill:#163A83;}
	.st42{fill:#163A82;}
	.st43{fill:#CF6628;}
	.st44{fill:#87ABD8;}
	.st45{fill:#2B89F9;}
	.st46{fill:#9B3C55;}
	.st47{fill:#A0A0A4;}
	.st48{fill:#A2A2A4;}
	.st49{fill:#A0A0A3;}
</style>
<g>
	<path class="st27" d="M21.6,36.7c12-6.9,24.1-13.9,36.1-20.8c6.5-3.8,13.1-7.5,19.6-11.4c2.8-1.7,5.4-1.6,8.2,0
		c6.7,4,13.5,7.9,20.3,11.8c2.6,1.5,3.9,3.6,3.9,6.6c0,8.1,0,16.1,0,24.2c0,2.9-1.2,5-3.8,6.4c-7.1,4-14.1,8.1-21.1,12.2
		c-0.4,0.2-1,0.3-1.1,0.8c-1.6,0-3.1,0-4.7,0c-3.1-1.1-5.8-3.1-8.6-4.7c-2.2-1.2-4.3-2.5-6.5-3.8c-2.2-1.4-2.3-2-0.2-3.5
		c3.4-2.6,6.8-5.2,10.2-7.8c5.9-4.5,11.7-9.2,17.7-13.5c0.6-0.2,0.9-0.8,1.3-0.9c-0.4,0.2-0.9,0.7-1.5,1c-4.8,3.3-9.9,5.9-14.9,8.8
		C63.2,50,50,57.7,36.8,65.3c-1.1,0.6-2.2,0.9-3.3,1.4c-1.4,0-2.9,0-4.3,0c-2.5-0.6-4.5-2.1-6.6-3.4c-5.7-3.2-11.3-6.6-17-9.8
		c-1.6-0.9-2-2.4-2.5-4C3,40,3,30.4,3,20.8c0.9-2.3,2.6-3.8,4.7-5c6.5-3.7,13-7.4,19.4-11.3c2.9-1.7,5.6-1.7,8.4,0
		c4.9,3,9.9,5.8,15,8.8c-10,7.7-19.8,15.3-29.6,22.9c-0.3,0.5-0.7,1-1,1.1C20.3,37.1,20.9,36.8,21.6,36.7z"/>
	<g>
		<path class="st27" d="M198.6,35.5c0-8.9,0-17.9,0-26.8c0-1.6-0.4-2.1-2-2c-2.3,0.1-4.7,0.1-7.1,0c-1.2-0.1-1.9,0.4-2.6,1.4
			c-3.2,5.1-6.5,10.2-9.8,15.3c-2.9,4.5-5.8,9-8.9,13.8c-0.6-0.9-1-1.5-1.4-2.2c-5.7-9-11.4-17.9-17.1-26.9
			c-0.5-0.8-0.9-1.5-2.1-1.4c-2.8,0.1-5.6,0.1-8.4,0c-1.1,0-1.5,0.4-1.5,1.5c0,17.9,0,35.9,0,53.8c0,1.3,0.5,1.5,1.7,1.5
			c2.2-0.1,4.4-0.1,6.6,0c1.6,0.1,2-0.4,2-2c-0.1-12.1,0-24.2,0-36.2c0-0.7,0-1.4,0-2.6c0.7,1,1.2,1.6,1.6,2.3
			c5.7,8.9,11.4,17.8,17.1,26.7c1.4,2.2,1.4,2.2,2.8,0c6.1-9.5,12.3-19.1,18.4-28.6c0.1,0,0.3,0.1,0.4,0.1c0,0.7,0,1.4,0,2.1
			c0,12.1,0,24.2,0,36.2c0,1.6,0.4,2.1,2,2c2.1-0.1,4.1-0.1,6.2,0c1.6,0.1,2.2-0.4,2.1-2.1C198.5,52.8,198.6,44.1,198.6,35.5z"/>
		<path class="st27" d="M440.1,6.7c-2.3,0.2-4.6,0.1-6.9,0c-1.3-0.1-2,0.4-2.7,1.5c-5.8,9.1-11.7,18.1-17.5,27.2
			c-1.2,1.8-1.6,1.4-2.5-0.1c-5.7-9-11.4-17.9-17.1-26.9c-0.5-0.8-0.8-1.8-2.2-1.7c-2.9,0.1-5.7,0.1-8.6,0c-1.1,0-1.3,0.4-1.3,1.4
			c0,18,0,36,0,54c0,1.2,0.4,1.4,1.5,1.4c2.3-0.1,4.6-0.1,6.9,0c1.6,0.1,2-0.5,2-2c-0.1-12.1,0-24.2,0-36.2c0-0.7,0-1.4,0-2
			c0.1,0,0.2-0.1,0.4-0.1c6.5,10.2,13,20.3,19.7,30.7c6.7-10.4,13.3-20.6,19.8-30.9c0.1,0.1,0.2,0.1,0.4,0.2c0,11.4,0,22.9,0,34.3
			c0,1.9-0.7,4.5,0.3,5.6c1.1,1.3,3.8,0.4,5.7,0.4c4.2,0.1,4.2,0,4.2-4.3c0-16.8,0-33.6,0-50.4C442.2,7.2,441.8,6.6,440.1,6.7z"/>
		<path class="st27" d="M369.4,37.7c0-2.1-0.1-4.1-0.5-6.2c-1.4-7.7-6.7-12.3-14.5-12.5c-5.7-0.1-10.2,2.1-13.7,7.4
			c0-6.4-0.1-12.2,0-18c0-1.5-0.4-2-1.9-1.9c-2.1,0.1-4.1,0.1-6.2,0c-1.5-0.1-1.9,0.4-1.9,1.9c0.1,8,0,16,0,24c0,9.6,0,19.3,0,28.9
			c0,1.6,0.4,2.1,2,2c2-0.1,4-0.1,6,0c1.6,0.1,2-0.4,2-2c-0.1-7.2,0-14.4,0-21.6c0-2.1,0.3-4.1,1.2-6c1.7-4,5.8-6.3,10.3-5.7
			c4.1,0.6,6.4,3.1,7,7.7c0.2,1.5,0.3,3.1,0.3,4.7c0,7.1,0.1,14.1,0,21.2c0,1.4,0.4,1.9,1.8,1.8c2.1-0.1,4.1-0.1,6.2,0
			c1.6,0.1,2.1-0.3,2-2C369.3,53.6,369.4,45.7,369.4,37.7z"/>
		<path class="st27" d="M578.1,37.8c-0.8-7.4-3.7-13.6-10.8-16.7c-7.1-3.2-14.2-2.8-20.8,1.5c-7,4.5-9.6,11.4-9.8,19.4
			c-0.2,9.6,4.6,17.5,12.9,20.8c8.5,3.3,16.9,2.7,25-1.5c1.7-0.9,2.6-1.9,2.4-3.9c-0.2-2,0-4,0-6.2c-8,4.5-11.4,5.4-17.8,4.9
			c-6-0.5-10.6-4-12.2-9.3c-0.5-1.6-0.2-2,1.5-2c9.2,0.1,18.4,0,27.7,0.1c1.5,0,2.1-0.4,2-1.9C578.1,41.2,578.3,39.5,578.1,37.8z
			 M567.5,38c-3.3,0-6.6,0-9.8,0c-3.1,0-6.1-0.1-9.2,0c-1.8,0.1-1.9-0.5-1.5-2c1.6-7.1,7.9-10.7,14.8-8.7c3.9,1.2,7.2,5.9,7.1,9.8
			C568.7,38.3,568,38,567.5,38z"/>
		<path class="st27" d="M721,34.6c-0.5-6.3-3.6-11.2-9.6-13.6c-8.3-3.3-16.4-2.1-24.2,1.9c-0.9,0.4-0.8,1-0.8,1.8c0,2.4,0,4.7,0,7.4
			c1.1-0.6,1.9-1,2.7-1.4c4.9-2.4,9.9-3.6,15.3-2.5c5.2,1,8.3,5.5,7.4,10.7c-0.6-0.2-1.2-0.4-1.8-0.6c-6-1.8-11.9-2.1-17.8,0.2
			c-5.9,2.4-9.4,8.1-8.8,14.1c0.7,6.6,4.8,11.1,11.1,12c7.1,1.1,13.3-0.6,17.7-6.8c0.6,2-0.8,4.6,0.8,5.5c1.4,0.9,3.8,0.2,5.7,0.2
			c0.4,0,0.7,0,1.1,0c1,0.1,1.4-0.2,1.4-1.3C721.1,53,721.7,43.8,721,34.6z M712,46.9c-0.7,7.5-6.5,11.9-13.9,10.3
			c-3.1-0.7-5-2.7-5.2-5.7c-0.3-3.2,1.2-5.7,4.2-6.9c2-0.8,4.2-0.8,5.8-0.8c3.1,0.1,5.6,0.5,8,1.4C711.8,45.5,712.1,45.9,712,46.9z"
			/>
		<path class="st27" d="M245.3,37.1c-0.2-6.8-2.4-12.7-9.1-15.8c-8.5-3.9-16.8-2.6-24.9,1.4c-0.4,0.2-0.7,0.4-0.7,0.9
			c0,2.7,0,5.3,0,8.1c6.8-3.4,10.8-4.4,15.3-4.1c6.1,0.4,9.5,3.5,10.1,9c0.2,1.7,0.1,2.2-1.9,1.6c-6-2-12-2.3-18,0.1
			c-6.2,2.5-9.2,7.7-8.6,14.9c0.4,5.4,4.5,9.9,10.4,11c7.2,1.3,13.6-0.2,18.3-6.6c0.3,2.1-0.5,4.4,0.7,5.4c1.2,1,3.4,0.2,5.2,0.3
			c0.6,0,1.1,0,1.7,0c1.2,0.1,1.4-0.4,1.4-1.5C245.3,53.7,245.5,45.4,245.3,37.1z M236,47c-0.5,6.5-5.2,10.7-11.7,10.4
			c-4.3-0.2-6.6-1.9-7.3-5c-0.9-4.3,1.3-7.6,5.8-8.3c4-0.7,7.9-0.4,11.8,1C235.6,45.4,236.1,45.9,236,47z"/>
		<path class="st27" d="M675.4,38.2c0-2.5-0.1-5-0.7-7.4c-1.4-5.7-4.5-9.9-10.5-11.2c-7.3-1.5-13.4,0.3-17.9,7.4
			c0-2.1-0.1-3.6,0-5.1c0.1-1.2-0.4-1.5-1.5-1.4c-2.2,0.1-4.4,0.1-6.6,0c-1.2,0-1.6,0.3-1.6,1.5c0,13.4,0,26.7,0,40.1
			c0,1.1,0.3,1.5,1.5,1.5c2.2-0.1,4.4-0.1,6.6,0c1.6,0.1,2-0.5,2-2c-0.1-7.1,0-14.1,0-21.2c0-2.2,0.2-4.4,1.1-6.5
			c1.6-3.8,5.5-6,9.9-5.7c4,0.3,6.3,2.6,7.4,7.1c0.4,1.7,0.3,3.4,0.4,5.1c0,7.1,0,14.1,0,21.2c0,1.4,0.3,2.1,1.9,2
			c2.1-0.1,4.3-0.1,6.4,0c1.6,0.1,1.9-0.6,1.9-2C675.4,53.8,675.5,46,675.4,38.2z"/>
		<path class="st27" d="M770.3,33.4c-0.4-6.9-4.8-12.5-10.6-13.8c-7.7-1.7-14.1,0.8-18.2,6.9c0-1.5-0.1-3,0-4.4
			c0.1-1.2-0.3-1.7-1.6-1.6c-2.2,0.1-4.4,0.1-6.6,0c-1.2,0-1.6,0.3-1.6,1.6c0,13.4,0,26.7,0,40.1c0,1.1,0.4,1.5,1.5,1.5
			c2.2-0.1,4.4-0.1,6.6,0c1.7,0.1,2-0.5,2-2.1c-0.1-7.1,0-14.3,0-21.4c0-2.4,0.3-4.7,1.4-6.9c1.7-3.5,5.7-5.5,9.8-5.1
			c3.9,0.4,6.1,2.6,7.1,6.9c0.4,1.8,0.4,3.5,0.4,5.3c0,7.1,0,14.3,0,21.4c0,1.2,0.2,1.8,1.6,1.8c2.3-0.1,4.6-0.1,6.9,0
			c1,0,1.5-0.2,1.5-1.4C770.4,52.5,770.8,42.9,770.3,33.4z"/>
		<path class="st27" d="M626,38.6c0-2.5-0.1-5-0.6-7.5c-1.3-6.6-5.4-10.7-11.7-11.7c-7-1.1-12.6,0.9-16.8,7.6c0-2.2,0-3.7,0-5.3
			c0-1-0.3-1.4-1.4-1.3c-2.3,0.1-4.6,0.1-6.9,0c-1.1,0-1.5,0.3-1.4,1.4c0,13.4,0,26.9,0,40.3c0,1,0.3,1.4,1.3,1.3
			c2.2-0.1,4.4-0.1,6.6,0c1.6,0.1,2.1-0.4,2-2c-0.1-7.1,0-14.3,0-21.4c0-2.2,0.3-4.4,1.2-6.5c1.6-3.7,5.4-5.8,9.8-5.5
			c3.8,0.3,6.3,2.5,7.3,6.4c0.4,1.7,0.5,3.4,0.5,5.1c0,7.4,0,14.7,0,22.1c0,1.4,0.4,1.8,1.8,1.8c2-0.1,4-0.1,6,0
			c1.7,0.1,2.3-0.4,2.3-2.2C625.9,53.8,626,46.2,626,38.6z"/>
		<path class="st27" d="M315.9,41c-2.5-1.5-5.1-2.5-7.8-3.4c-2.2-0.8-4.5-1.4-6.5-2.6c-1.3-0.8-2.1-1.9-2-3.5c0.1-1.6,1-2.8,2.6-3.3
			c1.6-0.6,3.3-0.7,5-0.6c4.3,0.2,8.2,1.6,12.2,4c0-2.6-0.1-4.8,0-7.1c0.1-1.3-0.5-1.9-1.6-2.4c-5.3-2.4-10.8-3.5-16.7-2.3
			c-6.2,1.2-10.4,5.3-11.1,10.9c-0.8,6.1,1.7,10.4,7.8,13.3c1.7,0.8,3.4,1.4,5.2,2c2.2,0.8,4.5,1.5,6.5,2.6c1.7,0.9,2.7,2.3,2.4,4.4
			c-0.3,2-1.7,2.9-3.5,3.3c-2.7,0.7-5.5,0.6-8.3,0.2c-3.8-0.5-7.2-2.2-10.6-4.3c0,2.9,0,5.4,0,8c0,0.7,0.4,1,0.9,1.3
			c7.9,4.1,15.9,5.3,24.2,1.6c4.4-2,7.1-5.5,7.2-10.5C322.1,47.3,320.1,43.5,315.9,41z"/>
		<path class="st27" d="M530.2,54.2c-7.1,0.1-14.3-0.1-21.4,0.1c-2.1,0-2.7-0.4-2.7-2.6c0.1-14.1,0-28.3,0.1-42.4
			c0-1.8-0.3-2.7-2.4-2.5c-2,0.2-4,0.2-6,0c-1.8-0.2-2.1,0.6-2.1,2.2c0.1,8.7,0,17.4,0,26.1c0,8.9,0,17.7,0,26.6c0,1.4,0.3,2,1.9,2
			c10.9-0.1,21.9-0.1,32.8,0c1.3,0,1.8-0.3,1.7-1.7c-0.1-1.9-0.1-3.9,0-5.8C532.1,54.6,531.7,54.1,530.2,54.2z"/>
		<path class="st27" d="M485.1,53.3c-2.9,1.1-5.6,2.1-8.5,2.5c-7.9,1-14-3.2-15.3-10.8c-1.9-11,5.3-18.3,16.4-16.5
			c2.6,0.4,4.9,1.4,7.5,2.7c0-1.6,0-2.9,0-4.2c0-5.4,0-5.4-5.2-7c-9.4-2.8-20,0.8-25,8.5c-5.6,8.6-5.1,21.6,1.1,28.9
			c6.4,7.4,19.1,9.8,28.1,5.2c0.7-0.4,1.1-0.8,1.1-1.6C485,58.5,485.1,56.1,485.1,53.3z"/>
		<path class="st27" d="M282.7,20.1c-5.4-0.9-10.2-0.1-14,4.3c-1.1,1.3-2,2.7-3.1,4.1c0-2.2,0-4.4,0-6.6c0-1-0.3-1.4-1.3-1.4
			c-2.3,0.1-4.6,0.1-6.9,0c-1.2,0-1.4,0.5-1.4,1.5c0,13.4,0,26.7,0,40.1c0,1.2,0.4,1.5,1.5,1.5c2.1-0.1,4.3-0.1,6.4,0
			c1.6,0.1,2.2-0.4,2.2-2.1c-0.1-6.6-0.1-13.3,0-19.9c0.1-6.6,3.3-11,8.6-12c2.7-0.5,5.4-0.3,8.1,0.4c1.2,0.3,1.3,0,1.3-1
			c0-2.4-0.1-4.7,0-7.1C284,20.8,283.7,20.3,282.7,20.1z"/>
	</g>
</g>
</svg>
