<?xml version="1.0" encoding="utf-8"?>
<!-- Generator: Adobe Illustrator 19.2.0, SVG Export Plug-In . SVG Version: 6.00 Build 0)  -->
<svg version="1.1" id="Layer_1" xmlns="http://www.w3.org/2000/svg" xmlns:xlink="http://www.w3.org/1999/xlink" x="0px" y="0px"
	 viewBox="0 0 517.4 70" style="enable-background:new 0 0 517.4 70;" xml:space="preserve">
<style type="text/css">
	.st0{fill:#8D53FB;}
	.st1{fill:#CF453A;}
	.st2{fill:#383A3C;}
	.st3{fill:#0078C1;}
	.st4{filter:url(#Adobe_OpacityMaskFilter);}
	.st5{fill:#FFFFFF;}
	.st6{mask:url(#mask-2_1_);fill:#ED3124;}
	.st7{fill:#FEFEFE;}
	.st8{fill:#213067;}
	.st9{fill:#DE6F2E;}
	.st10{fill:#105699;}
	.st11{fill:#0D4A82;}
	.st12{fill:#DD473A;}
	.st13{fill:#0E0B0B;}
	.st14{fill:#92B32E;}
	.st15{fill:#010101;}
	.st16{fill:#C64732;}
	.st17{fill:#FDE034;}
	.st18{fill:#171D23;}
	.st19{fill:#359ADA;}
	.st20{fill:#2C75BD;}
	.st21{fill:#2E76BE;}
	.st22{fill:#DC4739;}
	.st23{fill:#DB8238;}
	.st24{fill:#748B81;}
	.st25{fill:#6891C3;}
	.st26{fill:#4A71A2;}
	.st27{fill:#003475;}
	.st28{fill:#114F85;}
	.st29{fill:#323232;}
	.st30{fill:#3D8F8C;}
	.st31{fill:#1561A5;}
	.st32{fill:#FACE33;}
	.st33{fill:#1562A6;}
	.st34{fill:#285F3B;}
	.st35{fill:#285E3B;}
	.st36{fill:#6FAE49;}
	.st37{fill:#F8FBF7;}
	.st38{fill:#214068;}
	.st39{fill:#D54939;}
	.st40{fill:#D71E28;}
	.st41{fill:#163A83;}
	.st42{fill:#163A82;}
	.st43{fill:#CF6628;}
	.st44{fill:#87ABD8;}
	.st45{fill:#2B89F9;}
	.st46{fill:#9B3C55;}
	.st47{fill:#A0A0A4;}
	.st48{fill:#A2A2A4;}
	.st49{fill:#A0A0A3;}
</style>
<g>
	<path class="st41" d="M14.9,12.7c0.5,17.6,0,35.2,0.2,52.7c0,1.9-0.4,2.5-2.4,2.4c-3.1-0.2-6.3-0.1-9.4,0C1.5,67.9,1,67.4,1,65.5
		c0.1-10,0.1-20,0.1-30C1,25.2,1.1,14.8,1,4.4c0-1.8,0.5-2.2,2.2-2.1c6,0.1,12,0.1,18.1,0c1,0,1.7,0,2,1.2
		c3.7,13.3,7.5,26.6,11.2,40c0.7,2.5,0.8,5.2,1.2,8.2c2.5-16.1,6.5-31.5,9.6-47.1c0.4-1.8,1-2.3,2.9-2.3c6.8,0.1,13.6,0.1,20.4,0
		c1.4,0,1.9,0.2,1.9,1.8c-0.1,20.6-0.1,41.3,0,61.9c0,1.4-0.3,1.8-1.7,1.7c-4-0.1-8-0.1-12,0c-1.1,0-1.7-0.1-1.6-1.4
		c0.2-16.9-0.3-33.7,0.3-50.6c0-1.2,0.2-2.4,0-3.6c-0.7,2.7-1.4,5.4-2,8.2c-3.5,15.1-7.1,30.2-10.5,45.3c-0.4,1.6-0.9,2.3-2.7,2.2
		c-3.6-0.2-7.3-0.1-10.9,0c-1.1,0-1.6-0.4-1.8-1.5c-4-17.2-7.9-34.5-11.9-51.7C15.2,14,15.1,13.3,14.9,12.7z"/>
	<path class="st42" d="M465.6,19.3c1.8,15.6,0.7,31.3,1,47c0,1.3-0.4,1.5-1.6,1.5c-4.2-0.1-8.4-0.1-12.6,0c-1.3,0-1.6-0.4-1.6-1.7
		c0-20.7,0-41.4,0-62.2c0-1.3,0.3-1.7,1.6-1.6c6.2,0.1,12.5,0.1,18.7,0c1.1,0,1.6,0.4,2.1,1.3c6.4,13.4,12.8,26.7,19.1,40.1
		c1.5,3.1,2.4,6.5,3.8,10.2c-2.2-16.6-0.8-32.9-1.2-49.1c-0.1-1.8,0.3-2.5,2.3-2.4c3.7,0.2,7.4,0.1,11.1,0c1.8-0.1,2.3,0.3,2.3,2.2
		c-0.1,13.1-0.1,26.2-0.1,39.3c0,7.3,0,14.7,0,22c0,1.6-0.4,2-2,1.9c-6-0.1-12-0.1-18.1,0c-1.2,0-1.9-0.3-2.4-1.4
		c-6.6-13.9-13.5-27.7-19.9-41.8c-0.9-2.1-1.6-4.3-2.4-6.5c-0.6-0.8-0.8-1.7-0.9-2.2C465.6,16.7,465.4,18.1,465.6,19.3z"/>
	<path class="st42" d="M148.6,30.5c5.2-7.3,10.1-14.2,14.9-21c1.1-1.6,2.4-3.1,3.4-4.8c1.1-2,2.6-2.5,4.8-2.4
		c5.4,0.2,10.8,0.1,16.5,0.1c-1.4,1.8-2.6,3.4-3.8,4.9c-6.3,7.9-12.5,15.8-18.8,23.6c-0.9,1.1-1,1.8-0.1,3
		c8.1,10.8,16.1,21.7,24.1,32.5c0.2,0.3,0.5,0.7,0.7,1.1c-0.5,0.6-1.1,0.3-1.6,0.3c-5.5,0-10.9-0.1-16.4,0.1
		c-2.4,0.1-3.7-0.6-5.1-2.6c-5.6-8.6-11.5-17.1-17.2-25.6c-0.3-0.5-0.7-1-1.1-1.5c-0.7,0.4-0.3,1.1-0.3,1.5c0,8.7-0.1,17.5,0,26.2
		c0,1.6-0.4,2-2,1.9c-4.5-0.1-9.1-0.1-13.6,0c-1.3,0-1.8-0.1-1.8-1.6c0.1-20.7,0-41.4,0-62.1c0-1.2,0.2-1.7,1.6-1.7
		c4.8,0.1,9.5,0.1,14.3,0c1.4,0,1.6,0.5,1.6,1.7C148.6,12.6,148.6,21.2,148.6,30.5z"/>
	<path class="st41" d="M220.2,67.8c-7.1,0-14.3,0-21.4,0c-1.5,0-1.9-0.4-1.9-1.9c0-20.6,0-41.1,0-61.7c0-1.4,0.3-1.9,1.8-1.9
		c13.9,0.1,27.8,0.1,41.8,0c1.4,0,1.8,0.4,1.8,1.7c-0.1,2.9-0.1,5.7,0,8.6c0.1,1.5-0.4,1.9-1.8,1.8c-8-0.1-16,0-23.9-0.1
		c-1.6,0-2.2,0.2-2.1,2c0.2,3,0.1,6,0,9c-0.1,1.7,0.3,2.2,2.1,2.2c7.4-0.1,14.8,0,22.2-0.1c1.5,0,1.9,0.4,1.8,1.9
		c-0.1,2.9-0.1,5.9,0,8.8c0.1,1.7-0.5,1.9-2,1.9c-7.4-0.1-14.8,0-22.2-0.1c-1.6,0-2,0.4-2,2c0.1,3.8,0.1,7.6,0,11.3
		c0,1.4,0.4,1.7,1.8,1.7c8.3-0.1,16.7,0,25-0.1c1.6,0,2.2,0.3,2.1,2.1c-0.2,3-0.2,6,0,9c0.1,1.5-0.5,1.6-1.8,1.6
		C234.4,67.7,227.3,67.8,220.2,67.8z"/>
	<path class="st42" d="M361.1,16.4c-5.4-2.1-10.6-3.6-16.3-3.2c-2.3,0.1-4.6,0.5-6.6,1.7c-4,2.4-4.1,6.8-0.1,9.3
		c2.5,1.5,5.4,2.1,8.2,3.1c3,1.1,6.1,2,9,3.4c7.7,3.8,11.4,10.8,10.2,19.3c-1.4,10.5-7.4,16.4-18.7,18.5c-9.3,1.7-18.4,0.6-27.4-1.7
		c-1.1-0.3-1.3-0.9-1.2-1.9c0.5-3.8,1-7.6,1.3-11.5c0.1-1.4,0.5-1.4,1.6-0.9c4.2,2,8.6,3.2,13.3,3.6c3.2,0.2,6.4,0.1,9.4-1.3
		c2.4-1.1,3.9-2.9,3.9-5.7c0-2.7-1.7-4.2-3.9-5.2c-5.1-2.3-10.6-3.5-15.6-6.2c-10.3-5.5-13.9-16.6-8.3-26.5c2.8-5,7.3-7.6,12.6-9
		c9.5-2.4,19-1.8,28.4,0.5c1,0.2,1.3,0.7,1.2,1.7C361.8,8.3,361.5,12.2,361.1,16.4z"/>
	<path class="st42" d="M260.6,51.8c4.9,2.3,9.8,3.8,14.9,4.2c2.9,0.2,5.7,0.1,8.5-1c2.1-0.8,3.8-2.1,4.5-4.4
		c0.9-2.8-0.3-5.1-3.3-6.7c-2.7-1.4-5.6-2.2-8.4-3.2c-3.4-1.2-6.7-2.6-9.9-4.6c-6.6-4.1-9.2-10.1-8.3-17.7
		c0.9-7.4,4.9-12.5,11.8-15.2c7.3-2.9,14.9-2.8,22.5-2.2c3.1,0.3,6.2,0.9,9.3,1.6c1,0.2,1.3,0.6,1.2,1.7c-0.5,3.4-0.9,6.8-1.1,10.2
		c-0.1,1.7-0.7,1.7-2,1.1c-5.5-2.1-11.1-3.4-17-2.3c-1.9,0.3-3.8,0.9-5.3,2.4c-2.2,2.2-2.2,5.3,0,7.4c1.3,1.2,2.8,1.8,4.4,2.3
		c3.9,1.4,8,2.7,11.8,4.3c9,3.7,12.5,9.2,12.3,18.6c-0.3,9-5,15.6-13.5,18.6c-8.1,2.9-16.5,2.6-24.9,1.3c-2.6-0.4-5.1-1.1-7.6-1.6
		c-1.1-0.2-1.4-0.7-1.3-1.9C259.8,60.6,260.2,56.3,260.6,51.8z"/>
	<path class="st42" d="M118.2,14.2c-2.9-1.2-5.5-2.4-8.4-2.5c-8.1-0.4-13.6,4.4-14,12.3c-0.4,7.8,5.1,13.6,13.1,13.8
		c3.1,0.1,6.1-0.5,8.9-2c1.5-0.8,1.7-0.3,1.7,1.1c0,3,0.1,6,0.1,9c0,0.8,0.1,1.5-1,1.8c-9.1,2.3-18.2,3.2-26.8-1.2
		c-8.7-4.3-12.1-12-12.4-21.3C78.9,13.3,85.8,4,97.2,1.2c6.1-1.5,12.2-1.4,18.3,0.2c3.7,1,3.7,1,3.3,4.8
		C118.6,8.8,118.4,11.4,118.2,14.2z"/>
	<path class="st43" d="M101.2,68.3c-5.2,0-10.5-0.1-15.7,0c-1.4,0-1.8-0.4-1.8-1.8c0.1-2.8,0.1-5.6,0-8.4c0-1.3,0.4-1.6,1.7-1.6
		c10.7,0.1,21.4,0,32.1,0c1.3,0,1.8,0.3,1.8,1.7c-0.1,2.7-0.1,5.5,0,8.2c0.1,1.5-0.5,1.9-1.9,1.9C111.9,68.3,106.5,68.3,101.2,68.3z
		"/>
	<path class="st44" d="M465.6,19.3c-0.6-1.3-0.7-2.8-0.8-4.5c0.8,1.1,1,2.2,1.2,3.2C465.4,18.3,465.8,19,465.6,19.3z"/>
	<path class="st41" d="M440.4,30.5c-1.1-11.3-5.2-20.9-15.9-26.4c-6.4-3.3-13.4-3.9-20.4-3.3c-13,1.1-22.4,8.4-26.1,20.6
		c-2.7,9-2.7,18.1,0,27.1c2.8,9.5,9,16,18.6,18.9c7.5,2.3,15.2,2.4,22.8,0.3c9.4-2.7,15.7-8.8,19-18c1.7-4.7,2.3-9.6,2.3-14.6
		C440.6,33.6,440.6,32.1,440.4,30.5z M420.2,48.7c-2.5,4.7-6.3,7.7-11.9,7.6c-5.5,0-9.6-2.9-11.8-7.7c-4.3-9.1-4.3-18.4,0-27.5
		c2.3-5,6.5-7.8,12.2-7.7c5.6,0.1,9.2,3.2,11.7,7.9c2.2,4.2,2.8,8.7,2.9,13.4C423.2,39.5,422.6,44.3,420.2,48.7z"/>
</g>
</svg>
