<?xml version="1.0" encoding="utf-8"?>
<!-- Generator: Adobe Illustrator 19.2.0, SVG Export Plug-In . SVG Version: 6.00 Build 0)  -->
<svg version="1.1" id="Layer_1" xmlns="http://www.w3.org/2000/svg" xmlns:xlink="http://www.w3.org/1999/xlink" x="0px" y="0px"
	 viewBox="0 0 424.6 70" style="enable-background:new 0 0 424.6 70;" xml:space="preserve">
<style type="text/css">
	.st0{fill:#8D53FB;}
	.st1{fill:#CF453A;}
	.st2{fill:#383A3C;}
	.st3{fill:#0078C1;}
	.st4{filter:url(#Adobe_OpacityMaskFilter);}
	.st5{fill:#FFFFFF;}
	.st6{mask:url(#mask-2_1_);fill:#ED3124;}
	.st7{fill:#FEFEFE;}
	.st8{fill:#213067;}
	.st9{fill:#DE6F2E;}
	.st10{fill:#105699;}
	.st11{fill:#0D4A82;}
	.st12{fill:#DD473A;}
	.st13{fill:#0E0B0B;}
	.st14{fill:#92B32E;}
	.st15{fill:#010101;}
	.st16{fill:#C64732;}
	.st17{fill:#FDE034;}
	.st18{fill:#171D23;}
	.st19{fill:#359ADA;}
	.st20{fill:#2C75BD;}
	.st21{fill:#2E76BE;}
	.st22{fill:#DC4739;}
	.st23{fill:#DB8238;}
	.st24{fill:#748B81;}
	.st25{fill:#6891C3;}
	.st26{fill:#4A71A2;}
	.st27{fill:#003475;}
	.st28{fill:#114F85;}
	.st29{fill:#323232;}
	.st30{fill:#3D8F8C;}
	.st31{fill:#1561A5;}
	.st32{fill:#FACE33;}
	.st33{fill:#1562A6;}
	.st34{fill:#285F3B;}
	.st35{fill:#285E3B;}
	.st36{fill:#6FAE49;}
	.st37{fill:#F8FBF7;}
	.st38{fill:#214068;}
	.st39{fill:#D54939;}
	.st40{fill:#D71E28;}
	.st41{fill:#163A83;}
	.st42{fill:#163A82;}
	.st43{fill:#CF6628;}
	.st44{fill:#87ABD8;}
	.st45{fill:#2B89F9;}
	.st46{fill:#9B3C55;}
	.st47{fill:#A0A0A4;}
	.st48{fill:#A2A2A4;}
	.st49{fill:#A0A0A3;}
</style>
<g>
	<path class="st28" d="M70.2,54.7c-0.4-6-0.8-12-1.2-18c-0.3-4.2-0.5-8.4-0.7-12.6c-0.2-3.9-0.5-7.9-0.7-11.8C67.4,9,67,5.9,67,2.7
		c0-0.6,0-1.2-0.9-1.2c-6,0-12.1,0-18.1,0c-0.5,0-0.8,0.1-0.9,0.7c-0.3,1.7-0.7,3.3-1.1,4.9c-0.7,3-1.3,6.1-2,9.1
		c-0.5,2.2-1,4.5-1.5,6.7c-0.7,3.1-1.4,6.1-2.1,9.2c-0.6,2.5-1.1,5-1.6,7.6c-0.7,3.6-1.4,7.1-2.1,10.7c0.1,0.3,0.1,0.6-0.1,0.9
		c-0.8-0.4-0.8-1-0.7-1.8c-0.5-2.7-0.9-5.3-1.5-8c-0.8-3.8-1.7-7.5-2.6-11.3c-1-4.4-1.9-8.7-2.8-13.1c-1-4.7-2.1-9.4-3.1-14
		c-0.4-1.6-0.3-1.6-2-1.6c-5.5,0-11.1,0-16.6,0C6,1.5,5.6,1.8,5.5,3C5.4,6.4,5.2,9.7,5,13.1c-0.4,7.1-0.9,14.1-1.3,21.2
		C3.3,40.9,3,47.4,2.6,53.9c-0.2,4.2-0.5,8.5-0.8,12.7c0,0.7-0.1,1.3,1,1.3c3.3,0,6.6,0,10,0c0.7,0,0.9-0.2,0.9-0.9
		c0.2-4.3,0.5-8.7,0.7-13c0.4-7,0.7-13.9,1.1-20.9c0.2-4.3,0.5-8.5,0.6-12.8c0-1.5,0-3.1,0.5-4.9c0.6,2.5,1.1,4.8,1.6,7.1
		c0.7,3,1.3,5.9,2,8.9c0.8,3.6,1.7,7.2,2.5,10.8c0.9,3.6,1.7,7.3,2.6,10.9c0.7,3,1.3,5.9,2,8.9c0.4,1.7,0.8,3.3,1.2,5
		c0.1,0.6,0.5,0.8,1.1,0.8c4.3,0,8.7,0,13,0c0.6,0,0.9-0.1,1-0.7c0.5-2.4,1.1-4.8,1.7-7.2c0.7-2.9,1.4-5.8,2-8.7
		c0.8-3.5,1.6-6.9,2.4-10.4c0.7-3,1.4-5.9,2-8.9c0.7-3,1.4-5.9,2-8.9c0.5-2.4,1-4.7,1.6-7.4c0.5,1.4,0.5,2.6,0.5,3.7
		c0.3,9,0.9,18.1,1.4,27.1c0.4,6.8,0.7,13.5,1,20.3c0,0.7,0.3,1.1,1.1,1.1c3.5,0,7,0,10.5,0c0.6,0,0.9-0.2,0.8-0.9
		C70.6,63,70.4,58.8,70.2,54.7z"/>
	<path class="st28" d="M211.8,19.7c-3.4,0.1-6.9,0-10.3,0c-1,0-1.3-0.2-1.3-1.2c0.1-3.1,0-6.1,0-9.2c0-0.8-0.2-1-1-1
		c-3.3,0-6.6,0-10,0c-0.8,0-1,0.2-1,1c0,3.1,0,6.3,0,9.4c0,0.8-0.2,1-1,1c-3.7,0-7.5,0-11.2,0c-0.8,0-1.1-0.2-1.1-1
		c0.1-5.3,0-10.6,0-16c0-0.9-0.2-1.2-1.2-1.2c-3.2,0.1-6.4,0.1-9.6,0c-1,0-1.3,0.2-1.3,1.2c0,6.9,0,13.9,0,20.8
		c0,0.4,0.1,0.9-0.3,1.5c-0.3-0.3-0.4-0.6-0.6-0.8c-2.4-2.6-5.5-4.2-8.9-5c-3.6-0.8-7.2-0.6-10.8,0.4c-4.5,1.2-8,3.8-10.8,7.4
		c-2.8,3.6-4.3,7.9-4.9,12.5c-0.8,6.5,0,12.7,3.2,18.5c2.8,5.1,7,8.4,12.4,10c3.8,1.2,7.8,1.2,11.7,0.1c3.9-1.1,7.1-3.1,9.5-6.4
		c0.6-0.8,1-0.8,1.4,0.2c1.6,3.6,4.4,5.6,8.3,6.3c2.5,0.4,4.9,0.3,7.3,0c1.2-0.1,1.5-0.6,1.5-1.7c-0.1-1.8,0-3.7,0-5.5
		c0-2.4,0-2.5-2.3-2.3c-2.8,0.2-4.4-1.4-4.4-4.3c0-8,0-16,0-24c0-0.6,0.2-0.9,0.8-0.9c3.8,0,7.6,0,11.4,0c0.8,0,1,0.2,1,1
		c0,3-0.1,6,0,9.1c0.2,5.9-0.5,11.9,0.5,17.8c0.5,2.9,1.7,5.4,3.8,7.4c2.2,2.2,5.1,3.3,8.2,3.8c3.6,0.5,7.3,0.5,10.9-0.3
		c0.9-0.2,1.4-0.4,1.4-1.4c0-2.6,0-5.1,0-7.7c0-0.9-0.4-1.1-1.1-0.9c-1.5,0.5-3.1,0.4-4.7,0.5c-1.4,0.1-2.7-0.1-4-0.8
		c-2.3-1.2-3-3.3-3-5.6c-0.1-7.3,0-14.6,0-21.8c0-0.8,0.3-1,1.1-1c3.4,0,6.9,0,10.3,0c1.4,0,1.5,0,1.5-1.4c0-2.3,0-4.7,0-7
		C213.2,20,212.9,19.7,211.8,19.7z M161.6,52.6c-1.9,3.6-4.9,5.6-9,6c-2.5,0.2-5,0.1-7.2-1.1c-2.6-1.3-4.4-3.4-5.4-6.1
		c-1.3-3.5-1.7-7.2-1.1-10.9c0.5-2.9,1.3-5.6,3.3-7.8c3-3.3,6.8-4.3,11.1-3.6c5.6,0.9,8.4,4.6,9.8,9.8c0.4,1.6,0.4,3.3,0.5,4.9
		C163.7,46.9,163.1,49.9,161.6,52.6z"/>
	<path class="st28" d="M112,22.7c-3.9-2.6-8.2-3.8-12.9-3.9c-3-0.1-6,0.4-8.9,1.3c-4.7,1.6-8.5,4.4-11.3,8.5c-2,3-3.3,6.2-3.9,9.8
		c-0.8,4.4-0.8,8.9,0.3,13.2c1.1,4.3,3.2,8.1,6.7,11c3.9,3.3,8.4,5.1,13.4,5.8c2.3,0.4,4.7,0.4,7.1,0.4c5.9-0.1,11.3-1.6,16.4-4.4
		c0.4-0.2,0.6-0.5,0.6-1c0-2.8,0-5.7,0-8.5c0-0.6-0.3-0.7-0.7-0.5c-0.6,0.3-1.1,0.6-1.7,0.9c-2.7,1.3-5.6,2.3-8.6,2.8
		c-5.1,1-10.1,1.1-15-0.7c-3.2-1.1-5.4-3.3-6.6-6.5c-0.5-1.3-0.3-1.5,1-1.5c5.4,0,10.7,0,16.1,0c5.4,0,10.8,0,16.2,0
		c0.5,0,1,0.2,1.2-0.7c0.8-5,0.7-9.9-0.9-14.8C118.9,29.4,116.2,25.5,112,22.7z M109.2,40.4c-3.6,0-7.2,0-10.9,0c0,0,0,0,0,0
		c-3.6,0-7.2,0-10.7,0c-0.9,0-1.3-0.3-1.1-1.2c0.7-3.1,1.8-5.9,4.4-7.9c2.8-2.2,6.1-2.8,9.5-2.3c1.6,0.2,3.2,0.6,4.7,1.5
		c2.1,1.3,3.5,3.1,4.4,5.4c0.4,1,0.6,2.1,0.8,3.1C110.6,40,110.3,40.4,109.2,40.4z"/>
	<path class="st28" d="M270.5,18.8c-13.8,0.6-24,10.9-23.9,25c-0.1,15,11.4,25.8,26.9,25.1c13.8-0.7,24-11.1,23.7-25.6
		C296.9,29,286,18.1,270.5,18.8z M284.3,48.9c-1.1,4.5-4.3,8.4-9.3,9.3c-3.8,0.7-7.3,0.3-10.5-1.9c-2.3-1.5-3.7-3.6-4.6-6.2
		c-1.3-3.7-1.4-7.5-0.4-11.3c1.2-4.7,4-8.1,8.9-9.3c1.2-0.3,2.3-0.4,3.5-0.4c3.4-0.1,6.5,0.9,9,3.3c1.8,1.8,3,4,3.5,6.4
		C285.1,42.2,285.1,45.6,284.3,48.9z"/>
	<path class="st28" d="M348.2,40.5c0-3.5-0.5-6.9-1.8-10.1c-1.7-4.3-4.4-7.6-8.5-9.7c-2-1-4.1-1.5-6.2-1.7c-3-0.4-5.9-0.1-8.7,1
		c-3.3,1.3-5.7,3.8-7.5,6.8c-0.3-0.5-0.2-0.9-0.2-1.4c0-1.7,0-3.3,0-5c0-0.6-0.2-0.8-0.8-0.8c-3.3,0-6.6,0-9.8,0c-0.8,0-1,0.3-1,1
		c0,0.8,0,1.5,0,2.3c0,14.5,0,29,0,43.4c0,1.5,0,1.5,1.6,1.5c3.1,0,6.1,0,9.2,0c1.1,0,1.3-0.3,1.3-1.3c0-8.9,0-17.9,0-26.8
		c0-2.8,0.9-5.3,2.6-7.5c1.9-2.5,4.6-3.4,7.6-3.5c4-0.2,7.9,1.4,9.5,5.8c0.8,2.3,1.1,4.6,1.1,6.9c0,8.4,0,16.7,0,25.1
		c0,1.1,0.3,1.4,1.3,1.3c3.1-0.1,6.2-0.1,9.3,0c1.1,0,1.3-0.3,1.3-1.3C348.1,58,348.1,49.2,348.2,40.5z"/>
	<path class="st28" d="M415.3,56.2c0-1-0.4-0.8-1-0.5c-0.7,0.4-1.4,0.8-2.1,1.1c-4.6,1.7-9.3,2.4-14.1,0.9c-2.8-0.9-4.9-2.6-6.5-5.1
		c-2.2-3.5-2.6-7.4-2.1-11.4c0.4-3.2,1.6-6.1,4-8.4c3.7-3.5,8.2-4.1,13-3.4c2.8,0.4,5.5,1.2,8,2.7c0.6,0.4,0.9,0.3,0.9-0.6
		c-0.1-1.5,0-2.9,0-4.4c0,0,0,0,0,0c0-1.5,0-3,0-4.5c0-0.6-0.2-1-0.8-1.3c-2.9-1.4-6-2.1-9.2-2.4c-4.8-0.5-9.4,0.2-13.8,2
		c-3.9,1.7-7.2,4.2-9.7,7.7c-2.7,3.7-4.2,7.9-4.6,12.4c-0.4,4,0,7.9,1.3,11.7c1.8,5.1,4.9,9.1,9.4,12.1c3.4,2.2,7.2,3.5,11.3,3.9
		c5.3,0.5,10.3-0.2,15.1-2.4c0.6-0.3,0.9-0.6,0.9-1.3C415.3,62.1,415.3,59.1,415.3,56.2z"/>
	<path class="st28" d="M246.4,21c0-0.9-0.3-1.2-1.2-1.4c-0.9-0.2-1.8-0.3-2.8-0.4c-3.4-0.2-6.4,0.8-8.8,3.3c-1.4,1.4-2.5,3-3.3,5.1
		c-0.5-0.8-0.4-1.4-0.4-2c0-1.6,0-3.2,0-4.7c0-0.9-0.3-1.2-1.2-1.2c-3.1,0-6.1,0.1-9.2,0c-1,0-1.1,0.4-1.1,1.2c0,15.3,0,30.6,0,45.9
		c0,0.8,0.3,1.1,1.1,1.1c3.2,0,6.3,0,9.5,0c1.1,0,1.3-0.4,1.3-1.4c0-7.2,0-14.5,0-21.7c0-2.2-0.1-4.5,0.5-6.7c1-3.7,3.8-6.5,7.7-7.2
		c2.2-0.4,4.4-0.6,6.6,0c0.9,0.2,1.3,0,1.2-1C246.3,26.9,246.3,24,246.4,21z"/>
	<path class="st28" d="M375,58.6c-0.7,0.1-1.4,0.1-2.1,0.2c-3,0-4.8-1.2-4.8-4.6c0-5.4,0-10.9,0-16.3c0,0,0,0,0,0c0-5.7,0-11.3,0-17
		c0-1-0.3-1.2-1.2-1.2c-3.3,0.1-6.6,0.1-9.8,0c-1,0-1.2,0.3-1.2,1.2c0,11,0,22,0,33c0,2.2,0.2,4.4,0.9,6.6c1.3,4.3,4.3,6.6,8.5,7.6
		c3.3,0.8,6.6,0.6,9.9,0c0.5-0.1,0.7-0.3,0.7-0.8c0-2.7,0-5.4,0-8C375.8,58.7,375.6,58.5,375,58.6z"/>
	<path class="st28" d="M362.1,15.2c4.3,0,7.1-3.2,7.1-7.2c0-3.9-3.2-7-7.1-7c-3.9,0-7.1,3.1-7.1,7C355.1,12,358.3,15.2,362.1,15.2z"
		/>
	<path class="st28" d="M36,50.4c0.2,0.4,0.4,0.4,0.6,0c-0.6,0-0.6-0.6-0.8-0.9v0l0,0C36,49.8,35.8,50.2,36,50.4z"/>
</g>
</svg>
