<?xml version="1.0" encoding="utf-8"?>
<!-- Generator: Adobe Illustrator 19.2.0, SVG Export Plug-In . SVG Version: 6.00 Build 0)  -->
<svg version="1.1" id="Layer_1" xmlns="http://www.w3.org/2000/svg" xmlns:xlink="http://www.w3.org/1999/xlink" x="0px" y="0px"
	 viewBox="0 0 246.6 70" style="enable-background:new 0 0 246.6 70;" xml:space="preserve">
<style type="text/css">
	.st0{fill:#8D53FB;}
	.st1{fill:#CF453A;}
	.st2{fill:#383A3C;}
	.st3{fill:#0078C1;}
	.st4{filter:url(#Adobe_OpacityMaskFilter);}
	.st5{fill:#FFFFFF;}
	.st6{mask:url(#mask-2_1_);fill:#ED3124;}
	.st7{fill:#FEFEFE;}
	.st8{fill:#213067;}
	.st9{fill:#DE6F2E;}
	.st10{fill:#105699;}
	.st11{fill:#0D4A82;}
	.st12{fill:#DD473A;}
	.st13{fill:#0E0B0B;}
	.st14{fill:#92B32E;}
	.st15{fill:#010101;}
	.st16{fill:#C64732;}
	.st17{fill:#FDE034;}
	.st18{fill:#171D23;}
	.st19{fill:#359ADA;}
	.st20{fill:#2C75BD;}
	.st21{fill:#2E76BE;}
	.st22{fill:#DC4739;}
	.st23{fill:#DB8238;}
	.st24{fill:#748B81;}
	.st25{fill:#6891C3;}
	.st26{fill:#4A71A2;}
	.st27{fill:#003475;}
	.st28{fill:#114F85;}
	.st29{fill:#323232;}
	.st30{fill:#3D8F8C;}
	.st31{fill:#1561A5;}
	.st32{fill:#FACE33;}
	.st33{fill:#1562A6;}
	.st34{fill:#285F3B;}
	.st35{fill:#285E3B;}
	.st36{fill:#6FAE49;}
	.st37{fill:#F8FBF7;}
	.st38{fill:#214068;}
	.st39{fill:#D54939;}
	.st40{fill:#D71E28;}
	.st41{fill:#163A83;}
	.st42{fill:#163A82;}
	.st43{fill:#CF6628;}
	.st44{fill:#87ABD8;}
	.st45{fill:#2B89F9;}
	.st46{fill:#9B3C55;}
	.st47{fill:#A0A0A4;}
	.st48{fill:#A2A2A4;}
	.st49{fill:#A0A0A3;}
</style>
<g>
	<path class="st29" d="M108.3,34.5c0.6-1.3,1.1-2.5,1.7-3.7c1.9-4.1,3.7-8.2,5.6-12.3c0.2-0.4,0.4-0.5,0.8-0.5c3.3,0,6.7,0,10,0
		c0.5,0,0.5,0.2,0.5,0.6c0,11.2,0,22.3,0,33.5c0,0.5-0.1,0.6-0.6,0.6c-2.3,0-4.6,0-6.8,0c-0.5,0-0.6-0.1-0.6-0.6
		c0-7.1,0-14.2,0-21.2c0-0.2,0-0.4,0-0.7c0,0-0.1,0-0.1,0c-3.6,7.5-7.1,15.1-10.8,22.7c-3.3-8-6.6-15.8-9.9-23.7c0,0-0.1,0-0.1,0
		c0,0.2,0,0.4,0,0.6c0,7.4,0,14.8,0,22.2c0,0.5-0.1,0.7-0.7,0.7c-2.2,0-4.4,0-6.7,0c-0.4,0-0.5-0.1-0.5-0.5c0-11.2,0-22.4,0-33.7
		c0-0.4,0.1-0.5,0.5-0.5c3.5,0,7,0,10.5,0c0.4,0,0.5,0.2,0.6,0.5c2.1,5.2,4.2,10.4,6.3,15.5C108.1,34.1,108.2,34.3,108.3,34.5z"/>
	<path class="st30" d="M55.4,51.2c-0.1-2.6-0.8-5-2.1-7.2c-2.3-4-5.7-6.8-10.1-8.2c-0.9-0.3-1.8-0.5-2.8-0.6c-0.2,0-0.4,0-0.6-0.2
		c3.3-0.3,6.3-1.3,9-3.3c3.7-2.7,6-6.4,6.9-11c0.2-1,0.3-2,0.2-3.1c4.6,0.2,8.7,1.8,12.1,4.9c2.8,2.5,4.7,5.5,5.5,9.2
		c0.9,4.1,0.2,7.9-2,11.4c-3.1,5-7.7,7.9-13.5,8.9c-0.7,0.1-1.3,0.1-2,0.2c-0.5,0-0.6-0.1-0.6-0.6C55.5,51.6,55.5,51.4,55.4,51.2z"
		/>
	<path class="st29" d="M219.4,33.1c0.3-0.4,0.5-0.7,0.7-1c3.4-4.5,6.8-9,10.2-13.5c0.3-0.4,0.6-0.5,1.1-0.5c2.6,0,5.2,0,7.8,0
		c0.2,0,0.4,0,0.7,0c-0.2,0.4-0.4,0.7-0.7,1c-3.5,4.8-7,9.6-10.5,14.4c-0.3,0.4-0.2,0.6,0,0.9c3.8,5.8,7.6,11.6,11.4,17.4
		c0.1,0.2,0.3,0.4,0.4,0.7c-0.6,0-1.3,0-1.9,0c-2.2,0-4.4,0-6.6,0c-0.5,0-0.7-0.2-1-0.5c-3.7-5.6-7.5-11.2-11.2-16.8
		c-0.1-0.2-0.2-0.3-0.4-0.6c0,0.3,0,0.5,0,0.7c0,5.5,0,11.1,0,16.6c0,0.5-0.2,0.6-0.7,0.6c-2.2,0-4.5,0-6.7,0
		c-0.4,0-0.5-0.1-0.5-0.5c0-11.2,0-22.5,0-33.7c0-0.4,0.1-0.5,0.5-0.5c2.3,0,4.6,0,6.8,0c0.5,0,0.5,0.2,0.5,0.6c0,4.6,0,9.2,0,13.8
		C219.4,32.5,219.4,32.7,219.4,33.1z"/>
	<path class="st30" d="M21.2,17.8c-0.1,8.1,6,16.2,16,17.3c-2.9,0.2-5.5,0.9-7.9,2.3c-4.6,2.7-7.4,6.7-8.4,11.9
		c-0.2,0.9-0.3,1.9-0.2,2.8c-0.1,0.4-0.5,0.3-0.7,0.2c-4.2-0.3-7.9-1.9-10.9-4.9c-3.7-3.7-5.5-8.2-5.2-13.4
		c0.4-8.2,6.6-14.9,14.6-16.1C19.4,17.9,20.3,17.8,21.2,17.8z"/>
	<path class="st29" d="M130.2,35.3c0-5.6,0-11.1,0-16.7c0-0.5,0.1-0.6,0.6-0.6c6.5,0,13,0,19.5,0c0.5,0,0.7,0.1,0.7,0.7
		c0,1.5,0,3,0,4.5c0,0.6-0.1,0.7-0.7,0.7c-3.8,0-7.5,0-11.3,0c-0.5,0-0.7,0.1-0.7,0.7c0,2.2,0,4.5,0,6.7c0,0.5,0.1,0.6,0.6,0.6
		c3.6,0,7.3,0,10.9,0c0.5,0,0.6,0.1,0.6,0.6c0,1.7,0,3.5,0,5.2c0,0.5-0.2,0.6-0.6,0.6c-3.6,0-7.3,0-10.9,0c-0.5,0-0.7,0.1-0.7,0.6
		c0,2.2,0,4.5,0,6.7c0,0.6,0.2,0.7,0.7,0.7c3.7,0,7.5,0,11.2,0c0.5,0,0.6,0.1,0.6,0.6c0,1.8,0,3.5,0,5.3c0,0.3-0.1,0.5-0.4,0.5
		c-6.5,0-13,0-19.6,0c-0.5,0-0.5-0.2-0.5-0.6C130.2,46.5,130.2,40.9,130.2,35.3z"/>
	<path class="st30" d="M38.1,52.5c5.6,0,11.1,0,16.7,0c0.6,0,0.7,0.2,0.7,0.7c-0.3,4.5-1.9,8.3-5.1,11.5c-2.7,2.7-6,4.5-9.9,4.9
		c-6.7,0.8-12.1-1.4-16.3-6.7c-2.3-2.9-3.5-6.4-3.5-10.1c0-0.5,0.3-0.4,0.5-0.4c1.9,0,3.8,0,5.6,0C30.6,52.5,34.3,52.5,38.1,52.5z"
		/>
	<path class="st29" d="M207.9,44.2c0,0.3,0,0.4,0,0.6c0,2.3,0,4.6,0,6.9c0,0.4-0.2,0.6-0.5,0.7c-4.3,2.1-8.8,1.9-13.3,0.8
		c-3.4-0.9-6.5-2.4-9.1-4.9c-2.7-2.6-4.3-5.8-4.8-9.5c-0.4-2.9-0.4-5.8,0.7-8.7c1.4-3.9,4.1-6.8,7.5-9c3-1.9,6.2-3.2,9.8-3.4
		c2.9-0.1,5.7,0.2,8.4,1.4c1.1,0.5,1.7,1.1,1.6,2.4c-0.2,2.1,0,4.3,0,6.5c-0.1,0-0.1,0-0.2,0c-0.3-0.2-0.6-0.5-0.9-0.7
		c-1.4-1.4-3-2.1-5-2.2c-2.3-0.2-4.5-0.3-6.7,0.5c-4.4,1.6-6.8,4.8-7.3,9.4c-0.7,6.2,4.3,11.5,9.3,12.4c3.7,0.7,7.2-0.2,10.1-2.8
		C207.6,44.5,207.7,44.4,207.9,44.2z"/>
	<path class="st30" d="M56,17.8c-11.6,0-23.2,0-34.8,0c0.2-6.2,2.8-11,8-14.4c2.5-1.6,5.2-2.5,8.2-2.7c8.5-0.6,16.3,5,18.3,13.5
		C55.9,15.3,56,16.5,56,17.8z"/>
	<path class="st29" d="M183,52.1c-3.2-4.7-6.4-9.4-9.5-14.1c-0.1-0.1-0.3-0.2-0.2-0.5c1.2-0.1,2.2-0.6,3-1.4c2.3-2.3,3.1-5.3,3-8.4
		c0-2.9-1.4-5.2-3.5-7c-2-1.7-4.2-2.7-6.8-2.7c-4.8,0.1-9.6,0-14.4,0c-0.4,0-0.5,0.2-0.5,0.5c0,2.2,0,4.5,0,6.7c0,8.9,0,17.8,0,26.7
		c0,0.5,0.1,0.7,0.6,0.7c2.2,0,4.4,0,6.7,0c0.5,0,0.6-0.1,0.6-0.6c0-5.6,0-11.3,0-16.9c0-0.2-0.1-0.4,0.1-0.7
		c0.1,0.2,0.2,0.2,0.2,0.3c4,5.8,8,11.6,11.9,17.5c0.2,0.3,0.4,0.4,0.8,0.4c2.6,0,5.1,0,7.7,0c0.2,0,0.4,0.1,0.5-0.1
		C183.4,52.4,183.1,52.2,183,52.1z M167,33.2c-1.6,0.2-3.1,0.2-4.7,0.2c-0.4,0-0.4-0.2-0.4-0.4c0-1.5,0-3,0-4.5c0-1.4,0-2.9,0-4.3
		c0-0.4,0.1-0.5,0.5-0.5c1.4,0,2.7,0,4.1,0c2.6,0,4.5,2,4.7,4.8C171.4,30.8,169.4,33,167,33.2z"/>
</g>
</svg>
