<?xml version="1.0" encoding="utf-8"?>
<!-- Generator: Adobe Illustrator 19.2.0, SVG Export Plug-In . SVG Version: 6.00 Build 0)  -->
<svg version="1.1" id="Layer_1" xmlns="http://www.w3.org/2000/svg" xmlns:xlink="http://www.w3.org/1999/xlink" x="0px" y="0px"
	 viewBox="0 0 448 70" style="enable-background:new 0 0 448 70;" xml:space="preserve">
<style type="text/css">
	.st0{fill:#8D53FB;}
	.st1{fill:#CF453A;}
	.st2{fill:#383A3C;}
	.st3{fill:#0078C1;}
	.st4{filter:url(#Adobe_OpacityMaskFilter);}
	.st5{fill:#FFFFFF;}
	.st6{mask:url(#mask-2_1_);fill:#ED3124;}
	.st7{fill:#FEFEFE;}
	.st8{fill:#213067;}
	.st9{fill:#DE6F2E;}
	.st10{fill:#105699;}
	.st11{fill:#0D4A82;}
	.st12{fill:#DD473A;}
	.st13{fill:#0E0B0B;}
	.st14{fill:#92B32E;}
	.st15{fill:#010101;}
	.st16{fill:#C64732;}
	.st17{fill:#FDE034;}
	.st18{fill:#171D23;}
	.st19{fill:#359ADA;}
	.st20{fill:#2C75BD;}
	.st21{fill:#2E76BE;}
	.st22{fill:#DC4739;}
	.st23{fill:#DB8238;}
	.st24{fill:#748B81;}
	.st25{fill:#6891C3;}
	.st26{fill:#4A71A2;}
	.st27{fill:#003475;}
	.st28{fill:#114F85;}
	.st29{fill:#323232;}
	.st30{fill:#3D8F8C;}
	.st31{fill:#1561A5;}
	.st32{fill:#FACE33;}
	.st33{fill:#1562A6;}
	.st34{fill:#285F3B;}
	.st35{fill:#285E3B;}
	.st36{fill:#6FAE49;}
	.st37{fill:#F8FBF7;}
	.st38{fill:#214068;}
	.st39{fill:#D54939;}
	.st40{fill:#D71E28;}
	.st41{fill:#163A83;}
	.st42{fill:#163A82;}
	.st43{fill:#CF6628;}
	.st44{fill:#87ABD8;}
	.st45{fill:#2B89F9;}
	.st46{fill:#9B3C55;}
	.st47{fill:#A0A0A4;}
	.st48{fill:#A2A2A4;}
	.st49{fill:#A0A0A3;}
</style>
<g>
	<path class="st27" d="M87,0.5c8.8,4.6,17.3,9.8,25.9,14.8c2.3,1.3,3.3,3.5,3.3,6c0,9.1,0,18.2,0,27.4c0,2.6-1.2,4.6-3.4,5.9
		c-7.9,4.6-15.8,9.1-23.6,13.7c-2.2,1.3-4.5,1.4-6.6,0.3c-5.9-3.3-11.8-6.8-17.8-10.3C75.4,50,86.1,41.7,96.8,33.5
		c0.3-0.5,0.7-1,1.3-1.2c0.2-0.1-0.1-0.2-0.1-0.2c-0.4,0.6-1.1,0.6-1.7,0.8C79.5,42.7,62.7,52.3,46,62c-3.4,2-6.9,3.9-10.2,5.9
		c-2.9,1.8-5.7,1.8-8.7,0c-7.6-4.5-15.2-8.9-22.8-13.2c-2.4-1.4-3.5-3.4-3.5-6.1c0-9.1,0-18.2,0-27.4c0-2.6,1.1-4.7,3.3-6
		C12,10.7,19.9,6.1,27.9,1.5c0.7-0.4,1.4-0.6,2.1-0.9c1.1,0,2.2,0,3.2,0c2.7,0.4,4.7,2.1,7,3.4c3.4,1.9,6.7,3.8,10,5.8
		c2.8,1.6,2.8,2.1,0.1,4.1c-3.6,2.7-7.1,5.5-10.6,8.2c-6.4,4.8-12.6,9.9-19.1,14.5c-0.5,0.3-0.9,0.5-1.2,0.9
		c0.4-0.3,0.9-0.6,1.5-0.9c5.2-3.5,10.8-6.5,16.3-9.7c14.1-8.2,28.2-16.3,42.2-24.5c1.4-0.8,2.9-1.4,4.4-1.7C84.9,0.5,86,0.5,87,0.5
		z"/>
	<path class="st27" d="M440.7,29.8c-3.3-0.9-6.7-1.4-10.1-0.8c-5.8,1-9.3,6-9.4,13.4c-0.1,7-0.1,14.1,0,21.1c0,1.8-0.5,2.4-2.3,2.3
		c-2.3-0.1-4.6-0.1-7,0c-1.1,0-1.7-0.2-1.7-1.5c0-14.5,0-29.1,0-43.6c0-1.1,0.3-1.5,1.4-1.5c2.5,0.1,4.9,0.1,7.4,0
		c1.3,0,1.6,0.4,1.5,1.6c-0.1,2.4,0,4.8,0,7.7c0.7-1.2,1.2-1.9,1.6-2.7c4-6.2,10.1-8.6,17.2-6.9c0.4,0.1,0.8,0.1,1.1,0.2
		C440.7,22.7,440.7,26.2,440.7,29.8z"/>
	<path class="st27" d="M179.6,37.3c6.8-10.5,13.4-20.7,20-31c0.9-1.5,1.9-2.2,3.7-2c2.5,0.2,4.9,0.1,7.4,0c1.2,0,1.8,0.2,1.8,1.6
		c0,19.4,0,38.8,0,58.2c0,1.4-0.5,1.7-1.8,1.6c-2.4-0.1-4.8-0.1-7.2,0c-1.7,0.1-2.2-0.4-2.2-2.2c0.1-12.9,0-25.8,0-38.7
		c0-0.9,0-1.8,0-2.7c-0.1,0-0.3-0.1-0.4-0.1c-7.1,11-14.1,22-21.4,33.2c-7.2-11.1-14.2-22.1-21.3-33.2c-0.8,0.6-0.4,1.4-0.4,2
		c0,13.1-0.1,26.3,0,39.4c0,1.9-0.6,2.4-2.3,2.3c-2.2-0.1-4.3-0.2-6.5,0c-1.8,0.1-2.3-0.5-2.3-2.3c0.1-15.8,0-31.5,0-47.3
		c0-3.2,0.1-6.5,0-9.7c-0.1-1.8,0.5-2.2,2.2-2.1c3.2,0.2,6.8-0.8,9.4,0.4c2.6,1.2,3.7,5,5.4,7.6C168.9,20.5,174.2,28.8,179.6,37.3z"
		/>
	<path class="st27" d="M348.2,30.7c-2.8-1.4-5.3-2.4-8.1-2.9c-12.1-1.9-20,6.3-17.6,18.3c1.8,8.9,9.5,13.2,19.4,10.7
		c2.1-0.5,4.1-1.3,6.2-2c0,2.9,0,5.6,0,8.2c0,0.8-0.2,1.2-1,1.6c-11,5.2-30.1,3.2-34.8-13.7c-2.9-10.5-1.3-20.3,7.4-27.9
		c7.3-6.3,18.5-7,27.5-2.7c1,0.5,0.8,1.2,0.8,1.9C348.3,25,348.2,27.7,348.2,30.7z"/>
	<path class="st27" d="M287.1,28.3c1.3-1.9,2.2-3.4,3.3-4.7c4.1-4.8,9.4-5.8,15.3-4.7c1,0.2,1.4,0.6,1.4,1.7c-0.1,2.5-0.1,5.1,0,7.7
		c0,1.2-0.1,1.6-1.5,1.2c-2.9-0.7-6-1-9-0.3c-4.8,1.1-7.8,4.6-8.7,10c-0.5,3-0.4,6-0.4,9c0,5.3,0,10.7,0,16c0,1.3-0.4,1.7-1.7,1.7
		c-2.5-0.1-4.9-0.1-7.4,0c-1.3,0-1.7-0.3-1.7-1.7c0-14.5,0-28.9,0-43.4c0-1.2,0.3-1.6,1.6-1.6c2.4,0.1,4.8,0.1,7.2,0
		c1.2,0,1.6,0.3,1.6,1.6C287,23.1,287.1,25.5,287.1,28.3z"/>
	<path class="st27" d="M399.6,41.6c0.1-8.5-2.1-16.1-9.8-20.7c-7.5-4.5-15.5-4.4-23.2-0.3c-8.9,4.8-13.6,15.9-11.6,26.9
		c0.8,4.8,2.7,9,6.1,12.5c8,8.2,24.5,9.9,36.1,2.3c0.5-0.4,1-0.7,1-1.4c0-2.8,0-5.5,0-8.2c-0.9-0.3-1.2,0.3-1.6,0.6
		c-5.4,3.6-11.4,5-17.9,4.3c-6-0.6-10.5-3.4-12.7-9.3c-1-2.7-0.9-2.8,1.9-2.8c9.7,0,19.3-0.1,29,0.1c2.1,0,2.8-0.6,2.6-2.5
		C399.5,42.6,399.6,42.1,399.6,41.6z M387.8,38.2c-3.5,0-7,0-10.4,0s-7-0.1-10.4,0c-1.3,0-1.5-0.4-1.3-1.6
		c1.3-7.9,8.9-12.5,16.5-9.8c4.1,1.4,7,5.7,7.2,10.1C389.4,38.4,388.6,38.2,387.8,38.2z"/>
	<path class="st27" d="M234.9,45.4c9,0.1,17.9,0,26.9,0c5.4,0,5.5,0,5.2-5.5c-0.4-8.7-3.3-16.2-11.7-20c-8.4-3.8-16.7-3.1-24.1,2.5
		c-8,6.1-10,14.7-8.9,24.2c0.8,7.1,4,12.9,10.3,16.5c10.7,6,21.4,5.3,31.9-0.7c0.7-0.4,1.2-0.8,1.2-1.8c-0.1-2.7,0-5.4,0-8.6
		c-6,4.4-12.3,6.1-19.2,5.6c-6.5-0.5-11.4-4.2-13.3-9.9C232.6,46,232.8,45.4,234.9,45.4z M233,36.5c1.8-7.9,7.8-11.8,15.4-10
		c4.7,1.1,8.4,5.9,8.3,10.7c0,1.2-0.7,0.9-1.3,0.9c-3.5,0-7.1,0-10.6,0c-3.5,0-6.9,0-10.4,0C232.9,38.3,232.6,37.9,233,36.5z"/>
</g>
</svg>
