<?xml version="1.0" encoding="utf-8"?>
<!-- Generator: Adobe Illustrator 19.2.0, SVG Export Plug-In . SVG Version: 6.00 Build 0)  -->
<svg version="1.1" id="Layer_1" xmlns="http://www.w3.org/2000/svg" xmlns:xlink="http://www.w3.org/1999/xlink" x="0px" y="0px"
	 viewBox="0 0 466 70" style="enable-background:new 0 0 466 70;" xml:space="preserve">
<style type="text/css">
	.st0{fill:#8D53FB;}
	.st1{fill:#CF453A;}
	.st2{fill:#383A3C;}
	.st3{fill:#0078C1;}
	.st4{filter:url(#Adobe_OpacityMaskFilter);}
	.st5{fill:#FFFFFF;}
	.st6{mask:url(#mask-2_1_);fill:#ED3124;}
	.st7{fill:#FEFEFE;}
	.st8{fill:#213067;}
	.st9{fill:#DE6F2E;}
	.st10{fill:#105699;}
	.st11{fill:#0D4A82;}
	.st12{fill:#DD473A;}
	.st13{fill:#0E0B0B;}
	.st14{fill:#92B32E;}
	.st15{fill:#010101;}
	.st16{fill:#C64732;}
	.st17{fill:#FDE034;}
	.st18{fill:#171D23;}
	.st19{fill:#359ADA;}
	.st20{fill:#2C75BD;}
	.st21{fill:#2E76BE;}
	.st22{fill:#DC4739;}
	.st23{fill:#DB8238;}
	.st24{fill:#748B81;}
	.st25{fill:#6891C3;}
	.st26{fill:#4A71A2;}
	.st27{fill:#003475;}
	.st28{fill:#114F85;}
	.st29{fill:#323232;}
	.st30{fill:#3D8F8C;}
	.st31{fill:#1561A5;}
	.st32{fill:#FACE33;}
	.st33{fill:#1562A6;}
	.st34{fill:#285F3B;}
	.st35{fill:#285E3B;}
	.st36{fill:#6FAE49;}
	.st37{fill:#F8FBF7;}
	.st38{fill:#214068;}
	.st39{fill:#D54939;}
	.st40{fill:#D71E28;}
	.st41{fill:#163A83;}
	.st42{fill:#163A82;}
	.st43{fill:#CF6628;}
	.st44{fill:#87ABD8;}
	.st45{fill:#2B89F9;}
	.st46{fill:#9B3C55;}
	.st47{fill:#A0A0A4;}
	.st48{fill:#A2A2A4;}
	.st49{fill:#A0A0A3;}
</style>
<g>
	<path d="M45.8,3.9c0-1.3-0.3-1.8-1.7-1.7c-2,0.1-4,0.2-5.9,0c-1.9-0.2-2.5,0.6-3,2.2c-3.8,12.8-7.7,25.6-11.8,39
		c-0.4-1.3-0.7-2-1-2.7C19.4,30.2,16.2,19.8,13,9.3c-0.7-2.3-0.6-5.6-2.5-6.8C8.7,1.5,5.7,2.4,3.3,2.2C1.5,2,1,2.6,1,4.4
		c0.1,15.1,0,30.2,0,45.3c0,3.7,0,3.6,3.7,3.8C6.7,53.6,7,52.9,7,51.2c-0.1-13.9,0-27.9,0-41.8c0-0.6,0-1.2,0-1.9
		c0.6,0.3,0.6,0.7,0.7,1.1c4.3,14.3,8.6,28.5,12.8,42.8c0.5,1.9,1.5,2,3.1,2.1c1.7,0.1,2.4-0.5,2.8-2.1c4.2-14,8.4-28,12.7-42
		c0.2-0.6,0.1-1.3,0.9-1.6c0,13.9,0,27.8,0,41.6c0,4,0,4,4.1,4c1.2,0,1.8-0.2,1.8-1.6C45.8,35.9,45.8,19.9,45.8,3.9z"/>
	<path d="M145.4,18.7c0-3.2,0-3.1-3.2-3c-0.9,0-1.4,0.3-1.7,1.2c-0.2,0.8-0.3,1.8-1.1,2.5c-1.9-2.2-4-3.7-6.8-4.2
		c-6.9-1.2-13.7,2.3-16.5,8.7c-3,6.9-3,14.1,0,21c2.8,6.4,9.6,10,15.7,8.9c3.1-0.6,5.3-2.5,7.7-5c0,2.7,0.1,4.9,0,7.1
		c-0.2,4.1-2.6,7-6.6,7.9c-1.7,0.4-3.5,0.4-5.2,0.2c-3.1-0.3-6-1-9.1-2.2c0,1.1,0.1,1.9,0,2.8c-0.4,2,0.6,2.7,2.4,3.1
		c3.9,0.9,7.9,1.3,11.9,0.9c6.1-0.6,10.3-4.1,11.8-9.5c0.5-1.8,0.6-3.6,0.6-5.4C145.4,42.1,145.4,30.4,145.4,18.7z M139.7,33.6
		c0,2.3,0,4.5,0,6.8c0,4.1-3,7.6-7.4,8.8c-3.9,1-7.9-0.7-9.9-4.3c-0.9-1.5-1.4-3.2-1.6-4.9c-0.6-4.4-0.8-8.8,0.6-13.2
		c1.2-3.8,3.5-6.4,7.5-7c4.2-0.6,7.5,1,10.2,4.2c0.5,0.6,0.5,1.3,0.5,2C139.7,28.5,139.7,31,139.7,33.6z"/>
	<path d="M264.3,27.2c-3-1.5-6.2-2.5-9.3-3.6c-2.9-1-5.9-2-8.4-4c-3.9-3.2-3.3-9.3,1.1-11.8c5.9-3.3,14.3-0.5,16.8,5.7
		c0.7,1.8,1.7,2,3.2,1.7c0.5-0.1,1-0.3,1.5-0.2c1.7,0.1,1.5-0.7,1-1.8C267,4.3,258.4-0.2,248.9,2.1c-6.2,1.5-10.4,5.8-11,11.2
		c-0.7,5.8,1.9,10,8.1,13.1c2.7,1.4,5.6,2.3,8.5,3.4c2.9,1.1,5.9,2.1,8.5,3.9c2.8,2,3.9,4.6,3.4,8c-0.5,3.2-2.3,5.4-5.4,6.6
		c-6.3,2.4-13.2,0.1-16.9-5.4c-0.8-1.3-0.8-3.5-2.5-3.7c-1.5-0.2-3.2,0.8-4.8,1.2c-0.1,0-0.1,0.1-0.1,0.1
		c4.2,10.8,12.8,15.5,24.1,13.2c7-1.5,11-5.7,12-12.6C273.5,35.1,270.7,30.4,264.3,27.2z"/>
	<path d="M420.8,17.9c-7.6-6.1-20.7-3-24.5,5.9c-2.8,6.5-2.9,13.2-0.5,19.8c2.1,5.8,6.3,9.3,12.5,10.1c6.1,0.8,11.7-0.3,15.6-5.6
		c2.1-2.8,2-2.7-1.1-4.4c-1.5-0.8-2.1-0.5-3,0.9c-2.4,3.9-6.8,5.5-11.2,4.4c-5.9-1.4-8.1-7.4-8.4-12.5c-0.1-1.2,0.8-1,1.5-1
		c3.8,0,7.6,0,11.4,0c2.3,0,4.5,0,6.8,0c6.7,0,6.8,0,6.1-6.8C425.5,24.7,424.3,20.7,420.8,17.9z M420.4,30.2
		c-0.2,1.1-0.8,0.8-1.4,0.8c-2.8,0-5.7,0-8.5,0c-2.8,0-5.5-0.1-8.3,0c-1.2,0-1.6-0.2-1.5-1.6c0.5-7.9,7.4-12.1,14.7-9
		C418.5,21.9,420.9,26.5,420.4,30.2z"/>
	<path d="M183.4,49.4c-1.5-0.8-1.6-1.9-1.6-3.2c0-6.6,0-13.1,0-19.7c0-3.7-1.3-6.8-4.5-9c-5.9-4.1-15.6-3-20.5,2.2
		c-2.9,3.2-2.9,3.5,1.1,5.3c0.9,0.4,1.2,0.3,1.7-0.5c2.7-4.1,6.6-5.6,11.3-4.6c3.3,0.7,4.8,2.3,5.1,5.6c0.3,2.8,0.1,3-2.6,3.3
		c-1.2,0.1-2.3,0.3-3.5,0.5c-5.1,0.9-10.2,2-14,6c-3,3.1-3.9,6.8-2.8,10.9c1.2,4.1,4,7,8.3,7.7c5.6,1,10.5-0.2,14.4-4.6
		c1.6,3.5,2.9,4.4,6.2,4.2c0.6,0,1.8,0.3,1.7-0.8C183.8,51.6,184.7,50.1,183.4,49.4z M176.2,34.4c0,1.3,0,2.6,0,3.9
		c0,6.8-3.4,10.6-9.8,11.2c-3.6,0.3-5.9-1.2-7-4.2c-1.1-3.3-0.1-6.6,2.7-8.4c2.4-1.6,5.1-2.1,7.8-2.6c1.7-0.3,3.5-0.5,5.2-0.8
		C176.1,33.1,176.2,33.5,176.2,34.4z"/>
	<path d="M330.9,49.4c-1.7-0.8-1.6-2-1.6-3.4c0-6.4,0-12.8,0-19.3c0-3.9-1.3-7.1-4.7-9.4c-5.9-4-15.4-2.9-20.3,2.3
		c-3,3.2-2.9,3.3,0.8,5.2c0.9,0.5,1.4,0.5,2-0.5c2.4-3.9,6.5-5.4,11.2-4.4c3.4,0.7,4.7,2.2,5.1,5.6c0.3,2.8,0.2,3-2.8,3.3
		c-1.1,0.1-2.2,0.3-3.2,0.4c-5.2,0.9-10.3,2-14.1,6.1c-5.9,6.3-2.9,16.6,5.5,18.4c5.6,1.2,10.7-0.1,14.6-4.6c1.5,3.5,3,4.5,6.4,4.3
		c0.6,0,1.6,0.2,1.6-0.7C331.3,51.7,332.1,50.1,330.9,49.4z M323.6,42.1c0,0.4,0,0.7-0.1,1.1c-1.3,4.4-9.9,7.8-13.8,5.6
		c-4.3-2.4-4.4-9.1-0.3-12c2.3-1.6,5.1-2.2,7.8-2.7c2.1-0.4,4.2-0.6,6.5-1C323.6,36.3,323.6,39.2,323.6,42.1z"/>
	<path d="M69.6,14.9c-6,0-10.5,2.7-13.4,7.9c-2.1,3.6-2.8,7.6-2.8,12.5c-0.1,2.4,0.4,5.4,1.5,8.3c2.5,6.4,7.1,10.3,14.1,10.5
		c6.5,0.2,11.5-2.5,14.4-8.4c3.7-7.6,3.7-15.4-0.3-22.9C80.4,17.4,75.7,14.8,69.6,14.9z M78,43.8c-1.5,3.6-4.4,5.6-8.4,5.6
		c-3.9,0-6.6-2-8.2-5.5c-1.5-3-1.9-6.2-1.8-9.6c0-3.2,0.3-6.2,1.7-9.1c1.7-3.5,4.3-5.6,8.3-5.6c4,0,6.9,2,8.4,5.6
		C80.6,31.3,80.6,37.6,78,43.8z"/>
	<path d="M220.3,25.2c-0.1-5.6-3.5-9.2-9.1-10c-5.3-0.8-9.3,1.5-13.3,5.5c0-1.9,0.5-3.6-0.1-4.5c-0.7-1.1-2.6-0.2-3.9-0.4
		c-1.5-0.2-1.9,0.3-1.9,1.9c0.1,10.6,0,21.3,0,31.9c0,4,0,3.9,4,4c1.7,0,2-0.5,2-2.1c-0.1-7.1,0.3-14.3-0.2-21.4
		c-0.3-4.5,1.8-6.7,5.1-8.6c0.4-0.2,0.8-0.4,1.2-0.6c6.4-3,10.3-0.7,10.3,6.3c0,7.3,0,14.6,0,21.9c0,4.7,0,4.7,4.6,4.5
		c1.1,0,1.3-0.4,1.3-1.4C220.3,43.2,220.4,34.2,220.3,25.2z"/>
	<path d="M367.8,26.5c0-1.5-0.2-3.1-0.7-4.5c-2-6.2-9.6-8.8-16.2-5.6c-2,1-3.6,2.4-5.4,4.1c-0.4-4.7-0.4-4.6-4.2-4.8
		c-1.7-0.1-2,0.6-2,2.1c0.1,10.6,0,21.3,0,31.9c0,3.9,0,3.7,3.9,3.9c1.8,0.1,2.1-0.6,2.1-2.2c-0.1-7.1,0.3-14.3-0.1-21.4
		c-0.2-4.1,1.4-6.4,4.7-8.1c0.6-0.3,1.1-0.7,1.7-0.9c6.3-3,10.2-0.6,10.2,6.2c0,7.5,0,15,0,22.5c0,4,0,3.9,4.1,4
		c1.5,0,2-0.4,1.9-1.9C367.7,43.3,367.8,34.9,367.8,26.5z"/>
	<path d="M457.1,15.6c-1.9-0.3-2.5,0.6-3,2.2c-2.3,8-4.7,16-7.1,24.1c-0.3,0.9-0.6,1.8-1.1,2.5c-2.9-8.2-5.7-16.3-8.5-24.3
		c-1.7-4.9-1.7-4.9-7-4.3c-0.2,0.8,0.3,1.4,0.5,2.1c3.6,10.4,7,20.8,11,31c1.6,4.2,0.8,7.5-1.3,11.1c-2,3.5-5.1,4.6-8.9,4.2
		c-0.6-0.1-1.9-1-1.7,0.6c0.2,1.3-1.2,3.2,1.1,3.9c4.7,1.3,9.5-0.5,12.4-4.4c1.8-2.4,3.1-5.1,4-8c2.4-7.5,4.9-15.1,7.3-22.6
		c1.9-5.9,3.8-11.9,5.7-18C459.3,15.7,458.2,15.8,457.1,15.6z"/>
	<path d="M291.7,20.3c1.9,0.1,2.8-0.1,2.8-2.5c0-2-0.7-2.5-2.5-2.3c-0.8,0.1-1.6-0.1-2.4,0c-1.3,0.2-1.6-0.4-1.6-1.6
		c0.1-2.1,0-4.2,0-6.3c0-4.6,0-4.5-4.5-4.4c-1.1,0-1.5,0.3-1.5,1.5c0.1,2.2,0,4.4,0,6.6c0,4.1,0,4.1-4.1,4.3c-0.6,0-1.3-0.3-1.6,0.7
		c-0.8,2.7,0.1,4,2.9,4c0.3,0,0.6,0,0.9,0c1.5-0.3,2,0.4,1.9,1.9c-0.1,4.2,0,8.5,0,12.7c0,3.9,0,7.7,0,11.6c0,5.3,1.6,7,6.8,7.6
		c1.2,0.1,2.3-0.1,3.5-0.1c2.8,0,1.9-1.9,2-3.4c0.2-1.9-1.3-1.1-2.1-1.1c-3.4-0.1-4.2-0.9-4.2-4.3c0-7.1,0-14.1,0-21.2
		C288.1,20.2,288.1,20.2,291.7,20.3z"/>
	<path d="M390.5,50.7c0.2-1.9-1.2-1.2-2-1.3c-3.6-0.1-4.5-1-4.5-4.6c0-13.3,0-26.7,0-40c0-3.8,0-3.7-3.9-3.8c-1.7,0-2,0.5-2,2.1
		c0.1,7.4,0,14.9,0,22.3c0,7.4,0,14.7,0,22.1c0,3.7,1.8,5.8,5.5,6.4c1.7,0.3,3.3,0.2,5,0.1C391.3,53.8,390.4,52,390.5,50.7z"/>
	<path d="M110.1,15.2c-3.5,0.3-6.4,1.7-8.6,4.5c-0.7,0.8-1.3,1.7-2.2,3c0-1.5,0-2.3,0-3.2c0-3.8,0-3.7-3.9-3.8c-1.6-0.1-2,0.4-2,2
		c0.1,10.6,0,21.1,0,31.7c0,4.1,0,4,4.1,4c1.4,0,1.8-0.4,1.8-1.8c-0.1-6.1-0.1-12.3,0-18.4c0-6.1,4-11.2,9.2-12.3
		c3.4-0.7,3.4-0.7,3.4-4.2C111.9,15.3,111.3,15.2,110.1,15.2z"/>
</g>
</svg>
