<?xml version="1.0" encoding="utf-8"?>
<!-- Generator: Adobe Illustrator 19.2.0, SVG Export Plug-In . SVG Version: 6.00 Build 0)  -->
<svg version="1.1" id="Layer_1" xmlns="http://www.w3.org/2000/svg" xmlns:xlink="http://www.w3.org/1999/xlink" x="0px" y="0px"
	 viewBox="0 0 576.2 70" style="enable-background:new 0 0 576.2 70;" xml:space="preserve">
<style type="text/css">
	.st0{fill:#8D53FB;}
	.st1{fill:#CF453A;}
	.st2{fill:#383A3C;}
	.st3{fill:#0078C1;}
	.st4{filter:url(#Adobe_OpacityMaskFilter);}
	.st5{fill:#FFFFFF;}
	.st6{mask:url(#mask-2_1_);fill:#ED3124;}
	.st7{fill:#FEFEFE;}
	.st8{fill:#213067;}
	.st9{fill:#DE6F2E;}
	.st10{fill:#105699;}
	.st11{fill:#0D4A82;}
	.st12{fill:#DD473A;}
	.st13{fill:#0E0B0B;}
	.st14{fill:#92B32E;}
	.st15{fill:#010101;}
	.st16{fill:#C64732;}
	.st17{fill:#FDE034;}
	.st18{fill:#171D23;}
	.st19{fill:#359ADA;}
	.st20{fill:#2C75BD;}
	.st21{fill:#2E76BE;}
	.st22{fill:#DC4739;}
	.st23{fill:#DB8238;}
	.st24{fill:#748B81;}
	.st25{fill:#6891C3;}
	.st26{fill:#4A71A2;}
	.st27{fill:#003475;}
	.st28{fill:#114F85;}
	.st29{fill:#323232;}
	.st30{fill:#3D8F8C;}
	.st31{fill:#1561A5;}
	.st32{fill:#FACE33;}
	.st33{fill:#1562A6;}
	.st34{fill:#285F3B;}
	.st35{fill:#285E3B;}
	.st36{fill:#6FAE49;}
	.st37{fill:#F8FBF7;}
	.st38{fill:#214068;}
	.st39{fill:#D54939;}
	.st40{fill:#D71E28;}
	.st41{fill:#163A83;}
	.st42{fill:#163A82;}
	.st43{fill:#CF6628;}
	.st44{fill:#87ABD8;}
	.st45{fill:#2B89F9;}
	.st46{fill:#9B3C55;}
	.st47{fill:#A0A0A4;}
	.st48{fill:#A2A2A4;}
	.st49{fill:#A0A0A3;}
</style>
<g>
	<path class="st45" d="M183.3,13.7c2-7.1-1.2-12-8.6-12.6c-7.6-0.6-15.1-0.3-22.7-0.1c-1,0-2.1,0.2-3.1,0.4
		c-6.5,1.4-10.3,5.8-13,11.5c-5.6,11.9-11.3,23.7-16.9,35.6c-1.1,2.2-1.9,4.5-2.5,6.9c-1.6,7,1.8,12,8.9,13.1c3.5,0.6,7,0.2,9.8,0.3
		c3,0,5.3,0,7.6,0c10.2,0,17.3-4.4,21.6-13.9c5.4-12,11.2-23.9,16.8-35.9C182.1,17.4,182.8,15.6,183.3,13.7z M166,15.9
		c-1.7,3.9-3.5,7.7-5.3,11.5c-3.5,7.4-7,14.9-10.5,22.3c-2.9,6.1-3.6,6.5-11,6.5c-1.3,0-2.7,0.1-4,0c-2-0.2-2.6-1.2-2-3.1
		c0.5-1.4,1.1-2.7,1.7-4.1c4.9-10.6,9.9-21.2,14.8-31.8c1.6-3.5,3.8-5.3,7.7-4.9c2.1,0.2,4.2,0,6.2,0C166.2,12.4,167,13.5,166,15.9z
		"/>
	<path class="st45" d="M277.2,37.8c1-0.2,1.7-0.3,2.3-0.5c3.7-0.9,6.9-2.5,8.9-5.8c3.4-5.6,6.3-11.5,8.2-17.7
		c2-6.4-1.3-11.1-7.9-12.3c-1-0.2-2.1-0.2-3.1-0.2c-9.1,0-18.1,0-27.2-0.1c-1.7,0-2.4,0.6-3.1,2c-7.1,15.3-14.4,30.6-21.6,45.9
		c-3,6.4-6,12.7-9.1,19.4c4.9,0,9.3-0.1,13.8,0c1.6,0,2.3-0.4,3-1.9c3.4-7.7,7-15.2,10.5-22.9c0.4-0.9,0.6-1.8,2-1.7
		c2.4,0.1,4.9,0,7.4,0.1c2.6,0.1,4.1,1.9,4.2,4.5c0,1.9-0.7,3.6-1.5,5.3c-2.2,4.9-4.3,9.9-6.2,15c-0.4,1.1-0.4,1.6,1,1.6
		c4.4-0.1,8.8,0,13.2,0c0.9,0,1.5-0.2,1.7-1.2c1.4-5.8,4.1-11.1,6.3-16.6C281.7,45.9,282.4,41.4,277.2,37.8z M269.3,30.9
		c-3.6,0.1-7.3,0-11.3,0c2.8-6,5.4-11.6,7.9-17.3c0.4-0.8,0.9-1,1.7-1c3.5,0,7,0,10.5,0c2,0,2.9,1,2.2,2.9
		c-1.7,4.6-3.7,9.1-6.4,13.1C272.9,30.2,271.1,30.9,269.3,30.9z"/>
	<path class="st45" d="M107.4,37.8c0.9-0.2,1.5-0.3,2.2-0.5c3.7-0.9,6.9-2.5,8.9-5.8c3.4-5.7,6.4-11.6,8.3-17.9
		c1.9-6.3-1.3-10.9-7.7-12c-1.2-0.2-2.4-0.3-3.5-0.3c-9,0-18,0-27-0.1c-1.6,0-2.5,0.5-3.2,2c-9,19.3-18.1,38.5-27.1,57.8
		c-1.2,2.5-2.3,4.9-3.6,7.6c4.9,0,9.5-0.1,14.1,0c1.4,0,2.1-0.5,2.6-1.8c2.7-6,5.4-11.9,8.2-17.8c1.1-2.3,1.4-5.5,3.4-6.5
		c2-1.1,5.1-0.3,7.7-0.4c0.3,0,0.6,0,0.9,0c2.5,0.3,3.9,2,3.9,4.6c0,1.8-0.6,3.3-1.3,4.9c-2.3,5.1-4.5,10.2-6.4,15.4
		c-0.3,0.8-0.7,1.6,0.8,1.5c4.5,0,9.1,0,13.6,0c0.8,0,1.2-0.2,1.4-1c1.6-6.3,4.7-12.2,6.9-18.3C112.2,44.3,111.6,41.5,107.4,37.8z
		 M99.7,30.8c-3.4,0.1-6.8,0.1-10.2,0.1c-1.3,0-1.1-0.5-0.7-1.4c2.5-5.3,5-10.6,7.5-15.9c0.4-0.9,0.9-1.2,1.9-1.2
		c1.7,0.1,3.4,0,5.1,0c0,0,0,0,0,0c1.6,0,3.3-0.1,4.9,0c2.1,0.1,3,1.1,2.3,3.1c-1.7,4.4-3.7,8.8-6.1,12.8
		C103.3,30,101.6,30.7,99.7,30.8z"/>
	<path class="st45" d="M232.4,31.2c-8,0-15.5,0-23.1,0c-0.9,0-1.3,0.5-1.6,1.2c-1.3,2.8-2.6,5.7-4,8.4c-0.6,1.2-0.5,1.7,1,1.7
		c1.7-0.1,3.4,0,5.1,0c1.2,0,1.5,0.3,0.9,1.4c-1.5,3.2-3,6.4-4.5,9.7c-0.8,1.8-2.3,2.6-4.3,2.6c-2.9,0-5.8,0-8.7,0
		c-3,0-3.7-1.1-2.5-3.9c1.2-2.8,2.6-5.5,3.9-8.2c4.4-9.3,8.9-18.6,13.3-27.9c1.2-2.5,2.8-3.9,5.7-3.7c2.4,0.1,4.8,0,7.1,0
		c3.3,0,3.9,0.9,2.6,3.9c-1.2,2.6-2.4,5.2-3.7,8.1c1,0,1.7,0,2.4,0c3.9,0,7.7,0,11.6,0c0.8,0,1.4-0.2,1.7-1c1.3-3.1,2.8-6.2,4.1-9.4
		c0.7-1.7,1.1-3.6,0.9-5.5c-0.4-4.3-3.6-6.9-8.9-7.4c-6.4-0.6-12.8-0.3-19.2-0.3c-9,0-15.5,4.2-19.4,12.4
		c-5.4,11.5-10.9,23-16.4,34.6c-1,2-1.8,4.1-2.3,6.2c-1.9,8.1,1.8,13.4,10.1,14.4c6.8,0.8,13.6,0.3,20.5,0.2
		c7.6-0.1,12.4-4.1,15.4-10.8c1.8-4.1,3.7-8.1,5.5-12.1C227.9,41.1,230.1,36.4,232.4,31.2z"/>
	<path class="st45" d="M64.1,32.3c1.9-4.4,4-8.7,6-13.1c0.7-1.7,1.4-3.4,1.9-5.2c1.7-7.2-2.1-12.2-9.4-12.6c-0.7,0-1.3,0-2,0
		c-4.2,0-8.3,0-12.5,0c-4.8,0-9.5,0-14.3,0c-1.1,0-1.9,0.2-2.4,1.4c-10,21.5-20,43-30.1,64.5c-0.7,1.5-0.2,1.7,1.2,1.7
		c4.1-0.1,8.2-0.1,12.3,0c1.7,0.1,2.5-0.6,3.1-2.1c3-6.7,6.2-13.3,9.2-20c0.5-1.2,1.2-1.6,2.5-1.6c4.9,0.1,9.8-0.1,14.7,0
		C53.9,45.3,60.4,41.1,64.1,32.3z M55.8,15.8c-1.9,5.2-4.4,10.2-7.1,15c-0.8,1.4-2.2,2.3-3.8,2.4c-3.7,0.1-7.5,0-11.5,0
		c2.7-5.8,5.4-11.3,7.7-16.9c1.3-3.1,2.9-4.6,6.3-4c2,0.3,4,0,6,0.1C55.6,12.5,56.5,13.6,55.8,15.8z"/>
	<path class="st45" d="M511.3,1.1c-5.5,0-10.9,0-16.2,0c-1,0-1.4,0.7-1.8,1.4c-7.7,12.4-15.4,24.8-23.2,37.2
		c-3.8,6.2-7.7,12.3-11.5,18.4c-0.1,0-0.3-0.1-0.4-0.1c0.1-0.5,0.2-1,0.3-1.5c5.6-17.8,11.3-35.6,16.9-53.4C476,1.6,476,1,474,1
		c-4.5,0.1-8.9,0.1-13.4,0c-1.5,0-2.1,0.5-2.4,1.9c-1.2,5.6-2.5,11.1-3.8,16.6c-3.7,15.8-7.3,31.6-11.1,47.3
		c-0.4,1.6,0.2,1.7,1.5,1.7c6.3,0,12.6,0,18.9,0c1.2,0,1.9-0.4,2.6-1.4c2.4-3.6,4.9-7.2,7.4-10.8c11.5-16.7,22.9-33.4,34.4-50.1
		C509.2,4.7,510.5,3.2,511.3,1.1z"/>
	<path class="st45" d="M518.5,1.1c-1.5,0-1.8,0.8-2.3,1.9c-9.9,21.1-19.8,42.2-29.6,63.2c-0.3,0.7-0.9,1.3-0.7,2.3
		c12.8,0,25.6,0,38.3,0c0.7,0,1.2-0.1,1.6-0.9c1.7-3.7,3.5-7.3,5.4-11.4c-8.2,0-16.1,0-24.2,0c2.8-5.9,5.4-11.4,8-17
		c0.5-1.1,1.3-1,2.2-1c4.2,0,8.4-0.4,12.5,0.1c5,0.6,7.8-1.1,9-5.9c0.5-1.8,2.6-3.8,1.9-4.9c-0.9-1.4-3.5-0.4-5.4-0.5
		c-4.7-0.1-9.4,0-14.5,0c2-4.4,4-8.3,5.8-12.4c0.5-1.2,1.2-1.6,2.5-1.6c5.9,0.1,11.9,0,17.8,0c0.8,0,1.6,0.2,2-0.9
		c1.6-3.6,3.3-7.2,5.1-11c-0.6-0.1-0.9-0.1-1.3-0.1C541.2,1.2,529.8,1.2,518.5,1.1z"/>
	<path class="st45" d="M324.8,56.4c-6.6,0.1-13.2,0-19.8,0.1c-1.8,0-1.9-0.5-1.2-2c2.4-4.8,4.7-9.6,6.9-14.5
		c0.6-1.3,1.3-1.7,2.7-1.7c5.1,0.1,10.3-0.1,15.4,0.1c2.4,0.1,3.8-0.6,4.6-2.9c1-2.8,2.4-5.4,3.8-8.4c-6.5,0-12.5,0-18.5,0
		c-1.7,0-1.9-0.5-1.2-1.9c1.6-3.3,3.3-6.7,4.7-10.1c0.6-1.5,1.4-2.1,3.1-2c5.8,0.1,11.6,0.1,17.4,0c0.8,0,1.6,0.2,2.1-0.8
		c1.6-3.6,3.3-7.2,5.2-11.2c-12.2,0-23.9,0-35.6,0c-1.1,0-1.5,0.5-2,1.4c-10,21.4-20,42.8-30.1,64.3c-0.6,1.2-0.7,1.8,1,1.8
		c12.2-0.1,24.4-0.1,36.5,0c1.3,0,1.8-0.5,2.3-1.6c1.3-2.8,2.5-5.7,4-8.4C327,56.9,326.9,56.3,324.8,56.4z"/>
	<path class="st45" d="M367.6,44.8c-0.5-8.4-1-16.8-1.4-25.1c-0.2-4.3,2-6.5,6.3-6.5c3.1,0,6.2,0,9.4,0c0.6,0,1.4,0.2,1.7-0.6
		c1.8-3.7,3.5-7.4,5.4-11.4c-7.2,0-13.9-0.1-20.7,0c-10.8,0.2-17.5,6.9-17.5,17.7c0,6.2,0.5,12.5,0.7,18.7c0.1,4.4,0.7,8.9,0.3,13.3
		c-0.3,3.5-1.8,4.8-5.3,5.2c-4,0.4-8,0.1-12,0.2c-0.9,0-1.7-0.1-2.2,1c-1.6,3.6-3.3,7.3-5.1,11.2c7.6,0,14.8,0.2,22-0.1
		c5.1-0.2,9.8-1.9,13.3-5.9C367.1,57.4,367.9,51.3,367.6,44.8z"/>
	<path class="st45" d="M410,13.2c3.1,0,6.2,0,9.4,0c0.7,0,1.5,0.3,2-0.6c1.8-3.7,3.5-7.4,5.4-11.3c-7.4,0-14.5-0.3-21.5,0.1
		c-10.6,0.6-16.8,7.5-16.7,18.1c0,4.4,0.4,8.9,0.6,13.3c0.2,5.9,0.5,11.7,0.6,17.6c0.1,3.7-1.7,5.5-5.3,5.9
		c-3.9,0.4-7.9,0.1-11.8,0.2c-0.8,0-1.6-0.2-2.1,0.8c-1.7,3.7-3.4,7.4-5.2,11.3c6.5,0,12.6,0,18.7,0c1.3,0,2.5,0,3.8-0.1
		c9.2-1.2,14.9-6.2,16.9-14.9c0.9-4.1,0.6-8.3,0.4-12.4c-0.4-7.3-0.9-14.5-1.1-21.8C403.8,15.2,406,13.2,410,13.2z"/>
	<path class="st45" d="M451.7,1.1c-4.2,0.1-8.5,0.1-12.7,0c-1.4,0-2,0.5-2.6,1.8c-9.5,20.3-19.1,40.7-28.7,61
		c-0.7,1.5-1.3,2.9-2.1,4.7c5.3,0,10.4,0,15.4,0c1,0,1.2-0.7,1.5-1.3c10.2-21.4,20.3-42.9,30.5-64.3C453.8,1.2,453.1,1.1,451.7,1.1z
		"/>
	<path class="st45" d="M564.2,1.7c-2.9,0-5.6,2.7-5.5,5.6c0,3,2.6,5.5,5.6,5.5c3,0,5.5-2.6,5.5-5.6C569.8,4.2,567.2,1.7,564.2,1.7z
		 M564.3,11.9c-2.6,0-4.7-2.1-4.7-4.6c0-2.7,2.1-4.8,4.7-4.8c2.7,0,4.7,2,4.7,4.7C569,10,567.1,12,564.3,11.9z"/>
	<path class="st45" d="M566.1,4.4c-1.3-0.2-3.2-0.9-3.7,0.5c-0.6,1.5-0.1,3.4-0.1,5.5c1.3-1,0.2-2.6,1.3-2.8
		c1.4-0.3,1.4,1.4,2.2,2.1c0.2,0.2,0.4,0.4,0.6,0.6c-0.3-1.5-1.4-2.6,0.5-3.8C567.6,6,567.1,4.6,566.1,4.4z M565,6.9
		c-1.2,0.1-1.9,0.1-1.9-1c0-1.1,0.7-1.1,1.4-1.1c0.7,0,1.6-0.2,1.7,0.9C566.3,6.8,565.3,6.8,565,6.9z"/>
</g>
</svg>
