<?xml version="1.0" encoding="utf-8"?>
<!-- Generator: Adobe Illustrator 19.2.0, SVG Export Plug-In . SVG Version: 6.00 Build 0)  -->
<svg version="1.1" id="Layer_1" xmlns="http://www.w3.org/2000/svg" xmlns:xlink="http://www.w3.org/1999/xlink" x="0px" y="0px"
	 viewBox="0 0 59.6 70" style="enable-background:new 0 0 59.6 70;" xml:space="preserve">
<style type="text/css">
	.st0{fill:#8D53FB;}
	.st1{fill:#CF453A;}
	.st2{fill:#383A3C;}
	.st3{fill:#0078C1;}
	.st4{filter:url(#Adobe_OpacityMaskFilter);}
	.st5{fill:#FFFFFF;}
	.st6{mask:url(#mask-2_1_);fill:#ED3124;}
	.st7{fill:#FEFEFE;}
	.st8{fill:#213067;}
	.st9{fill:#DE6F2E;}
	.st10{fill:#105699;}
	.st11{fill:#0D4A82;}
	.st12{fill:#DD473A;}
	.st13{fill:#0E0B0B;}
	.st14{fill:#92B32E;}
	.st15{fill:#010101;}
	.st16{fill:#C64732;}
	.st17{fill:#FDE034;}
	.st18{fill:#171D23;}
	.st19{fill:#359ADA;}
	.st20{fill:#2C75BD;}
	.st21{fill:#2E76BE;}
	.st22{fill:#DC4739;}
	.st23{fill:#DB8238;}
	.st24{fill:#748B81;}
	.st25{fill:#6891C3;}
	.st26{fill:#4A71A2;}
	.st27{fill:#003475;}
	.st28{fill:#114F85;}
	.st29{fill:#323232;}
	.st30{fill:#3D8F8C;}
	.st31{fill:#1561A5;}
	.st32{fill:#FACE33;}
	.st33{fill:#1562A6;}
	.st34{fill:#285F3B;}
	.st35{fill:#285E3B;}
	.st36{fill:#6FAE49;}
	.st37{fill:#F8FBF7;}
	.st38{fill:#214068;}
	.st39{fill:#D54939;}
	.st40{fill:#D71E28;}
	.st41{fill:#163A83;}
	.st42{fill:#163A82;}
	.st43{fill:#CF6628;}
	.st44{fill:#87ABD8;}
	.st45{fill:#2B89F9;}
	.st46{fill:#9B3C55;}
	.st47{fill:#A0A0A4;}
	.st48{fill:#A2A2A4;}
	.st49{fill:#A0A0A3;}
</style>
<g>
	<path class="st31" d="M1,61.7C1,41.3,1,20.8,1,0.3c0.1,0,0.2,0,0.3,0c17.4,0,34.8,0,52.2,0c0.3,0,0.4,0,0.4,0.3c0,0.1,0,0.2,0,0.3
		c0,20.1,0,40.3,0,60.4c0,0.6-0.1,1.2-0.3,1.8c-0.3,1-1,1.7-1.9,2.2c-0.6,0.4-1.3,0.6-2,0.8c-1.8,0.6-3.7,1.2-5.6,1.7
		c-2.2,0.5-4.5,1-6.7,1.3c-1.4,0.2-2.8,0.4-4.2,0.5c-0.6,0-1.3,0.1-1.9,0.1c-0.8,0-1.7,0-2.5,0c-0.9,0-1.9,0-2.8,0c-1,0-2,0-3,0
		c-1.2,0-2.5-0.2-3.7-0.3c-2.1-0.2-4.2-0.6-6.2-1c-2-0.4-4-0.9-5.9-1.5C6,66.4,4.7,66,3.5,65.5c-1.1-0.4-1.9-1.2-2.3-2.3
		C1.1,62.9,1.1,62.4,1,62C1,61.9,1,61.8,1,61.7z"/>
	<path class="st32" d="M46.9,43.6c0.7,0.2,1.4,0.6,2,1.1c0.3,0.3,0.6,0.6,0.8,0.9c0.1,0.1,0.1,0.1,0,0.2c-0.3,1-0.6,2-0.9,3
		c-0.1,0.3-0.3,0.1-0.4,0.2c-0.1,0-0.1-0.1-0.1-0.2c0-1.5-0.9-2.4-2.2-2.9c-1-0.3-1.9-0.4-3-0.4c-2.6,0-5.2,0-7.9,0
		c-0.2,0-0.2,0-0.2,0.2c0.2,1.3,0.3,2.6,0.2,4c0,0.2-0.1,0.2-0.2,0.2c-0.1,0-0.2,0-0.2-0.2c-0.3-2.3-1-4.4-2.3-6.3
		c-1-1.5-2.3-2.7-3.7-3.8c-0.9-0.7-1.9-1.4-2.8-2.1c0,0-0.1,0-0.1-0.1c0,0.1,0,0.2,0,0.2c0,0.8,0,1.5,0,2.3c0,0.1,0.1,0.2-0.1,0.2
		c-0.1,0-0.3,0.1-0.4-0.1c-0.3-0.7-0.8-1.4-1.2-2.1c-1.3-1.8-2.9-3.3-4.6-4.6c-0.9-0.7-1.9-1.4-2.9-2.1c0,0-0.1,0-0.1-0.1
		c0,0.4,0,0.8,0,1.2c0,0.5,0,1.1,0,1.6c0,0.1,0.1,0.2-0.1,0.2c-0.1,0-0.3,0.1-0.4-0.1c-0.2-0.6-0.5-1.1-0.8-1.7
		c-0.9-1.6-2.1-2.9-3.3-4.2c-1.1-1.1-2.3-2.1-3.4-3.2c-1.1-1.1-2.2-2.2-3-3.6c-1-1.7-1.5-3.6-1.3-5.7c0.1-1.6,0.7-2.9,1.8-4
		c0.2-0.2,0.5-0.4,0.8-0.6c0,0.4,0,0.7,0,1.1c0,0.1-0.1,0.1-0.1,0.2c-0.8,1.2-1.1,2.5-1,3.9c0.1,2.1,1.1,3.7,2.5,5.2
		c1.4,1.5,2.9,2.8,4.6,4c2.7,2.1,5.6,4,8.4,5.9c2.6,1.8,5.3,3.5,7.8,5.4c1.3,1,2.5,2,3.6,3.2c1.1,1.4,2,2.9,2.4,4.6
		c0,0.2,0.1,0.2,0.3,0.2c2.4-0.4,4.8-0.7,7.2-1.1c0.8-0.1,1.6-0.3,2.4-0.3c0.2,0,0.3-0.1,0.4-0.2c0.9-0.6,1.7-1.4,2.4-2.4
		c0,0,0-0.1,0.1-0.1c-0.4,0-0.7-0.1-1.1-0.1c-1.1-0.1-2.2-0.2-3.3-0.3c-0.1,0-0.2,0-0.2,0.1c-0.2,0.3-0.3,0.7-0.5,1
		c-0.1,0.1-0.2,0.2-0.3,0.2c-0.1,0-0.2,0-0.1-0.2c0.1-0.4,0.2-0.8,0.3-1.2c-0.3,0-0.7-0.1-1-0.1c-0.1,0-0.2,0-0.2-0.1
		c0-0.1,0.1-0.1,0.2-0.2c0.3,0,0.6-0.1,0.9-0.1c0.1,0,0.2-0.1,0.2-0.2c0.2-1.1,0.3-2.2,0.3-3.4c0-0.1,0-0.1-0.1-0.1
		c-1.3-0.1-2.6-0.1-3.8-0.2c-0.5,0-1.1-0.1-1.6-0.1c-0.1,0-0.2,0-0.2,0.2c0,0.4,0,0.9,0,1.3c0,0.1,0,0.2-0.1,0.2
		c-0.1,0-0.3,0.1-0.3-0.1c-0.1-0.5-0.2-0.9-0.2-1.4c0-0.2-0.1-0.2-0.2-0.2c-0.3,0-0.6,0-0.9-0.1c-0.2,0-0.2-0.1-0.2-0.2
		c0-0.1,0-0.2,0.2-0.2c0.3,0,0.6,0,0.9,0c0.1,0,0.2,0,0.2-0.2c-0.2-1.3-0.2-2.5-0.1-3.8c0-0.1,0-0.2-0.1-0.2c-1,0-2.1-0.1-3.1-0.1
		c0,0,0,0,0,0c0,0.1,0,0.1,0,0.1c0.5,1,0.7,2.1,0.8,3.2c0.1,0.9,0,1.9-0.1,2.8c0,0.2-0.1,0.3-0.3,0.3c-0.2,0-0.2-0.2-0.2-0.3
		c-0.2-1.5-0.5-2.9-1.2-4.2c-0.6-1.2-1.6-2.2-2.6-3c-1.1-0.9-2.3-1.8-3.5-2.6c0,0,0,0-0.1,0c0,0.1,0,0.2,0,0.2c0,0.8,0,1.6,0,2.3
		c0,0.1,0,0.2-0.1,0.2c-0.1,0-0.3,0.1-0.3-0.1c-0.8-2.6-2.6-4.3-4.8-5.8c-1.3-0.9-2.7-1.6-4.1-2.3c-1-0.5-1.8-1.2-2.5-2
		c-0.9-1.1-1.3-2.3-1.4-3.6c0-0.5,0-0.9,0-1.4c0.4,0.2,0.8,0.5,1.1,0.7c0.1,0.1,0.1,0.2,0.1,0.3c0.1,1,0.5,1.9,1.1,2.7
		c1.1,1.3,2.4,2,4.1,2c1.4,0,2.7-0.2,4.1-0.4c1-0.2,2-0.4,3-0.5c0.8-0.1,1.7,0,2.5,0.2c0-0.4,0-0.9,0-1.3c0-0.2,0.1-0.4,0-0.5
		c-0.1-0.1-0.4,0-0.5,0c-0.3,0-0.7,0-1,0.2c-1.6,1-4.2,0.7-5.4-0.8c-0.9-1.1-1.1-2.3-0.6-3.7c0.3-0.8,0.9-1.2,1.7-1.5
		c0.6-0.2,1.2-0.2,1.8-0.3c1,0,2,0,3.1-0.1c0.2,0,0.4,0,0.5,0c0.5-0.1,0.7-0.4,0.8-0.9c0-0.3,0-0.7,0-1c0-0.6,0-1.2,0-1.8
		C29,8,29,8,28.8,8c-2.6,0-5.2,0-7.8,0c-0.2,0-0.2,0.1-0.2,0.2c0,0.9,0,1.9,0,2.8c0,0.1,0,0.2,0,0.3c-0.3-0.1-0.5-0.2-0.7-0.3
		c-0.7-0.3-1.5-0.6-2.2-0.8c-0.1-0.1-0.2-0.1-0.2-0.3c0-0.2-0.1-0.4,0-0.5c0.1-0.1,0.3,0,0.5,0c0.3,0,0.5,0,0.8,0
		c0.1,0,0.2,0,0.2-0.2c0-0.3,0-0.6,0-0.9C19.2,8,19.1,8,19,8c-1.7,0-3.4,0-5,0c-0.2,0-0.3-0.1-0.3-0.3c0-0.7,0-1.5,0-2.2
		c0-0.1,0-0.2-0.1-0.2c-0.7,0-1.4-0.1-2,0c-1.3,0.2-2.1,1.2-2,2.6c0.1,0.5,0.2,1,0.5,1.3c0.4,0.4,0.8,0.6,1.3,0.5
		c0.2,0,0.2,0.1,0.2,0.2c0,0.4,0,0.8,0,1.2c0,0.1,0,0.2-0.2,0.2c-2.1,0.1-3.9-1.4-4.2-3.4c-0.3-2.1,0.8-4,2.8-4.8
		c0.6-0.2,1.1-0.3,1.7-0.3c1.3,0,2.5,0,3.8,0c0.2,0,0.2,0.1,0.2,0.2c0,0.7,0,1.5,0,2.2c0,0.3,0,0.3,0.3,0.3c5,0,10,0,15,0
		c0.3,0,0.3,0,0.3,0.3c0,1.5,0,3,0,4.4c0,0.6,0,1.2-0.1,1.7c-0.2,1-1,1.7-2.1,1.9c-1,0.1-2,0-3,0c-0.6,0-1.2-0.1-1.8,0
		c-0.3,0-0.5,0.1-0.8,0.2c-0.5,0.3-0.7,0.7-0.6,1.3c0.1,0,0.1,0,0.2-0.1c1-0.7,2.1-0.9,3.3-0.5c0.6,0.2,1.1,0.3,1.7,0.5
		c0.8,0.2,1.5,0,2.2-0.5c0.1,0,0.1-0.2,0.2-0.1c0.1,0.1,0.1,0.2,0,0.3c-0.2,0.2-0.4,0.4-0.6,0.6c0.3,0,0.6,0,0.9,0
		c0.2,0,0.2,0.1,0.2,0.2c0,1.9,0,3.8,0,5.6c0,0.1,0,0.2,0,0.2c0.1,0,0.2-0.1,0.2-0.1c1-0.6,2.1-1.3,3.1-1.9c0.1-0.1,0.2-0.1,0.3-0.1
		c3.2,0,6.4,0,9.5,0c0.1,0,0.2,0,0.4,0.1c1.5,0.8,3,1.6,4.5,2.4c1.1,0.6,1.5,1.7,0.8,2.8c-0.6,1-1.1,1.9-1.7,2.8
		c-0.1,0.2-0.1,0.3,0,0.4c2,2.3,2.9,4.9,2.6,7.9c-0.2,3-1.5,5.4-3.8,7.3C47,43.5,46.9,43.6,46.9,43.6C46.9,43.6,46.9,43.6,46.9,43.6
		z"/>
	<path class="st7" d="M30.7,56.1c0.2,0,0.5,0.1,0.7,0.1c1.2,0.3,2.2,0.9,2.5,2.2c0.4,1.6,0,3.6-2.3,4.5c-1,0.4-2,0.5-3.1,0.5
		c-1.9,0-3.7,0-5.6,0c-0.2,0-0.2-0.1-0.2-0.2c0-3.4,0-6.7,0-10.1c0-0.4,0-0.9-0.1-1.3c-0.2-0.6-0.5-1.1-1.1-1.3
		c-0.1,0-0.2,0-0.2-0.1c0-0.1,0.1-0.1,0.2-0.1c2.3,0,4.7,0,7,0c0.9,0,1.8,0.1,2.6,0.4c1.1,0.4,1.8,1,1.9,2.2
		c0.1,1.3-0.4,2.2-1.5,2.8C31.3,55.9,31,56,30.7,56.1z"/>
	<path class="st7" d="M19.9,63.4c-0.1,0.1-0.2,0-0.2,0c-1.1,0-2.2,0-3.3,0c-0.2,0-0.3-0.1-0.4-0.2c-1.3-1.8-2.7-3.6-4-5.5
		c-0.1-0.1-0.2-0.2-0.3-0.2c-0.2,0-0.4,0-0.7,0c-0.2,0-0.2,0.1-0.2,0.3c0,1.7,0,3.5,0,5.2c0,0.3,0,0.3-0.4,0.3c-0.8,0-1.6,0-2.4,0
		c-0.2,0-0.3,0-0.3-0.3c0-3.4,0-6.8,0-10.2c0-0.5-0.1-0.9-0.2-1.4c-0.2-0.5-0.6-0.9-1.1-1.1c-0.1,0-0.2,0-0.1-0.1
		c0-0.1,0.1-0.1,0.2-0.1c2.5,0,5,0,7.5,0c0.9,0,1.8,0.1,2.7,0.5c1.2,0.5,1.7,1.4,1.8,2.6c0.1,1.9-0.9,2.9-2.4,3.5
		c-0.3,0.1-0.5,0.2-0.8,0.3c-0.2,0-0.2,0.1-0.1,0.2c0.6,0.8,1.2,1.5,1.8,2.3c0.9,1.2,1.9,2.4,2.8,3.6C19.9,63.3,19.9,63.4,19.9,63.4
		z"/>
	<path class="st32" d="M16.3,41.1c0,0.9,0,1.8,0,2.7c0,0.1,0.1,0.2-0.1,0.2c-0.1,0-0.3,0.1-0.4-0.1c-1.3-3-3.4-5.3-6-7.2
		c-1.2-0.9-2.3-1.7-3.3-2.8c-1-1.1-1.9-2.3-2.3-3.7c-0.5-1.7-0.4-3.4,0.5-4.9c0.1-0.2,0.2-0.2,0.3-0.1c0.2,0.1,0.4,0.2,0.5,0.4
		c0.1,0.1-0.1,0.4-0.1,0.5C4.9,28.2,5.5,30,7,31.6c1.1,1.1,2.3,2,3.6,2.9c2.1,1.5,4.3,2.8,6.4,4.2c1.9,1.3,3.7,2.6,5.3,4.2
		c1.2,1.2,2.1,2.5,2.7,4c0.2,0.6,0.4,1.3,0.5,2c0,0.1,0.1,0.2,0,0.2c-0.1,0-0.3,0.1-0.4-0.1c-0.1-0.1-0.1-0.2-0.2-0.3
		c-0.9-1.8-2.2-3.2-3.8-4.4C19.8,43.1,18.1,42.1,16.3,41.1C16.4,41.1,16.4,41.1,16.3,41.1z"/>
	<path class="st7" d="M48.3,61.1c0,0.5,0,1,0,1.4c0,0.1-0.1,0.1-0.2,0.2c-0.6,0.4-1.3,0.6-1.9,0.7c-1.8,0.3-3.6,0.3-5.3-0.2
		c-2.3-0.7-3.6-2.3-4-4.6c-0.2-1.4-0.2-2.7,0.2-4c0.6-2,1.9-3.3,3.9-3.9c1.4-0.5,2.9-0.6,4.3-0.5c0.9,0.1,1.7,0.2,2.5,0.6
		c0.4,0.2,0.4,0.2,0.3,0.6c-0.2,0.6-0.3,1.1-0.5,1.7c0,0,0,0.1-0.1,0.1c-0.1,0-0.1,0-0.1-0.1c-0.5-0.8-1.3-1.2-2.2-1.4
		c-0.8-0.2-1.7-0.2-2.5,0c-1.2,0.3-2,1.1-2.4,2.2c-0.6,1.7-0.6,3.5,0,5.3c0.5,1.5,1.5,2.4,3,2.7c1.4,0.4,2.8,0.2,4.2-0.4
		C47.8,61.5,48,61.3,48.3,61.1z"/>
	<path class="st33" d="M28,26.2c0.6-0.4,1.2-0.7,1.8-1.1c1.7-1,3.4-2,5.1-3.1c0.1-0.1,0.2-0.1,0.4-0.1c2.8,0,5.6,0,8.4,0
		c0.1,0,0.2,0,0.3,0.1c1.2,0.6,2.4,1.3,3.6,1.9c0.1,0.1,0.2,0.1,0.1,0.3c-0.4,0.7-0.9,1.4-1.3,2.2c-0.1,0.2-0.2,0.2-0.3,0.1
		c-0.3-0.2-0.6-0.4-0.9-0.5c-0.1-0.1-0.1-0.1-0.1-0.2c0.1-0.4,0.3-0.8,0.4-1.2c0-0.1,0-0.2-0.1-0.2c-0.7-0.4-1.4-0.7-2.1-1.1
		c-0.1,0-0.1-0.1-0.2,0c0,0.1-0.1,0.2,0,0.3c0.2,0.3,0.4,0.6,0.7,0.9c0.1,0.1,0.1,0.2,0,0.3c-0.1,0.1-0.2,0.3-0.3,0.5
		c-0.1,0.1-0.1,0.1-0.3,0.1c-4.5-1.3-9.1,0.4-11.7,4c-0.1,0.1-0.1,0.2-0.2,0c-0.9-1.1-2.1-1.9-3.2-2.7C28.1,26.3,28.1,26.2,28,26.2z
		"/>
	<path class="st33" d="M39.8,35.2c-0.9,0-1.7,0.1-2.6,0.1c-0.2,0-0.2-0.1-0.2-0.2c0.1-1.2,0.3-2.4,0.6-3.7c0-0.1,0.1-0.1,0.2-0.1
		c1.4,0.1,2.9,0.1,4.3,0.2c0.1,0,0.2,0.1,0.2,0.2c0.2,0.8,0.3,1.5,0.3,2.3c0,0.3,0,0.6,0.1,0.9c0,0.1,0,0.2-0.2,0.2
		C41.6,35.1,40.7,35.1,39.8,35.2C39.8,35.2,39.8,35.2,39.8,35.2z"/>
	<path class="st33" d="M43.2,39.7c0.2-0.6,0.4-1.1,0.6-1.7c0.1-0.5,0.3-1,0.3-1.5c0-0.1,0.1-0.2,0.2-0.2c1.5,0.1,3,0.2,4.4,0.3
		c0.1,0,0.2,0.1,0.1,0.2c-0.1,0.8-0.3,1.5-0.5,2.3c0,0.1-0.1,0.1-0.2,0.1c-0.6,0.1-1.3,0.2-1.9,0.2c-0.9,0.1-1.8,0.2-2.7,0.3
		C43.5,39.7,43.4,39.8,43.2,39.7z"/>
	<path class="st33" d="M46.2,31.7c0.6,0,1.2,0.1,1.8,0.1c0.1,0,0.2,0,0.2,0.1c0.4,0.8,0.7,1.7,0.8,2.6c0,0.1,0,0.2-0.2,0.2
		c-1,0.1-2.1,0.1-3.1,0.2c-0.4,0-0.7,0-1.1,0.1c-0.1,0-0.2,0-0.2-0.2c0.1-1,0-2-0.1-2.9c0-0.2,0-0.2,0.2-0.2
		C45,31.6,45.6,31.6,46.2,31.7C46.2,31.7,46.2,31.7,46.2,31.7z"/>
	<path class="st33" d="M29.8,22.5c-1.2,0.7-2.4,1.4-3.6,2.1c-0.3,0.2-0.4,0.2-0.7,0c-0.9-0.6-1.9-1.2-2.8-1.8
		c-0.1,0-0.1-0.1-0.2-0.2c0.6-0.1,1.2-0.2,1.7-0.4c1-0.2,2-0.4,3.1-0.4C28.2,21.9,29,22.1,29.8,22.5z"/>
	<path class="st33" d="M39.8,30.2c-0.6,0-1.2,0.1-1.8,0.1c-0.2,0-0.2,0-0.2-0.2c0.3-1.1,0.6-2.1,1-3.2c0-0.1,0.1-0.2,0.2-0.2
		c0.4,0,0.8-0.1,1.2,0c0.1,0,0.2,0,0.2,0.1c0.5,1,0.9,2,1.2,3.1c0,0.1,0,0.2-0.1,0.2C41.1,30.1,40.5,30.1,39.8,30.2
		C39.8,30.2,39.8,30.2,39.8,30.2z"/>
	<path class="st33" d="M36.6,27.5c-0.2,0.9-0.3,1.9-0.4,2.8c0,0.1-0.1,0.1-0.2,0.1c-1,0-2,0.1-3.1,0.2C33.9,29.2,35,28.1,36.6,27.5z
		"/>
	<path class="st33" d="M43.2,27.3c1,0.3,2.8,1.5,3.5,2.4c-0.1,0.1-0.2,0-0.2,0c-0.8,0-1.6,0.1-2.3,0.1c-0.1,0-0.2,0-0.2-0.1
		C43.7,29,43.5,28.2,43.2,27.3C43.2,27.3,43.2,27.3,43.2,27.3z"/>
	<path class="st33" d="M26.7,16c-0.5,0.7-1.2,1-2.1,0.9c-0.2,0-0.4-0.1-0.6-0.2c-0.2-0.1-0.2-0.1,0-0.2c0.6-0.5,1.3-0.7,2.1-0.6
		C26.2,15.9,26.4,15.9,26.7,16z"/>
	<path class="st33" d="M25.8,59.5c0-0.8,0-1.6,0-2.5c0-0.2,0-0.2,0.2-0.2c0.9,0,1.9-0.1,2.8,0.1c0.2,0,0.4,0.1,0.5,0.1
		c1,0.3,1.5,0.9,1.6,2c0,0.5,0,1-0.2,1.5c-0.3,0.8-0.9,1.3-1.7,1.5c-0.5,0.1-1.1,0.2-1.6,0.2c-0.5,0-1,0-1.5,0c-0.2,0-0.2,0-0.2-0.2
		C25.8,61.2,25.8,60.4,25.8,59.5z"/>
	<path class="st33" d="M25.8,53.6c0-0.6,0-1.2,0-1.8c0-0.1,0-0.2,0.1-0.2c0.8,0,1.7-0.1,2.5,0.1c1.2,0.2,1.6,0.9,1.5,2.1
		c-0.1,1.1-0.7,1.7-1.9,1.9c-0.7,0.1-1.5,0.1-2.2,0.1c-0.1,0-0.1-0.1-0.1-0.2C25.8,54.8,25.8,54.2,25.8,53.6z"/>
	<path class="st33" d="M10.8,54c0-0.7,0-1.5,0-2.2c0-0.1,0-0.2,0.2-0.2c0.9,0,1.7,0,2.6,0c0.1,0,0.3,0,0.4,0.1
		c0.8,0.2,1.3,0.7,1.5,1.5c0.1,0.5,0.1,1-0.1,1.6c-0.3,0.9-1,1.4-2,1.6c-0.8,0.2-1.6,0.1-2.4,0.1c-0.2,0-0.1-0.1-0.1-0.2
		C10.8,55.5,10.8,54.8,10.8,54z"/>
</g>
</svg>
