<?xml version="1.0" encoding="utf-8"?>
<!-- Generator: Adobe Illustrator 19.2.0, SVG Export Plug-In . SVG Version: 6.00 Build 0)  -->
<svg version="1.1" id="Layer_1" xmlns="http://www.w3.org/2000/svg" xmlns:xlink="http://www.w3.org/1999/xlink" x="0px" y="0px"
	 viewBox="0 0 72.9 70" style="enable-background:new 0 0 72.9 70;" xml:space="preserve">
<style type="text/css">
	.st0{fill:#8D53FB;}
	.st1{fill:#CF453A;}
	.st2{fill:#383A3C;}
	.st3{fill:#0078C1;}
	.st4{filter:url(#Adobe_OpacityMaskFilter);}
	.st5{fill:#FFFFFF;}
	.st6{mask:url(#mask-2_1_);fill:#ED3124;}
	.st7{fill:#FEFEFE;}
	.st8{fill:#213067;}
	.st9{fill:#DE6F2E;}
	.st10{fill:#105699;}
	.st11{fill:#0D4A82;}
	.st12{fill:#DD473A;}
	.st13{fill:#0E0B0B;}
	.st14{fill:#92B32E;}
	.st15{fill:#010101;}
	.st16{fill:#C64732;}
	.st17{fill:#FDE034;}
	.st18{fill:#171D23;}
	.st19{fill:#359ADA;}
	.st20{fill:#2C75BD;}
	.st21{fill:#2E76BE;}
	.st22{fill:#DC4739;}
	.st23{fill:#DB8238;}
	.st24{fill:#748B81;}
	.st25{fill:#6891C3;}
	.st26{fill:#4A71A2;}
	.st27{fill:#003475;}
	.st28{fill:#114F85;}
	.st29{fill:#323232;}
	.st30{fill:#3D8F8C;}
	.st31{fill:#1561A5;}
	.st32{fill:#FACE33;}
	.st33{fill:#1562A6;}
	.st34{fill:#285F3B;}
	.st35{fill:#285E3B;}
	.st36{fill:#6FAE49;}
	.st37{fill:#F8FBF7;}
	.st38{fill:#214068;}
	.st39{fill:#D54939;}
	.st40{fill:#D71E28;}
	.st41{fill:#163A83;}
	.st42{fill:#163A82;}
	.st43{fill:#CF6628;}
	.st44{fill:#87ABD8;}
	.st45{fill:#2B89F9;}
	.st46{fill:#9B3C55;}
	.st47{fill:#A0A0A4;}
	.st48{fill:#A2A2A4;}
	.st49{fill:#A0A0A3;}
</style>
<g>
	<path class="st34" d="M57.5,69.6c0-0.6,0-1.3,0-1.9c0-0.5,0-1,0-1.5c0-0.2,0.1-0.3,0.3-0.3c0.6,0,0.6,0,0.8,0.6
		c0.3,0.7,0.5,1.4,0.8,2.1c0,0.1,0.1,0.2,0.1,0.3c0.3-0.9,0.7-1.7,1-2.6c0-0.1,0-0.3,0.2-0.3c0.2,0,0.5,0,0.7,0
		c0.1,0,0.1,0.1,0.1,0.2c0,1.2,0,2.3,0,3.5c-0.2,0-0.3,0-0.5,0c-0.1-0.1-0.1-0.2-0.1-0.3c0-0.9,0-1.7,0-2.6c0,0-0.1,0,0,0
		c0,0,0,0,0,0c0,0.1,0,0.2-0.1,0.2c-0.3,0.8-0.6,1.6-0.9,2.4c0,0.1-0.1,0.2-0.1,0.2c-0.2,0-0.3,0-0.5,0c-0.1-0.1-0.1-0.1-0.2-0.2
		c-0.3-0.8-0.7-1.6-1-2.4c0,0,0-0.1,0-0.1c0,0.8,0,1.6,0,2.5c0,0.1,0,0.2-0.1,0.2C57.8,69.6,57.6,69.6,57.5,69.6z"/>
	<path class="st34" d="M55.2,69.6c0-1,0-1.9,0-2.9c0-0.3-0.1-0.3-0.3-0.3c-0.2,0-0.5,0-0.7,0c-0.2,0-0.2-0.1-0.2-0.3
		c0-0.2,0-0.2,0.2-0.2c0.9,0,1.7,0,2.6,0c0.2,0,0.2,0.1,0.2,0.2c0,0.1,0,0.3-0.2,0.2c-0.3,0-0.5,0-0.8,0c-0.2,0-0.3,0-0.3,0.3
		c0,1,0,2,0,2.9C55.6,69.6,55.4,69.6,55.2,69.6z"/>
	<g>
		<path class="st35" d="M69,36.4c-0.6,0.1-1.3,0-1.9-0.1C66,36.1,65,35.6,64,35.1c-1.5-0.8-3.1-1.6-4.9-1.4c-0.2,0-0.2-0.1-0.2-0.2
			c-0.3-0.7-0.6-1.3-0.9-2c-0.1-0.2-0.2-0.4-0.4-0.7c0.8-0.2,1.7-0.2,2.5,0c1.1,0.2,2.1,0.6,3,1.1c0.9,0.5,1.8,1,2.7,1.3
			c1,0.4,2.1,0.5,3.1,0.4c0.1,0,0.3,0,0.2-0.2c0-0.6,0-1.1,0-1.7c-0.1-1.8-0.4-3.5-0.8-5.2c-1.9-7.6-5.8-13.9-11.9-18.7
			c-5.5-4.4-11.8-6.9-18.8-7.4c-3.1-0.2-6.2-0.1-9.3,0.5c-4,0.8-7.7,2.2-11.1,4.3c-6.4,4-11.1,9.4-14,16.4
			c-1.5,3.7-2.3,7.6-2.4,11.6c0,0.2,0,0.3,0.2,0.3c1,0.1,2,0,3-0.3c1.1-0.3,2-0.9,3-1.4c1.6-0.9,3.4-1.4,5.2-1.1
			c0.2,0,0.3,0.1,0.1,0.3c-0.5,0.8-0.8,1.6-1.2,2.5c-0.1,0.1-0.1,0.2-0.3,0.2c-0.7-0.1-1.4,0-2.1,0.2c-1.1,0.3-2,0.8-3,1.3
			C4.4,36,2.8,36.6,1,36.4c-0.1,0-0.2,0-0.2,0.2c0.1,0.7,0.1,1.3,0.2,2c0,0.2,0.1,0.3,0.3,0.3c1.2,0.1,2.3-0.1,3.4-0.7
			c0.8-0.4,1.5-0.9,2.3-1.3c1-0.5,2-0.8,3-0.7c0.1,0,0.2,0,0.2,0.2c-0.2,0.7-0.4,1.5-0.5,2.2c0,0.1-0.1,0.2-0.2,0.2
			c-0.7,0-1.4,0.2-2.1,0.5c-0.7,0.3-1.4,0.8-2.1,1.2c-1.2,0.7-2.4,1.1-3.8,1c-0.3,0-0.1,0.1-0.1,0.2c0.2,0.8,0.4,1.5,0.6,2.3
			c0,0.2,0.1,0.2,0.3,0.2c0.8,0,1.5-0.2,2.2-0.5c0.6-0.3,1.2-0.7,1.7-1.1c0.9-0.5,1.8-0.9,2.9-0.9c0.2,0,0.2,0,0.2,0.2
			c0,0.6,0,1.2,0,1.8c0,0.2,0,0.2-0.2,0.2c-0.8,0-1.6,0.3-2.2,0.7c-0.5,0.3-0.9,0.6-1.4,0.9c-0.6,0.4-1.3,0.7-2,0.8
			c-0.2,0-0.4,0-0.6,0c0.3,0.9,0.7,1.7,1,2.6c0.1,0.1,0.1,0.1,0.2,0.1c0.5-0.1,1-0.3,1.4-0.6c0.4-0.3,0.9-0.7,1.3-1
			c0.7-0.5,1.5-0.7,2.4-0.7c0.2,0,0.3,0,0.3,0.2c0.1,0.6,0.2,1.1,0.3,1.7c-1.3,0.1-1.7,0.2-2.5,0.8c-0.3,0.3-0.6,0.5-1,0.8
			C6.1,50.6,5.6,50.9,5,51c0,0.1,0,0.2,0.1,0.2c0.4,0.7,0.8,1.4,1.2,2.1c0.1,0.2,0.2,0.2,0.4,0.1c0.5-0.4,0.9-0.8,1.4-1.2
			c0.7-0.6,1.4-1,2.3-1.1c0.2,0,0.1-0.1,0.1-0.2c-0.1-0.5-0.3-1-0.4-1.5c-0.1-0.3,0-0.3,0.2-0.3c2-0.1,3.7-0.9,5.2-2.2
			c0.1-0.1,0.2-0.1,0.2-0.3c-0.1-0.9,0.2-1.7,0.6-2.5c0.5-0.9,1.1-1.7,1.8-2.6c0.6-0.7,1.2-1.5,1.7-2.3c0.3-0.6,0.5-1.2,0.5-1.9
			c-0.1-0.8-0.2-1.6-0.4-2.3c-0.4-1.2-0.7-2.5-0.8-3.8c-0.2-3.4,1-6.2,3.4-8.6c0.2-0.2,0.5-0.4,0.8-0.6c-0.4,0.6-0.9,1.2-1.3,1.9
			c-1.6,2.7-2.1,5.5-1.3,8.6c0.3,1.1,0.7,2.2,0.9,3.3c0.4,1.7,0.2,3.2-0.8,4.6c-0.2,0.2-0.3,0.5-0.5,0.7c-0.7,1-1.5,1.9-2.2,3
			c-0.8,1.3-0.9,2.6-0.5,4c0.3,1,0.8,1.9,1.3,2.8c0.1,0.2,0.1,0.3-0.1,0.5c-0.9,0.8-1.9,1.6-3.1,2.1c-1,0.4-2,0.8-3,0.8
			c-0.5,0-0.9-0.2-1-0.7c-0.1-0.3-0.2-0.5-0.3-0.8c-0.1-0.2-0.1-0.2-0.3-0.2c-0.8,0.1-1.4,0.5-1.9,1c-0.4,0.4-0.8,0.9-1.3,1.2
			c-0.2,0.1-0.2,0.2,0,0.3c0.5,0.6,1,1.2,1.4,1.8c0.1,0.2,0.2,0.1,0.3,0c0.4-0.4,0.7-0.9,1.2-1.3c0.4-0.4,0.8-0.6,1.3-0.8
			c0.1,0,0.2-0.1,0.3,0.1c0.2,0.4,0.4,0.7,0.6,1.1c0.1,0.1,0.1,0.2-0.1,0.2c-0.6,0.2-1,0.5-1.4,1c-0.3,0.3-0.6,0.7-0.8,1
			c-0.1,0.1-0.1,0.2,0,0.3c0.6,0.6,1.1,1.1,1.7,1.6c0.1,0.1,0.2,0.1,0.3,0c0.4-0.7,0.9-1.2,1.5-1.7c0.1-0.1,0.2-0.1,0.3,0
			c0.2,0.3,0.4,0.5,0.6,0.8c0.1,0.1,0.1,0.2,0,0.3c-0.6,0.4-1,1-1.4,1.6c-0.1,0.1-0.1,0.2,0,0.3c0.7,0.6,1.5,1.1,2.2,1.6
			c0.1,0.1,0.2,0.1,0.2-0.1c0-0.2,0.1-0.4,0.1-0.6c0.3-0.9,0.8-1.6,1.3-2.3c0.6-0.9,1.3-1.7,1.8-2.6c0.5-0.8,0.8-1.7,0.8-2.6
			c0-0.4,0-0.9-0.1-1.3c0.5,0.9,0.9,1.8,0.8,2.9c-0.1,0.8-0.4,1.6-0.8,2.3c-0.5,0.9-1.1,1.8-1.6,2.7c-0.4,0.7-0.8,1.5-0.9,2.4
			c0,0.2,0,0.4,0.2,0.5c0.4,0.2,0.8,0.4,1.2,0.7c0.1,0.1,0.3,0.2,0.4,0.2c0.2-0.1,0.1-0.3,0.1-0.5c0.2-1.2,0.6-2.2,1.1-3.2
			c0.5-1.1,1.1-2.2,1.7-3.3c0.7-1.6,0.7-3.1-0.1-4.6c-0.4-0.7-0.7-1.3-1.1-1.9c-0.6-0.9-1.1-1.8-1.5-2.8c-0.7-1.7-0.6-3.3,0.3-4.9
			c0.4-0.6,0.8-1.2,1.3-1.8c0.6-0.8,1.2-1.6,1.7-2.4c0.5-0.9,0.7-1.9,0.5-2.9c-0.1-1-0.5-1.9-0.8-2.8c-0.5-1.3-0.9-2.6-1-4
			c-0.2-3.3,0.9-6.1,3.3-8.4c0.3-0.3,0.7-0.6,1.1-0.8c-0.1,0.1-0.1,0.2-0.2,0.3c-0.7,0.9-1.3,1.8-1.8,2.8c-1.2,2.7-1.3,5.5-0.3,8.3
			c0.4,1.2,0.9,2.3,1.2,3.5c0.5,2,0.2,3.8-1,5.4c-0.3,0.4-0.5,0.7-0.8,1.1c-0.5,0.7-1.1,1.4-1.5,2.1c-0.8,1.4-0.9,2.8-0.3,4.3
			c0.3,0.7,0.6,1.3,1,1.9c0.7,1.1,1.4,2.1,2,3.3c0.5,1,0.8,2,0.6,3.1c-0.1,0.9-0.4,1.7-0.8,2.4c-0.6,1.3-1.4,2.5-2,3.8
			c-0.4,0.9-0.7,1.8-0.7,2.8c0,0.1,0,0.2,0.1,0.3c0.7,0.3,1.5,0.6,2.2,0.9c0-0.3,0-0.5,0-0.8c0-1.3,0.5-2.4,1-3.6
			c0.6-1.3,1.3-2.5,1.9-3.8c0.9-1.8,0.9-3.6-0.2-5.4c-0.4-0.7-0.8-1.3-1.3-2c-0.6-0.9-1.1-1.7-1.5-2.7c-0.5-1.1-0.7-2.2-0.4-3.4
			c0.2-0.9,0.7-1.7,1.3-2.5c0.5-0.7,1.1-1.4,1.6-2.1c1.2-1.6,1.5-3.3,1-5.2c-0.3-1.2-0.8-2.3-1.3-3.4c-0.5-1.2-0.9-2.3-1.1-3.6
			c-0.2-2,0.2-3.9,1.2-5.7c0.7-1.2,1.6-2.2,2.7-3.1c0.1-0.1,0.2-0.2,0.3-0.1c0.1,0.1,0,0.2-0.1,0.3c-0.2,0.2-0.3,0.4-0.5,0.6
			c-1.9,2.8-2.5,5.8-1.5,9c0.4,1.3,1,2.5,1.6,3.8c0.4,1.1,0.8,2.1,0.9,3.3c0.2,1.7-0.3,3.2-1.3,4.6c-0.6,0.7-1.1,1.5-1.7,2.2
			c-1.1,1.6-1.3,3.2-0.5,5c0.5,1.1,1.2,2.1,1.9,3.1c0.5,0.8,1,1.6,1.4,2.4c0.5,1.1,0.7,2.2,0.4,3.4c-0.2,0.9-0.5,1.7-0.9,2.5
			c-0.6,1.2-1.2,2.4-1.7,3.6c-0.5,1.2-0.8,2.5-0.7,3.8c0,0.2,0.1,0.3,0.3,0.3c0.6,0.1,1.1,0.3,1.7,0.4c0.5,0.1,0.5,0.1,0.5-0.4
			c0,0,0-0.1,0-0.1c-0.1-1.6,0.2-3.2,0.8-4.6c0.5-1.3,1.2-2.6,1.8-3.9c0.9-1.9,0.8-3.7-0.2-5.5c-0.5-0.9-1.1-1.8-1.7-2.6
			c-0.6-0.8-1.1-1.7-1.5-2.6c-0.7-1.6-0.5-3.1,0.5-4.6c0.3-0.5,0.7-0.9,1-1.4c0.8-1.1,1.6-2.2,1.7-3.6c0.1-0.5,0.5-0.7,0.9-0.6
			c0.3,0,0.5,0.1,0.8,0.2c1.1,0.3,2.1,0.4,3.2,0.2c0.5-0.1,0.9-0.3,1.4-0.4c0.6-0.1,1,0.1,1.1,0.7c0.1,1,0.5,1.9,1.1,2.7
			c0.5,0.6,0.9,1.2,1.4,1.8c1.3,1.7,1.5,3.5,0.5,5.4c-0.4,0.8-0.9,1.5-1.4,2.3c-0.6,0.9-1.2,1.8-1.7,2.8c-0.5,1-0.9,2.1-0.7,3.3
			c0.1,0.6,0.3,1.1,0.5,1.7c0.5,1.2,1.1,2.4,1.7,3.6c0.8,1.8,1.4,3.7,1.1,5.7c0,0.1,0,0.2,0.2,0.2c0.7-0.2,1.4-0.3,2.1-0.5
			c0.1,0,0.2-0.1,0.2-0.2c0.1-0.6,0.1-1.2,0-1.8c-0.2-1.2-0.7-2.4-1.2-3.5c-0.6-1.2-1.2-2.4-1.7-3.7c-0.6-1.6-0.5-3.2,0.2-4.7
			c0.4-0.7,0.8-1.4,1.2-2.1c0.5-0.8,1.1-1.6,1.6-2.5c0.4-0.8,0.8-1.7,0.8-2.6c0.1-1.2-0.3-2.2-1-3.1c-0.6-0.8-1.1-1.5-1.7-2.3
			c-1-1.4-1.5-2.9-1.3-4.6c0.1-0.8,0.3-1.6,0.6-2.4c0.5-1.3,1.1-2.5,1.6-3.8c1.1-2.6,1-5.2,0-7.7c-0.4-1-1-2-1.7-2.8
			c-0.1-0.1-0.2-0.2-0.1-0.3c0.1-0.1,0.2,0,0.3,0.1c0.3,0.2,0.6,0.5,0.8,0.7c1.8,1.8,2.9,3.9,3.1,6.4c0.1,1.5-0.2,3-0.7,4.5
			c-0.5,1.2-1,2.3-1.4,3.5c-0.4,1.2-0.6,2.5-0.3,3.7c0.2,0.9,0.7,1.7,1.3,2.5c0.6,0.9,1.4,1.7,2,2.6c0.7,1.1,1,2.2,0.8,3.5
			c-0.2,0.9-0.5,1.7-1,2.5c-0.7,1.2-1.5,2.2-2.1,3.4c-0.5,0.9-1,1.9-1,3c0,0.9,0.3,1.8,0.7,2.7c0.6,1.3,1.3,2.5,1.9,3.8
			c0.5,1.1,0.9,2.2,1,3.5c0,0.3,0,0.5,0,0.8c0.8-0.2,1.5-0.5,2.2-0.8c0.1-0.1,0.1-0.1,0.1-0.2c0-0.3,0-0.6-0.1-0.9
			c-0.2-1.1-0.6-2.1-1.1-3c-0.6-1.1-1.2-2.2-1.8-3.4c-0.8-1.7-0.8-3.3,0.1-5c0.5-0.9,1-1.8,1.6-2.6c0.5-0.8,1.1-1.6,1.4-2.6
			c0.3-0.8,0.5-1.7,0.3-2.6c-0.2-0.8-0.5-1.5-1-2.2c-0.7-0.9-1.4-1.9-2.1-2.8c-1.1-1.5-1.4-3.2-1-5.1c0.3-1.3,0.8-2.5,1.3-3.7
			c0.8-2.1,0.9-4.3,0.4-6.5c-0.4-1.6-1.2-2.9-2.2-4.2c-0.2-0.2-0.3-0.4-0.5-0.7c0.1,0,0.2,0.1,0.3,0.1c1.5,1,2.6,2.5,3.3,4.1
			c1.1,2.6,1.1,5.2,0.3,7.8c-0.3,1-0.8,2.1-1,3.1c-0.4,1.6-0.2,3.2,0.8,4.5c0.3,0.4,0.6,0.8,0.9,1.2c0.6,0.7,1.1,1.4,1.6,2.2
			c0.8,1.3,1.1,2.7,0.7,4.3c-0.3,0.8-0.7,1.6-1.1,2.4c-0.6,1.1-1.3,2.1-1.9,3.2c-0.7,1.4-0.8,2.8-0.2,4.2c0.5,1.1,1.1,2.2,1.6,3.3
			c0.6,1.2,1.2,2.5,1.3,3.9c0,0.2,0.1,0.1,0.2,0.1c0.5-0.3,1-0.6,1.6-0.8c0.3-0.1,0.3-0.3,0.2-0.5c-0.2-0.9-0.5-1.6-0.9-2.4
			c-0.5-0.9-1.1-1.8-1.6-2.7c-0.5-0.9-0.9-1.9-0.8-3c0.1-0.8,0.4-1.5,0.8-2.2c-0.1,0.3-0.1,0.7-0.1,1c0,1,0.3,2,0.8,2.9
			c0.5,0.9,1.2,1.8,1.8,2.7c0.7,1,1.3,2,1.5,3.2c0.8-0.6,1.6-1.1,2.4-1.7c0.1-0.1,0.1-0.2,0-0.3c-0.4-0.6-0.8-1.2-1.4-1.6
			c-0.1-0.1-0.1-0.1,0-0.2c0.2-0.3,0.4-0.5,0.6-0.8c0.1-0.2,0.2-0.2,0.3-0.1c0.6,0.5,1.1,1.1,1.5,1.7c0.1,0.2,0.2,0.2,0.3,0
			c0.4-0.4,0.8-0.8,1.2-1.2c0.2-0.2,0.6-0.4,0.6-0.6c0-0.2-0.3-0.5-0.5-0.7c-0.5-0.6-1.1-1.2-1.8-1.5c-0.1,0-0.1-0.1,0-0.2
			c0.2-0.3,0.4-0.7,0.6-1c0.1-0.2,0.2-0.2,0.3-0.1c0.6,0.2,1.1,0.6,1.5,1c0.4,0.4,0.8,0.8,1.2,1.3c0.6-0.7,1.1-1.3,1.7-2
			c0-0.1,0.1-0.1,0-0.2c-0.6-0.4-1-1-1.6-1.5c-0.5-0.4-1.1-0.7-1.7-0.8c-0.2,0-0.2,0-0.3,0.2c-0.1,0.3-0.2,0.6-0.4,0.9
			c-0.2,0.4-0.5,0.6-1,0.6c-0.4,0-0.7,0-1-0.1c-2-0.4-3.7-1.4-5.2-2.8c-0.1-0.1-0.1-0.2,0-0.3c0.4-0.8,0.8-1.5,1.1-2.3
			c0.4-1,0.6-2.1,0.4-3.1c-0.2-1-0.8-1.8-1.4-2.6c-0.7-0.9-1.4-1.8-2-2.7c-0.9-1.3-1.1-2.7-0.8-4.3c0.2-1.1,0.6-2.1,0.9-3.1
			c0.6-2.1,0.7-4.2,0.1-6.3c-0.5-1.6-1.3-3.1-2.4-4.4c-0.1-0.1-0.1-0.1-0.1-0.3c0.1,0.1,0.2,0.2,0.3,0.2c0.2,0.1,0.4,0.3,0.5,0.4
			c2.8,2.9,3.9,6.2,3,10.2c-0.2,1.1-0.6,2.2-0.9,3.3c-0.3,1.3-0.1,2.6,0.8,3.7c0.4,0.5,0.8,1.1,1.2,1.6c0.6,0.8,1.2,1.6,1.7,2.4
			c0.5,0.8,0.8,1.7,0.6,2.7c0,0.1,0.1,0.2,0.2,0.2c1.5,1.3,3.2,2.1,5.2,2.2c0.3,0,0.3,0.1,0.2,0.3c-0.1,0.5-0.3,1-0.4,1.4
			c-0.1,0.2,0,0.2,0.2,0.2c0.3,0,0.7,0.1,1,0.3c0.7,0.3,1.2,0.8,1.8,1.2c0.3,0.3,0.6,0.6,1,0.8c0.1,0.1,0.2,0.1,0.3,0
			c0.5-0.7,0.9-1.5,1.3-2.2c0.1-0.1,0.1-0.2-0.1-0.2c-0.4-0.1-0.8-0.3-1.1-0.5c-0.4-0.3-0.8-0.7-1.3-1.1c-0.6-0.5-1.3-0.8-2.2-0.8
			c-0.2,0-0.2-0.1-0.2-0.2c0.1-0.5,0.2-0.9,0.3-1.4c0-0.2,0.1-0.3,0.3-0.3c0.9,0,1.7,0.2,2.4,0.7c0.5,0.4,1,0.8,1.5,1.1
			c0.3,0.3,0.7,0.4,1.2,0.5c0.2,0,0.3,0,0.3-0.2c0.2-0.6,0.5-1.2,0.7-1.8c0.1-0.2,0.2-0.5,0.3-0.7c-1,0-1.8-0.3-2.6-0.8
			c-0.3-0.2-0.5-0.3-0.8-0.5c-0.9-0.6-1.8-1.1-3-1.1c-0.1,0-0.2,0-0.2-0.2c0-0.6,0-1.2,0-1.9c0-0.2,0-0.2,0.2-0.2
			c0.9,0,1.7,0.3,2.5,0.7c0.6,0.3,1.2,0.7,1.8,1.1c0.8,0.5,1.6,0.8,2.5,0.7c0.2,0,0.2-0.1,0.3-0.2c0.2-0.8,0.4-1.6,0.6-2.3
			c0-0.2,0-0.2-0.2-0.2c-1.2,0.1-2.2-0.1-3.2-0.7c-0.5-0.3-1.1-0.6-1.6-0.9c-0.9-0.5-1.9-1-3-1c-0.1,0-0.2-0.1-0.2-0.2
			c-0.1-0.7-0.3-1.4-0.5-2.1c-0.1-0.2,0-0.3,0.2-0.3c1,0,2,0.3,3,0.7c0.8,0.4,1.6,0.9,2.4,1.3c1.1,0.6,2.2,0.8,3.4,0.7
			c0.1,0,0.3,0,0.3-0.2c0-0.7,0.1-1.3,0.1-2C69.2,36.5,69.2,36.4,69,36.4z M18.7,23.2c-1.9,1.6-3.6,3.4-5,5.4
			c-0.1,0.1-0.1,0.2-0.3,0.2c-1.7-0.6-3.4-0.3-5.1,0.4c-1.1,0.4-2.1,0.9-3.1,1.4c-0.9,0.4-1.8,0.6-2.7,0.5c-0.3,0-0.6-0.1-0.9-0.2
			c0.6-0.7,1.3-1.4,1.8-2.1c1.6-1.9,3-4,3.8-6.4c0.5-1.6,0.8-3.2,0.7-4.8c0,0,0-0.1,0-0.1c0-0.2,0-0.3,0.2-0.4
			c0.2-0.1,0.3,0,0.4,0.1c1,0.7,1.7,1.6,2.3,2.6c0.6,1,1,2.1,1.2,3.2c2.6-1.5,5.3-2,8.2-0.9C19.7,22.4,19.2,22.8,18.7,23.2z
			 M41.5,22.9c0,0.1,0.1,0.2,0,0.3c-0.1,0.1-0.2,0-0.3,0c-1.2-0.4-2.4-0.4-3.5,0c-0.1,0-0.3,0.1-0.4,0.2c-0.6,0.3-1.1,0.8-1.2,1.6
			c-0.1,1.1-0.1,2.1,0.2,3.1c0.1,0.3,0.2,0.3,0.4,0.1c0.2-0.2,0.3-0.4,0.4-0.6c0.4-0.8,0.5-0.8,1.3-0.5c0.8,0.3,1.6,0.3,2.4-0.2
			c0.3-0.2,0.4,0,0.6,0.1c0.3,0.2,0.3,0.6,0.4,0.9c0.1,1.4-0.2,2.6-0.8,3.9c-0.7,1.6-1.7,2.9-3.1,3.9c-0.9,0.7-2,1.1-3.1,1
			c-1.1-0.1-2-0.6-2.8-1.3c-2-1.7-3.2-3.9-3.6-6.4c-0.1-0.5-0.1-1,0-1.5c0.1-0.6,0.6-0.9,1.1-0.6c0.8,0.5,1.6,0.4,2.4,0.1
			c0.5-0.2,0.9-0.1,1.3,0.2c0.5,0.4,0.6,0.3,0.7-0.3c0.2-0.9,0.1-1.7-0.1-2.6c0-0.1-0.1-0.2-0.2-0.3c-0.7-0.7-1.7-1.1-2.7-1.1
			c-0.7,0-1.5,0.1-2.2,0.3c-0.1,0-0.2,0.1-0.2,0c-0.1-0.1,0-0.2,0-0.2c0.3-1,0.9-1.7,1.6-2.4c1.3-1.1,3.1-1.7,5.3-1.7
			c1.7,0,3.5,0.6,4.9,2.1C40.9,21.6,41.3,22.2,41.5,22.9z M41.2,25.6c-0.1,0.1-0.1,0-0.1,0c-0.6-0.5-1.4-0.5-2.2-0.4
			c-0.3,0-0.6,0.1-0.8,0.2c-0.1,0-0.2,0-0.2-0.1c0-0.2,0-0.4,0.2-0.6c0.6-0.5,1.3-0.7,2.1-0.7c0.3,0,0.7,0,1,0.2
			C41.7,24.5,41.5,25.3,41.2,25.6z M28.5,24.6c0.1-0.3,0.3-0.5,0.6-0.5c1.1-0.2,2,0,2.9,0.7c0.2,0.2,0.4,0.4,0.4,0.8
			c-0.5-0.2-1-0.3-1.5-0.4c-0.7-0.1-1.4,0-1.9,0.4c-0.1,0.1-0.1,0-0.2,0C28.6,25.3,28.4,25,28.5,24.6z M47.1,19.8
			c-0.2,0.4-0.3,0.4-0.7,0.3c-2.2-1.1-4.6-1.9-7.1-2.3c-2.1-0.4-4.2-0.4-6.3-0.3c-3.3,0.3-6.4,1.1-9.4,2.6c-0.3,0.2-0.5,0.1-0.7-0.2
			c-1-2.1-2.2-4.1-3.7-6c0,0-0.1-0.1-0.1-0.2c2.4,0.2,4.5,0.9,6.4,2.5c-0.7-2.1-1.7-3.9-2.9-5.8c1.5,0.2,2.9,0.5,4.2,1.1
			c1.3,0.6,2.5,1.4,3.6,2.4c0.3-0.8,0.6-1.6,0.9-2.4c0.2-0.4,0.3-0.9,0.5-1.3C32,9.9,32,9.8,31.8,9.7c-1-0.9-2-1.8-3-2.6
			c-0.1,0-0.1-0.1-0.2-0.2c0.3,0,0.6-0.1,0.9-0.1c1.1-0.1,2.2-0.2,3.4-0.2c0.2,0,0.2-0.1,0.3-0.2c0.5-1.2,1.1-2.5,1.6-3.7
			c0-0.1,0.1-0.2,0.1-0.3c0.4,0.9,0.7,1.7,1.1,2.6c0.2,0.5,0.4,0.9,0.6,1.4c0.1,0.2,0.2,0.2,0.3,0.2c1.4,0.1,2.8,0.2,4.2,0.3
			c0,0.1-0.1,0.1-0.1,0.2c-1,0.9-2,1.8-3,2.7C38,9.8,38,9.8,38,10c0.5,1.2,1,2.5,1.4,3.7c0,0,0,0,0,0.1c2.1-2.2,4.8-3.2,7.8-3.5
			c-1.2,1.8-2.2,3.7-2.9,5.8c1.9-1.5,4-2.3,6.4-2.5c-0.4,0.6-0.8,1-1.1,1.6C48.7,16.6,47.8,18.2,47.1,19.8z M56.2,28.6
			c-1.6-2.4-3.6-4.4-5.9-6.1c-0.2-0.1-0.3-0.2-0.5-0.3c0,0,0,0,0-0.1c2.9-1,5.6-0.7,8.2,0.9c0.1-0.5,0.2-1,0.4-1.5
			c0.6-1.7,1.6-3.2,3.1-4.3c0.1-0.1,0.3-0.2,0.4-0.1c0.2,0.1,0.2,0.2,0.2,0.4c-0.2,2.9,0.7,5.6,2.2,8.1c1.1,1.9,2.5,3.5,4,5.1
			c0.1,0.1,0.1,0.1,0.2,0.2c-1,0.3-1.9,0.2-2.8-0.1c-1.2-0.4-2.3-0.9-3.4-1.4c-1.3-0.5-2.5-0.9-3.9-0.9c-0.5,0-1.1,0.1-1.6,0.3
			C56.4,28.8,56.3,28.7,56.2,28.6z"/>
		<path class="st35" d="M38.5,14.8c-1.1-0.9-2.2-1.7-3.3-2.6c-0.1-0.1-0.2-0.1-0.3,0c-1.1,0.9-2.2,1.7-3.3,2.5
			c-0.1,0.1-0.2,0.1-0.1,0.2c0.1,0.1,0.2,0.1,0.3,0.1c0.8-0.1,1.7-0.2,2.5-0.2c1.4,0,2.8,0,4.2,0.3c0.1,0,0.2,0,0.2-0.1
			C38.7,14.9,38.6,14.8,38.5,14.8z"/>
		<path class="st35" d="M33.7,32.2c-0.4,0-0.7-0.1-1.1-0.1c-0.1,0-0.2,0-0.3,0.1c0,0.1,0,0.1,0,0.1c0.3,0.4,0.7,0.7,1,1.1
			c0.4,0.4,1,0.7,1.6,0.7c0.7,0,1.2-0.2,1.6-0.7c0.3-0.3,0.6-0.7,0.9-1c0,0,0.2-0.1,0.1-0.2c0-0.1-0.1-0.2-0.2-0.2
			c-0.1,0-0.2,0-0.3,0C36,32.3,34.8,32.3,33.7,32.2z"/>
		<path class="st35" d="M35.5,29.9c-0.3,0.1-0.6,0.1-0.9,0c-0.4-0.2-0.8,0-1.1,0.2c-0.1,0-0.2,0.1-0.1,0.2c0,0.1,0.1,0.2,0.2,0.2
			c0.2,0,0.3,0.1,0.5,0.1c0.3,0.1,0.6,0.3,1,0.3c0.6,0,1-0.3,1.6-0.4c0.2,0,0.2-0.3,0-0.4C36.2,29.9,35.9,29.7,35.5,29.9z"/>
	</g>
</g>
</svg>
