<?xml version="1.0" encoding="utf-8"?>
<!-- Generator: Adobe Illustrator 19.2.0, SVG Export Plug-In . SVG Version: 6.00 Build 0)  -->
<svg version="1.1" id="Layer_1" xmlns="http://www.w3.org/2000/svg" xmlns:xlink="http://www.w3.org/1999/xlink" x="0px" y="0px"
	 viewBox="0 0 82.9 70" style="enable-background:new 0 0 82.9 70;" xml:space="preserve">
<style type="text/css">
	.st0{fill:#8D53FB;}
	.st1{fill:#CF453A;}
	.st2{fill:#383A3C;}
	.st3{fill:#0078C1;}
	.st4{filter:url(#Adobe_OpacityMaskFilter);}
	.st5{fill:#FFFFFF;}
	.st6{mask:url(#mask-2_1_);fill:#ED3124;}
	.st7{fill:#FEFEFE;}
	.st8{fill:#213067;}
	.st9{fill:#DE6F2E;}
	.st10{fill:#105699;}
	.st11{fill:#0D4A82;}
	.st12{fill:#DD473A;}
	.st13{fill:#0E0B0B;}
	.st14{fill:#92B32E;}
	.st15{fill:#010101;}
	.st16{fill:#C64732;}
	.st17{fill:#FDE034;}
	.st18{fill:#171D23;}
	.st19{fill:#359ADA;}
	.st20{fill:#2C75BD;}
	.st21{fill:#2E76BE;}
	.st22{fill:#DC4739;}
	.st23{fill:#DB8238;}
	.st24{fill:#748B81;}
	.st25{fill:#6891C3;}
	.st26{fill:#4A71A2;}
	.st27{fill:#003475;}
	.st28{fill:#114F85;}
	.st29{fill:#323232;}
	.st30{fill:#3D8F8C;}
	.st31{fill:#1561A5;}
	.st32{fill:#FACE33;}
	.st33{fill:#1562A6;}
	.st34{fill:#285F3B;}
	.st35{fill:#285E3B;}
	.st36{fill:#6FAE49;}
	.st37{fill:#F8FBF7;}
	.st38{fill:#214068;}
	.st39{fill:#D54939;}
	.st40{fill:#D71E28;}
	.st41{fill:#163A83;}
	.st42{fill:#163A82;}
	.st43{fill:#CF6628;}
	.st44{fill:#87ABD8;}
	.st45{fill:#2B89F9;}
	.st46{fill:#9B3C55;}
	.st47{fill:#A0A0A4;}
	.st48{fill:#A2A2A4;}
	.st49{fill:#A0A0A3;}
</style>
<g>
	<path class="st36" d="M78.1,0.6c0,22.9,0,45.8,0,68.8c-0.1,0.1-0.2,0-0.3,0c-25.4,0-50.8,0-76.2,0c-0.4,0-0.4,0.1-0.4-0.4
		c0-22.7,0-45.4,0-68.1c0-0.4,0-0.4,0.4-0.4c25.4,0,50.8,0,76.2,0C77.8,0.6,78,0.6,78.1,0.6z"/>
	<path class="st37" d="M78.1,0.6c-10.3,0-20.5,0-30.8,0c-15.2,0-30.4,0-45.7,0C1.1,0.6,1.2,0.6,1.2,1c0,22.6,0,45.3,0,67.9
		c0,0.5-0.1,0.4,0.4,0.4c25.4,0,50.8,0,76.1,0c0.1,0,0.2,0,0.4,0c0,0,0,0.1,0,0.1c-0.1,0-0.2,0-0.3,0c-25.5,0-50.9,0-76.4,0
		c-0.3,0-0.3-0.1-0.3-0.3c0-22.8,0-45.5,0-68.3c0-0.2,0-0.3,0.3-0.3c25.5,0,50.9,0,76.4,0C77.9,0.6,78,0.5,78.1,0.6z"/>
	<path class="st7" d="M32.8,14.5c7.3,0,14.6,0,21.9,0c2.3,0,4.6,0.4,6.7,1.3c2.9,1.3,4.9,3.4,6.2,6.3c0.9,2,1.3,4.1,1.6,6.2
		c0.4,2.9,0.4,5.9,0.2,8.9c-0.2,2.9-0.6,5.9-1.6,8.7c-0.8,2.2-2,4.2-3.9,5.7c-1.6,1.3-3.5,2-5.5,2.4c-2.1,0.4-4.3,0.6-6.5,0.6
		c-6,0-11.9,0-17.9,0c-0.3,0-0.4-0.1-0.4-0.4c0-10.5,0-21,0-31.5c0-0.3,0.1-0.4,0.4-0.4c2.8,0,5.5,0,8.3,0c0.3,0,0.4,0.1,0.4,0.4
		c0,8.6,0,17.2,0,25.7c0,0.5-0.1,0.5,0.5,0.5c2.7,0,5.5,0,8.2,0c1.4,0,2.7-0.2,3.9-0.9c1.5-0.8,2.4-2.1,3.1-3.6
		c0.7-1.6,1-3.3,1.2-5.1c0.3-2.7,0.3-5.3,0.2-8c-0.1-2.3-0.4-4.6-1.3-6.7c-1.1-2.5-3-3.9-5.7-4.2c-0.7-0.1-1.5-0.1-2.2-0.1
		c-6.3,0-12.7,0-19,0c-0.3,0-0.4,0.1-0.4,0.4c0,11.2,0,22.4,0,33.6c0,0.3-0.1,0.4-0.4,0.4c-2.7,0-5.4,0-8.1,0
		c-0.3,0-0.4-0.1-0.4-0.4c0-11.2,0-22.4,0-33.6c0-0.3-0.1-0.4-0.4-0.4c-4.1,0-8.2,0-12.3,0c-0.3,0-0.4-0.1-0.4-0.4
		c0-1.6,0-3.2,0-4.9c0-0.5,0-0.5,0.5-0.5C17.4,14.4,25.1,14.4,32.8,14.5C32.8,14.5,32.8,14.5,32.8,14.5z"/>
</g>
</svg>
