<?xml version="1.0" encoding="utf-8"?>
<!-- Generator: Adobe Illustrator 19.2.0, SVG Export Plug-In . SVG Version: 6.00 Build 0)  -->
<svg version="1.1" id="Layer_1" xmlns="http://www.w3.org/2000/svg" xmlns:xlink="http://www.w3.org/1999/xlink" x="0px" y="0px"
	 viewBox="0 0 961.5 70" style="enable-background:new 0 0 961.5 70;" xml:space="preserve">
<style type="text/css">
	.st0{fill:#8D53FB;}
	.st1{fill:#CF453A;}
	.st2{fill:#383A3C;}
	.st3{fill:#0078C1;}
	.st4{filter:url(#Adobe_OpacityMaskFilter);}
	.st5{fill:#FFFFFF;}
	.st6{mask:url(#mask-2_1_);fill:#ED3124;}
	.st7{fill:#FEFEFE;}
	.st8{fill:#213067;}
	.st9{fill:#DE6F2E;}
	.st10{fill:#105699;}
	.st11{fill:#0D4A82;}
	.st12{fill:#DD473A;}
	.st13{fill:#0E0B0B;}
	.st14{fill:#92B32E;}
	.st15{fill:#010101;}
	.st16{fill:#C64732;}
	.st17{fill:#FDE034;}
	.st18{fill:#171D23;}
	.st19{fill:#359ADA;}
	.st20{fill:#2C75BD;}
	.st21{fill:#2E76BE;}
	.st22{fill:#DC4739;}
	.st23{fill:#DB8238;}
	.st24{fill:#748B81;}
	.st25{fill:#6891C3;}
	.st26{fill:#4A71A2;}
	.st27{fill:#003475;}
	.st28{fill:#114F85;}
	.st29{fill:#323232;}
	.st30{fill:#3D8F8C;}
	.st31{fill:#1561A5;}
	.st32{fill:#FACE33;}
	.st33{fill:#1562A6;}
	.st34{fill:#285F3B;}
	.st35{fill:#285E3B;}
	.st36{fill:#6FAE49;}
	.st37{fill:#F8FBF7;}
	.st38{fill:#214068;}
	.st39{fill:#D54939;}
	.st40{fill:#D71E28;}
	.st41{fill:#163A83;}
	.st42{fill:#163A82;}
	.st43{fill:#CF6628;}
	.st44{fill:#87ABD8;}
	.st45{fill:#2B89F9;}
	.st46{fill:#9B3C55;}
	.st47{fill:#A0A0A4;}
	.st48{fill:#A2A2A4;}
	.st49{fill:#A0A0A3;}
</style>
<g>
	<path class="st38" d="M361.5,2.4c-1.1,0-2.3,0-3.4,0c-3.1,0-4.2,1.2-4.2,4.2c0,7.1,0,14.3,0,21.4c0,1.4-0.3,1.8-1.8,1.8
		c-7.8-0.1-15.7-0.1-23.5,0c-1.3,0-1.7-0.4-1.7-1.7c0.1-7.2,0-14.4,0-21.6c0-2.9-1.3-4.1-4.1-4.2c-1,0-2,0-3,0
		c-3.2,0-4.2,1.1-4.2,4.2c0,9.5,0,19.1,0,28.6c0,0.7,0,1.4,0,2.1c0,8.9,0,17.8,0,26.7c0,3.1,1,4.1,4.1,4.1c1.1,0,2.1,0,3.2,0
		c3.1,0,4.1-1,4.1-4.1c0-8,0.1-15.9,0-23.9c0-1.6,0.5-1.9,2-1.9c7.6,0.1,15.2,0.1,22.7,0c1.9,0,2.2,0.6,2.2,2.3
		c-0.1,8-0.1,15.9,0,23.9c0,2.6,1,3.5,3.5,3.7c1.4,0.1,2.8,0,4.2,0c2.5,0,3.7-1.2,3.7-3.7c0-19.4,0-38.8,0-58.1
		C365.2,3.8,363.9,2.5,361.5,2.4z"/>
	<path class="st38" d="M108,9.7c-0.6,0-1.1,0-1.7,0c-3.5,0-4.1,0.7-4.1,4.1c0,13.9,0,27.8,0,41.7c0,0.7,0,1.4,0,2
		c-0.1,0-0.3,0.1-0.4,0.1c-0.3-0.7-0.7-1.5-1-2.2c-6.3-14-12.6-28-18.9-42c-1.2-2.7-3.1-4-6-3.9c-2.1,0.1-4.3,0-6.4,0
		c-3.4,0-4.2,0.8-4.2,4.1c0,15.3,0,30.6,0,45.8c0,1.8,0,3.5,0,5.3c0.1,2.1,1,3.1,3.1,3.2c0.6,0,1.3,0,1.9,0c3.6,0,4.4-0.7,4.4-4.3
		c0-14,0-27.9,0-41.9c0-0.7,0-1.4,0-2.1c0.5,0.4,0.7,0.9,0.9,1.3c4,9,8,18,12,26.9c2.6,5.7,5.3,11.4,7.9,17.2
		c0.9,1.9,2.4,2.9,4.5,2.9c2.7,0,5.4,0.1,8.1,0c2.5,0,3.4-0.9,3.4-3.5c0-17.1,0-34.2,0-51.3C111.5,10.6,110.6,9.8,108,9.7z"/>
	<path class="st38" d="M698.8,51.6c0-3.9,0-7.8,0-11.7c0-1.8-0.6-2.6-2.4-2.5c-2.1,0.1-4.3,0-6.4,0c-2.3,0-2.6,0.4-2.6,2.7
		c0,6.2-0.1,12.5,0,18.7c0,1.8-0.6,2.3-2.2,2.5c-2.4,0.3-4.8,0.6-7.2,0.5c-6.9-0.3-12.1-3.4-14.6-9.8c-4.1-10.3-4.2-20.9-0.9-31.3
		C666,9.6,676,7,684.8,9.7c3.5,1.1,6.4,3.2,8.9,5.8c0.6,0.6,1.2,1.2,2.2,0.8c0.8-0.3,0.9-1.1,1-1.9c0.4-2.4,0.8-4.8,1.3-7.3
		c0.2-1.2-0.2-2-1.2-2.5c-0.7-0.4-1.5-0.7-2.2-1c-7.4-2.8-15-3.1-22.7-2.2c-11.2,1.3-19.4,8.2-22.5,19c-2.7,9.5-2.5,19-0.2,28.4
		c2,8.4,6.7,14.9,15.1,18.2c6.9,2.7,14,2.7,21.3,2.1c3.8-0.4,7.4-1.3,10.9-2.8c1.7-0.7,2.4-1.7,2.4-3.6
		C698.7,59,698.8,55.3,698.8,51.6z"/>
	<path class="st38" d="M43.2,2c-3.2,0-4.3,1.1-4.4,4.3c0,7.3,0,14.6,0,23.5c-0.2,6.1,0.3,13.8-0.2,21.4c-0.4,5.2-3,8.7-7.5,10
		c-3,0.9-6.1,1-9.2,0.4c-5.3-1-8.3-4.3-9.1-9.7c-0.2-1.7-0.3-3.4-0.3-5.1c0-13.6,0-27.1,0-40.7c0-2.5-1.1-3.9-3.3-4
		C7.6,1.9,6,1.9,4.3,2c-2,0.1-3.2,1.5-3.2,3.5c0,14.4-0.1,28.8,0.1,43.2c0.1,9.9,5.8,17,15.2,19.4c6.4,1.6,12.9,1.4,19.3-0.5
		c5-1.5,9-4.5,11.4-9.3c1.6-3.2,2.4-6.6,2.5-10.2c0-13.3,0-26.5,0-39.8C49.7,2.3,49.3,1.9,43.2,2z"/>
	<path class="st38" d="M617.9,9.7c-1.3,0-2.7,0-4,0c-2.9,0.1-3.8,1-3.8,3.9c0,6.2,0,12.4,0,18.6c0,1.3-0.4,1.7-1.7,1.7
		c-6.3-0.1-12.6-0.1-18.9,0c-1.6,0-2-0.4-1.9-2c0.1-6.1,0-12.1,0-18.2c0-3-0.9-3.9-3.8-3.9c-1.2,0-2.4,0-3.6,0
		c-3.1,0-3.9,0.9-3.9,3.9c0,8.4,0,16.8,0,25.2c0,2.7,0,5.3,0,8c0,6,0,12,0,18c0,2.3,0.9,3.2,3.2,3.3c1.3,0,2.7,0,4,0
		c3.3,0,4.1-0.8,4.1-4.1c0-6.8,0-13.5,0-20.3c0-1.5,0.4-1.8,1.8-1.8c6.2,0.1,12.4,0.1,18.6,0c1.6,0,2.2,0.3,2.2,2.1
		c-0.1,6.8-0.1,13.6,0,20.4c0,2.6,1,3.5,3.5,3.6c1.3,0,2.5,0,3.8,0c3.3,0,4-0.8,4-4c0-10.9,0-21.8,0-32.8c0-6,0-12,0-18
		C621.4,10.7,620.5,9.8,617.9,9.7z"/>
	<path class="st38" d="M754.3,63.3c-3.7-7-7.5-14-11.2-21c-0.5-0.9-0.8-1.4,0.6-1.8c11.3-3.7,12.4-14.3,8.8-22.1
		c-2.8-6-8.3-8-14.4-8.5c-7.4-0.6-14.9-0.2-22.3-0.2c-2.5,0-3.5,1-3.5,3.7c0,8.5,0,16.9,0,25.4c0,8.5,0,16.9,0,25.4
		c0,3.1,0.8,3.9,3.9,3.9c1,0,2,0,3,0c4,0,4.6-0.6,4.6-4.6c0-14.7,0-29.4,0-44.1c0-0.6,0-1.1,0-1.7c-0.1-0.8,0.3-1.1,1.1-1.1
		c3.8,0.1,7.6-0.3,11.3,0.2c3.3,0.4,5.8,2.2,6.7,5.6c1.8,7.7-0.5,13.9-9.9,13.5c-0.1,0-0.3,0-0.4,0c-2.8,0-3.5,1-2.3,3.5
		c4.6,9,9.2,18.1,13.8,27.1c0.5,1,1.3,1.7,2.5,1.7c2.3,0,4.5,0,6.8,0c1.5,0,2-1,1.7-2.3C755.2,64.8,754.8,64,754.3,63.3z"/>
	<path class="st38" d="M870.2,22.4c0-3,0-5.9,0-8.9c0-2.9-0.8-3.7-3.7-3.8c-0.9,0-1.9,0-2.8,0c-3,0.1-3.8,0.9-3.8,3.9
		c0,6.3,0,12.6,0,18.9c0,0,0,0,0,0c0,6.4,0.1,12.8,0,19.1c-0.1,5.8-2.5,9.4-7.2,10.7c-2,0.5-4.1,0.5-6.2,0.3
		c-4.3-0.4-6.9-2.7-8.1-6.8c-0.6-2-0.7-4.1-0.7-6.2c0-12.1,0-24.3,0-36.4c0-2.6-0.9-3.6-3.5-3.6c-1.6,0-3.3-0.1-4.9,0
		c-2,0.1-3,1.1-3,3.1c0,12.8-0.1,25.5,0,38.3c0.1,8.2,4.9,14.4,12.7,16.9c4.6,1.5,9.3,1.6,14.1,1c10.3-1.4,17-7.3,17.2-18.1
		C870.2,41.4,870.1,31.9,870.2,22.4z"/>
	<path class="st38" d="M414.6,60.1c-6.9,0-13.8-0.1-20.6,0c-1.7,0-2.1-0.5-2.1-2.1c0.1-4.8,0.1-9.6,0-14.4c0-1.6,0.5-1.9,1.9-1.8
		c6,0.1,12,0,18,0c1.3,0,2.5-0.1,3.1-1.3c0.9-1.6,0.8-3.4,0.1-5.1c-0.7-1.5-2.1-1.6-3.6-1.6c-6,0-12,0-18,0c-1.2,0-1.6-0.3-1.6-1.6
		c0.1-4.2,0.1-8.5,0-12.7c0-1.7,0.5-2,2.1-1.9c6.7,0.1,13.4,0,20.1,0c2.9,0,3.8-1.1,3.9-3.9c0-3.1-0.9-4-3.9-4c-9.8,0-19.6,0-29.4,0
		c-3.3,0-4.1,0.9-4.1,4.2c0,8.4,0,16.8,0,25.2c0,8.4,0,16.8,0,25.2c0,3,0.7,3.8,3.8,3.8c6.2,0,12.4,0,18.6,0c4.3,0,8.6,0,12.9,0
		c1.4,0,2.7-0.4,3.2-1.9C420.2,62.5,418.4,60.1,414.6,60.1z"/>
	<path class="st38" d="M238.9,60.1c-7,0-14-0.1-21,0c-1.6,0-2-0.5-1.9-2c0.1-4.9,0.1-9.7,0-14.6c0-1.4,0.3-1.8,1.8-1.8
		c6.1,0.1,12.1,0,18.2,0c1.3,0,2.5-0.2,3.3-1.5c1.8-3.2-0.1-6.5-3.7-6.5c-5.9,0-11.9-0.1-17.8,0c-1.5,0-1.8-0.4-1.7-1.8
		c0.1-4.2,0.1-8.5,0-12.7c0-1.5,0.4-1.8,1.8-1.7c6.8,0.1,13.6,0.1,20.4,0c2.7,0,3.6-1,3.6-3.9c0-3.1-0.8-4.1-3.6-4.1
		c-10,0-19.9,0-29.9,0c-2.8,0-3.7,0.9-3.7,3.8c0,8.5,0,17,0,25.6c0,8.6,0,17.3,0,25.9c0,2.1,0.8,3,2.7,3.1c11,0,22,0,32.9,0
		c1.1,0,2-0.4,2.5-1.4C244.4,63.4,242.5,60.1,238.9,60.1z"/>
	<path class="st38" d="M908,9.8c-7-0.2-14-0.1-21-0.1c-3,0-3.8,0.8-3.8,3.9c0,8.4,0,16.8,0,25.2c0,8.6,0,17.2,0,25.8
		c0,2.6,0.8,3.4,3.4,3.5c1.5,0,3,0,4.5,0c2.3,0,3.2-0.9,3.2-3.2c0-2.6,0-5.2,0-7.8c0-12.9,0-25.8,0-38.6c0-1.7,0.5-2.1,2.1-2
		c2.6,0.1,5.2,0,7.8,0c5.3,0.1,8.7,2.8,9.7,7.8c0.3,1.4,0.4,2.8,0.4,4.1c-0.1,5.7-2.9,9.4-7.9,10.2c-1.6,0.3-3.3,0.2-4.9,0.3
		c-2.5,0.1-3.7,0.9-3.8,2.5c-0.1,1.7,1.1,2.9,3.4,3.3c2.4,0.4,4.9,0.6,7.4,0.4c9.4-0.5,15.2-5.4,16.3-14.7
		C925.9,19.7,920.8,10.1,908,9.8z"/>
	<path class="st38" d="M562.4,9.7c-12.8,0-25.6,0-38.4,0c-2.9,0-3.6,1-3.6,4.5c0,2.7,0.9,3.7,3.6,3.7c3.7,0,7.5,0.1,11.2,0
		c1.8-0.1,2.3,0.4,2.3,2.2c-0.1,14.2,0,28.4,0,42.6c0,0.6,0,1.3,0,1.9c0.1,2.6,1,3.5,3.6,3.6c1.3,0,2.5,0,3.8,0c3,0,4.1-1,4.1-4.1
		c0-7.3,0-14.6,0-22c0-7.5,0-15,0-22.5c0-1.3,0.3-1.7,1.7-1.7c3.9,0.1,7.8,0,11.7,0c2.6,0,3.5-1,3.5-3.8
		C565.9,10.7,565.2,9.7,562.4,9.7z"/>
	<path class="st38" d="M191,9.7c-12.2,0-24.5,0-36.7,0c-2.7,0-3.5,1.1-3.4,4.5c0,2.7,1,3.7,3.6,3.7c3.7,0,7.3,0.1,11,0
		c1.3,0,1.7,0.4,1.7,1.7c-0.1,7.5,0,15,0,22.5c0,7.4,0,14.9,0,22.3c0,2.6,1.1,3.7,3.7,3.7c1.2,0,2.4,0,3.6,0c3.2,0,4.1-1,4.1-4.2
		c0-14.8,0-29.5,0-44.3c0-1.4,0.3-1.8,1.7-1.8c3.6,0.1,7.2,0.1,10.8,0c2.5,0,3.5-1,3.5-3.6C194.6,10.7,193.8,9.7,191,9.7z"/>
	<path class="st38" d="M518.1,59.8c-5.6,0-11.1-0.1-16.7,0c-1.6,0-2-0.4-2-2c0.1-12.7,0-25.4,0-38c0-2.3,0-4.5,0-6.8
		c0-2.3-1-3.2-3.2-3.3c-1.5-0.1-3,0-4.5,0c-2.8,0.1-3.7,1-3.7,3.8c0,8.5,0,16.9,0,25.4c0,8.5,0,16.9,0,25.4c0,2.9,0.9,3.8,3.7,3.8
		c8.8,0,17.7,0,26.5,0c3,0,3.7-0.9,3.7-4.4C522,60.7,521.1,59.8,518.1,59.8z"/>
	<path class="st38" d="M137.3,9.7c-1.4-0.1-2.9,0-4.4,0c-2.8,0-3.7,0.9-3.7,3.7c0,8.5,0,16.9,0,25.4c0,8.6,0,17.2,0,25.7
		c0,2.5,0.9,3.4,3.4,3.5c1.4,0.1,2.8,0,4.2,0c2.9,0,3.8-0.9,3.8-3.8c0-11.9,0-23.8,0-35.8c0-5.1,0-10.2,0-15.3
		C140.6,10.8,139.6,9.8,137.3,9.7z"/>
	<path class="st38" d="M947.3,16.7c-0.2-4.9-4.1-8.5-9.2-8.3c-4.5,0.2-8.2,4.2-8,8.6c0.2,4.9,4,8.3,9,8.2
		C943.7,25,947.4,21.2,947.3,16.7z M938.4,23.9c-3.9,0-6.7-3-6.7-7.2c0-4,2.9-7.1,6.8-7.1c3.8,0,6.8,3.2,6.8,7.1
		C945.2,20.9,942.2,24,938.4,23.9z"/>
	<path class="st38" d="M279.4,9.9c-7.4-0.4-14.9-0.2-22.3-0.2c-3.1,0-3.9,0.9-3.9,4c0,8.4,0,16.8,0,25.2c0,8.5,0,17.1,0,25.6
		c0,2.6,0.9,3.6,3.5,3.6c7.4,0,14.8,0.1,22.2,0c10.3-0.2,17.7-5.4,20.9-14.5c2.9-8.4,2.8-17,0.9-25.6C298,16.6,291,10.5,279.4,9.9z
		 M289.5,49.8c-1.9,7.5-6.6,11.2-14.4,11.5c-3,0.1-6.1,0-9.1,0.1c-1.3,0-1.7-0.4-1.7-1.7c0.1-6.9,0-13.9,0-20.8c0-6.9,0-13.9,0-20.8
		c0-1.3,0.3-1.7,1.7-1.7c3,0.1,5.9,0,8.9,0.1c7.5,0.2,12.2,3.8,14.2,11C291.3,34.8,291.4,42.3,289.5,49.8z"/>
	<path class="st38" d="M461.7,16.2c-2.1-6.5-2.1-6.5-8.9-6.5c-0.8,0-1.5,0-2.3,0c-4.3,0-4.7,0.3-6,4.4c-2.3,7.2-4.7,14.5-7,21.8
		c-3.1,9.6-6.1,19.2-9.2,28.8c-0.8,2.4-0.1,3.4,2.5,3.4c0.8,0,1.6,0,2.5,0c2.9,0,4-0.8,4.8-3.6c0.9-2.9,1.8-5.8,2.6-8.7
		c0.3-1,0.7-1.3,1.7-1.3c6.2,0,12.5,0,18.7,0c1,0,1.4,0.3,1.7,1.3c0.9,3.1,2,6.2,3,9.4c0.6,1.8,1.8,2.8,3.8,2.9c1.6,0,3.3,0,4.9,0
		c2.9,0,3.7-1,2.7-3.9C472,48.1,466.8,32.1,461.7,16.2z M458.2,47.4c-4.5-0.1-9.1-0.1-13.6,0c-1.2,0-1.4-0.3-1.1-1.4
		c2.7-8.9,5.3-17.7,8-26.6c0.1-0.2,0.2-0.3,0.4-0.6c2.6,9.1,5.1,18,7.6,26.9C460,47.1,459.6,47.4,458.2,47.4z"/>
	<path class="st38" d="M941,17c1.2-0.5,1.5-1.6,1.3-2.9c-0.1-1.2-0.9-1.9-2-2.2c-1.4-0.4-2.9-0.1-4.3-0.2c-0.7,0-0.8,0.5-0.8,1
		c0,2.6,0,5.3,0,7.9c0,0.6,0.2,0.9,0.9,0.9c0.8,0,0.7-0.5,0.7-1c0-0.7,0-1.4,0-2.1c0-0.5-0.2-1.1,0.6-1.2c0.6-0.1,0.9,0.1,1.2,0.6
		c0.5,0.9,1.2,1.8,1.7,2.7c0.5,0.9,1.1,1.2,2.1,0.7c-0.6-1-1.2-1.9-1.8-2.8C940.2,17.9,939.9,17.5,941,17z M938.3,16.1
		c-1,0.2-1.5-0.1-1.5-1.5c0-1.3,0.5-1.6,1.7-1.5c1.1,0.1,2.3,0,2.4,1.5C940.8,16.1,939.6,16.2,938.3,16.1z"/>
	<path class="st38" d="M800.1,10c-4.4-1.6-9-1.8-13.6-1.6c-10.5,0.5-18.1,6.2-21,16.3c-2.9,9.9-2.7,19.8,0.4,29.6
		c2.3,7.4,7.4,12.4,15.1,14.2c5,1.2,10,1.2,15,0.3c8.2-1.5,13.7-6.2,16.6-14c1.9-5,2.4-10.1,2.5-15.4c-0.2-4.6-0.4-9.1-1.6-13.5
		C811.6,18.5,807.6,12.7,800.1,10z M807.6,51.4c-2.3,6.1-6.6,9.8-13,11c-4,0.7-7.9,0.7-11.8-0.2c-6-1.5-10-5.3-11.8-11.1
		c-2.4-7.7-2.6-15.5-0.3-23.2c2.3-7.9,8.2-12.3,16.5-12.7c3.6-0.2,7.2,0,10.7,1.3c5.9,2.1,9,6.7,10.5,12.5c0.9,3.5,1.1,7,1.2,10.6
		C809.5,43.5,809.1,47.5,807.6,51.4z"/>
</g>
</svg>
