<?xml version="1.0" encoding="utf-8"?>
<!-- Generator: Adobe Illustrator 19.2.0, SVG Export Plug-In . SVG Version: 6.00 Build 0)  -->
<svg version="1.1" id="Layer_1" xmlns="http://www.w3.org/2000/svg" xmlns:xlink="http://www.w3.org/1999/xlink" x="0px" y="0px"
	 viewBox="0 0 110.3 70" style="enable-background:new 0 0 110.3 70;" xml:space="preserve">
<style type="text/css">
	.st0{fill:#8D53FB;}
	.st1{fill:#CF453A;}
	.st2{fill:#383A3C;}
	.st3{fill:#0078C1;}
	.st4{filter:url(#Adobe_OpacityMaskFilter);}
	.st5{fill:#FFFFFF;}
	.st6{mask:url(#mask-2_1_);fill:#ED3124;}
	.st7{fill:#FEFEFE;}
	.st8{fill:#213067;}
	.st9{fill:#DE6F2E;}
	.st10{fill:#105699;}
	.st11{fill:#0D4A82;}
	.st12{fill:#DD473A;}
	.st13{fill:#0E0B0B;}
	.st14{fill:#92B32E;}
	.st15{fill:#010101;}
	.st16{fill:#C64732;}
	.st17{fill:#FDE034;}
	.st18{fill:#171D23;}
	.st19{fill:#359ADA;}
	.st20{fill:#2C75BD;}
	.st21{fill:#2E76BE;}
	.st22{fill:#DC4739;}
	.st23{fill:#DB8238;}
	.st24{fill:#748B81;}
	.st25{fill:#6891C3;}
	.st26{fill:#4A71A2;}
	.st27{fill:#003475;}
	.st28{fill:#114F85;}
	.st29{fill:#323232;}
	.st30{fill:#3D8F8C;}
	.st31{fill:#1561A5;}
	.st32{fill:#FACE33;}
	.st33{fill:#1562A6;}
	.st34{fill:#285F3B;}
	.st35{fill:#285E3B;}
	.st36{fill:#6FAE49;}
	.st37{fill:#F8FBF7;}
	.st38{fill:#214068;}
	.st39{fill:#D54939;}
	.st40{fill:#D71E28;}
	.st41{fill:#163A83;}
	.st42{fill:#163A82;}
	.st43{fill:#CF6628;}
	.st44{fill:#87ABD8;}
	.st45{fill:#2B89F9;}
	.st46{fill:#9B3C55;}
	.st47{fill:#A0A0A4;}
	.st48{fill:#A2A2A4;}
	.st49{fill:#A0A0A3;}
</style>
<path class="st39" d="M106.9,7.8c-0.4-4.9-3.7-7.8-8.4-7.2c-3.9,0.6-7,2.6-9.5,5.7c-0.4,0.6-0.7,0.9,0,1.5c3.2,2.8,4,6.5,3.9,10.4
	c-0.3,11.8-5,21.8-12.7,30.5c-3.7,4.2-8.2,7.4-13.8,8.7c-3.2,0.7-6.3,1-9.4-0.6c-1.5-0.8-1.7-1.3-0.3-2.6
	c7.5-7.1,13.7-15.1,17.9-24.6c1.5-3.5,2.6-7.1,2.5-10.9c-0.2-4.3-2.4-6.7-6.8-6.9c-3.7-0.2-7.2,0.7-10.1,2.7
	c-13.7,9.6-20.4,22.9-20,39.7c0,0.9,0.1,1.5-1,1.9c-7.4,2.7-13-0.9-13.4-8.7c0-0.6,0-1.1,0-1.7c0.2-6.2,2.2-11.9,4.9-17.4
	c3-6.2,6.8-11.9,10.3-17.8c1.1-1.9,2.2-3.7,2.8-5.9c0.2-1,0.3-1.7-1.3-1.3c-5.5,1.5-11,1.6-16.6,1.2c-4.4-0.3-8.9-0.9-13.4,0.3
	C7.1,6.2,1.5,13,1.7,18c3.5-1.4,4.9-1.7,8.8-1.5c6.3,0.4,12.7,2.3,19.1-0.6c-0.2,1.1-0.9,1.6-1.3,2.2c-5.3,6.6-9.9,13.7-13.1,21.6
	c-2,5-3.4,10.1-3.2,15.5c0.3,8.8,5.6,13.7,14.3,13.9c5.9,0.1,11.1-1.7,16.2-4.3c1-0.5,1.6-0.5,2.4,0.3c2.7,2.7,6.1,3.8,9.9,4
	c7,0.4,13.3-1.7,19.1-5.3c12.7-7.7,21.6-18.8,28-32.1C105.4,24.2,107.5,16.3,106.9,7.8z M53.2,47c0.7-9.2,3.7-17.5,10.2-24.2
	c1.2-1.3,2.9-2.9,4.7-1.7c1.6,1.1,0.6,3.1,0,4.6C65,34.1,59.7,40.9,53.2,47z"/>
</svg>
