<?xml version="1.0" encoding="utf-8"?>
<!-- Generator: Adobe Illustrator 19.2.0, SVG Export Plug-In . SVG Version: 6.00 Build 0)  -->
<svg version="1.1" id="Layer_1" xmlns="http://www.w3.org/2000/svg" xmlns:xlink="http://www.w3.org/1999/xlink" x="0px" y="0px"
	 viewBox="0 0 682.9 70" style="enable-background:new 0 0 682.9 70;" xml:space="preserve">
<style type="text/css">
	.st0{fill:#8D53FB;}
	.st1{fill:#CF453A;}
	.st2{fill:#383A3C;}
	.st3{fill:#0078C1;}
	.st4{filter:url(#Adobe_OpacityMaskFilter);}
	.st5{fill:#FFFFFF;}
	.st6{mask:url(#mask-2_1_);fill:#ED3124;}
	.st7{fill:#FEFEFE;}
	.st8{fill:#213067;}
	.st9{fill:#DE6F2E;}
	.st10{fill:#105699;}
	.st11{fill:#0D4A82;}
	.st12{fill:#DD473A;}
	.st13{fill:#0E0B0B;}
	.st14{fill:#92B32E;}
	.st15{fill:#010101;}
	.st16{fill:#C64732;}
	.st17{fill:#FDE034;}
	.st18{fill:#171D23;}
	.st19{fill:#359ADA;}
	.st20{fill:#2C75BD;}
	.st21{fill:#2E76BE;}
	.st22{fill:#DC4739;}
	.st23{fill:#DB8238;}
	.st24{fill:#748B81;}
	.st25{fill:#6891C3;}
	.st26{fill:#4A71A2;}
	.st27{fill:#003475;}
	.st28{fill:#114F85;}
	.st29{fill:#323232;}
	.st30{fill:#3D8F8C;}
	.st31{fill:#1561A5;}
	.st32{fill:#FACE33;}
	.st33{fill:#1562A6;}
	.st34{fill:#285F3B;}
	.st35{fill:#285E3B;}
	.st36{fill:#6FAE49;}
	.st37{fill:#F8FBF7;}
	.st38{fill:#214068;}
	.st39{fill:#D54939;}
	.st40{fill:#D71E28;}
	.st41{fill:#163A83;}
	.st42{fill:#163A82;}
	.st43{fill:#CF6628;}
	.st44{fill:#87ABD8;}
	.st45{fill:#2B89F9;}
	.st46{fill:#9B3C55;}
	.st47{fill:#A0A0A4;}
	.st48{fill:#A2A2A4;}
	.st49{fill:#A0A0A3;}
</style>
<g>
	<path id="Shape" class="st40" d="M145.8,45.1h6.6V67H97.3v-8h7.8V10.9H92.5L76.4,67H63.7l-13-46.5L37.3,67H24.6L8.4,10.9H1.1v-8H31
		v8h-8.6l10.7,38.7L45.9,2.9h13.2l13.1,46.7l10.5-38.8h-9v-8h77.7v20.8h-6.6l-0.6-2.5c-2-7.7-4.1-10.4-10.3-10.4h-15.2v19.3h18.4
		c0.7,1.4,1,2.9,1,4.4c0,1.6-0.3,3.2-1,4.6h-18.4v19.9h15.9c6,0,8.6-2.6,10.4-10.7L145.8,45.1z M203.7,48.3
		c-1.8,8.2-4.4,10.7-10.4,10.7h-12.7V10.9h8.7v-8H159v8h7.8v48.2H159l0,8h52V45.1h-6.6L203.7,48.3z M261.4,48.3
		c-1.8,8.2-4.4,10.7-10.4,10.7h-12.7V10.9h8.7v-8h-30.1v8h7.8v48.2h-7.8v8h52V45.1h-6.6L261.4,48.3z M309.7,29.5L298,26.8
		c-6.8-1.6-9.6-4.2-9.6-8.7c0-5.4,4.3-8.8,12.7-8.8c8.4,0,13.4,3,15.3,10.2l0.8,3.1h6.6V6.8c-7.2-3.7-15.2-5.7-23.3-5.7
		c-15.7,0-25.7,7.5-25.7,19.6c0,9.3,5.9,16.2,17.1,18.7l11.6,2.6c7.4,1.6,10.2,4.6,10.2,9.4c0,6-4.5,9.3-13.5,9.3
		c-10.2,0-15.4-4-17.7-11.7l-1.2-3.9h-6.6v18c8.4,4.2,17.7,6.2,27,6c15.4,0,25.5-7.7,25.5-19.7C327.3,39.1,321.2,32.1,309.7,29.5z
		 M398,10.9c6.1,0,8.2,2.7,10.3,10.4l0.6,2.5h6.6V2.9h-55.2v8h7.8v48.2h-7.8v8h30.6v-8h-9.2V40.4h18.9c0.7-1.4,1.1-3,1-4.6
		c0-1.5-0.3-3-1-4.4h-18.9V10.9L398,10.9z M537.6,59.8c1.1,2.4,1.1,5.1,0,7.5c-2.4,0.3-4.8,0.5-7.1,0.5c-8.9,0-13.2-3.7-14.2-12.2
		l-0.4-3.2c-1.1-9.3-4.1-12.8-14.2-12.8h-5v19.5h8.7v8h-57.6v-8h7.5L451,47.6h-23.8L423,59.1h7.7v8h-24.3v-8h6.4l22.4-56.2h12.2
		l22.9,56.2H483V10.9h-7.8v-8H512c13.1,0,21.6,6.5,21.6,17c0,10.4-8.5,15.9-16.8,16.2v0.3c8.3,0.6,11.7,5.3,12.6,12.6l0.4,3.4
		c0.5,5.3,1.6,7.7,5.9,7.7C536.3,60,537,59.9,537.6,59.8L537.6,59.8z M448.1,39.8l-9-24.3l-9,24.3H448.1z M519.8,21.1
		c0-6.7-4.1-10.3-12.4-10.3h-10.8v20.6h10.8C515.6,31.5,519.8,27.7,519.8,21.1L519.8,21.1z M574.5,37.8c-0.1,1.6,0.3,3.1,1,4.5h10.9
		v16.2c-3.4,1.4-7.1,2.1-10.8,2.1c-13.2,0-20.1-9.4-20.1-25.7s6.9-25.7,19.3-25.7c7.3-0.4,13.9,4.3,16,11.3l1,2.6h6.6V6.6
		c-7.5-3.8-15.9-5.7-24.3-5.7c-20.2,0-33.7,13.5-33.7,34.1c0,20.7,13.2,33.9,33.7,33.9c9-0.2,17.7-2.6,25.7-6.8V33.5h-24.4
		C574.8,34.8,574.5,36.3,574.5,37.8L574.5,37.8z M676.5,34.9c-0.1,18.8-15.3,34-34.1,34c-18.8,0-34-15.2-34.1-34
		c0.1-18.8,15.3-34,34.1-34C661.2,0.9,676.5,16.1,676.5,34.9z M661.5,34.9c0-16.2-6.7-25.7-19.1-25.7c-12.4,0-19.1,9.4-19.1,25.7
		c0,16.3,6.6,25.7,19.1,25.7S661.5,51.2,661.5,34.9L661.5,34.9z"/>
</g>
</svg>
